<?xml version="1.0" standalone="no"?>
<!DOCTYPE svg PUBLIC "-//W3C//DTD SVG 1.1//EN" "http://www.w3.org/Graphics/SVG/1.1/DTD/svg11.dtd" >
<svg xmlns="http://www.w3.org/2000/svg" xmlns:xlink="http://www.w3.org/1999/xlink" version="1.1">
<metadata>
Created by FontForge 20170731 at Mon Jun 14 10:24:04 2021
 By Aleksey,,,
Copyright (c) 2018 by Gumpita Rahayu. All rights reserved.
</metadata>
<defs>
<font id="Mohave-Italic" horiz-adv-x="958" >
  <font-face 
    font-family="Mohave"
    font-weight="400"
    font-style="italic"
    font-stretch="normal"
    units-per-em="2048"
    panose-1="0 0 5 0 0 0 0 0 0 0"
    ascent="1597"
    descent="-451"
    x-height="1114"
    cap-height="1536"
    bbox="-461 -825 1955.78 2019"
    underline-thickness="118"
    underline-position="-282"
    slope="-8"
    unicode-range="U+0020-FB02"
  />
<missing-glyph horiz-adv-x="1034" 
d="M90 0l215 1536h696l-215 -1536h-696zM244 135h428l176 1266h-426z" />
    <glyph glyph-name="fi" unicode="fi" horiz-adv-x="1110" 
d="M139 0l133 958h-204l20 156h205l10 72q23 163 135.5 266.5t270.5 103.5h84l-25 -163h-82q-86 0 -145.5 -57t-71.5 -150l-10 -72h270l-20 -156h-271l-135 -958h-164zM897 1231l35 244h166l-35 -244h-166zM725 0l158 1114h164l-156 -1114h-166z" />
    <glyph glyph-name="fl" unicode="fl" horiz-adv-x="1110" 
d="M139 0l133 958h-204l20 156h205l10 72q23 163 135.5 266.5t270.5 103.5h84l-25 -163h-82q-86 0 -145.5 -57t-71.5 -150l-10 -72h270l-20 -156h-271l-135 -958h-164zM725 0l215 1536h166l-215 -1536h-166z" />
    <glyph glyph-name="f_f" unicode="ff" horiz-adv-x="1323" 
d="M139 0l133 958h-204l20 156h205l10 72q23 163 135.5 266.5t270.5 103.5h84l-25 -163h-82q-86 0 -145.5 -57t-71.5 -150l-10 -72h270l-20 -156h-271l-135 -958h-164zM801 0l133 958h-205l21 156h204l11 72q23 164 135.5 267t269.5 103h84l-24 -163h-82q-86 0 -146 -57
t-72 -150l-10 -72h271l-21 -156h-270l-135 -958h-164z" />
    <glyph glyph-name="f_f_i" unicode="ffi" horiz-adv-x="1771" 
d="M139 0l133 958h-204l20 156h205l10 72q23 163 135.5 266.5t270.5 103.5h84l-25 -163h-82q-86 0 -145.5 -57t-71.5 -150l-10 -72h270l-20 -156h-271l-135 -958h-164zM801 0l133 958h-205l21 156h204l11 72q23 164 135.5 267t269.5 103h84l-24 -163h-82q-86 0 -146 -57
t-72 -150l-10 -72h271l-21 -156h-270l-135 -958h-164zM1559 1231l34 244h166l-35 -244h-165zM1386 0l158 1114h164l-156 -1114h-166z" />
    <glyph glyph-name="f_f_l" unicode="ffl" horiz-adv-x="1771" 
d="M139 0l133 958h-204l20 156h205l10 72q23 163 135.5 266.5t270.5 103.5h84l-25 -163h-82q-86 0 -145.5 -57t-71.5 -150l-10 -72h270l-20 -156h-271l-135 -958h-164zM801 0l133 958h-205l21 156h204l11 72q23 164 135.5 267t269.5 103h84l-24 -163h-82q-86 0 -146 -57
t-72 -150l-10 -72h271l-21 -156h-270l-135 -958h-164zM1386 0l216 1536h165l-215 -1536h-166z" />
    <glyph glyph-name=".notdef" horiz-adv-x="1034" 
d="M90 0l215 1536h696l-215 -1536h-696zM244 135h428l176 1266h-426z" />
    <glyph glyph-name="uni0000" horiz-adv-x="1228" 
 />
    <glyph glyph-name="uni0000" horiz-adv-x="1228" 
 />
    <glyph glyph-name="nonmarkingreturn" horiz-adv-x="682" 
 />
    <glyph glyph-name="space" unicode=" " horiz-adv-x="446" 
 />
    <glyph glyph-name="exclam" unicode="!" horiz-adv-x="567" 
d="M180 430l156 1106h172l-156 -1106h-172zM121 0l43 307h172l-43 -307h-172z" />
    <glyph glyph-name="quotedbl" unicode="&#x22;" horiz-adv-x="872" 
d="M229 1077l146 459h164l-146 -459h-164zM543 1077l145 459h166l-147 -459h-164z" />
    <glyph glyph-name="numbersign" unicode="#" horiz-adv-x="1177" 
d="M1139 1012h-170l-62 -439h172l-24 -172h-172l-56 -401h-172l56 401l-285 2l-55 -403h-172l55 403h-172l24 170h173l61 441h-174l24 170h175l49 352h172l-49 -352h282l49 352h172l-49 -352h172zM735 573l62 439l-285 2l-61 -441h284z" />
    <glyph glyph-name="dollar" unicode="$" horiz-adv-x="1015" 
d="M707 1565q138 -19 208.5 -120t47.5 -255l-9 -55h-172l9 55q12 75 -18 128t-91 71l-76 -547q138 -19 208.5 -120t47.5 -255l-18 -121q-23 -155 -120.5 -255.5t-240.5 -119.5l-24 -176h-113l25 176q-139 17 -211 119t-47 256l8 55h172l-8 -55q-11 -77 18 -130.5t92 -70.5
l74 533q-139 17 -210 118.5t-48 256.5l20 137q23 156 121 257t242 118l24 176h113zM383 1053q-10 -76 19.5 -130t91.5 -71l75 539q-67 -17 -111.5 -70.5t-54.5 -130.5zM690 467q11 77 -18 130.5t-90 70.5l-74 -521q65 17 109.5 70t54.5 129z" />
    <glyph glyph-name="percent" unicode="%" horiz-adv-x="1454" 
d="M395 834q-111 0 -170.5 69t-42.5 182l31 224q17 114 95 184t190 70q110 0 169 -70t44 -184l-33 -224q-15 -114 -92.5 -182.5t-190.5 -68.5zM240 0l888 1536h146l-889 -1536h-145zM414 967q51 0 86.5 32.5t44.5 85.5l30 224q7 54 -19.5 87.5t-76.5 33.5q-52 0 -87.5 -33.5
t-43.5 -87.5l-33 -224q-7 -52 21 -85t78 -33zM1018 -27q-111 0 -171.5 69.5t-43.5 182.5l33 224q17 114 94.5 183.5t189.5 69.5q110 0 170 -70t43 -183l-33 -224q-17 -115 -93.5 -183.5t-188.5 -68.5zM1036 106q51 0 86 33t43 86l33 224q7 54 -19.5 87t-76.5 33
q-52 0 -88 -33t-45 -87l-31 -224q-8 -53 19.5 -86t78.5 -33z" />
    <glyph glyph-name="ampersand" unicode="&#x26;" horiz-adv-x="1095" 
d="M442 -27q-165 0 -251 104.5t-60 274.5l21 140q15 109 69 193.5t135 131.5l-123 279l13 88q25 171 140 275t280 104q164 0 251.5 -103.5t61.5 -275.5l-8 -56h-172l8 56q15 94 -31 150.5t-133 56.5t-149.5 -56.5t-75.5 -150.5l-12 -88l307 -682l143 440h143l-202 -637
l84 -188l-4 -29h-160l-31 68q-98 -95 -244 -95zM467 145q99 0 160 64l-203 453q-85 -56 -100 -170l-21 -140q-14 -93 30.5 -150t133.5 -57z" />
    <glyph glyph-name="quotesingle" unicode="'" horiz-adv-x="557" 
d="M229 1077l146 459h164l-146 -459h-164z" />
    <glyph glyph-name="parenleft" unicode="(" horiz-adv-x="675" 
d="M381 -369q-165 0 -251.5 104.5t-61.5 274.5l170 1209q25 171 138.5 274.5t278.5 103.5h117l-22 -172h-117q-88 0 -149 -56t-74 -150l-170 -1209q-12 -94 33 -150.5t133 -56.5h116l-24 -172h-117z" />
    <glyph glyph-name="parenright" unicode=")" horiz-adv-x="675" 
d="M-82 -369l25 172h116q89 0 150.5 56.5t73.5 150.5l168 1209q12 94 -32.5 150t-131.5 56h-117l23 172h116q165 0 251 -103.5t63 -274.5l-168 -1209q-23 -170 -139 -274.5t-281 -104.5h-117z" />
    <glyph glyph-name="asterisk" unicode="*" horiz-adv-x="925" 
d="M903 1339l-221 -116l188 -119l-77 -109l-189 119l-29 -209h-124l28 209l-221 -119l-47 109l221 119l-188 118l75 109l189 -119l29 205h127l-29 -207l221 119z" />
    <glyph glyph-name="plus" unicode="+" horiz-adv-x="1101" 
d="M1001 643l-24 -172h-350l-43 -309h-172l43 309h-353l25 172h350l43 311h172l-43 -311h352z" />
    <glyph glyph-name="comma" unicode="," horiz-adv-x="559" 
d="M61 -117l136 373h163l-135 -373h-164z" />
    <glyph glyph-name="hyphen" unicode="-" horiz-adv-x="872" 
d="M129 471l25 172h589l-24 -172h-590z" />
    <glyph glyph-name="period" unicode="." horiz-adv-x="565" 
d="M119 0l35 256h172l-35 -256h-172z" />
    <glyph glyph-name="slash" unicode="/" horiz-adv-x="724" 
d="M-94 -102l786 1699h180l-786 -1699h-180z" />
    <glyph glyph-name="zero" unicode="0" horiz-adv-x="1021" 
d="M651 1569q165 0 253 -104.5t63 -274.5l-119 -844q-25 -171 -140 -275t-280 -104q-164 0 -250 104.5t-61 274.5l119 844q25 171 138 275t277 104zM289 346q-5 -30 -2 -63l448 1083q-45 31 -106 31q-88 0 -148.5 -56.5t-72.5 -150.5zM795 1190q4 44 2 61l-449 -1081
q42 -31 105 -31q88 0 149.5 57t73.5 150z" />
    <glyph glyph-name="one" unicode="1" horiz-adv-x="593" 
d="M176 0l166 1188h-215l25 172h43q81 0 130.5 41t61.5 112l4 23h172l-215 -1536h-172z" />
    <glyph glyph-name="two" unicode="2" horiz-adv-x="917" 
d="M596 1569q165 0 250.5 -104t62.5 -275l-20 -152q-10 -74 -50 -144.5t-96 -128t-122.5 -113t-133 -109.5t-122.5 -107t-96 -116t-50 -127l-2 -21h551l-25 -172h-731l21 147q13 94 55.5 179.5t101 149.5t126.5 122.5t135 111t123.5 102.5t95.5 108t47 118l20 152
q12 94 -33 150.5t-133 56.5q-86 0 -147 -56.5t-74 -150.5l-8 -55h-172l8 55q25 171 139 275t279 104z" />
    <glyph glyph-name="three" unicode="3" horiz-adv-x="948" 
d="M590 1569q166 0 253 -104.5t62 -274.5l-16 -111q-27 -190 -162 -293q107 -104 80 -292l-21 -148q-25 -172 -139 -275.5t-280 -103.5q-164 0 -251 105t-61 274l8 55h173l-9 -55q-14 -93 31.5 -150t132.5 -57q88 0 149.5 57t73.5 150l21 148q13 94 -31.5 150t-132.5 56
h-127l25 172h127q87 0 148 57t73 150l16 111q14 94 -31.5 150.5t-134.5 56.5q-87 0 -147.5 -56t-73.5 -151l-8 -55h-172l8 55q26 171 139.5 275t276.5 104z" />
    <glyph glyph-name="four" unicode="4" horiz-adv-x="980" 
d="M920 1536l-146 -1042h139l-24 -170h-139l-45 -324h-173l46 324h-564l23 155l717 1057h166zM602 494l100 727l-485 -727h385z" />
    <glyph glyph-name="five" unicode="5" horiz-adv-x="989" 
d="M973 1364h-537l-59 -422q85 82 211 82q162 0 247 -104.5t60 -274.5l-43 -299q-25 -171 -139.5 -275t-280.5 -104q-165 0 -251 104.5t-60 274.5l8 55h172l-8 -55q-14 -93 31.5 -150t132.5 -57q88 0 149.5 57t73.5 150l43 299q12 93 -34.5 150t-139.5 57q-85 0 -143 -56.5
t-70 -150.5l-2 -20h-174l127 911h708z" />
    <glyph glyph-name="six" unicode="6" horiz-adv-x="1003" 
d="M651 1569q165 0 253.5 -105t62.5 -274l-9 -55h-172l9 55q13 93 -33 150t-133 57t-148 -57t-73 -150l-35 -248q85 82 211 82q160 0 246 -104.5t61 -274.5l-43 -299q-25 -171 -139.5 -275t-280.5 -104q-164 0 -250 104.5t-61 274.5l119 844q25 171 138 275t277 104z
M545 852q-85 0 -143 -56.5t-72 -150.5l-41 -299q-14 -94 30.5 -150.5t133.5 -56.5q88 0 149.5 57t73.5 150l43 299q12 93 -34.5 150t-139.5 57z" />
    <glyph glyph-name="seven" unicode="7" horiz-adv-x="798" 
d="M172 1536h715l-23 -154l-579 -1382h-183l584 1364h-539z" />
    <glyph glyph-name="eight" unicode="8" horiz-adv-x="995" 
d="M639 1569q166 0 252 -104.5t61 -274.5l-16 -113q-28 -193 -162 -291q109 -109 82 -294l-22 -146q-25 -171 -139 -275t-279 -104t-252 104.5t-62 274.5l21 146q27 184 162 294q-51 48 -72 123t-8 168l16 113q25 171 139 275t279 104zM780 1190q13 93 -32 150t-132 57
q-88 0 -149 -56t-74 -151l-16 -113q-13 -94 32.5 -150.5t133.5 -56.5q86 0 147 56.5t74 150.5zM684 492q12 93 -33.5 149.5t-132.5 56.5q-86 0 -148 -57t-75 -149l-21 -146q-12 -94 32.5 -150.5t133.5 -56.5q87 0 148.5 57t73.5 150z" />
    <glyph glyph-name="nine" unicode="9" horiz-adv-x="1005" 
d="M635 1569q165 0 251.5 -104.5t61.5 -274.5l-119 -844q-25 -171 -138.5 -275t-278.5 -104t-252.5 104.5t-61.5 274.5l8 55h173l-9 -55q-14 -93 31.5 -150t134.5 -57q88 0 148.5 56.5t72.5 150.5l35 248q-85 -82 -213 -82q-159 0 -244.5 105t-60.5 274l43 299
q25 171 139.5 275t278.5 104zM776 1190q13 94 -31.5 150.5t-132.5 56.5t-148.5 -56.5t-74.5 -150.5l-43 -299q-12 -93 34.5 -150t139.5 -57q85 0 143 56.5t72 150.5z" />
    <glyph glyph-name="colon" unicode=":" horiz-adv-x="565" 
d="M360 492l-4 -31l-6 -43l-26 -185h-172l32 228l29 213h172z" />
    <glyph glyph-name="semicolon" unicode=";" horiz-adv-x="561" 
d="M395 674l-43 -182h19l-99 -324h-172l60 199h-2l73 307h164z" />
    <glyph glyph-name="less" unicode="&#x3c;" horiz-adv-x="886" 
d="M682 0l-606 479l18 129l740 475l-25 -180l-547 -360l447 -363z" />
    <glyph glyph-name="equal" unicode="=" horiz-adv-x="1114" 
d="M227 676l25 172h692l-24 -172h-693zM170 266l25 172h692l-25 -172h-692z" />
    <glyph glyph-name="greater" unicode="&#x3e;" horiz-adv-x="884" 
d="M45 0l27 180l546 363l-446 360l25 180l606 -475l-17 -129z" />
    <glyph glyph-name="question" unicode="?" horiz-adv-x="897" 
d="M305 354l10 72q11 75 42 141.5t70.5 112.5t85 93t83.5 84.5t66.5 85t35.5 95.5l21 152q12 94 -33 150.5t-133 56.5q-87 0 -147.5 -56t-73.5 -151l-8 -55h-172l8 55q26 171 139.5 275t278.5 104q163 0 249.5 -104.5t63.5 -274.5l-21 -152q-10 -72 -50 -138.5t-91 -119.5
t-101.5 -105t-90.5 -116.5t-50 -132.5l-10 -72h-172zM258 0l35 260h172l-35 -260h-172z" />
    <glyph glyph-name="at" unicode="@" horiz-adv-x="1398" 
d="M838 1563q238 0 364 -146t92 -385l-143 -1032h-166l12 78q-43 -47 -109.5 -76t-133.5 -29q-134 0 -204.5 95t-47.5 251l43 318q23 157 122.5 251.5t235.5 94.5q66 0 123.5 -27.5t83.5 -70.5l20 147q22 166 -64.5 266.5t-252.5 100.5q-159 0 -273 -101t-137 -266
l-124 -885q-21 -144 55 -235.5t223 -91.5h424l-20 -166h-424q-220 0 -336.5 136t-85.5 357l123 885q34 239 199.5 385t400.5 146zM813 129q85 0 146 52t73 138l43 318q12 84 -33.5 136t-130.5 52q-77 0 -133.5 -52t-66.5 -136l-45 -318q-11 -86 29 -138t118 -52z" />
    <glyph glyph-name="A" unicode="A" horiz-adv-x="940" 
d="M700 1536l109 -1536h-176l-19 297h-360l-104 -297h-177l543 1536h184zM307 469h299l-43 756z" />
    <glyph glyph-name="B" unicode="B" horiz-adv-x="1044" 
d="M692 1536q153 0 233 -96.5t58 -255.5l-20 -131q-24 -161 -132 -258q48 -48 69.5 -119.5t8.5 -157.5l-22 -166q-23 -158 -130 -255t-259 -97h-400l215 1536h379zM598 870q76 0 129 50.5t64 132.5l20 131q10 82 -29 131t-114 49h-207l-70 -494h207zM737 518
q12 83 -28 131.5t-115 48.5h-227l-72 -526h227q74 0 127.5 49t65.5 131z" />
    <glyph glyph-name="C" unicode="C" horiz-adv-x="974" 
d="M864 401l-8 -55q-26 -171 -140.5 -275t-279.5 -104t-251.5 104.5t-61.5 274.5l119 844q25 171 139 275t278 104q165 0 253.5 -105t62.5 -274l-8 -55h-172l8 55q13 93 -33 150t-133 57q-88 0 -148.5 -56.5t-74.5 -150.5l-119 -844q-12 -94 33 -150.5t133 -56.5
q87 0 147.5 56t75.5 151l8 55h172z" />
    <glyph glyph-name="D" unicode="D" horiz-adv-x="1040" 
d="M98 0l215 1536h353q164 0 250 -103.5t63 -275.5l-109 -778q-25 -170 -139 -274.5t-280 -104.5h-353zM295 172h180q87 0 148.5 57t74.5 150l109 778q12 94 -32.5 150.5t-133.5 56.5h-180z" />
    <glyph glyph-name="E" unicode="E" horiz-adv-x="884" 
d="M934 1536l-25 -172h-448l-72 -504h395l-22 -172h-395l-72 -516h448l-24 -172h-621l215 1536h621z" />
    <glyph glyph-name="F" unicode="F" horiz-adv-x="854" 
d="M98 0l215 1536h621l-25 -172h-448l-86 -608h395l-25 -172h-395l-80 -584h-172z" />
    <glyph glyph-name="G" unicode="G" horiz-adv-x="1011" 
d="M436 -33q-165 0 -251.5 104.5t-61.5 274.5l119 844q25 171 139 275t278 104q165 0 253.5 -105t62.5 -274l-8 -55h-172l8 55q13 93 -33 150t-133 57q-88 0 -148.5 -56.5t-74.5 -150.5l-119 -844q-12 -94 33 -150.5t133 -56.5t148.5 56.5t74.5 150.5l31 223h-195l25 172
h366l-55 -395q-25 -172 -140.5 -275.5t-279.5 -103.5z" />
    <glyph glyph-name="H" unicode="H" horiz-adv-x="1054" 
d="M98 0l215 1536h172l-110 -780h360l109 780h172l-215 -1536h-172l82 584h-361l-80 -584h-172z" />
    <glyph glyph-name="I" unicode="I" horiz-adv-x="524" 
d="M270 0h-172l215 1536h172z" />
    <glyph glyph-name="J" unicode="J" horiz-adv-x="671" 
d="M-45 -12l25 172h108q87 0 148 57t73 150l164 1169h172l-164 -1169q-25 -171 -140 -275t-278 -104h-108z" />
    <glyph glyph-name="K" unicode="K" horiz-adv-x="1007" 
d="M1069 1536l-473 -575l289 -961h-187l-241 788l-92 -110l-95 -678h-172l215 1536h172l-79 -573l479 573h184z" />
    <glyph glyph-name="L" unicode="L" horiz-adv-x="796" 
d="M485 1536l-190 -1364h407l-24 -172h-580l215 1536h172z" />
    <glyph glyph-name="M" unicode="M" horiz-adv-x="1335" 
d="M1124 1536h172l-215 -1536h-163l139 997l-404 -997h-129l-123 987l-139 -987h-164l215 1536h172l150 -1225z" />
    <glyph glyph-name="N" unicode="N" horiz-adv-x="1075" 
d="M872 1536h164l-215 -1536h-145l-262 1090l-152 -1090h-164l215 1536h146l262 -1085z" />
    <glyph glyph-name="O" unicode="O" horiz-adv-x="1038" 
d="M436 -33q-165 0 -251.5 104.5t-61.5 274.5l119 844q25 171 139 275t278 104q165 0 253 -104.5t63 -274.5l-119 -844q-25 -171 -140 -275t-280 -104zM461 139q88 0 148.5 56.5t74.5 150.5l119 844q12 94 -33 150.5t-133 56.5t-148.5 -56.5t-74.5 -150.5l-119 -844
q-12 -94 33 -150.5t133 -56.5z" />
    <glyph glyph-name="P" unicode="P" horiz-adv-x="970" 
d="M98 0l215 1536h379q152 0 233 -96t58 -256l-27 -172q-23 -163 -130 -259t-259 -96h-207l-90 -657h-172zM385 829h207q76 0 128.5 50.5t63.5 132.5l27 172q10 82 -29 131t-114 49h-207z" />
    <glyph glyph-name="Q" unicode="Q" horiz-adv-x="1038" 
d="M659 1569q165 0 253 -104.5t63 -274.5l-119 -844q-13 -97 -58.5 -175t-115.5 -128l37 -229h-174l-27 161q-36 -8 -82 -8q-165 0 -251.5 104.5t-61.5 274.5l119 844q25 171 139 275t278 104zM803 1190q12 94 -33 150.5t-133 56.5t-148.5 -56.5t-74.5 -150.5l-119 -844
q-12 -94 33 -150.5t133 -56.5q20 0 28 2l-51 308h178l33 -203q27 48 35 100z" />
    <glyph glyph-name="R" unicode="R" horiz-adv-x="1046" 
d="M692 1536q151 0 232 -95.5t59 -256.5l-31 -213q-28 -190 -166 -287q114 -74 93 -233l-62 -451h-172l62 451q9 75 -30.5 120t-115.5 45h-207l-84 -616h-172l215 1536h379zM811 1184q11 82 -28 131t-115 49h-207l-82 -576h207q76 0 129.5 50.5t64.5 132.5z" />
    <glyph glyph-name="S" unicode="S" horiz-adv-x="964" 
d="M401 -33q-165 0 -252 104.5t-61 274.5l8 55h172l-8 -55q-14 -93 31.5 -150t134.5 -57q87 0 148 57t73 150l19 121q12 94 -32.5 150.5t-133.5 56.5q-165 0 -252 104t-62 275l21 137q25 170 139 274.5t279 104.5q164 0 251.5 -105t61.5 -274l-8 -55h-172l8 55
q15 93 -31.5 150t-132.5 57q-88 0 -149.5 -57t-73.5 -150l-21 -137q-12 -93 33.5 -150t132.5 -57q165 0 252 -104.5t62 -274.5l-19 -121q-25 -171 -139.5 -275t-278.5 -104z" />
    <glyph glyph-name="T" unicode="T" horiz-adv-x="761" 
d="M217 0l191 1364h-258l24 172h688l-24 -172h-258l-191 -1364h-172z" />
    <glyph glyph-name="U" unicode="U" horiz-adv-x="1062" 
d="M1034 1536l-166 -1190q-25 -173 -140.5 -276t-278.5 -103q-162 0 -249 102.5t-63 276.5l166 1190h172l-166 -1190q-13 -94 31.5 -150.5t132.5 -56.5q89 0 150 56.5t73 150.5l166 1190h172z" />
    <glyph glyph-name="V" unicode="V" horiz-adv-x="940" 
d="M848 1536h178l-541 -1536h-184l-113 1536h179l75 -1188z" />
    <glyph glyph-name="W" unicode="W" horiz-adv-x="1339" 
d="M1225 1536h176l-426 -1536h-184l-48 1067l-350 -1067h-184l4 1536h176l-14 -1147l356 1147h152l35 -1149z" />
    <glyph glyph-name="X" unicode="X" horiz-adv-x="935" 
d="M1022 1536l-434 -766l219 -770h-178l-160 553l-317 -553h-179l437 770l-222 766h179l161 -553l316 553h178z" />
    <glyph glyph-name="Y" unicode="Y" horiz-adv-x="960" 
d="M893 1536h176l-471 -762l-109 -774h-172l109 774l-260 762h176l195 -584z" />
    <glyph glyph-name="Z" unicode="Z" horiz-adv-x="866" 
d="M932 1536l-19 -131l-710 -1233h538l-24 -172h-723l18 131l709 1233h-537l25 172h723z" />
    <glyph glyph-name="bracketleft" unicode="[" horiz-adv-x="700" 
d="M41 -369l274 1966h484l-25 -172h-311l-225 -1622h311l-25 -172h-483z" />
    <glyph glyph-name="backslash" unicode="\" horiz-adv-x="1204" 
d="M1184 -102h-180l-787 1699h180z" />
    <glyph glyph-name="bracketright" unicode="]" horiz-adv-x="698" 
d="M-82 -369l25 172h311l227 1622h-311l23 172h483l-275 -1966h-483z" />
    <glyph glyph-name="asciicircum" unicode="^" horiz-adv-x="901" 
d="M158 1020l368 516h129l219 -516h-165l-142 352l-241 -352h-168z" />
    <glyph glyph-name="underscore" unicode="_" horiz-adv-x="1146" 
d="M90 -213l25 172h751l-24 -172h-752z" />
    <glyph glyph-name="grave" unicode="`" horiz-adv-x="436" 
d="M334 1245l-135 352h174l88 -352h-127z" />
    <glyph glyph-name="a" unicode="a" 
d="M729 1114h164l-156 -1114h-164l11 70q-95 -95 -232 -95q-140 0 -216.5 92t-51.5 265l61 450q25 173 128 265t243 92q138 0 203 -97zM682 782q12 88 -29.5 140.5t-128.5 52.5q-86 0 -143.5 -53t-69.5 -140l-63 -450q-12 -87 31 -140t127 -53q88 0 145.5 52t69.5 139z" />
    <glyph glyph-name="b" unicode="b" 
d="M606 1139q140 0 216 -92t52 -265l-61 -450q-24 -172 -127.5 -264.5t-243.5 -92.5q-136 0 -202 95l-11 -70h-166l216 1536h165l-71 -494q94 97 233 97zM711 782q11 87 -32 140t-128 53q-88 0 -144.5 -52.5t-68.5 -140.5l-62 -452q-12 -87 29.5 -139t128.5 -52
q86 0 143.5 53t69.5 140z" />
    <glyph glyph-name="c" unicode="c" horiz-adv-x="886" 
d="M784 360l-2 -20q-17 -162 -129 -263.5t-272 -101.5q-157 0 -240.5 100.5t-60.5 264.5l59 436q23 163 135.5 263t270.5 100q157 0 236 -99.5t61 -263.5l-2 -20h-164l4 26q9 87 -32 140t-128 53q-85 0 -144 -53.5t-71 -139.5l-61 -450q-12 -87 31 -140t128 -53
q87 0 145.5 53.5t67.5 139.5l5 28h163z" />
    <glyph glyph-name="d" unicode="d" 
d="M788 1536h164l-215 -1536h-164l11 70q-95 -95 -232 -95q-140 0 -216.5 92t-51.5 265l61 450q25 173 128 265t243 92q138 0 203 -97zM682 782q12 88 -29.5 140.5t-128.5 52.5q-86 0 -143.5 -53t-69.5 -140l-63 -450q-12 -87 31 -140t127 -53q88 0 145.5 52t69.5 139z" />
    <glyph glyph-name="e" unicode="e" horiz-adv-x="917" 
d="M545 1139q156 0 240 -100.5t59 -262.5l-35 -248h-539l-26 -196q-12 -87 31 -140t128 -53q87 0 145.5 53.5t67.5 139.5l5 28h163l-2 -20q-17 -162 -129 -263.5t-272 -101.5q-157 0 -240.5 100.5t-60.5 264.5l59 436q23 163 135.5 263t270.5 100zM680 782q12 87 -31 140
t-129 53q-85 0 -144 -53.5t-71 -139.5l-14 -98h375z" />
    <glyph glyph-name="f" unicode="f" horiz-adv-x="661" 
d="M139 0l133 958h-204l20 156h205l10 72q23 163 135.5 266.5t270.5 103.5h84l-25 -163h-82q-86 0 -145.5 -57t-71.5 -150l-10 -72h270l-20 -156h-271l-135 -958h-164z" />
    <glyph glyph-name="g" unicode="g" horiz-adv-x="940" 
d="M711 1114h166l-158 -1126q-23 -162 -136 -262.5t-270 -100.5q-158 0 -238 100t-61 265l4 28h164l-4 -36q-9 -88 32 -140.5t126 -52.5q86 0 145.5 53t71.5 140l33 231q-94 -94 -234 -94q-139 0 -215.5 91.5t-52.5 264.5l43 307q24 173 126.5 265t242.5 92q139 0 204 -97z
M664 782q12 88 -29.5 140.5t-128.5 52.5q-86 0 -144 -53t-69 -140l-43 -307q-12 -87 31 -139.5t127 -52.5q89 0 145.5 51.5t67.5 138.5z" />
    <glyph glyph-name="h" unicode="h" horiz-adv-x="962" 
d="M610 1141q135 0 207 -89t49 -245l-112 -807h-164l108 784q12 87 -29 139t-122 52q-83 0 -140 -52.5t-69 -138.5l-109 -784h-166l216 1536h165l-69 -494q93 99 235 99z" />
    <glyph glyph-name="i" unicode="i" horiz-adv-x="448" 
d="M236 1231l34 244h166l-35 -244h-165zM63 0l158 1114h164l-156 -1114h-166z" />
    <glyph glyph-name="j" unicode="j" horiz-adv-x="448" 
d="M233 1231l35 244h166l-35 -244h-166zM-242 -375l23 164h65q86 0 144.5 57t70.5 150l158 1118h164l-154 -1110q-25 -172 -136 -275.5t-269 -103.5h-66z" />
    <glyph glyph-name="k" unicode="k" horiz-adv-x="880" 
d="M889 1114l-348 -381l254 -733h-174l-207 590l-121 -133l-64 -457h-166l216 1536h165l-116 -829l385 407h176z" />
    <glyph glyph-name="l" unicode="l" horiz-adv-x="448" 
d="M63 0l216 1536h165l-215 -1536h-166z" />
    <glyph glyph-name="m" unicode="m" horiz-adv-x="1488" 
d="M1135 1139q133 0 206.5 -87t51.5 -247l-113 -805h-164l109 782q12 86 -30 139.5t-122 53.5q-83 0 -140 -53t-69 -140l-110 -782h-164l108 782q12 87 -29 140t-122 53q-83 0 -140 -53t-69 -140l-109 -782h-166l158 1114h164l-10 -74q93 99 235 99q88 0 153.5 -40
t92.5 -116q45 75 116.5 115.5t162.5 40.5z" />
    <glyph glyph-name="n" unicode="n" horiz-adv-x="960" 
d="M610 1139q138 0 207.5 -96.5t46.5 -260.5l-110 -782h-164l108 782q12 87 -29 140t-122 53q-83 0 -140 -53t-69 -140l-109 -782h-166l158 1114h164l-12 -78q92 103 237 103z" />
    <glyph glyph-name="o" unicode="o" horiz-adv-x="923" 
d="M381 -25q-157 0 -240.5 100.5t-60.5 264.5l59 436q23 163 135.5 263t270.5 100q157 0 239.5 -100t59.5 -263l-62 -436q-23 -164 -133.5 -264.5t-267.5 -100.5zM403 139q86 0 144 53t69 140l64 450q12 87 -31 140t-129 53q-85 0 -144 -53.5t-71 -139.5l-61 -450
q-12 -87 31 -140t128 -53z" />
    <glyph glyph-name="p" unicode="p" horiz-adv-x="956" 
d="M606 1139q140 0 216 -92t52 -265l-61 -450q-24 -173 -127 -265t-244 -92q-136 0 -202 95l-62 -439h-166l209 1483h164l-10 -72q94 97 231 97zM711 782q11 87 -32 140t-128 53q-88 0 -144.5 -52.5t-68.5 -140.5l-62 -452q-12 -88 29 -139.5t129 -51.5q86 0 143.5 53
t69.5 140z" />
    <glyph glyph-name="q" unicode="q" horiz-adv-x="956" 
d="M727 1114h166l-207 -1474h-164l62 432q-94 -97 -232 -97q-141 0 -217.5 92t-52.5 265l63 450q24 173 126.5 265t242.5 92t205 -97zM682 782q12 87 -30.5 140t-129.5 53q-86 0 -143.5 -53t-69.5 -140l-63 -450q-11 -87 32 -140t128 -53q88 0 144 51.5t68 139.5z" />
    <glyph glyph-name="r" unicode="r" horiz-adv-x="583" 
d="M608 1126h47l-22 -163h-88q-84 0 -140.5 -51t-68.5 -138l-107 -774h-166l158 1114h164l-12 -86q95 98 235 98z" />
    <glyph glyph-name="s" unicode="s" horiz-adv-x="868" 
d="M356 -25q-157 0 -239 93t-62 247l4 35h164l-6 -43q-10 -76 35.5 -122t128.5 -46q86 0 143.5 56t57.5 141q0 65 -42.5 104t-115.5 39q-140 0 -221.5 74t-81.5 199q0 167 113 277t282 110q156 0 237.5 -93.5t59.5 -246.5l-4 -33h-166l6 41q12 74 -30.5 121t-124.5 47
q-89 0 -148 -56t-59 -141q0 -65 42.5 -104t116.5 -39q139 0 221.5 -74.5t82.5 -198.5q0 -166 -112.5 -276.5t-281.5 -110.5z" />
    <glyph glyph-name="t" unicode="t" horiz-adv-x="686" 
d="M481 -12q-160 0 -242 99t-59 269l84 605h-196l20 153h197l41 279h163l-38 -279h266l-21 -153h-266l-84 -605q-13 -92 30 -148t128 -56h80l-23 -164h-80z" />
    <glyph glyph-name="u" unicode="u" horiz-adv-x="962" 
d="M733 1114h166l-158 -1114h-163l10 74q-93 -99 -234 -99q-135 0 -208 90.5t-48 264.5l109 784h166l-111 -784q-12 -86 30 -138.5t124 -52.5t139.5 52.5t69.5 138.5z" />
    <glyph glyph-name="v" unicode="v" horiz-adv-x="858" 
d="M741 1114h177l-465 -1114h-199l-158 1114h178l113 -862z" />
    <glyph glyph-name="w" unicode="w" horiz-adv-x="1144" 
d="M999 1114h172l-335 -1114h-183l-51 766l-266 -766h-182l-25 1114h172l-10 -852l284 852h152l43 -852z" />
    <glyph glyph-name="x" unicode="x" horiz-adv-x="811" 
d="M870 1114l-381 -557l226 -557h-176l-158 385l-264 -385h-174l381 557l-226 557h176l156 -385l264 385h176z" />
    <glyph glyph-name="y" unicode="y" horiz-adv-x="858" 
d="M737 1114h181l-631 -1483h-176l149 349l-162 1134h178l115 -852z" />
    <glyph glyph-name="z" unicode="z" horiz-adv-x="782" 
d="M811 1114l-18 -129l-590 -821h465l-25 -164h-672l19 129l598 819h-473l24 166h672z" />
    <glyph glyph-name="braceleft" unicode="{" horiz-adv-x="774" 
d="M481 -369q-165 0 -250.5 104t-60.5 275l55 393q8 56 -19 91.5t-79 35.5h-102l24 172h103q52 0 87.5 34t43.5 91l55 392q25 170 140 274t278 104h118l-24 -172h-117q-88 0 -149 -56t-74 -150l-55 -392q-7 -63 -40 -119t-81 -92q37 -39 53.5 -94.5t9.5 -118.5l-55 -393
q-13 -94 31.5 -150.5t132.5 -56.5h117l-23 -172h-119z" />
    <glyph glyph-name="bar" unicode="|" horiz-adv-x="598" 
d="M264 -307h-172l266 1904h172z" />
    <glyph glyph-name="braceright" unicode="}" horiz-adv-x="776" 
d="M-82 -369l25 172h116q88 0 150 57t74 150l55 393q9 63 41.5 119.5t79.5 93.5q-38 37 -54.5 92t-7.5 119l54 392q12 94 -32.5 150t-131.5 56h-117l23 172h116q165 0 251 -103.5t63 -274.5l-54 -392q-9 -57 17.5 -91t79.5 -34h102l-25 -172h-102q-51 0 -87.5 -35t-43.5 -92
l-55 -393q-23 -170 -138.5 -274.5t-281.5 -104.5h-117z" />
    <glyph glyph-name="asciitilde" unicode="~" horiz-adv-x="1165" 
d="M158 406l6 43q13 110 84 172.5t182 62.5q47 0 87 -12.5t67.5 -31t52 -36.5t51 -30.5t53.5 -12.5q40 0 64.5 23.5t30.5 62.5l6 43h162l-7 -53q-17 -107 -81 -168t-158 -61q-52 0 -99 20.5t-76.5 45t-68.5 45t-76 20.5q-45 0 -75.5 -27t-36.5 -72l-4 -34h-164z" />
    <glyph glyph-name="uni00A0" unicode="&#xa0;" horiz-adv-x="446" 
 />
    <glyph glyph-name="exclamdown" unicode="&#xa1;" horiz-adv-x="567" 
d="M231 807l43 307h172l-43 -307h-172zM59 -422l156 1106h172l-156 -1106h-172z" />
    <glyph glyph-name="cent" unicode="&#xa2;" horiz-adv-x="993" 
d="M643 1135q132 -17 196.5 -113.5t49.5 -245.5l-2 -20h-164l4 26q8 73 -19 122.5t-87 64.5l-115 -824q66 15 108 65.5t50 121.5l4 28h163l-2 -20q-15 -148 -110 -245.5t-236 -114.5l-26 -185h-113l27 185q-132 19 -199 115.5t-45 244.5l59 436q22 147 115 243.5t229 115.5
l27 184h113zM291 332q-11 -71 16.5 -120.5t85.5 -64.5l115 820q-62 -17 -104 -66t-52 -119z" />
    <glyph glyph-name="sterling" unicode="&#xa3;" horiz-adv-x="1107" 
d="M778 1563q163 0 250 -104.5t62 -274.5l-7 -56h-172l7 56q13 93 -32 150t-132 57q-88 0 -150 -57t-74 -150l-47 -336h283l-21 -158h-284l-74 -532h451l-23 -158h-768l23 158h145l74 532h-146l21 158h147l47 336q25 173 140 276t280 103z" />
    <glyph glyph-name="currency" unicode="&#xa4;" horiz-adv-x="1148" 
d="M178 141l-74 90l156 138q-33 64 -33 141q0 73 24 140.5t62 113.5l-114 135l98 90l121 -137q89 59 205 59q115 0 190 -57l152 135l79 -90l-153 -133q33 -68 33 -143q0 -71 -25.5 -139t-64.5 -115l116 -138l-104 -90l-115 140q-86 -58 -205 -58q-115 0 -188 58zM547 369
q94 0 161.5 68t67.5 163q0 74 -49 120t-125 46q-95 0 -162 -67.5t-67 -161.5q0 -76 49 -122t125 -46z" />
    <glyph glyph-name="yen" unicode="&#xa5;" horiz-adv-x="1064" 
d="M1122 1536l-465 -752h209l-22 -157h-213l-31 -221h213l-22 -156h-213l-35 -250h-172l35 250h-216l23 156h215l31 221h-215l20 157h211l-258 752h178l197 -559l352 559h178z" />
    <glyph glyph-name="brokenbar" unicode="&#xa6;" horiz-adv-x="598" 
d="M426 850h-172l104 747h172zM264 -307h-172l105 747h172z" />
    <glyph glyph-name="section" unicode="&#xa7;" horiz-adv-x="1019" 
d="M422 -98q-156 0 -235 104t-62 275l2 20h164l-2 -29q-9 -92 32.5 -148t124.5 -56q88 0 144.5 55.5t56.5 140.5q0 65 -43 103.5t-115 38.5q-140 0 -222.5 74.5t-82.5 199.5q0 91 43 172.5t107 128.5q-41 35 -62.5 90t-21.5 115q0 160 112.5 268.5t278.5 108.5
q155 0 233 -102t72 -277v-21h-174l4 31q15 92 -30 148.5t-128 56.5q-88 0 -145 -56t-57 -141q0 -65 43 -104t116 -39q139 0 221.5 -74.5t82.5 -198.5q0 -90 -42.5 -172.5t-105.5 -130.5q38 -32 60 -85.5t22 -116.5q0 -160 -112 -269.5t-279 -109.5zM512 563q86 0 143.5 56
t57.5 141q0 65 -43.5 104t-116.5 39q-88 0 -145.5 -55.5t-57.5 -140.5q0 -66 44 -105t118 -39z" />
    <glyph glyph-name="dieresis" unicode="&#xa8;" horiz-adv-x="722" 
d="M256 1358l33 239h147l-33 -239h-147zM547 1358l33 239h147l-35 -239h-145z" />
    <glyph glyph-name="copyright" unicode="&#xa9;" horiz-adv-x="1724" 
d="M778 -27q-293 0 -464 176t-171 472q0 199 66 374t179.5 299.5t272.5 196.5t340 72q296 0 468.5 -172.5t172.5 -464.5q0 -159 -42.5 -305.5t-121 -263.5t-184.5 -203.5t-239 -133.5t-277 -47zM797 94q151 0 285 63t230 171t152 258t56 319q0 244 -144.5 390.5
t-390.5 146.5q-152 0 -285.5 -61.5t-228.5 -167t-150 -254t-55 -316.5q0 -252 142.5 -400.5t388.5 -148.5zM825 289q-101 0 -153.5 62.5t-38.5 164.5l69 504q14 102 84 164.5t172 62.5q99 0 151 -62.5t38 -164.5l-4 -39h-123l4 39q6 46 -16.5 75t-67.5 29t-77 -29t-38 -75
l-69 -504q-6 -46 17.5 -75t68.5 -29q44 0 76 29t36 75l7 39h120l-4 -39q-14 -101 -83 -164t-169 -63z" />
    <glyph glyph-name="ordfeminine" unicode="&#xaa;" horiz-adv-x="743" 
d="M504 1556q95 0 145.5 -61.5t36.5 -159.5l-65 -465h-115l6 41q-58 -55 -147 -55q-76 0 -118 41t-42 107q0 45 13 80.5t37 58.5t44 36t47 25t91.5 30t95.5 37.5t34 55.5l2 16q6 42 -15.5 70.5t-66.5 28.5q-44 0 -75.5 -28t-32.5 -71v-26h-113v18q6 98 73.5 159.5
t164.5 61.5zM532 1073l17 109q-18 -12 -43 -20.5t-56 -16t-47 -12.5q-79 -29 -79 -97q0 -32 22.5 -52.5t63.5 -20.5q51 0 83.5 28.5t38.5 81.5z" />
    <glyph glyph-name="guillemotleft" unicode="&#xab;" horiz-adv-x="1112" 
d="M428 0l-395 451l14 98l520 450l-28 -200l-334 -299l250 -299zM936 0l-395 451l14 98l518 450l-26 -200l-336 -299l252 -299z" />
    <glyph glyph-name="logicalnot" unicode="&#xac;" horiz-adv-x="1150" 
d="M723 233l33 238h-621l25 172h792l-57 -410h-172z" />
    <glyph glyph-name="uni00AD" unicode="&#xad;" horiz-adv-x="872" 
d="M139 471l25 172h590l-25 -172h-590z" />
    <glyph glyph-name="registered" unicode="&#xae;" horiz-adv-x="1724" 
d="M778 -27q-293 0 -464 176t-171 472q0 199 66 374t179.5 299.5t272.5 196.5t340 72q296 0 468.5 -172.5t172.5 -464.5q0 -159 -42.5 -305.5t-121 -263.5t-184.5 -203.5t-239 -133.5t-277 -47zM797 94q151 0 285 63t230 171t152 258t56 319q0 244 -144.5 390.5
t-390.5 146.5q-152 0 -285.5 -61.5t-228.5 -167t-150 -254t-55 -316.5q0 -252 142.5 -400.5t388.5 -148.5zM608 307l129 922h228q94 0 142.5 -59.5t35.5 -157.5l-17 -133q-15 -110 -98 -168q67 -49 53 -138l-34 -266h-123l37 266q5 40 -16 64.5t-60 24.5h-105l-51 -355h-121
zM797 784h104q40 0 68.5 26t34.5 69l18 133q5 42 -15 69t-61 27h-104z" />
    <glyph glyph-name="macron" unicode="&#xaf;" horiz-adv-x="737" 
d="M281 1536h452l-18 -129h-453z" />
    <glyph glyph-name="degree" unicode="&#xb0;" horiz-adv-x="841" 
d="M487 1047q-95 0 -159 60t-64 157q0 122 88 210.5t209 88.5q96 0 160.5 -60.5t64.5 -156.5q0 -123 -88 -211t-211 -88zM506 1167q61 0 109.5 46.5t48.5 111.5q0 53 -35 85t-86 32q-62 0 -109 -47.5t-47 -110.5q0 -52 34.5 -84.5t84.5 -32.5z" />
    <glyph glyph-name="plusminus" unicode="&#xb1;" horiz-adv-x="1069" 
d="M649 762h312l-25 -172h-311l-37 -268h-172l37 268h-310l23 172h311l39 270h172zM59 0l25 172h795l-25 -172h-795z" />
    <glyph glyph-name="uni00B2" unicode="&#xb2;" horiz-adv-x="581" 
d="M82 676l14 108q11 78 53 143.5t95.5 109.5t106 82.5t92 81.5t46.5 89l15 101q7 46 -17.5 76t-68.5 30q-43 0 -76 -30t-39 -76l-4 -39h-123l6 39q14 100 84 163.5t168 63.5q100 0 153.5 -63t39.5 -164l-17 -101q-9 -62 -48.5 -117t-91 -96t-102.5 -81t-91 -87.5t-48 -97.5
l-2 -12h316l-17 -123h-444z" />
    <glyph glyph-name="uni00B3" unicode="&#xb3;" horiz-adv-x="602" 
d="M297 655q-99 0 -152 63t-39 165l5 39h122l-4 -39q-6 -46 17.5 -75.5t68.5 -29.5q43 0 75 29.5t38 75.5l14 100q7 45 -17 74.5t-67 29.5h-84l17 123h84q43 0 75.5 29t38.5 76l11 76q6 46 -17 76t-67 30t-76.5 -30t-38.5 -76l-6 -39h-123l6 39q15 102 85 164.5t169 62.5
q98 0 150.5 -63t38.5 -164l-11 -76q-16 -110 -90 -166q59 -66 45 -166l-14 -100q-15 -101 -85.5 -164.5t-168.5 -63.5z" />
    <glyph glyph-name="acute" unicode="&#xb4;" horiz-adv-x="436" 
d="M170 1245l186 352h174l-233 -352h-127z" />
    <glyph glyph-name="uni00B5" unicode="&#xb5;" horiz-adv-x="1091" 
d="M819 1114h166l-158 -1114h-163l10 78q-92 -103 -236 -103q-75 0 -139 31l-43 -313h-166l201 1421h164l-111 -792q-5 -84 36 -133.5t120 -49.5q78 0 134 49.5t75 133.5l14 110l4 25z" />
    <glyph glyph-name="paragraph" unicode="&#xb6;" horiz-adv-x="944" 
d="M612 -307h-172l150 1083h-127q-153 0 -232 96.5t-59 255.5l6 56q20 158 128.5 255t262.5 97h301z" />
    <glyph glyph-name="periodcentered" unicode="&#xb7;" horiz-adv-x="552" 
d="M180 434l35 246h158l-35 -246h-158z" />
    <glyph glyph-name="cedilla" unicode="&#xb8;" horiz-adv-x="540" 
d="M164 -98q85 9 135.5 -35t50.5 -113q0 -91 -66 -153t-163 -62h-139l18 125h137q35 0 59.5 22t24.5 54q0 25 -18 41t-47 16h-78l-51 37l26 205h129z" />
    <glyph glyph-name="uni00B9" unicode="&#xb9;" horiz-adv-x="403" 
d="M174 676l100 706h-133l17 121h30q48 0 80 25t35 67l2 15h123l-131 -934h-123z" />
    <glyph glyph-name="ordmasculine" unicode="&#xba;" horiz-adv-x="708" 
d="M397 856q-95 0 -145.5 61.5t-36.5 159.5l37 258q13 99 80.5 160t163.5 61q94 0 143.5 -60.5t36.5 -160.5l-37 -258q-13 -100 -80 -160.5t-162 -60.5zM412 971q45 0 75.5 26.5t36.5 71.5l37 274q6 43 -16 71t-66 28t-74 -28t-36 -71l-37 -274q-6 -43 16 -70.5t64 -27.5z
" />
    <glyph glyph-name="guillemotright" unicode="&#xbb;" horiz-adv-x="1112" 
d="M20 0l29 201l336 299l-252 299l29 200l393 -450l-14 -98zM528 0l27 201l336 299l-252 299l29 200l393 -450l-12 -98z" />
    <glyph glyph-name="onequarter" unicode="&#xbc;" horiz-adv-x="1435" 
d="M166 614l100 707h-133l17 121h30q48 0 80 25t35 67l2 14h123l-131 -934h-123zM127 0l891 1536h145l-891 -1536h-145zM1100 0l24 182h-327l14 111l426 629h113l-86 -617h79l-18 -123h-78l-26 -182h-121zM940 305h201l55 385z" />
    <glyph glyph-name="onehalf" unicode="&#xbd;" horiz-adv-x="1409" 
d="M166 614l100 707h-133l17 121h30q48 0 80 25t35 67l2 14h123l-131 -934h-123zM127 0l891 1536h145l-891 -1536h-145zM815 0l14 109q9 66 41 123.5t73 96t88 76t87 66.5t69.5 66.5t35.5 76.5l14 101q7 46 -17.5 76t-68.5 30q-42 0 -74.5 -30.5t-38.5 -75.5l-6 -39h-121
l4 39q15 100 84.5 163.5t167.5 63.5q100 0 153.5 -63t39.5 -164l-14 -101q-8 -52 -38 -100t-69.5 -82.5t-85 -71.5t-85 -68.5t-69 -72.5t-36.5 -84l-2 -12h315l-16 -123h-445z" />
    <glyph glyph-name="threequarters" unicode="&#xbe;" horiz-adv-x="1634" 
d="M289 594q-99 0 -152 62.5t-39 164.5l4 39h123l-4 -39q-6 -46 17.5 -75t68.5 -29q43 0 75 29t38 75l14 101q7 45 -17 74.5t-67 29.5h-84l17 123h84q43 0 75.5 28.5t38.5 75.5l11 76q6 46 -17 76.5t-67 30.5t-76.5 -30.5t-38.5 -76.5l-6 -39h-123l6 39q15 102 85 164.5
t169 62.5q98 0 150 -63t38 -164l-10 -76q-16 -110 -90 -166q58 -66 45 -165l-14 -101q-15 -101 -85.5 -164t-168.5 -63zM326 0l891 1536h145l-891 -1536h-145zM1298 0l25 182h-328l15 111l426 629h112l-86 -617h80l-18 -123h-78l-27 -182h-121zM1139 305h200l56 385z" />
    <glyph glyph-name="questiondown" unicode="&#xbf;" horiz-adv-x="897" 
d="M639 1114l-37 -262h-172l37 262h172zM588 758l-8 -70q-13 -88 -54.5 -164.5t-92 -130.5t-100.5 -103t-88 -104t-46 -112l-21 -150q-13 -93 32 -150t132 -57q88 0 149 56t74 151l8 56h172l-8 -56q-26 -171 -140 -275t-280 -104q-165 0 -249.5 104.5t-61.5 274.5l21 150
q10 72 49.5 138.5t90.5 120t101.5 106t90 117t49.5 132.5l8 70h172z" />
    <glyph glyph-name="Agrave" unicode="&#xc0;" horiz-adv-x="940" 
d="M692 1667h-127l-135 352h174zM700 1536l109 -1536h-176l-19 297h-360l-104 -297h-177l543 1536h184zM307 469h299l-43 756z" />
    <glyph glyph-name="Aacute" unicode="&#xc1;" horiz-adv-x="940" 
d="M920 2019l-234 -352h-127l186 352h175zM516 1536h184l109 -1536h-176l-19 297h-360l-104 -297h-177zM307 469h299l-43 756z" />
    <glyph glyph-name="Acircumflex" unicode="&#xc2;" horiz-adv-x="940" 
d="M657 1909l-161 -189h-164l272 299h137l189 -299h-164zM516 1536h184l109 -1536h-176l-19 297h-360l-104 -297h-177zM307 469h299l-43 756z" />
    <glyph glyph-name="Atilde" unicode="&#xc3;" horiz-adv-x="940" 
d="M793 1919h133l-8 -55q-10 -74 -53.5 -114t-102.5 -40q-68 0 -129 49q-5 4 -17 15t-17.5 15.5t-15 11t-17.5 9t-17 2.5q-19 0 -31.5 -16t-15.5 -37l-4 -39h-133l6 47q10 75 52.5 115.5t102.5 40.5q71 0 131 -51q2 -2 10.5 -10t10.5 -10t9.5 -8t10.5 -8t9.5 -6t11 -5
t10.5 -2.5t12 -1.5q18 0 30.5 17t14.5 38zM516 1536h184l109 -1536h-176l-19 297h-360l-104 -297h-177zM307 469h299l-43 756z" />
    <glyph glyph-name="Adieresis" unicode="&#xc4;" horiz-adv-x="940" 
d="M606 2019l-33 -239h-147l33 239h147zM750 2019h147l-35 -239h-145zM516 1536h184l109 -1536h-176l-19 297h-360l-104 -297h-177zM307 469h299l-43 756z" />
    <glyph glyph-name="Aring" unicode="&#xc5;" horiz-adv-x="940" 
d="M614 1595q-71 0 -118 45.5t-47 116.5q0 91 65 157t154 66q72 0 120 -45t48 -118q0 -91 -65.5 -156.5t-156.5 -65.5zM653 1872q-38 0 -67 -29.5t-29 -66.5q0 -31 21.5 -51.5t50.5 -20.5q37 0 67.5 28t30.5 68q0 31 -22 51.5t-52 20.5zM516 1536h184l109 -1536h-176
l-19 297h-360l-104 -297h-177zM307 469h299l-43 756z" />
    <glyph glyph-name="AE" unicode="&#xc6;" horiz-adv-x="1327" 
d="M-27 0l543 1536h862l-24 -172h-455l-70 -504h398l-23 -172h-397l-74 -516h455l-25 -172h-626l43 297h-324l-106 -297h-177zM311 469h291l125 895h-109z" />
    <glyph glyph-name="Ccedilla" unicode="&#xc7;" horiz-adv-x="974" 
d="M659 1569q165 0 253.5 -105t62.5 -274l-8 -55h-172l8 55q13 93 -33 150t-133 57q-88 0 -148.5 -56.5t-74.5 -150.5l-119 -844q-12 -94 33 -150.5t133 -56.5q87 0 147.5 56t75.5 151l8 55h172l-8 -55q-23 -152 -116.5 -251.5t-233.5 -121.5l-8 -71q85 9 135.5 -35
t50.5 -113q0 -91 -66 -153t-163 -62h-140l19 125h137q35 0 59.5 22t24.5 54q0 25 -18.5 41t-47.5 16h-77l-52 37l19 137q-139 19 -209 120t-47 255l119 844q25 171 139 275t278 104z" />
    <glyph glyph-name="Egrave" unicode="&#xc8;" horiz-adv-x="884" 
d="M530 1667l-135 352h174l88 -352h-127zM934 1536l-25 -172h-448l-72 -504h395l-22 -172h-395l-72 -516h448l-24 -172h-621l215 1536h621z" />
    <glyph glyph-name="Eacute" unicode="&#xc9;" horiz-adv-x="884" 
d="M524 1667l187 352h174l-234 -352h-127zM934 1536l-25 -172h-448l-72 -504h395l-22 -172h-395l-72 -516h448l-24 -172h-621l215 1536h621z" />
    <glyph glyph-name="Ecircumflex" unicode="&#xca;" horiz-adv-x="884" 
d="M297 1720l272 299h138l188 -299h-164l-108 189l-162 -189h-164zM934 1536l-25 -172h-448l-72 -504h395l-22 -172h-395l-72 -516h448l-24 -172h-621l215 1536h621z" />
    <glyph glyph-name="Edieresis" unicode="&#xcb;" horiz-adv-x="884" 
d="M391 1780l33 239h147l-32 -239h-148zM682 1780l33 239h147l-35 -239h-145zM934 1536l-25 -172h-448l-72 -504h395l-22 -172h-395l-72 -516h448l-24 -172h-621l215 1536h621z" />
    <glyph glyph-name="Igrave" unicode="&#xcc;" horiz-adv-x="524" 
d="M358 1667l-135 352h174l88 -352h-127zM270 0h-172l215 1536h172z" />
    <glyph glyph-name="Iacute" unicode="&#xcd;" horiz-adv-x="524" 
d="M352 1667l187 352h174l-234 -352h-127zM270 0h-172l215 1536h172z" />
    <glyph glyph-name="Icircumflex" unicode="&#xce;" horiz-adv-x="524" 
d="M125 1720l272 299h138l188 -299h-164l-108 189l-162 -189h-164zM270 0h-172l215 1536h172z" />
    <glyph glyph-name="Idieresis" unicode="&#xcf;" horiz-adv-x="524" 
d="M219 1780l33 239h147l-32 -239h-148zM510 1780l33 239h147l-35 -239h-145zM270 0h-172l215 1536h172z" />
    <glyph glyph-name="Eth" unicode="&#xd0;" horiz-adv-x="1040" 
d="M666 1536q164 0 250 -103.5t63 -275.5l-109 -778q-25 -170 -139 -274.5t-280 -104.5h-353l99 696h-158l20 144h156l98 696h353zM807 1157q12 94 -32.5 150.5t-133.5 56.5h-180l-74 -524h158l-21 -144h-155l-74 -524h180q87 0 148.5 57t74.5 150z" />
    <glyph glyph-name="Ntilde" unicode="&#xd1;" horiz-adv-x="1075" 
d="M571 1759l-4 -39h-133l6 47q10 75 53 115.5t103 40.5q71 0 131 -51q2 -2 10.5 -10t10.5 -10t9.5 -8t10.5 -8t9.5 -6t11 -5t10.5 -2.5t12 -1.5q18 0 30.5 17t14.5 38l6 43h133l-8 -55q-10 -74 -53.5 -114t-102.5 -40q-68 0 -129 49q-5 4 -17 15t-17.5 15.5t-15 11t-17.5 9
t-17 2.5q-19 0 -31.5 -16t-15.5 -37zM872 1536h164l-215 -1536h-145l-262 1090l-152 -1090h-164l215 1536h146l262 -1085z" />
    <glyph glyph-name="Ograve" unicode="&#xd2;" horiz-adv-x="1038" 
d="M614 1667l-135 352h174l88 -352h-127zM436 -33q-165 0 -251.5 104.5t-61.5 274.5l119 844q25 171 139 275t278 104q165 0 253 -104.5t63 -274.5l-119 -844q-25 -171 -140 -275t-280 -104zM461 139q88 0 148.5 56.5t74.5 150.5l119 844q12 94 -33 150.5t-133 56.5
t-148.5 -56.5t-74.5 -150.5l-119 -844q-12 -94 33 -150.5t133 -56.5z" />
    <glyph glyph-name="Oacute" unicode="&#xd3;" horiz-adv-x="1038" 
d="M608 1667l187 352h174l-234 -352h-127zM436 -33q-165 0 -251.5 104.5t-61.5 274.5l119 844q25 171 139 275t278 104q165 0 253 -104.5t63 -274.5l-119 -844q-25 -171 -140 -275t-280 -104zM461 139q88 0 148.5 56.5t74.5 150.5l119 844q12 94 -33 150.5t-133 56.5
t-148.5 -56.5t-74.5 -150.5l-119 -844q-12 -94 33 -150.5t133 -56.5z" />
    <glyph glyph-name="Ocircumflex" unicode="&#xd4;" horiz-adv-x="1038" 
d="M381 1720l272 299h138l188 -299h-164l-108 189l-162 -189h-164zM436 -33q-165 0 -251.5 104.5t-61.5 274.5l119 844q25 171 139 275t278 104q165 0 253 -104.5t63 -274.5l-119 -844q-25 -171 -140 -275t-280 -104zM461 139q88 0 148.5 56.5t74.5 150.5l119 844
q12 94 -33 150.5t-133 56.5t-148.5 -56.5t-74.5 -150.5l-119 -844q-12 -94 33 -150.5t133 -56.5z" />
    <glyph glyph-name="Otilde" unicode="&#xd5;" horiz-adv-x="1038" 
d="M811 1710q-68 0 -129 49q-5 4 -17 15t-17.5 15.5t-15 11t-17.5 9t-17 2.5q-19 0 -31.5 -16t-15.5 -37l-4 -39h-133l6 47q10 75 53 115.5t102 40.5q72 0 132 -51q2 -2 10.5 -10t10.5 -10t9.5 -8t10.5 -8t9.5 -6t11 -5t10.5 -2.5t12 -1.5q18 0 30.5 17t14.5 38l6 43h133
l-8 -55q-10 -74 -53.5 -114t-102.5 -40zM436 -33q-165 0 -251.5 104.5t-61.5 274.5l119 844q25 171 139 275t278 104q165 0 253 -104.5t63 -274.5l-119 -844q-25 -171 -140 -275t-280 -104zM461 139q88 0 148.5 56.5t74.5 150.5l119 844q12 94 -33 150.5t-133 56.5
t-148.5 -56.5t-74.5 -150.5l-119 -844q-12 -94 33 -150.5t133 -56.5z" />
    <glyph glyph-name="Odieresis" unicode="&#xd6;" horiz-adv-x="1038" 
d="M475 1780l33 239h147l-32 -239h-148zM766 1780l33 239h147l-35 -239h-145zM436 -33q-165 0 -251.5 104.5t-61.5 274.5l119 844q25 171 139 275t278 104q165 0 253 -104.5t63 -274.5l-119 -844q-25 -171 -140 -275t-280 -104zM461 139q88 0 148.5 56.5t74.5 150.5l119 844
q12 94 -33 150.5t-133 56.5t-148.5 -56.5t-74.5 -150.5l-119 -844q-12 -94 33 -150.5t133 -56.5z" />
    <glyph glyph-name="multiply" unicode="&#xd7;" horiz-adv-x="923" 
d="M834 778l-248 -219l188 -219l-139 -121l-189 219l-251 -221l-105 123l250 219l-188 219l139 123l188 -219l250 217z" />
    <glyph glyph-name="Oslash" unicode="&#xd8;" horiz-adv-x="1038" 
d="M1135 1604l-164 -261q16 -73 4 -153l-119 -844q-25 -171 -140 -275t-280 -104q-175 0 -260 115l-94 -152h-119l164 260q-16 73 -4 156l119 844q25 171 139 275t278 104q176 0 263 -117l96 152h117zM414 1190l-99 -701l488 773q-9 63 -53 99t-113 36q-88 0 -148.5 -56.5
t-74.5 -150.5zM684 346l98 698l-487 -774q11 -62 55 -96.5t111 -34.5q88 0 148.5 56.5t74.5 150.5z" />
    <glyph glyph-name="Ugrave" unicode="&#xd9;" horiz-adv-x="1062" 
d="M629 1667l-135 352h174l88 -352h-127zM1034 1536l-166 -1190q-25 -173 -140.5 -276t-278.5 -103q-162 0 -249 102.5t-63 276.5l166 1190h172l-166 -1190q-13 -94 31.5 -150.5t132.5 -56.5q89 0 150 56.5t73 150.5l166 1190h172z" />
    <glyph glyph-name="Uacute" unicode="&#xda;" horiz-adv-x="1062" 
d="M623 1667l186 352h174l-233 -352h-127zM1034 1536l-166 -1190q-25 -173 -140.5 -276t-278.5 -103q-162 0 -249 102.5t-63 276.5l166 1190h172l-166 -1190q-13 -94 31.5 -150.5t132.5 -56.5q89 0 150 56.5t73 150.5l166 1190h172z" />
    <glyph glyph-name="Ucircumflex" unicode="&#xdb;" horiz-adv-x="1062" 
d="M395 1720l273 299h137l188 -299h-164l-108 189l-162 -189h-164zM1034 1536l-166 -1190q-25 -173 -140.5 -276t-278.5 -103q-162 0 -249 102.5t-63 276.5l166 1190h172l-166 -1190q-13 -94 31.5 -150.5t132.5 -56.5q89 0 150 56.5t73 150.5l166 1190h172z" />
    <glyph glyph-name="Udieresis" unicode="&#xdc;" horiz-adv-x="1062" 
d="M489 1780l33 239h148l-33 -239h-148zM780 1780l33 239h148l-35 -239h-146zM1034 1536l-166 -1190q-25 -173 -140.5 -276t-278.5 -103q-162 0 -249 102.5t-63 276.5l166 1190h172l-166 -1190q-13 -94 31.5 -150.5t132.5 -56.5q89 0 150 56.5t73 150.5l166 1190h172z" />
    <glyph glyph-name="Yacute" unicode="&#xdd;" horiz-adv-x="960" 
d="M932 2019l-234 -352h-127l187 352h174zM893 1536h176l-471 -762l-109 -774h-172l109 774l-260 762h176l195 -584z" />
    <glyph glyph-name="Thorn" unicode="&#xde;" horiz-adv-x="970" 
d="M98 0l215 1536h172l-32 -227h206q157 0 235 -99t56 -256l-24 -172q-23 -159 -130 -255.5t-259 -96.5h-207l-60 -430h-172zM354 602h207q75 0 128 49t65 131l24 172q12 82 -28 132.5t-115 50.5h-207z" />
    <glyph glyph-name="germandbls" unicode="&#xdf;" horiz-adv-x="1013" 
d="M657 1569q167 0 255 -106t65 -281l-19 -129q-21 -159 -131 -258q99 -103 76 -277l-22 -176q-22 -159 -128.5 -255.5t-260.5 -96.5h-105l23 172h104q77 0 131 49.5t64 130.5l22 176q12 81 -27 130.5t-114 49.5h-103l25 172h82q75 0 128.5 50.5t63.5 132.5l19 129
q13 96 -34.5 155.5t-137.5 59.5t-154.5 -59.5t-77.5 -155.5l-198 -1428h-172l198 1428q25 175 143.5 281t284.5 106z" />
    <glyph glyph-name="agrave" unicode="&#xe0;" 
d="M645 1245h-127l-135 352h174zM729 1114h164l-156 -1114h-164l11 70q-95 -95 -232 -95q-140 0 -216.5 92t-51.5 265l61 450q25 173 128 265t243 92q138 0 203 -97zM682 782q12 88 -29.5 140.5t-128.5 52.5q-86 0 -143.5 -53t-69.5 -140l-63 -450q-12 -87 31 -140t127 -53
q88 0 145.5 52t69.5 139z" />
    <glyph glyph-name="aacute" unicode="&#xe1;" 
d="M872 1597l-233 -352h-127l186 352h174zM729 1114h164l-156 -1114h-164l11 70q-95 -95 -232 -95q-140 0 -216.5 92t-51.5 265l61 450q25 173 128 265t243 92q138 0 203 -97zM682 782q12 88 -29.5 140.5t-128.5 52.5q-86 0 -143.5 -53t-69.5 -140l-63 -450q-12 -87 31 -140
t127 -53q88 0 145.5 52t69.5 139z" />
    <glyph glyph-name="acircumflex" unicode="&#xe2;" 
d="M610 1487l-161 -189h-164l272 299h137l189 -299h-164zM729 1114h164l-156 -1114h-164l11 70q-95 -95 -232 -95q-140 0 -216.5 92t-51.5 265l61 450q25 173 128 265t243 92q138 0 203 -97zM682 782q12 88 -29.5 140.5t-128.5 52.5q-86 0 -143.5 -53t-69.5 -140l-63 -450
q-12 -87 31 -140t127 -53q88 0 145.5 52t69.5 139z" />
    <glyph glyph-name="atilde" unicode="&#xe3;" 
d="M455 1337l-4 -39h-134l7 48q10 75 52.5 115t102.5 40q71 0 131 -51q2 -2 10.5 -10t10.5 -10t9.5 -8t10.5 -8t9.5 -6t11 -5t10.5 -2.5t12 -1.5q18 0 30.5 17t14.5 38l6 43h134l-9 -55q-10 -74 -53 -114t-102 -40q-68 0 -129 49q-6 5 -17.5 15.5t-17 15.5t-15 11.5t-17.5 9
t-17 2.5q-19 0 -31.5 -16.5t-15.5 -37.5zM729 1114h164l-156 -1114h-164l11 70q-95 -95 -232 -95q-140 0 -216.5 92t-51.5 265l61 450q25 173 128 265t243 92q138 0 203 -97zM682 782q12 88 -29.5 140.5t-128.5 52.5q-86 0 -143.5 -53t-69.5 -140l-63 -450q-12 -87 31 -140
t127 -53q88 0 145.5 52t69.5 139z" />
    <glyph glyph-name="adieresis" unicode="&#xe4;" 
d="M559 1597l-33 -239h-147l33 239h147zM850 1597l-35 -239h-145l32 239h148zM729 1114h164l-156 -1114h-164l11 70q-95 -95 -232 -95q-140 0 -216.5 92t-51.5 265l61 450q25 173 128 265t243 92q138 0 203 -97zM682 782q12 88 -29.5 140.5t-128.5 52.5q-86 0 -143.5 -53
t-69.5 -140l-63 -450q-12 -87 31 -140t127 -53q88 0 145.5 52t69.5 139z" />
    <glyph glyph-name="aring" unicode="&#xe5;" 
d="M567 1174q-71 0 -118.5 45t-47.5 116q0 91 65.5 157.5t154.5 66.5q72 0 119.5 -45t47.5 -119q0 -91 -65 -156t-156 -65zM606 1450q-38 0 -67 -29.5t-29 -66.5q0 -31 21.5 -51.5t50.5 -20.5q37 0 67.5 28t30.5 68q0 31 -22 51.5t-52 20.5zM729 1114h164l-156 -1114h-164
l11 70q-95 -95 -232 -95q-140 0 -216.5 92t-51.5 265l61 450q25 173 128 265t243 92q138 0 203 -97zM682 782q12 88 -29.5 140.5t-128.5 52.5q-86 0 -143.5 -53t-69.5 -140l-63 -450q-12 -87 31 -140t127 -53q88 0 145.5 52t69.5 139z" />
    <glyph glyph-name="ae" unicode="&#xe6;" horiz-adv-x="1443" 
d="M1071 1139q156 0 240 -100.5t59 -262.5l-35 -248h-538l-27 -196q-12 -87 32 -140t130 -53q85 0 144.5 53t68.5 140l4 28h164l-2 -20q-17 -165 -131.5 -265t-272.5 -100q-99 0 -171.5 42.5t-106.5 119.5q-57 -81 -142 -121.5t-178 -40.5q-132 0 -204 67.5t-72 182.5
q0 234 241 328q43 17 104 34t104.5 28.5t85.5 29t66.5 45.5t29.5 68l4 24q11 87 -33 140t-129 53q-87 0 -146.5 -54t-60.5 -139l-4 -34h-160l2 28q9 161 120.5 262t270.5 101q173 0 256 -119q113 119 287 119zM1206 782q12 87 -31 140t-128 53t-144.5 -53.5t-71.5 -139.5
l-12 -98h375zM369 131q99 0 161.5 55t75.5 156l27 190q-49 -30 -153.5 -55.5t-123.5 -32.5q-155 -52 -155 -178q0 -61 44 -98t124 -37z" />
    <glyph glyph-name="ccedilla" unicode="&#xe7;" horiz-adv-x="886" 
d="M545 1139q157 0 236 -99.5t61 -263.5l-2 -20h-164l4 26q9 87 -32 140t-128 53q-85 0 -144 -53.5t-71 -139.5l-61 -450q-12 -87 31 -140t128 -53q87 0 145.5 53.5t67.5 139.5l5 28h163l-2 -20q-15 -143 -104.5 -239.5t-224.5 -118.5l-11 -80q85 9 136 -35t51 -113
q0 -91 -66.5 -153t-163.5 -62h-139l19 125h137q35 0 59.5 22t24.5 54q0 25 -18.5 41t-47.5 16h-78l-51 37l19 146q-132 19 -199 115.5t-45 244.5l59 436q23 163 135.5 263t270.5 100z" />
    <glyph glyph-name="egrave" unicode="&#xe8;" horiz-adv-x="917" 
d="M627 1245h-127l-135 352h174zM545 1139q156 0 240 -100.5t59 -262.5l-35 -248h-539l-26 -196q-12 -87 31 -140t128 -53q87 0 145.5 53.5t67.5 139.5l5 28h163l-2 -20q-17 -162 -129 -263.5t-272 -101.5q-157 0 -240.5 100.5t-60.5 264.5l59 436q23 163 135.5 263
t270.5 100zM680 782q12 87 -31 140t-129 53q-85 0 -144 -53.5t-71 -139.5l-14 -98h375z" />
    <glyph glyph-name="eacute" unicode="&#xe9;" horiz-adv-x="917" 
d="M854 1597l-233 -352h-127l186 352h174zM545 1139q156 0 240 -100.5t59 -262.5l-35 -248h-539l-26 -196q-12 -87 31 -140t128 -53q87 0 145.5 53.5t67.5 139.5l5 28h163l-2 -20q-17 -162 -129 -263.5t-272 -101.5q-157 0 -240.5 100.5t-60.5 264.5l59 436
q23 163 135.5 263t270.5 100zM680 782q12 87 -31 140t-129 53q-85 0 -144 -53.5t-71 -139.5l-14 -98h375z" />
    <glyph glyph-name="ecircumflex" unicode="&#xea;" horiz-adv-x="917" 
d="M592 1487l-162 -189h-164l273 299h137l188 -299h-164zM545 1139q156 0 240 -100.5t59 -262.5l-35 -248h-539l-26 -196q-12 -87 31 -140t128 -53q87 0 145.5 53.5t67.5 139.5l5 28h163l-2 -20q-17 -162 -129 -263.5t-272 -101.5q-157 0 -240.5 100.5t-60.5 264.5l59 436
q23 163 135.5 263t270.5 100zM680 782q12 87 -31 140t-129 53q-85 0 -144 -53.5t-71 -139.5l-14 -98h375z" />
    <glyph glyph-name="edieresis" unicode="&#xeb;" horiz-adv-x="917" 
d="M541 1597l-33 -239h-148l33 239h148zM831 1597l-34 -239h-146l33 239h147zM545 1139q156 0 240 -100.5t59 -262.5l-35 -248h-539l-26 -196q-12 -87 31 -140t128 -53q87 0 145.5 53.5t67.5 139.5l5 28h163l-2 -20q-17 -162 -129 -263.5t-272 -101.5q-157 0 -240.5 100.5
t-60.5 264.5l59 436q23 163 135.5 263t270.5 100zM680 782q12 87 -31 140t-129 53q-85 0 -144 -53.5t-71 -139.5l-14 -98h375z" />
    <glyph glyph-name="igrave" unicode="&#xec;" horiz-adv-x="448" 
d="M262 1245l-135 352h174l88 -352h-127zM63 0l158 1114h164l-156 -1114h-166z" />
    <glyph glyph-name="iacute" unicode="&#xed;" horiz-adv-x="448" 
d="M256 1245l186 352h174l-233 -352h-127zM63 0l158 1114h164l-156 -1114h-166z" />
    <glyph glyph-name="icircumflex" unicode="&#xee;" horiz-adv-x="448" 
d="M29 1298l272 299h137l189 -299h-164l-109 189l-161 -189h-164zM63 0l158 1114h164l-156 -1114h-166z" />
    <glyph glyph-name="idieresis" unicode="&#xef;" horiz-adv-x="448" 
d="M123 1358l33 239h147l-33 -239h-147zM414 1358l32 239h148l-35 -239h-145zM63 0l158 1114h164l-156 -1114h-166z" />
    <glyph glyph-name="eth" unicode="&#xf0;" 
d="M1047 1413l-17 -121l-119 -30q0 -18 -4 -54l-170 -1208h-164l11 70q-95 -95 -232 -95q-140 0 -216.5 92t-51.5 265l61 450q25 173 128 265t243 92q138 0 203 -97l22 166q0 7 2 11l-180 -48l17 119l145 39q-43 72 -141 72h-47l18 135h84q94 0 160 -43.5t94 -120.5z
M682 782q12 88 -29.5 140.5t-128.5 52.5q-86 0 -143.5 -53t-69.5 -140l-63 -450q-12 -87 31 -140t127 -53q88 0 145.5 52t69.5 139z" />
    <glyph glyph-name="ntilde" unicode="&#xf1;" horiz-adv-x="960" 
d="M752 1497h133l-8 -55q-10 -74 -53.5 -114t-102.5 -40q-68 0 -129 49q-6 5 -17.5 15.5t-17 15.5t-15 11.5t-17.5 9t-17 2.5q-19 0 -31.5 -16.5t-15.5 -37.5l-4 -39h-133l6 48q10 75 52.5 115t102.5 40q71 0 131 -51q2 -2 10.5 -10t10.5 -10t9.5 -8t10.5 -8t9.5 -6t11 -5
t10.5 -2.5t12 -1.5q18 0 30.5 17t14.5 38zM610 1139q138 0 207.5 -96.5t46.5 -260.5l-110 -782h-164l108 782q12 87 -29 140t-122 53q-83 0 -140 -53t-69 -140l-109 -782h-166l158 1114h164l-12 -78q92 103 237 103z" />
    <glyph glyph-name="ograve" unicode="&#xf2;" horiz-adv-x="923" 
d="M500 1245l-135 352h174l88 -352h-127zM381 -25q-157 0 -240.5 100.5t-60.5 264.5l59 436q23 163 135.5 263t270.5 100q157 0 239.5 -100t59.5 -263l-62 -436q-23 -164 -133.5 -264.5t-267.5 -100.5zM403 139q86 0 144 53t69 140l64 450q12 87 -31 140t-129 53
q-85 0 -144 -53.5t-71 -139.5l-61 -450q-12 -87 31 -140t128 -53z" />
    <glyph glyph-name="oacute" unicode="&#xf3;" horiz-adv-x="923" 
d="M494 1245l186 352h174l-233 -352h-127zM381 -25q-157 0 -240.5 100.5t-60.5 264.5l59 436q23 163 135.5 263t270.5 100q157 0 239.5 -100t59.5 -263l-62 -436q-23 -164 -133.5 -264.5t-267.5 -100.5zM403 139q86 0 144 53t69 140l64 450q12 87 -31 140t-129 53
q-85 0 -144 -53.5t-71 -139.5l-61 -450q-12 -87 31 -140t128 -53z" />
    <glyph glyph-name="ocircumflex" unicode="&#xf4;" horiz-adv-x="923" 
d="M266 1298l273 299h137l188 -299h-164l-108 189l-162 -189h-164zM381 -25q-157 0 -240.5 100.5t-60.5 264.5l59 436q23 163 135.5 263t270.5 100q157 0 239.5 -100t59.5 -263l-62 -436q-23 -164 -133.5 -264.5t-267.5 -100.5zM403 139q86 0 144 53t69 140l64 450
q12 87 -31 140t-129 53q-85 0 -144 -53.5t-71 -139.5l-61 -450q-12 -87 31 -140t128 -53z" />
    <glyph glyph-name="otilde" unicode="&#xf5;" horiz-adv-x="923" 
d="M696 1288q-68 0 -129 49q-6 5 -17.5 15.5t-17 15.5t-15 11.5t-17.5 9t-17 2.5q-19 0 -31.5 -16.5t-15.5 -37.5l-4 -39h-133l6 48q10 75 53 115t103 40q71 0 131 -51q2 -2 10.5 -10t10.5 -10t9.5 -8t10.5 -8t9.5 -6t11 -5t10.5 -2.5t12 -1.5q18 0 30.5 17t14.5 38l6 43
h133l-8 -55q-10 -74 -53.5 -114t-102.5 -40zM381 -25q-157 0 -240.5 100.5t-60.5 264.5l59 436q23 163 135.5 263t270.5 100q157 0 239.5 -100t59.5 -263l-62 -436q-23 -164 -133.5 -264.5t-267.5 -100.5zM403 139q86 0 144 53t69 140l64 450q12 87 -31 140t-129 53
q-85 0 -144 -53.5t-71 -139.5l-61 -450q-12 -87 31 -140t128 -53z" />
    <glyph glyph-name="odieresis" unicode="&#xf6;" horiz-adv-x="923" 
d="M360 1358l33 239h148l-33 -239h-148zM651 1358l33 239h147l-34 -239h-146zM381 -25q-157 0 -240.5 100.5t-60.5 264.5l59 436q23 163 135.5 263t270.5 100q157 0 239.5 -100t59.5 -263l-62 -436q-23 -164 -133.5 -264.5t-267.5 -100.5zM403 139q86 0 144 53t69 140
l64 450q12 87 -31 140t-129 53q-85 0 -144 -53.5t-71 -139.5l-61 -450q-12 -87 31 -140t128 -53z" />
    <glyph glyph-name="divide" unicode="&#xf7;" horiz-adv-x="1091" 
d="M485 729l35 256h172l-35 -256h-172zM96 471l25 172h874l-24 -172h-875zM401 133l37 256h172l-37 -256h-172z" />
    <glyph glyph-name="oslash" unicode="&#xf8;" horiz-adv-x="923" 
d="M930 1155l-113 -166q45 -89 27 -213l-62 -436q-23 -164 -133.5 -264.5t-267.5 -100.5q-132 0 -211 70l-59 -86h-119l114 168q-44 87 -26 213l59 436q23 163 135.5 263t270.5 100q125 0 209 -68l57 84h119zM244 332v-6l405 594q-42 55 -129 55q-85 0 -144 -53.5
t-71 -139.5zM680 782q0 7 2 11l-410 -598q43 -56 131 -56q86 0 144 53t69 140z" />
    <glyph glyph-name="ugrave" unicode="&#xf9;" horiz-adv-x="962" 
d="M639 1245h-127l-135 352h174zM733 1114h166l-158 -1114h-163l10 74q-93 -99 -234 -99q-135 0 -208 90.5t-48 264.5l109 784h166l-111 -784q-12 -86 30 -138.5t124 -52.5t139.5 52.5t69.5 138.5z" />
    <glyph glyph-name="uacute" unicode="&#xfa;" horiz-adv-x="962" 
d="M866 1597l-233 -352h-127l186 352h174zM733 1114h166l-158 -1114h-163l10 74q-93 -99 -234 -99q-135 0 -208 90.5t-48 264.5l109 784h166l-111 -784q-12 -86 30 -138.5t124 -52.5t139.5 52.5t69.5 138.5z" />
    <glyph glyph-name="ucircumflex" unicode="&#xfb;" horiz-adv-x="962" 
d="M604 1487l-162 -189h-163l272 299h137l189 -299h-164zM733 1114h166l-158 -1114h-163l10 74q-93 -99 -234 -99q-135 0 -208 90.5t-48 264.5l109 784h166l-111 -784q-12 -86 30 -138.5t124 -52.5t139.5 52.5t69.5 138.5z" />
    <glyph glyph-name="udieresis" unicode="&#xfc;" horiz-adv-x="962" 
d="M553 1597l-33 -239h-147l33 239h147zM844 1597l-35 -239h-145l32 239h148zM733 1114h166l-158 -1114h-163l10 74q-93 -99 -234 -99q-135 0 -208 90.5t-48 264.5l109 784h166l-111 -784q-12 -86 30 -138.5t124 -52.5t139.5 52.5t69.5 138.5z" />
    <glyph glyph-name="yacute" unicode="&#xfd;" horiz-adv-x="858" 
d="M821 1597l-233 -352h-127l186 352h174zM737 1114h181l-631 -1483h-176l149 349l-162 1134h178l115 -852z" />
    <glyph glyph-name="thorn" unicode="&#xfe;" horiz-adv-x="956" 
d="M606 1139q140 0 216 -92t52 -265l-61 -450q-24 -173 -127 -265t-244 -92q-136 0 -202 95l-62 -439h-166l267 1905h165l-71 -494q94 97 233 97zM711 782q11 87 -32 140t-128 53q-88 0 -144.5 -52.5t-68.5 -140.5l-62 -452q-12 -88 29 -139.5t129 -51.5q86 0 143.5 53
t69.5 140z" />
    <glyph glyph-name="ydieresis" unicode="&#xff;" horiz-adv-x="858" 
d="M508 1597l-33 -239h-147l32 239h148zM799 1597l-35 -239h-146l33 239h148zM737 1114h181l-631 -1483h-176l149 349l-162 1134h178l115 -852z" />
    <glyph glyph-name="Amacron" unicode="&#x100;" horiz-adv-x="940" 
d="M420 1831h452l-18 -129h-453zM516 1536h184l109 -1536h-176l-19 297h-360l-104 -297h-177zM307 469h299l-43 756z" />
    <glyph glyph-name="amacron" unicode="&#x101;" 
d="M825 1409l-18 -129h-453l19 129h452zM729 1114h164l-156 -1114h-164l11 70q-95 -95 -232 -95q-140 0 -216.5 92t-51.5 265l61 450q25 173 128 265t243 92q138 0 203 -97zM682 782q12 88 -29.5 140.5t-128.5 52.5q-86 0 -143.5 -53t-69.5 -140l-63 -450q-12 -87 31 -140
t127 -53q88 0 145.5 52t69.5 139z" />
    <glyph glyph-name="Abreve" unicode="&#x102;" horiz-adv-x="940" 
d="M784 2019h119l-2 -20q-15 -99 -87.5 -160t-172.5 -61t-157 61.5t-42 159.5l2 20h119l-4 -20q-6 -52 21 -83.5t75 -31.5t84 31.5t43 83.5zM516 1536h184l109 -1536h-176l-19 297h-360l-104 -297h-177zM307 469h299l-43 756z" />
    <glyph glyph-name="abreve" unicode="&#x103;" 
d="M594 1356q-100 0 -157 61.5t-42 159.5l2 20h119l-4 -20q-6 -52 21 -83.5t75 -31.5t84 31.5t43 83.5l2 20h119l-2 -20q-15 -99 -87.5 -160t-172.5 -61zM729 1114h164l-156 -1114h-164l11 70q-95 -95 -232 -95q-140 0 -216.5 92t-51.5 265l61 450q25 173 128 265t243 92
q138 0 203 -97zM682 782q12 88 -29.5 140.5t-128.5 52.5q-86 0 -143.5 -53t-69.5 -140l-63 -450q-12 -87 31 -140t127 -53q88 0 145.5 52t69.5 139z" />
    <glyph glyph-name="Aogonek" unicode="&#x104;" horiz-adv-x="940" 
d="M772 0q-149 -112 -149 -219q0 -40 31.5 -65t86.5 -25h31l-18 -127h-41q-105 0 -164.5 48t-59.5 126q0 142 158 262h-14l-19 297h-360l-104 -297h-177l543 1536h184l109 -1536h-37zM307 469h299l-43 756z" />
    <glyph glyph-name="aogonek" unicode="&#x105;" horiz-adv-x="1028" 
d="M729 1114h164l-156 -1114h-53q-149 -112 -149 -219q0 -40 31.5 -65t86.5 -25h31l-18 -127h-41q-105 0 -164.5 48t-59.5 126q0 149 174 272l9 60q-95 -95 -232 -95q-140 0 -216.5 92t-51.5 265l61 450q25 173 128 265t243 92q138 0 203 -97zM406 139q88 0 145.5 52
t69.5 139l61 452q12 88 -29.5 140.5t-128.5 52.5q-86 0 -143.5 -53t-69.5 -140l-63 -450q-12 -87 31 -140t127 -53z" />
    <glyph glyph-name="Cacute" unicode="&#x106;" horiz-adv-x="974" 
d="M608 1667l187 352h174l-234 -352h-127zM864 401l-8 -55q-26 -171 -140.5 -275t-279.5 -104t-251.5 104.5t-61.5 274.5l119 844q25 171 139 275t278 104q165 0 253.5 -105t62.5 -274l-8 -55h-172l8 55q13 93 -33 150t-133 57q-88 0 -148.5 -56.5t-74.5 -150.5l-119 -844
q-12 -94 33 -150.5t133 -56.5q87 0 147.5 56t75.5 151l8 55h172z" />
    <glyph glyph-name="cacute" unicode="&#x107;" horiz-adv-x="886" 
d="M494 1245l186 352h174l-233 -352h-127zM784 360l-2 -20q-17 -162 -129 -263.5t-272 -101.5q-157 0 -240.5 100.5t-60.5 264.5l59 436q23 163 135.5 263t270.5 100q157 0 236 -99.5t61 -263.5l-2 -20h-164l4 26q9 87 -32 140t-128 53q-85 0 -144 -53.5t-71 -139.5
l-61 -450q-12 -87 31 -140t128 -53q87 0 145.5 53.5t67.5 139.5l5 28h163z" />
    <glyph glyph-name="Ccircumflex" unicode="&#x108;" horiz-adv-x="974" 
d="M381 1720l272 299h138l188 -299h-164l-108 189l-162 -189h-164zM864 401l-8 -55q-26 -171 -140.5 -275t-279.5 -104t-251.5 104.5t-61.5 274.5l119 844q25 171 139 275t278 104q165 0 253.5 -105t62.5 -274l-8 -55h-172l8 55q13 93 -33 150t-133 57q-88 0 -148.5 -56.5
t-74.5 -150.5l-119 -844q-12 -94 33 -150.5t133 -56.5q87 0 147.5 56t75.5 151l8 55h172z" />
    <glyph glyph-name="ccircumflex" unicode="&#x109;" horiz-adv-x="886" 
d="M266 1298l273 299h137l188 -299h-164l-108 189l-162 -189h-164zM784 360l-2 -20q-17 -162 -129 -263.5t-272 -101.5q-157 0 -240.5 100.5t-60.5 264.5l59 436q23 163 135.5 263t270.5 100q157 0 236 -99.5t61 -263.5l-2 -20h-164l4 26q9 87 -32 140t-128 53
q-85 0 -144 -53.5t-71 -139.5l-61 -450q-12 -87 31 -140t128 -53q87 0 145.5 53.5t67.5 139.5l5 28h163z" />
    <glyph glyph-name="Cdotaccent" unicode="&#x10a;" horiz-adv-x="974" 
d="M608 1718l33 240h147l-32 -240h-148zM864 401l-8 -55q-26 -171 -140.5 -275t-279.5 -104t-251.5 104.5t-61.5 274.5l119 844q25 171 139 275t278 104q165 0 253.5 -105t62.5 -274l-8 -55h-172l8 55q13 93 -33 150t-133 57q-88 0 -148.5 -56.5t-74.5 -150.5l-119 -844
q-12 -94 33 -150.5t133 -56.5q87 0 147.5 56t75.5 151l8 55h172z" />
    <glyph glyph-name="cdotaccent" unicode="&#x10b;" horiz-adv-x="886" 
d="M494 1296l32 240h148l-33 -240h-147zM784 360l-2 -20q-17 -162 -129 -263.5t-272 -101.5q-157 0 -240.5 100.5t-60.5 264.5l59 436q23 163 135.5 263t270.5 100q157 0 236 -99.5t61 -263.5l-2 -20h-164l4 26q9 87 -32 140t-128 53q-85 0 -144 -53.5t-71 -139.5l-61 -450
q-12 -87 31 -140t128 -53q87 0 145.5 53.5t67.5 139.5l5 28h163z" />
    <glyph glyph-name="Ccaron" unicode="&#x10c;" horiz-adv-x="974" 
d="M612 1720l-188 299h162l110 -188l162 188h162l-272 -299h-136zM864 401l-8 -55q-26 -171 -140.5 -275t-279.5 -104t-251.5 104.5t-61.5 274.5l119 844q25 171 139 275t278 104q165 0 253.5 -105t62.5 -274l-8 -55h-172l8 55q13 93 -33 150t-133 57q-88 0 -148.5 -56.5
t-74.5 -150.5l-119 -844q-12 -94 33 -150.5t133 -56.5q87 0 147.5 56t75.5 151l8 55h172z" />
    <glyph glyph-name="ccaron" unicode="&#x10d;" horiz-adv-x="886" 
d="M498 1298l-189 299h162l111 -188l161 188h162l-272 -299h-135zM784 360l-2 -20q-17 -162 -129 -263.5t-272 -101.5q-157 0 -240.5 100.5t-60.5 264.5l59 436q23 163 135.5 263t270.5 100q157 0 236 -99.5t61 -263.5l-2 -20h-164l4 26q9 87 -32 140t-128 53
q-85 0 -144 -53.5t-71 -139.5l-61 -450q-12 -87 31 -140t128 -53q87 0 145.5 53.5t67.5 139.5l5 28h163z" />
    <glyph glyph-name="Dcaron" unicode="&#x10e;" horiz-adv-x="1040" 
d="M614 1720l-188 299h162l110 -188l162 188h162l-272 -299h-136zM98 0l215 1536h353q164 0 250 -103.5t63 -275.5l-109 -778q-25 -170 -139 -274.5t-280 -104.5h-353zM295 172h180q87 0 148.5 57t74.5 150l109 778q12 94 -32.5 150.5t-133.5 56.5h-180z" />
    <glyph glyph-name="dcaron" unicode="&#x10f;" horiz-adv-x="1333" 
d="M719 1042l69 494h164l-215 -1536h-164l11 70q-95 -95 -232 -95q-140 0 -216.5 92t-51.5 265l61 450q25 173 128 265t243 92q138 0 203 -97zM1151 1536h164l-146 -459h-163zM682 782q12 88 -29.5 140.5t-128.5 52.5q-86 0 -143.5 -53t-69.5 -140l-63 -450q-12 -87 31 -140
t127 -53q88 0 145.5 52t69.5 139z" />
    <glyph glyph-name="Dcroat" unicode="&#x110;" horiz-adv-x="1040" 
d="M666 1536q164 0 250 -103.5t63 -275.5l-109 -778q-25 -170 -139 -274.5t-280 -104.5h-353l99 696h-158l20 144h156l98 696h353zM807 1157q12 94 -32.5 150.5t-133.5 56.5h-180l-74 -524h158l-21 -144h-155l-74 -524h180q87 0 148.5 57t74.5 150z" />
    <glyph glyph-name="dcroat" unicode="&#x111;" 
d="M1094 1389l-21 -144h-162l-174 -1245h-164l11 70q-95 -95 -232 -95q-140 0 -216.5 92t-51.5 265l61 450q25 173 128 265t243 92q138 0 203 -97l29 203h-160l20 144h160l20 147h164l-20 -147h162zM682 782q12 88 -29.5 140.5t-128.5 52.5q-86 0 -143.5 -53t-69.5 -140
l-63 -450q-12 -87 31 -140t127 -53q88 0 145.5 52t69.5 139z" />
    <glyph glyph-name="Emacron" unicode="&#x112;" horiz-adv-x="884" 
d="M385 1831h453l-19 -129h-452zM934 1536l-25 -172h-448l-72 -504h395l-22 -172h-395l-72 -516h448l-24 -172h-621l215 1536h621z" />
    <glyph glyph-name="emacron" unicode="&#x113;" horiz-adv-x="917" 
d="M807 1409l-19 -129h-452l18 129h453zM545 1139q156 0 240 -100.5t59 -262.5l-35 -248h-539l-26 -196q-12 -87 31 -140t128 -53q87 0 145.5 53.5t67.5 139.5l5 28h163l-2 -20q-17 -162 -129 -263.5t-272 -101.5q-157 0 -240.5 100.5t-60.5 264.5l59 436q23 163 135.5 263
t270.5 100zM680 782q12 87 -31 140t-129 53q-85 0 -144 -53.5t-71 -139.5l-14 -98h375z" />
    <glyph glyph-name="Ebreve" unicode="&#x114;" horiz-adv-x="884" 
d="M606 1778q-100 0 -156.5 61.5t-41.5 159.5l2 20h118l-4 -20q-6 -52 21.5 -83.5t75.5 -31.5t84 31.5t43 83.5l2 20h118l-2 -20q-15 -99 -87.5 -160t-172.5 -61zM934 1536l-25 -172h-448l-72 -504h395l-22 -172h-395l-72 -516h448l-24 -172h-621l215 1536h621z" />
    <glyph glyph-name="ebreve" unicode="&#x115;" horiz-adv-x="917" 
d="M575 1356q-100 0 -156.5 61.5t-41.5 159.5l2 20h119l-4 -20q-6 -52 21 -83.5t75 -31.5t84 31.5t43 83.5l2 20h119l-2 -20q-15 -99 -88 -160t-173 -61zM545 1139q156 0 240 -100.5t59 -262.5l-35 -248h-539l-26 -196q-12 -87 31 -140t128 -53q87 0 145.5 53.5t67.5 139.5
l5 28h163l-2 -20q-17 -162 -129 -263.5t-272 -101.5q-157 0 -240.5 100.5t-60.5 264.5l59 436q23 163 135.5 263t270.5 100zM680 782q12 87 -31 140t-129 53q-85 0 -144 -53.5t-71 -139.5l-14 -98h375z" />
    <glyph glyph-name="Edotaccent" unicode="&#x116;" horiz-adv-x="884" 
d="M524 1718l33 240h148l-33 -240h-148zM934 1536l-25 -172h-448l-72 -504h395l-22 -172h-395l-72 -516h448l-24 -172h-621l215 1536h621z" />
    <glyph glyph-name="edotaccent" unicode="&#x117;" horiz-adv-x="917" 
d="M674 1536l-33 -240h-147l32 240h148zM545 1139q156 0 240 -100.5t59 -262.5l-35 -248h-539l-26 -196q-12 -87 31 -140t128 -53q87 0 145.5 53.5t67.5 139.5l5 28h163l-2 -20q-17 -162 -129 -263.5t-272 -101.5q-157 0 -240.5 100.5t-60.5 264.5l59 436q23 163 135.5 263
t270.5 100zM680 782q12 87 -31 140t-129 53q-85 0 -144 -53.5t-71 -139.5l-14 -98h375z" />
    <glyph glyph-name="Eogonek" unicode="&#x118;" horiz-adv-x="884" 
d="M909 1364h-448l-72 -504h395l-22 -172h-395l-72 -516h448l-24 -172h-240q-149 -112 -149 -219q0 -40 32 -65t87 -25h30l-18 -127h-41q-105 0 -164 48t-59 126q0 143 157 262h-256l215 1536h621z" />
    <glyph glyph-name="eogonek" unicode="&#x119;" horiz-adv-x="917" 
d="M545 1139q156 0 240 -100.5t59 -262.5l-35 -248h-539l-26 -196q-12 -87 31 -140t128 -53q87 0 145.5 53.5t67.5 139.5l5 28h163l-2 -20q-13 -131 -90.5 -224t-195.5 -126q-138 -108 -138 -209q0 -40 32 -65t87 -25h31l-19 -127h-40q-105 0 -164.5 48t-59.5 126
q0 133 129 237q-145 9 -220.5 109t-53.5 256l59 436q23 163 135.5 263t270.5 100zM680 782q12 87 -31 140t-129 53q-85 0 -144 -53.5t-71 -139.5l-14 -98h375z" />
    <glyph glyph-name="Ecaron" unicode="&#x11a;" horiz-adv-x="884" 
d="M528 1720l-188 299h162l110 -188l162 188h162l-272 -299h-136zM934 1536l-25 -172h-448l-72 -504h395l-22 -172h-395l-72 -516h448l-24 -172h-621l215 1536h621z" />
    <glyph glyph-name="ecaron" unicode="&#x11b;" horiz-adv-x="917" 
d="M633 1298h-135l-189 299h162l111 -188l161 188h162zM545 1139q156 0 240 -100.5t59 -262.5l-35 -248h-539l-26 -196q-12 -87 31 -140t128 -53q87 0 145.5 53.5t67.5 139.5l5 28h163l-2 -20q-17 -162 -129 -263.5t-272 -101.5q-157 0 -240.5 100.5t-60.5 264.5l59 436
q23 163 135.5 263t270.5 100zM680 782q12 87 -31 140t-129 53q-85 0 -144 -53.5t-71 -139.5l-14 -98h375z" />
    <glyph glyph-name="Gcircumflex" unicode="&#x11c;" horiz-adv-x="1011" 
d="M381 1720l272 299h138l188 -299h-164l-108 189l-162 -189h-164zM436 -33q-165 0 -251.5 104.5t-61.5 274.5l119 844q25 171 139 275t278 104q165 0 253.5 -105t62.5 -274l-8 -55h-172l8 55q13 93 -33 150t-133 57q-88 0 -148.5 -56.5t-74.5 -150.5l-119 -844
q-12 -94 33 -150.5t133 -56.5t148.5 56.5t74.5 150.5l31 223h-195l25 172h366l-55 -395q-25 -172 -140.5 -275.5t-279.5 -103.5z" />
    <glyph glyph-name="gcircumflex" unicode="&#x11d;" horiz-adv-x="940" 
d="M575 1487l-161 -189h-164l272 299h137l189 -299h-164zM711 1114h166l-158 -1126q-23 -162 -136 -262.5t-270 -100.5q-158 0 -238 100t-61 265l4 28h164l-4 -36q-9 -88 32 -140.5t126 -52.5q86 0 145.5 53t71.5 140l33 231q-94 -94 -234 -94q-139 0 -215.5 91.5
t-52.5 264.5l43 307q24 173 126.5 265t242.5 92q139 0 204 -97zM664 782q12 88 -29.5 140.5t-128.5 52.5q-86 0 -144 -53t-69 -140l-43 -307q-12 -87 31 -139.5t127 -52.5q89 0 145.5 51.5t67.5 138.5z" />
    <glyph glyph-name="Gbreve" unicode="&#x11e;" horiz-adv-x="1011" 
d="M690 1778q-100 0 -156.5 61.5t-41.5 159.5l2 20h118l-4 -20q-6 -52 21.5 -83.5t75.5 -31.5t83.5 31.5t42.5 83.5l3 20h118l-2 -20q-15 -99 -87.5 -160t-172.5 -61zM436 -33q-165 0 -251.5 104.5t-61.5 274.5l119 844q25 171 139 275t278 104q165 0 253.5 -105t62.5 -274
l-8 -55h-172l8 55q13 93 -33 150t-133 57q-88 0 -148.5 -56.5t-74.5 -150.5l-119 -844q-12 -94 33 -150.5t133 -56.5t148.5 56.5t74.5 150.5l31 223h-195l25 172h366l-55 -395q-25 -172 -140.5 -275.5t-279.5 -103.5z" />
    <glyph glyph-name="gbreve" unicode="&#x11f;" horiz-adv-x="940" 
d="M559 1356q-100 0 -157 61.5t-42 159.5l2 20h119l-4 -20q-6 -52 21 -83.5t75 -31.5t84 31.5t43 83.5l2 20h119l-2 -20q-15 -99 -87.5 -160t-172.5 -61zM711 1114h166l-158 -1126q-23 -162 -136 -262.5t-270 -100.5q-158 0 -238 100t-61 265l4 28h164l-4 -36
q-9 -88 32 -140.5t126 -52.5q86 0 145.5 53t71.5 140l33 231q-94 -94 -234 -94q-139 0 -215.5 91.5t-52.5 264.5l43 307q24 173 126.5 265t242.5 92q139 0 204 -97zM664 782q12 88 -29.5 140.5t-128.5 52.5q-86 0 -144 -53t-69 -140l-43 -307q-12 -87 31 -139.5t127 -52.5
q89 0 145.5 51.5t67.5 138.5z" />
    <glyph glyph-name="Gdotaccent" unicode="&#x120;" horiz-adv-x="1011" 
d="M608 1718l33 240h147l-32 -240h-148zM436 -33q-165 0 -251.5 104.5t-61.5 274.5l119 844q25 171 139 275t278 104q165 0 253.5 -105t62.5 -274l-8 -55h-172l8 55q13 93 -33 150t-133 57q-88 0 -148.5 -56.5t-74.5 -150.5l-119 -844q-12 -94 33 -150.5t133 -56.5
t148.5 56.5t74.5 150.5l31 223h-195l25 172h366l-55 -395q-25 -172 -140.5 -275.5t-279.5 -103.5z" />
    <glyph glyph-name="gdotaccent" unicode="&#x121;" horiz-adv-x="940" 
d="M657 1536l-32 -240h-148l33 240h147zM711 1114h166l-158 -1126q-23 -162 -136 -262.5t-270 -100.5q-158 0 -238 100t-61 265l4 28h164l-4 -36q-9 -88 32 -140.5t126 -52.5q86 0 145.5 53t71.5 140l33 231q-94 -94 -234 -94q-139 0 -215.5 91.5t-52.5 264.5l43 307
q24 173 126.5 265t242.5 92q139 0 204 -97zM664 782q12 88 -29.5 140.5t-128.5 52.5q-86 0 -144 -53t-69 -140l-43 -307q-12 -87 31 -139.5t127 -52.5q89 0 145.5 51.5t67.5 138.5z" />
    <glyph glyph-name="Gcommaaccent" unicode="&#x122;" horiz-adv-x="1011" 
d="M436 -33q-165 0 -251.5 104.5t-61.5 274.5l119 844q25 171 139 275t278 104q165 0 253.5 -105t62.5 -274l-8 -55h-172l8 55q13 93 -33 150t-133 57q-88 0 -148.5 -56.5t-74.5 -150.5l-119 -844q-12 -94 33 -150.5t133 -56.5t148.5 56.5t74.5 150.5l31 223h-195l25 172
h366l-55 -395q-25 -172 -140.5 -275.5t-279.5 -103.5zM248 -451l96 326h186l-168 -326h-114z" />
    <glyph glyph-name="gcommaaccent" unicode="&#x123;" horiz-adv-x="940" 
d="M711 1114h166l-158 -1126q-23 -162 -136 -262.5t-270 -100.5q-158 0 -238 100t-61 265l4 28h164l-4 -36q-9 -88 32 -140.5t126 -52.5q86 0 145.5 53t71.5 140l33 231q-94 -94 -234 -94q-139 0 -215.5 91.5t-52.5 264.5l43 307q24 173 126.5 265t242.5 92q139 0 204 -97z
M664 782q12 88 -29.5 140.5t-128.5 52.5q-86 0 -144 -53t-69 -140l-43 -307q-12 -87 31 -139.5t127 -52.5q89 0 145.5 51.5t67.5 138.5zM121 -825l96 325h186l-167 -325h-115z" />
    <glyph glyph-name="Hcircumflex" unicode="&#x124;" horiz-adv-x="1054" 
d="M391 1720l273 299h137l188 -299h-164l-108 189l-162 -189h-164zM98 0l215 1536h172l-110 -780h360l109 780h172l-215 -1536h-172l82 584h-361l-80 -584h-172z" />
    <glyph glyph-name="hcircumflex" unicode="&#x125;" horiz-adv-x="962" 
d="M412 1909l-162 -189h-164l272 299h138l188 -299h-164zM610 1141q135 0 207 -89t49 -245l-112 -807h-164l108 784q12 87 -29 139t-122 52q-83 0 -140 -52.5t-69 -138.5l-109 -784h-166l216 1536h165l-69 -494q93 99 235 99z" />
    <glyph glyph-name="Hbar" unicode="&#x126;" horiz-adv-x="1054" 
d="M1077 1186l-20 -144h-111l-145 -1042h-172l82 584h-361l-80 -584h-172l146 1042h-109l21 144h108l49 350h172l-49 -350h359l49 350h172l-49 -350h110zM735 756l39 286h-358l-41 -286h360z" />
    <glyph glyph-name="hbar" unicode="&#x127;" horiz-adv-x="962" 
d="M610 1141q135 0 207 -89t49 -245l-112 -807h-164l108 784q12 87 -29 139t-122 52q-83 0 -140 -52.5t-69 -138.5l-109 -784h-166l177 1264h-160l20 143h160l19 129h165l-18 -129h160l-21 -143h-159l-31 -222q93 99 235 99z" />
    <glyph glyph-name="Itilde" unicode="&#x128;" horiz-adv-x="524" 
d="M555 1710q-68 0 -129 49q-5 4 -17 15t-17.5 15.5t-15 11t-17.5 9t-17 2.5q-19 0 -31.5 -16t-15.5 -37l-4 -39h-133l6 47q10 75 53 115.5t102 40.5q72 0 132 -51q2 -2 10.5 -10t10.5 -10t9.5 -8t10.5 -8t9.5 -6t11 -5t10.5 -2.5t12 -1.5q18 0 30.5 17t14.5 38l6 43h133
l-8 -55q-10 -74 -53.5 -114t-102.5 -40zM270 0h-172l215 1536h172z" />
    <glyph glyph-name="itilde" unicode="&#x129;" horiz-adv-x="448" 
d="M459 1288q-68 0 -129 49q-6 5 -17.5 15.5t-17 15.5t-15 11.5t-17.5 9t-17 2.5q-19 0 -31.5 -16.5t-15.5 -37.5l-4 -39h-134l7 48q10 75 52.5 115t102.5 40q71 0 131 -51q2 -2 10.5 -10t10.5 -10t9.5 -8t10.5 -8t9.5 -6t11 -5t10.5 -2.5t12 -1.5q18 0 30.5 17t14.5 38
l6 43h134l-9 -55q-10 -74 -53 -114t-102 -40zM63 0l158 1114h164l-156 -1114h-166z" />
    <glyph glyph-name="Imacron" unicode="&#x12a;" horiz-adv-x="524" 
d="M213 1831h453l-19 -129h-452zM270 0h-172l215 1536h172z" />
    <glyph glyph-name="imacron" unicode="&#x12b;" horiz-adv-x="448" 
d="M117 1409h452l-18 -129h-453zM63 0l158 1114h164l-156 -1114h-166z" />
    <glyph glyph-name="Iogonek" unicode="&#x12e;" horiz-adv-x="524" 
d="M313 1536h172l-215 -1536h-53q-149 -112 -149 -219q0 -40 31.5 -65t86.5 -25h31l-18 -127h-41q-105 0 -164.5 48t-59.5 126q0 146 164 266z" />
    <glyph glyph-name="iogonek" unicode="&#x12f;" horiz-adv-x="448" 
d="M289 1536h147l-33 -240h-147zM63 6l158 1108h164l-156 -1114h-49q-149 -112 -149 -219q0 -40 32 -65t87 -25h30l-18 -127h-41q-105 0 -164 48t-59 126q0 147 165 268z" />
    <glyph glyph-name="Idotaccent" unicode="&#x130;" horiz-adv-x="524" 
d="M352 1718l33 240h147l-32 -240h-148zM270 0h-172l215 1536h172z" />
    <glyph glyph-name="dotlessi" unicode="&#x131;" horiz-adv-x="448" 
d="M63 0l158 1114h164l-156 -1114h-166z" />
    <glyph glyph-name="IJ" unicode="&#x132;" horiz-adv-x="1196" 
d="M270 0h-172l215 1536h172zM479 -12l25 172h108q87 0 148.5 57t73.5 150l163 1169h172l-163 -1169q-25 -171 -140 -275t-278 -104h-109z" />
    <glyph glyph-name="ij" unicode="&#x133;" horiz-adv-x="897" 
d="M236 1231l34 244h166l-35 -244h-165zM682 1231l35 244h166l-35 -244h-166zM63 0l158 1114h164l-156 -1114h-166zM207 -375l22 164h66q86 0 144.5 57t70.5 150l158 1118h163l-153 -1110q-25 -172 -136.5 -275.5t-269.5 -103.5h-65z" />
    <glyph glyph-name="Jcircumflex" unicode="&#x134;" horiz-adv-x="671" 
d="M281 1720l272 299h137l189 -299h-164l-109 189l-162 -189h-163zM-45 -12l25 172h108q87 0 148 57t73 150l164 1169h172l-164 -1169q-25 -171 -140 -275t-278 -104h-108z" />
    <glyph glyph-name="jcircumflex" unicode="&#x135;" horiz-adv-x="448" 
d="M29 1298l272 299h137l189 -299h-164l-109 189l-161 -189h-164zM-242 -375l23 164h65q86 0 144.5 57t70.5 150l158 1118h164l-154 -1110q-25 -172 -136 -275.5t-269 -103.5h-66z" />
    <glyph glyph-name="Kcommaaccent" unicode="&#x136;" horiz-adv-x="1007" 
d="M1069 1536l-473 -575l289 -961h-187l-241 788l-92 -110l-95 -678h-172l215 1536h172l-79 -573l479 573h184zM217 -451l96 326h187l-168 -326h-115z" />
    <glyph glyph-name="kcommaaccent" unicode="&#x137;" horiz-adv-x="880" 
d="M889 1114l-348 -381l254 -733h-174l-207 590l-121 -133l-64 -457h-166l216 1536h165l-116 -829l385 407h176zM156 -451l96 326h186l-168 -326h-114z" />
    <glyph glyph-name="kgreenlandic" unicode="&#x138;" horiz-adv-x="878" 
d="M889 1114l-400 -420l306 -694h-174l-295 684l-97 -684h-166l158 1114h164l-55 -399l383 399h176z" />
    <glyph glyph-name="Lacute" unicode="&#x139;" horiz-adv-x="796" 
d="M465 1667l186 352h174l-233 -352h-127zM485 1536l-190 -1364h407l-24 -172h-580l215 1536h172z" />
    <glyph glyph-name="lacute" unicode="&#x13a;" horiz-adv-x="448" 
d="M315 1667l187 352h174l-234 -352h-127zM63 0l216 1536h165l-215 -1536h-166z" />
    <glyph glyph-name="Lcommaaccent" unicode="&#x13b;" horiz-adv-x="796" 
d="M485 1536l-190 -1364h407l-24 -172h-580l215 1536h172zM104 -451l97 326h186l-168 -326h-115z" />
    <glyph glyph-name="lcommaaccent" unicode="&#x13c;" horiz-adv-x="448" 
d="M63 0l216 1536h165l-215 -1536h-166zM-45 -451l96 326h187l-168 -326h-115z" />
    <glyph glyph-name="Lcaron" unicode="&#x13d;" horiz-adv-x="796" 
d="M469 1720l-188 299h161l111 -188l162 188h162l-273 -299h-135zM485 1536l-190 -1364h407l-24 -172h-580l215 1536h172z" />
    <glyph glyph-name="lcaron" unicode="&#x13e;" horiz-adv-x="901" 
d="M63 0l216 1536h165l-215 -1536h-166zM573 1077l146 459h164l-146 -459h-164z" />
    <glyph glyph-name="Ldot" unicode="&#x13f;" horiz-adv-x="794" 
d="M485 1536l-190 -1364h407l-24 -172h-580l215 1536h172zM473 647l35 246h158l-35 -246h-158z" />
    <glyph glyph-name="ldot" unicode="&#x140;" horiz-adv-x="724" 
d="M63 0l216 1536h165l-215 -1536h-166zM438 645l35 246h158l-35 -246h-158z" />
    <glyph glyph-name="Lslash" unicode="&#x141;" horiz-adv-x="796" 
d="M295 172h407l-24 -172h-580l92 659l-213 -71l23 157l213 72l100 719h172l-92 -657l211 71l-22 -157l-211 -72z" />
    <glyph glyph-name="lslash" unicode="&#x142;" horiz-adv-x="448" 
d="M535 920l-23 -166l-184 -47l-99 -707h-166l93 664l-183 -48l23 164l184 47l99 709h165l-92 -664z" />
    <glyph glyph-name="Nacute" unicode="&#x143;" horiz-adv-x="1075" 
d="M989 2019l-233 -352h-127l186 352h174zM872 1536h164l-215 -1536h-145l-262 1090l-152 -1090h-164l215 1536h146l262 -1085z" />
    <glyph glyph-name="nacute" unicode="&#x144;" horiz-adv-x="960" 
d="M879 1597l-234 -352h-127l187 352h174zM610 1139q138 0 207.5 -96.5t46.5 -260.5l-110 -782h-164l108 782q12 87 -29 140t-122 53q-83 0 -140 -53t-69 -140l-109 -782h-166l158 1114h164l-12 -78q92 103 237 103z" />
    <glyph glyph-name="Ncommaaccent" unicode="&#x145;" horiz-adv-x="1075" 
d="M872 1536h164l-215 -1536h-145l-262 1090l-152 -1090h-164l215 1536h146l262 -1085zM268 -451l97 326h186l-168 -326h-115z" />
    <glyph glyph-name="ncommaaccent" unicode="&#x146;" horiz-adv-x="960" 
d="M610 1139q138 0 207.5 -96.5t46.5 -260.5l-110 -782h-164l108 782q12 87 -29 140t-122 53q-83 0 -140 -53t-69 -140l-109 -782h-166l158 1114h164l-12 -78q92 103 237 103zM217 -451l96 326h187l-168 -326h-115z" />
    <glyph glyph-name="Ncaron" unicode="&#x147;" horiz-adv-x="1075" 
d="M768 1720h-135l-189 299h162l111 -188l162 188h161zM721 451l151 1085h164l-215 -1536h-145l-262 1090l-152 -1090h-164l215 1536h146z" />
    <glyph glyph-name="ncaron" unicode="&#x148;" horiz-adv-x="960" 
d="M657 1298h-135l-188 299h162l110 -188l162 188h162zM610 1139q138 0 207.5 -96.5t46.5 -260.5l-110 -782h-164l108 782q12 87 -29 140t-122 53q-83 0 -140 -53t-69 -140l-109 -782h-166l158 1114h164l-12 -78q92 103 237 103z" />
    <glyph glyph-name="napostrophe" unicode="&#x149;" horiz-adv-x="1335" 
d="M293 1536h172l-39 -283l-78 -176h-102l78 176h-70zM983 1139q138 0 207.5 -96.5t46.5 -260.5l-111 -782h-163l108 782q12 87 -29 140t-122 53q-83 0 -140 -53t-69 -140l-109 -782h-166l158 1114h164l-13 -78q92 103 238 103z" />
    <glyph glyph-name="Omacron" unicode="&#x14c;" horiz-adv-x="1038" 
d="M469 1831h453l-19 -129h-452zM436 -33q-165 0 -251.5 104.5t-61.5 274.5l119 844q25 171 139 275t278 104q165 0 253 -104.5t63 -274.5l-119 -844q-25 -171 -140 -275t-280 -104zM461 139q88 0 148.5 56.5t74.5 150.5l119 844q12 94 -33 150.5t-133 56.5t-148.5 -56.5
t-74.5 -150.5l-119 -844q-12 -94 33 -150.5t133 -56.5z" />
    <glyph glyph-name="omacron" unicode="&#x14d;" horiz-adv-x="923" 
d="M354 1409h453l-19 -129h-452zM381 -25q-157 0 -240.5 100.5t-60.5 264.5l59 436q23 163 135.5 263t270.5 100q157 0 239.5 -100t59.5 -263l-62 -436q-23 -164 -133.5 -264.5t-267.5 -100.5zM403 139q86 0 144 53t69 140l64 450q12 87 -31 140t-129 53q-85 0 -144 -53.5
t-71 -139.5l-61 -450q-12 -87 31 -140t128 -53z" />
    <glyph glyph-name="Obreve" unicode="&#x14e;" horiz-adv-x="1038" 
d="M690 1778q-100 0 -156.5 61.5t-41.5 159.5l2 20h118l-4 -20q-6 -52 21.5 -83.5t75.5 -31.5t83.5 31.5t42.5 83.5l3 20h118l-2 -20q-15 -99 -87.5 -160t-172.5 -61zM436 -33q-165 0 -251.5 104.5t-61.5 274.5l119 844q25 171 139 275t278 104q165 0 253 -104.5t63 -274.5
l-119 -844q-25 -171 -140 -275t-280 -104zM461 139q88 0 148.5 56.5t74.5 150.5l119 844q12 94 -33 150.5t-133 56.5t-148.5 -56.5t-74.5 -150.5l-119 -844q-12 -94 33 -150.5t133 -56.5z" />
    <glyph glyph-name="obreve" unicode="&#x14f;" horiz-adv-x="923" 
d="M575 1356q-100 0 -156.5 61.5t-41.5 159.5l2 20h119l-4 -20q-6 -52 21 -83.5t75 -31.5t84 31.5t43 83.5l2 20h119l-2 -20q-15 -99 -88 -160t-173 -61zM381 -25q-157 0 -240.5 100.5t-60.5 264.5l59 436q23 163 135.5 263t270.5 100q157 0 239.5 -100t59.5 -263l-62 -436
q-23 -164 -133.5 -264.5t-267.5 -100.5zM403 139q86 0 144 53t69 140l64 450q12 87 -31 140t-129 53q-85 0 -144 -53.5t-71 -139.5l-61 -450q-12 -87 31 -140t128 -53z" />
    <glyph glyph-name="Ohungarumlaut" unicode="&#x150;" horiz-adv-x="1038" 
d="M446 1667l187 352h174l-234 -352h-127zM754 1667l186 352h174l-233 -352h-127zM436 -33q-165 0 -251.5 104.5t-61.5 274.5l119 844q25 171 139 275t278 104q165 0 253 -104.5t63 -274.5l-119 -844q-25 -171 -140 -275t-280 -104zM461 139q88 0 148.5 56.5t74.5 150.5
l119 844q12 94 -33 150.5t-133 56.5t-148.5 -56.5t-74.5 -150.5l-119 -844q-12 -94 33 -150.5t133 -56.5z" />
    <glyph glyph-name="ohungarumlaut" unicode="&#x151;" horiz-adv-x="923" 
d="M332 1245l186 352h174l-233 -352h-127zM639 1245l186 352h174l-233 -352h-127zM381 -25q-157 0 -240.5 100.5t-60.5 264.5l59 436q23 163 135.5 263t270.5 100q157 0 239.5 -100t59.5 -263l-62 -436q-23 -164 -133.5 -264.5t-267.5 -100.5zM403 139q86 0 144 53t69 140
l64 450q12 87 -31 140t-129 53q-85 0 -144 -53.5t-71 -139.5l-61 -450q-12 -87 31 -140t128 -53z" />
    <glyph glyph-name="OE" unicode="&#x152;" horiz-adv-x="1488" 
d="M436 -33q-165 0 -251.5 104.5t-61.5 274.5l119 844q25 171 139 275t278 104q163 0 248 -101l11 68h620l-22 -172h-451l-70 -504h396l-25 -172h-395l-72 -516h449l-25 -172h-621l9 68q-115 -101 -275 -101zM461 139q88 0 148.5 56.5t74.5 150.5l119 844q12 94 -33 150.5
t-133 56.5t-148.5 -56.5t-74.5 -150.5l-119 -844q-12 -94 33 -150.5t133 -56.5z" />
    <glyph glyph-name="oe" unicode="&#x153;" horiz-adv-x="1456" 
d="M1083 1139q156 0 240 -100.5t61 -262.5l-34 -248h-541l-27 -196q-12 -87 32 -140t130 -53t144 54t67 139l4 28h164l-2 -20q-15 -162 -127.5 -263.5t-271.5 -101.5q-173 0 -254 117q-117 -117 -287 -117q-157 0 -240.5 100.5t-60.5 264.5l59 436q23 163 135.5 263
t270.5 100q171 0 252 -117q117 117 286 117zM403 139q86 0 144 53t69 140l64 450q12 87 -31 140t-129 53q-85 0 -144 -53.5t-71 -139.5l-61 -450q-12 -87 31 -140t128 -53zM1219 782q12 87 -31 140t-127 53q-86 0 -145.5 -53t-71.5 -140l-13 -98h375z" />
    <glyph glyph-name="Racute" unicode="&#x154;" horiz-adv-x="1046" 
d="M973 2019l-234 -352h-127l187 352h174zM692 1536q151 0 232 -95.5t59 -256.5l-31 -213q-28 -190 -166 -287q114 -74 93 -233l-62 -451h-172l62 451q9 75 -30.5 120t-115.5 45h-207l-84 -616h-172l215 1536h379zM811 1184q11 82 -28 131t-115 49h-207l-82 -576h207
q76 0 129.5 50.5t64.5 132.5z" />
    <glyph glyph-name="racute" unicode="&#x155;" horiz-adv-x="583" 
d="M754 1597l-234 -352h-127l187 352h174zM373 1028q95 98 235 98h47l-22 -163h-88q-84 0 -140.5 -51t-68.5 -138l-107 -774h-166l158 1114h164z" />
    <glyph glyph-name="Rcommaaccent" unicode="&#x156;" horiz-adv-x="1046" 
d="M692 1536q151 0 232 -95.5t59 -256.5l-31 -213q-28 -190 -166 -287q114 -74 93 -233l-62 -451h-172l62 451q9 75 -30.5 120t-115.5 45h-207l-84 -616h-172l215 1536h379zM811 1184q11 82 -28 131t-115 49h-207l-82 -576h207q76 0 129.5 50.5t64.5 132.5zM252 -451l96 326
h187l-168 -326h-115z" />
    <glyph glyph-name="rcommaaccent" unicode="&#x157;" horiz-adv-x="583" 
d="M608 1126h47l-22 -163h-88q-84 0 -140.5 -51t-68.5 -138l-107 -774h-166l158 1114h164l-12 -86q95 98 235 98zM-47 -451l96 326h187l-168 -326h-115z" />
    <glyph glyph-name="Rcaron" unicode="&#x158;" horiz-adv-x="1046" 
d="M752 1720h-136l-188 299h162l110 -188l162 188h162zM692 1536q151 0 232 -95.5t59 -256.5l-31 -213q-28 -190 -166 -287q114 -74 93 -233l-62 -451h-172l62 451q9 75 -30.5 120t-115.5 45h-207l-84 -616h-172l215 1536h379zM811 1184q11 82 -28 131t-115 49h-207
l-82 -576h207q76 0 129.5 50.5t64.5 132.5z" />
    <glyph glyph-name="rcaron" unicode="&#x159;" horiz-adv-x="583" 
d="M532 1298h-135l-188 299h162l110 -188l162 188h162zM373 1028q95 98 235 98h47l-22 -163h-88q-84 0 -140.5 -51t-68.5 -138l-107 -774h-166l158 1114h164z" />
    <glyph glyph-name="Sacute" unicode="&#x15a;" horiz-adv-x="964" 
d="M571 1667l187 352h174l-234 -352h-127zM401 -33q-165 0 -252 104.5t-61 274.5l8 55h172l-8 -55q-14 -93 31.5 -150t134.5 -57q87 0 148 57t73 150l19 121q12 94 -32.5 150.5t-133.5 56.5q-165 0 -252 104t-62 275l21 137q25 170 139 274.5t279 104.5q164 0 251.5 -105
t61.5 -274l-8 -55h-172l8 55q15 93 -31.5 150t-132.5 57q-88 0 -149.5 -57t-73.5 -150l-21 -137q-12 -93 33.5 -150t132.5 -57q165 0 252 -104.5t62 -274.5l-19 -121q-25 -171 -139.5 -275t-278.5 -104z" />
    <glyph glyph-name="sacute" unicode="&#x15b;" horiz-adv-x="868" 
d="M465 1245l186 352h174l-233 -352h-127zM356 -25q-157 0 -239 93t-62 247l4 35h164l-6 -43q-10 -76 35.5 -122t128.5 -46q86 0 143.5 56t57.5 141q0 65 -42.5 104t-115.5 39q-140 0 -221.5 74t-81.5 199q0 167 113 277t282 110q156 0 237.5 -93.5t59.5 -246.5l-4 -33h-166
l6 41q12 74 -30.5 121t-124.5 47q-89 0 -148 -56t-59 -141q0 -65 42.5 -104t116.5 -39q139 0 221.5 -74.5t82.5 -198.5q0 -166 -112.5 -276.5t-281.5 -110.5z" />
    <glyph glyph-name="Scircumflex" unicode="&#x15c;" horiz-adv-x="964" 
d="M344 1720l272 299h138l188 -299h-164l-108 189l-162 -189h-164zM401 -33q-165 0 -252 104.5t-61 274.5l8 55h172l-8 -55q-14 -93 31.5 -150t134.5 -57q87 0 148 57t73 150l19 121q12 94 -32.5 150.5t-133.5 56.5q-165 0 -252 104t-62 275l21 137q25 170 139 274.5
t279 104.5q164 0 251.5 -105t61.5 -274l-8 -55h-172l8 55q15 93 -31.5 150t-132.5 57q-88 0 -149.5 -57t-73.5 -150l-21 -137q-12 -93 33.5 -150t132.5 -57q165 0 252 -104.5t62 -274.5l-19 -121q-25 -171 -139.5 -275t-278.5 -104z" />
    <glyph glyph-name="scircumflex" unicode="&#x15d;" horiz-adv-x="868" 
d="M238 1298l272 299h137l189 -299h-164l-109 189l-162 -189h-163zM356 -25q-157 0 -239 93t-62 247l4 35h164l-6 -43q-10 -76 35.5 -122t128.5 -46q86 0 143.5 56t57.5 141q0 65 -42.5 104t-115.5 39q-140 0 -221.5 74t-81.5 199q0 167 113 277t282 110q156 0 237.5 -93.5
t59.5 -246.5l-4 -33h-166l6 41q12 74 -30.5 121t-124.5 47q-89 0 -148 -56t-59 -141q0 -65 42.5 -104t116.5 -39q139 0 221.5 -74.5t82.5 -198.5q0 -166 -112.5 -276.5t-281.5 -110.5z" />
    <glyph glyph-name="Scedilla" unicode="&#x15e;" horiz-adv-x="964" 
d="M625 1569q164 0 251.5 -105t61.5 -274l-8 -55h-172l8 55q15 93 -31.5 150t-132.5 57q-88 0 -149.5 -57t-73.5 -150l-21 -137q-12 -93 33.5 -150t132.5 -57q165 0 252 -104.5t62 -274.5l-19 -121q-22 -152 -116 -252.5t-234 -122.5l-8 -69q85 9 135.5 -35t50.5 -113
q0 -91 -66 -153t-163 -62h-139l18 125h137q35 0 59.5 22t24.5 54q0 25 -18 41t-47 16h-78l-51 37l18 137q-137 19 -207 120.5t-47 254.5l8 55h172l-8 -55q-14 -93 31.5 -150t134.5 -57q87 0 148 57t73 150l19 121q12 94 -32.5 150.5t-133.5 56.5q-165 0 -252 104t-62 275
l21 137q25 170 139 274.5t279 104.5z" />
    <glyph glyph-name="scedilla" unicode="&#x15f;" horiz-adv-x="868" 
d="M516 1139q156 0 237.5 -93.5t59.5 -246.5l-4 -33h-166l6 41q12 74 -30.5 121t-124.5 47q-89 0 -148 -56t-59 -141q0 -65 42.5 -104t116.5 -39q139 0 221.5 -74.5t82.5 -198.5q0 -148 -91 -253t-235 -127l-10 -80q85 9 135.5 -35t50.5 -113q0 -91 -66 -153t-163 -62h-140
l19 125h137q35 0 59.5 22t24.5 54q0 25 -18 41t-47 16h-78l-52 37l19 146q-128 19 -193.5 108.5t-46.5 226.5l4 35h164l-6 -43q-10 -76 35.5 -122t128.5 -46q86 0 143.5 56t57.5 141q0 65 -42.5 104t-115.5 39q-140 0 -221.5 74t-81.5 199q0 167 113 277t282 110z" />
    <glyph glyph-name="Scaron" unicode="&#x160;" horiz-adv-x="964" 
d="M575 1720l-188 299h162l110 -188l162 188h162l-272 -299h-136zM401 -33q-165 0 -252 104.5t-61 274.5l8 55h172l-8 -55q-14 -93 31.5 -150t134.5 -57q87 0 148 57t73 150l19 121q12 94 -32.5 150.5t-133.5 56.5q-165 0 -252 104t-62 275l21 137q25 170 139 274.5
t279 104.5q164 0 251.5 -105t61.5 -274l-8 -55h-172l8 55q15 93 -31.5 150t-132.5 57q-88 0 -149.5 -57t-73.5 -150l-21 -137q-12 -93 33.5 -150t132.5 -57q165 0 252 -104.5t62 -274.5l-19 -121q-25 -171 -139.5 -275t-278.5 -104z" />
    <glyph glyph-name="scaron" unicode="&#x161;" horiz-adv-x="868" 
d="M469 1298l-188 299h161l111 -188l162 188h162l-273 -299h-135zM356 -25q-157 0 -239 93t-62 247l4 35h164l-6 -43q-10 -76 35.5 -122t128.5 -46q86 0 143.5 56t57.5 141q0 65 -42.5 104t-115.5 39q-140 0 -221.5 74t-81.5 199q0 167 113 277t282 110q156 0 237.5 -93.5
t59.5 -246.5l-4 -33h-166l6 41q12 74 -30.5 121t-124.5 47q-89 0 -148 -56t-59 -141q0 -65 42.5 -104t116.5 -39q139 0 221.5 -74.5t82.5 -198.5q0 -166 -112.5 -276.5t-281.5 -110.5z" />
    <glyph glyph-name="uni0162" unicode="&#x162;" horiz-adv-x="761" 
d="M174 1536h688l-24 -172h-258l-191 -1364h-20l-13 -98q85 9 136 -35t51 -113q0 -91 -66.5 -153t-163.5 -62h-139l19 125h137q35 0 59.5 22t24.5 54q0 25 -18.5 41t-47.5 16h-78l-51 37l23 166h-25l191 1364h-258z" />
    <glyph glyph-name="uni0163" unicode="&#x163;" horiz-adv-x="686" 
d="M430 961l-84 -605q-13 -92 30 -148t128 -56h80l-23 -164h-76l-10 -86q85 9 136 -35t51 -113q0 -91 -66.5 -153t-163.5 -62h-139l18 125h138q35 0 59 22t24 54q0 25 -18 41t-47 16h-78l-51 37l22 172q-103 34 -151 125.5t-29 224.5l84 605h-196l20 153h197l41 279h163
l-38 -279h266l-21 -153h-266z" />
    <glyph glyph-name="Tcaron" unicode="&#x164;" horiz-adv-x="761" 
d="M477 1720l-188 299h162l110 -188l162 188h162l-273 -299h-135zM217 0l191 1364h-258l24 172h688l-24 -172h-258l-191 -1364h-172z" />
    <glyph glyph-name="tcaron" unicode="&#x165;" horiz-adv-x="1148" 
d="M821 1077l146 459h163l-145 -459h-164zM481 -12q-160 0 -242 99t-59 269l84 605h-196l20 153h197l41 279h163l-38 -279h266l-21 -153h-266l-84 -605q-13 -92 30 -148t128 -56h80l-23 -164h-80z" />
    <glyph glyph-name="Tbar" unicode="&#x166;" horiz-adv-x="761" 
d="M838 1364h-258l-74 -524h160l-21 -144h-160l-96 -696h-172l96 696h-153l20 144h154l74 524h-258l24 172h688z" />
    <glyph glyph-name="tbar" unicode="&#x167;" horiz-adv-x="686" 
d="M696 961h-266l-45 -326h274l-20 -154h-277l-16 -125q-13 -92 30 -148t128 -56h80l-23 -164h-80q-160 0 -242 99t-59 269l17 125h-172l20 154h174l45 326h-196l20 153h197l41 279h163l-38 -279h266z" />
    <glyph glyph-name="Utilde" unicode="&#x168;" horiz-adv-x="1062" 
d="M825 1710q-68 0 -129 49q-5 4 -17 15t-17.5 15.5t-15 11t-17.5 9t-17 2.5q-19 0 -31.5 -16t-15.5 -37l-4 -39h-133l6 47q10 75 53 115.5t103 40.5q71 0 131 -51q2 -2 10.5 -10t10.5 -10t9.5 -8t10.5 -8t9.5 -6t11 -5t10.5 -2.5t12 -1.5q18 0 30.5 17t14.5 38l6 43h133
l-8 -55q-10 -74 -53.5 -114t-102.5 -40zM1034 1536l-166 -1190q-25 -173 -140.5 -276t-278.5 -103q-162 0 -249 102.5t-63 276.5l166 1190h172l-166 -1190q-13 -94 31.5 -150.5t132.5 -56.5q89 0 150 56.5t73 150.5l166 1190h172z" />
    <glyph glyph-name="utilde" unicode="&#x169;" horiz-adv-x="962" 
d="M449 1337l-5 -39h-133l6 48q10 75 53 115t103 40q71 0 131 -51q2 -2 10.5 -10t10.5 -10t9.5 -8t10.5 -8t9.5 -6t11 -5t10.5 -2.5t12 -1.5q18 0 30.5 17t14.5 38l6 43h133l-8 -55q-10 -74 -53 -114t-102 -40q-68 0 -129 49q-6 5 -17.5 15.5t-17 15.5t-15 11.5t-17.5 9
t-17 2.5q-19 0 -31.5 -16.5t-15.5 -37.5zM733 1114h166l-158 -1114h-163l10 74q-93 -99 -234 -99q-135 0 -208 90.5t-48 264.5l109 784h166l-111 -784q-12 -86 30 -138.5t124 -52.5t139.5 52.5t69.5 138.5z" />
    <glyph glyph-name="Umacron" unicode="&#x16a;" horiz-adv-x="1062" 
d="M483 1831h453l-18 -129h-453zM1034 1536l-166 -1190q-25 -173 -140.5 -276t-278.5 -103q-162 0 -249 102.5t-63 276.5l166 1190h172l-166 -1190q-13 -94 31.5 -150.5t132.5 -56.5q89 0 150 56.5t73 150.5l166 1190h172z" />
    <glyph glyph-name="umacron" unicode="&#x16b;" horiz-adv-x="962" 
d="M819 1409l-18 -129h-453l19 129h452zM733 1114h166l-158 -1114h-163l10 74q-93 -99 -234 -99q-135 0 -208 90.5t-48 264.5l109 784h166l-111 -784q-12 -86 30 -138.5t124 -52.5t139.5 52.5t69.5 138.5z" />
    <glyph glyph-name="Ubreve" unicode="&#x16c;" horiz-adv-x="1062" 
d="M705 1778q-100 0 -157 61.5t-42 159.5l2 20h119l-4 -20q-6 -52 21 -83.5t75 -31.5t84 31.5t43 83.5l2 20h119l-2 -20q-15 -99 -87.5 -160t-172.5 -61zM1034 1536l-166 -1190q-25 -173 -140.5 -276t-278.5 -103q-162 0 -249 102.5t-63 276.5l166 1190h172l-166 -1190
q-13 -94 31.5 -150.5t132.5 -56.5q89 0 150 56.5t73 150.5l166 1190h172z" />
    <glyph glyph-name="ubreve" unicode="&#x16d;" horiz-adv-x="962" 
d="M588 1356q-100 0 -157 61.5t-42 159.5l2 20h119l-4 -20q-6 -52 21 -83.5t75 -31.5t84 31.5t43 83.5l2 20h119l-2 -20q-15 -99 -87.5 -160t-172.5 -61zM733 1114h166l-158 -1114h-163l10 74q-93 -99 -234 -99q-135 0 -208 90.5t-48 264.5l109 784h166l-111 -784
q-12 -86 30 -138.5t124 -52.5t139.5 52.5t69.5 138.5z" />
    <glyph glyph-name="Uring" unicode="&#x16e;" horiz-adv-x="1062" 
d="M678 1595q-71 0 -118.5 45.5t-47.5 116.5q0 91 65 157t154 66q72 0 120 -45t48 -118q0 -91 -65 -156.5t-156 -65.5zM692 1704q37 0 68 28t31 68q0 31 -22 51.5t-52 20.5q-38 0 -67 -29.5t-29 -66.5q0 -31 21 -51.5t50 -20.5zM1034 1536l-166 -1190q-25 -173 -140.5 -276
t-278.5 -103q-162 0 -249 102.5t-63 276.5l166 1190h172l-166 -1190q-13 -94 31.5 -150.5t132.5 -56.5q89 0 150 56.5t73 150.5l166 1190h172z" />
    <glyph glyph-name="uring" unicode="&#x16f;" horiz-adv-x="962" 
d="M561 1174q-71 0 -118.5 45t-47.5 116q0 91 65 157.5t154 66.5q72 0 120 -45t48 -119q0 -91 -65 -156t-156 -65zM600 1450q-38 0 -67 -29.5t-29 -66.5q0 -31 21 -51.5t50 -20.5q37 0 68 28t31 68q0 31 -22 51.5t-52 20.5zM733 1114h166l-158 -1114h-163l10 74
q-93 -99 -234 -99q-135 0 -208 90.5t-48 264.5l109 784h166l-111 -784q-12 -86 30 -138.5t124 -52.5t139.5 52.5t69.5 138.5z" />
    <glyph glyph-name="Uhungarumlaut" unicode="&#x170;" horiz-adv-x="1062" 
d="M461 1667l186 352h174l-233 -352h-127zM768 1667l186 352h174l-233 -352h-127zM1034 1536l-166 -1190q-25 -173 -140.5 -276t-278.5 -103q-162 0 -249 102.5t-63 276.5l166 1190h172l-166 -1190q-13 -94 31.5 -150.5t132.5 -56.5q89 0 150 56.5t73 150.5l166 1190h172z
" />
    <glyph glyph-name="uhungarumlaut" unicode="&#x171;" horiz-adv-x="962" 
d="M705 1597l-234 -352h-127l186 352h175zM778 1245h-127l187 352h174zM625 330l108 784h166l-158 -1114h-163l10 74q-93 -99 -234 -99q-135 0 -208 90.5t-48 264.5l109 784h166l-111 -784q-12 -86 30 -138.5t124 -52.5t139.5 52.5t69.5 138.5z" />
    <glyph glyph-name="Uogonek" unicode="&#x172;" horiz-adv-x="1062" 
d="M862 1536h172l-166 -1190q-23 -163 -127.5 -264.5t-255.5 -112.5q-110 -100 -110 -188q0 -40 32 -65t87 -25h30l-18 -127h-41q-105 0 -164 48t-59 126q0 127 127 237q-127 24 -190 122t-42 249l166 1190h172l-166 -1190q-13 -94 31.5 -150.5t132.5 -56.5q89 0 150 56.5
t73 150.5z" />
    <glyph glyph-name="uogonek" unicode="&#x173;" horiz-adv-x="962" 
d="M733 1114h166l-158 -1114h-53q-149 -112 -149 -219q0 -40 31.5 -65t86.5 -25h31l-18 -127h-41q-105 0 -164 48t-59 126q0 149 174 272l8 64q-93 -99 -234 -99q-135 0 -208 90.5t-48 264.5l109 784h166l-111 -784q-12 -86 30 -138.5t124 -52.5t139.5 52.5t69.5 138.5z" />
    <glyph glyph-name="Wcircumflex" unicode="&#x174;" horiz-adv-x="1339" 
d="M860 1909l-162 -189h-163l272 299h137l189 -299h-164zM1225 1536h176l-426 -1536h-184l-48 1067l-350 -1067h-184l4 1536h176l-14 -1147l356 1147h152l35 -1149z" />
    <glyph glyph-name="wcircumflex" unicode="&#x175;" horiz-adv-x="1144" 
d="M702 1487l-161 -189h-164l272 299h137l189 -299h-164zM999 1114h172l-335 -1114h-183l-51 766l-266 -766h-182l-25 1114h172l-10 -852l284 852h152l43 -852z" />
    <glyph glyph-name="Ycircumflex" unicode="&#x176;" horiz-adv-x="960" 
d="M670 1909l-162 -189h-164l272 299h138l188 -299h-164zM893 1536h176l-471 -762l-109 -774h-172l109 774l-260 762h176l195 -584z" />
    <glyph glyph-name="ycircumflex" unicode="&#x177;" horiz-adv-x="858" 
d="M559 1487l-162 -189h-164l273 299h137l188 -299h-163zM737 1114h181l-631 -1483h-176l149 349l-162 1134h178l115 -852z" />
    <glyph glyph-name="Ydieresis" unicode="&#x178;" horiz-adv-x="960" 
d="M618 2019l-32 -239h-148l33 239h147zM909 2019l-35 -239h-145l33 239h147zM893 1536h176l-471 -762l-109 -774h-172l109 774l-260 762h176l195 -584z" />
    <glyph glyph-name="Zacute" unicode="&#x179;" horiz-adv-x="866" 
d="M883 2019l-234 -352h-127l187 352h174zM932 1536l-19 -131l-710 -1233h538l-24 -172h-723l18 131l709 1233h-537l25 172h723z" />
    <glyph glyph-name="zacute" unicode="&#x17a;" horiz-adv-x="782" 
d="M784 1597l-233 -352h-127l186 352h174zM811 1114l-18 -129l-590 -821h465l-25 -164h-672l19 129l598 819h-473l24 166h672z" />
    <glyph glyph-name="Zdotaccent" unicode="&#x17b;" horiz-adv-x="866" 
d="M702 1958l-32 -240h-148l33 240h147zM932 1536l-19 -131l-710 -1233h538l-24 -172h-723l18 131l709 1233h-537l25 172h723z" />
    <glyph glyph-name="zdotaccent" unicode="&#x17c;" horiz-adv-x="782" 
d="M604 1536l-33 -240h-147l33 240h147zM811 1114l-18 -129l-590 -821h465l-25 -164h-672l19 129l598 819h-473l24 166h672z" />
    <glyph glyph-name="Zcaron" unicode="&#x17d;" horiz-adv-x="866" 
d="M662 1720h-136l-188 299h162l110 -188l162 188h162zM184 1364l25 172h723l-19 -131l-710 -1233h538l-24 -172h-723l18 131l709 1233h-537z" />
    <glyph glyph-name="zcaron" unicode="&#x17e;" horiz-adv-x="782" 
d="M563 1298h-135l-188 299h161l111 -188l162 188h162zM115 948l24 166h672l-18 -129l-590 -821h465l-25 -164h-672l19 129l598 819h-473z" />
    <glyph glyph-name="longs" unicode="&#x17f;" horiz-adv-x="575" 
d="M139 0l133 958h-204l20 156h205l10 72q23 163 135.5 266.5t270.5 103.5h84l-25 -163h-82q-86 0 -145.5 -57t-71.5 -150l-166 -1186h-164z" />
    <glyph glyph-name="florin" unicode="&#x192;" horiz-adv-x="1099" 
d="M-47 -369l22 164h101q84 0 150 57t89 150l183 752h-207l22 155h224l67 277q38 163 157.5 266.5t268.5 103.5h100l-22 -163h-100q-85 0 -151 -57t-89 -150l-68 -277h340l-20 -155h-358l-183 -752q-41 -165 -159.5 -268t-266.5 -103h-100z" />
    <glyph glyph-name="Scommaaccent" unicode="&#x218;" horiz-adv-x="964" 
d="M401 -33q-165 0 -252 104.5t-61 274.5l8 55h172l-8 -55q-14 -93 31.5 -150t134.5 -57q87 0 148 57t73 150l19 121q12 94 -32.5 150.5t-133.5 56.5q-165 0 -252 104t-62 275l21 137q25 170 139 274.5t279 104.5q164 0 251.5 -105t61.5 -274l-8 -55h-172l8 55
q15 93 -31.5 150t-132.5 57q-88 0 -149.5 -57t-73.5 -150l-21 -137q-12 -93 33.5 -150t132.5 -57q165 0 252 -104.5t62 -274.5l-19 -121q-25 -171 -139.5 -275t-278.5 -104zM211 -451l96 326h187l-168 -326h-115z" />
    <glyph glyph-name="scommaaccent" unicode="&#x219;" horiz-adv-x="868" 
d="M356 -25q-157 0 -239 93t-62 247l4 35h164l-6 -43q-10 -76 35.5 -122t128.5 -46q86 0 143.5 56t57.5 141q0 65 -42.5 104t-115.5 39q-140 0 -221.5 74t-81.5 199q0 167 113 277t282 110q156 0 237.5 -93.5t59.5 -246.5l-4 -33h-166l6 41q12 74 -30.5 121t-124.5 47
q-89 0 -148 -56t-59 -141q0 -65 42.5 -104t116.5 -39q139 0 221.5 -74.5t82.5 -198.5q0 -166 -112.5 -276.5t-281.5 -110.5zM164 -451l96 326h186l-167 -326h-115z" />
    <glyph glyph-name="uni021A" unicode="&#x21a;" horiz-adv-x="761" 
d="M217 0l191 1364h-258l24 172h688l-24 -172h-258l-191 -1364h-172zM106 -451l97 326h186l-168 -326h-115z" />
    <glyph glyph-name="uni021B" unicode="&#x21b;" horiz-adv-x="686" 
d="M481 -12q-160 0 -242 99t-59 269l84 605h-196l20 153h197l41 279h163l-38 -279h266l-21 -153h-266l-84 -605q-13 -92 30 -148t128 -56h80l-23 -164h-80zM225 -451l97 326h186l-168 -326h-115z" />
    <glyph glyph-name="uni0237" unicode="&#x237;" horiz-adv-x="448" 
d="M-242 -375l23 164h65q86 0 144.5 57t70.5 150l158 1118h164l-154 -1110q-25 -172 -136 -275.5t-269 -103.5h-66z" />
    <glyph glyph-name="circumflex" unicode="&#x2c6;" horiz-adv-x="671" 
d="M141 1298l273 299h137l188 -299h-164l-108 189l-162 -189h-164z" />
    <glyph glyph-name="caron" unicode="&#x2c7;" horiz-adv-x="671" 
d="M373 1298l-189 299h162l111 -188l161 188h162l-272 -299h-135z" />
    <glyph glyph-name="uni02C9" unicode="&#x2c9;" horiz-adv-x="737" 
d="M399 1536h453l-18 -129h-453z" />
    <glyph glyph-name="breve" unicode="&#x2d8;" horiz-adv-x="663" 
d="M444 1356q-100 0 -156.5 61.5t-41.5 159.5l2 20h119l-5 -20q-6 -52 21.5 -83.5t75.5 -31.5t84 31.5t43 83.5l2 20h119l-2 -20q-15 -99 -88 -160t-173 -61z" />
    <glyph glyph-name="dotaccent" unicode="&#x2d9;" horiz-adv-x="432" 
d="M246 1296l33 240h147l-33 -240h-147z" />
    <glyph glyph-name="ring" unicode="&#x2da;" horiz-adv-x="593" 
d="M389 1212q-71 0 -118.5 45.5t-47.5 116.5q0 91 65 157t154 66q72 0 120 -45t48 -118q0 -91 -65 -156.5t-156 -65.5zM403 1321q37 0 68 28t31 68q0 31 -22 51.5t-52 20.5q-38 0 -67 -29.5t-29 -66.5q0 -31 21 -51.5t50 -20.5z" />
    <glyph glyph-name="ogonek" unicode="&#x2db;" horiz-adv-x="456" 
d="M199 -436q-105 0 -164.5 48t-59.5 126q0 185 261 325h30l-8 -63q-149 -112 -149 -219q0 -40 31.5 -65t86.5 -25h31l-18 -127h-41z" />
    <glyph glyph-name="tilde" unicode="&#x2dc;" horiz-adv-x="782" 
d="M641 1384q-67 0 -129 50q-5 4 -17 15t-17.5 15.5t-15 11t-17.5 9t-17 2.5q-19 0 -31.5 -16t-15.5 -37l-4 -39h-133l6 47q10 75 53 115t103 40q71 0 131 -51q2 -2 10.5 -10t10.5 -10t9.5 -8t10.5 -8t9.5 -6t11 -5t10.5 -2.5t12 -1.5q18 0 30.5 17t14.5 38l6 43h133l-8 -55
q-10 -74 -53.5 -114t-102.5 -40z" />
    <glyph glyph-name="hungarumlaut" unicode="&#x2dd;" horiz-adv-x="743" 
d="M170 1245l186 352h174l-233 -352h-127zM477 1245l187 352h174l-234 -352h-127z" />
    <glyph glyph-name="uni0326" unicode="&#x326;" horiz-adv-x="0" 
d="M-461 -451l96 326h187l-168 -326h-115z" />
    <glyph glyph-name="uni0394" unicode="&#x394;" horiz-adv-x="940" 
d="M-27 0l543 1536h184l109 -1536h-836zM205 172h422l-66 1038z" />
    <glyph glyph-name="uni03A9" unicode="&#x3a9;" horiz-adv-x="1222" 
d="M1118 1128l-104 -749q-18 -114 -82 -207h168l-25 -172h-481l24 172q88 0 149.5 56.5t74.5 150.5l104 749q17 121 -43 195t-176 74q-114 0 -195 -74t-98 -195l-104 -749q-12 -94 33 -150.5t133 -56.5l-25 -172h-481l24 172h168q-38 90 -24 207l104 749q28 198 163.5 319.5
t326.5 121.5q192 0 293 -121.5t73 -319.5z" />
    <glyph glyph-name="pi" unicode="&#x3c0;" horiz-adv-x="1087" 
d="M897 -12q-160 0 -241 99t-58 269l84 605h-252l-135 -961h-164l133 961h-196l20 153h1032l-22 -153h-252l-84 -605q-12 -93 31 -148.5t129 -55.5h65l-24 -164h-66z" />
    <glyph glyph-name="Wgrave" unicode="&#x1e80;" horiz-adv-x="1339" 
d="M895 1667h-127l-135 352h174zM1225 1536h176l-426 -1536h-184l-48 1067l-350 -1067h-184l4 1536h176l-14 -1147l356 1147h152l35 -1149z" />
    <glyph glyph-name="wgrave" unicode="&#x1e81;" horiz-adv-x="1144" 
d="M737 1245h-127l-135 352h174zM999 1114h172l-335 -1114h-183l-51 766l-266 -766h-182l-25 1114h172l-10 -852l284 852h152l43 -852z" />
    <glyph glyph-name="Wacute" unicode="&#x1e82;" horiz-adv-x="1339" 
d="M1122 2019l-233 -352h-127l186 352h174zM1225 1536h176l-426 -1536h-184l-48 1067l-350 -1067h-184l4 1536h176l-14 -1147l356 1147h152l35 -1149z" />
    <glyph glyph-name="wacute" unicode="&#x1e83;" horiz-adv-x="1144" 
d="M965 1597l-234 -352h-127l187 352h174zM999 1114h172l-335 -1114h-183l-51 766l-266 -766h-182l-25 1114h172l-10 -852l284 852h152l43 -852z" />
    <glyph glyph-name="Wdieresis" unicode="&#x1e84;" horiz-adv-x="1339" 
d="M809 2019l-33 -239h-147l33 239h147zM1100 2019l-35 -239h-145l32 239h148zM1225 1536h176l-426 -1536h-184l-48 1067l-350 -1067h-184l4 1536h176l-14 -1147l356 1147h152l35 -1149z" />
    <glyph glyph-name="wdieresis" unicode="&#x1e85;" horiz-adv-x="1144" 
d="M651 1597l-33 -239h-147l33 239h147zM942 1597l-35 -239h-145l33 239h147zM999 1114h172l-335 -1114h-183l-51 766l-266 -766h-182l-25 1114h172l-10 -852l284 852h152l43 -852z" />
    <glyph glyph-name="endash" unicode="&#x2013;" horiz-adv-x="1077" 
d="M129 471l25 172h794l-24 -172h-795z" />
    <glyph glyph-name="emdash" unicode="&#x2014;" horiz-adv-x="1282" 
d="M129 471l25 172h999l-25 -172h-999z" />
    <glyph glyph-name="quoteleft" unicode="&#x2018;" horiz-adv-x="485" 
d="M231 1077l41 281l76 178h103l-76 -178h69l-41 -281h-172z" />
    <glyph glyph-name="quoteright" unicode="&#x2019;" horiz-adv-x="485" 
d="M246 1077l78 176h-70l39 283h172l-39 -283l-78 -176h-102z" />
    <glyph glyph-name="quotesinglbase" unicode="&#x201a;" horiz-adv-x="487" 
d="M70 -178l77 178h-69l39 283h172l-39 -283l-78 -178h-102z" />
    <glyph glyph-name="quotedblleft" unicode="&#x201c;" horiz-adv-x="780" 
d="M231 1077l41 281l76 178h103l-76 -178h69l-41 -281h-172zM526 1077l41 281l76 178h102l-75 -178h69l-41 -281h-172z" />
    <glyph glyph-name="quotedblright" unicode="&#x201d;" horiz-adv-x="780" 
d="M246 1077l78 176h-70l39 283h172l-39 -283l-78 -176h-102zM541 1077l77 176h-69l39 283h172l-39 -283l-78 -176h-102z" />
    <glyph glyph-name="quotedblbase" unicode="&#x201e;" horiz-adv-x="782" 
d="M70 -178l77 178h-69l39 283h172l-39 -283l-78 -178h-102zM365 -178l77 178h-69l39 283h172l-39 -283l-78 -178h-102z" />
    <glyph glyph-name="dagger" unicode="&#x2020;" horiz-adv-x="862" 
d="M352 567l78 559h-252l21 156h254l34 254h162l-35 -254h252l-22 -156h-252l-78 -559h-162z" />
    <glyph glyph-name="daggerdbl" unicode="&#x2021;" horiz-adv-x="952" 
d="M397 567l35 256h-252l23 154h252l20 149h-252l23 156h252l34 254h162l-35 -254h252l-22 -156h-252l-21 -149h252l-20 -154h-254l-35 -256h-162z" />
    <glyph glyph-name="bullet" unicode="&#x2022;" horiz-adv-x="737" 
d="M340 344q-81 0 -133.5 53t-52.5 129q0 95 75 169.5t170 74.5q78 0 130.5 -53.5t52.5 -130.5q0 -95 -74 -168.5t-168 -73.5z" />
    <glyph glyph-name="ellipsis" unicode="&#x2026;" horiz-adv-x="1318" 
d="M119 0l35 256h172l-35 -256h-172zM496 0l34 256h172l-34 -256h-172zM872 0l35 256h172l-35 -256h-172z" />
    <glyph glyph-name="perthousand" unicode="&#x2030;" horiz-adv-x="2074" 
d="M395 834q-111 0 -170.5 69t-42.5 182l31 224q17 114 95 184t190 70q110 0 169 -70t44 -184l-33 -224q-15 -114 -92.5 -182.5t-190.5 -68.5zM240 0l888 1536h146l-889 -1536h-145zM414 967q51 0 86.5 32.5t44.5 85.5l30 224q7 54 -19.5 87.5t-76.5 33.5q-52 0 -87.5 -33.5
t-43.5 -87.5l-33 -224q-7 -52 21 -85t78 -33zM1018 -27q-111 0 -171.5 69.5t-43.5 182.5l33 224q17 114 94.5 183.5t189.5 69.5q110 0 170 -70t43 -183l-33 -224q-17 -115 -93.5 -183.5t-188.5 -68.5zM1636 -27q-110 0 -170 69.5t-43 182.5l33 224q17 115 94 184t189 69
q111 0 170.5 -70t42.5 -183l-31 -224q-17 -115 -94.5 -183.5t-190.5 -68.5zM1036 106q51 0 86 33t43 86l33 224q7 54 -19.5 87t-76.5 33q-52 0 -88 -33t-45 -87l-31 -224q-8 -53 19.5 -86t78.5 -33zM1655 106q50 0 86 33t45 86l31 224q9 53 -19 86.5t-78 33.5
q-51 0 -87.5 -33t-43.5 -87l-33 -224q-7 -52 21 -85.5t78 -33.5z" />
    <glyph glyph-name="guilsinglleft" unicode="&#x2039;" horiz-adv-x="604" 
d="M428 0l-395 451l14 98l520 450l-28 -200l-334 -299l250 -299z" />
    <glyph glyph-name="guilsinglright" unicode="&#x203a;" horiz-adv-x="604" 
d="M20 0l29 201l336 299l-252 299l29 200l393 -450l-14 -98z" />
    <glyph glyph-name="fraction" unicode="&#x2044;" horiz-adv-x="425" 
d="M-276 0l890 1536h146l-891 -1536h-145z" />
    <glyph glyph-name="uni2070" unicode="&#x2070;" horiz-adv-x="653" 
d="M475 1618q98 0 151 -63t40 -164l-72 -508q-13 -101 -84.5 -164.5t-169.5 -63.5q-99 0 -151.5 63t-38.5 165l71 508q13 101 83.5 164t170.5 63zM344 1391l-65 -467l233 557q-22 16 -53 16q-44 0 -76.5 -29t-38.5 -77zM471 883l66 471l-236 -559q27 -17 57 -17
q43 0 75 28.5t38 76.5z" />
    <glyph glyph-name="uni2074" unicode="&#x2074;" horiz-adv-x="606" 
d="M365 676l24 182h-328l15 111l426 628h112l-86 -616h80l-18 -123h-78l-27 -182h-120zM205 981h201l55 385z" />
    <glyph glyph-name="uni2075" unicode="&#x2075;" horiz-adv-x="632" 
d="M344 655q-99 0 -151.5 63t-38.5 165l4 39h123l-5 -39q-6 -46 17.5 -75.5t68.5 -29.5q43 0 75 29.5t38 75.5l25 178q7 47 -17.5 75.5t-70.5 28.5q-44 0 -75.5 -29t-35.5 -75l-2 -12h-123l78 548h424l-16 -120h-304l-32 -232q46 43 112 43q95 0 146.5 -63t38.5 -164
l-25 -178q-13 -101 -84.5 -164.5t-169.5 -63.5z" />
    <glyph glyph-name="uni2076" unicode="&#x2076;" horiz-adv-x="641" 
d="M340 655q-99 0 -151.5 63t-38.5 165l71 508q13 101 83.5 164t170.5 63q99 0 152 -63.5t39 -163.5l-7 -39h-122l6 39q6 46 -17.5 76t-66.5 30q-45 0 -77 -30t-38 -76l-22 -146q46 43 112 43q95 0 146 -63t38 -164l-24 -178q-13 -101 -84.5 -164.5t-169.5 -63.5zM358 778
q43 0 75 29.5t38 75.5l25 178q7 47 -17.5 75.5t-70.5 28.5q-44 0 -75.5 -29t-35.5 -75l-25 -178q-6 -46 17.5 -75.5t68.5 -29.5z" />
    <glyph glyph-name="uni2077" unicode="&#x2077;" horiz-adv-x="473" 
d="M102 676l347 801h-312l17 120h434l-15 -110l-342 -811h-129z" />
    <glyph glyph-name="uni2078" unicode="&#x2078;" horiz-adv-x="641" 
d="M334 655q-99 0 -152.5 63.5t-38.5 164.5l15 98q19 110 90 166q-60 63 -43 166l10 78q15 100 84.5 163.5t169.5 63.5q98 0 151.5 -62t38.5 -165l-12 -78q-17 -110 -90 -166q59 -66 45 -166l-14 -98q-15 -102 -85 -165t-169 -63zM412 1208q44 0 75 29t39 76l11 78
q8 46 -16 76t-68 30t-76.5 -30t-38.5 -76l-12 -78q-6 -48 17 -76.5t69 -28.5zM352 778q43 0 75 29.5t38 75.5l16 98q6 47 -18.5 75.5t-67.5 28.5q-44 0 -75.5 -28.5t-38.5 -75.5l-15 -98q-7 -46 17.5 -75.5t68.5 -29.5z" />
    <glyph glyph-name="uni2079" unicode="&#x2079;" horiz-adv-x="643" 
d="M330 655q-99 0 -152 63t-39 165l4 39h123l-4 -39q-6 -46 17.5 -75.5t68.5 -29.5q43 0 75 29.5t38 75.5l20 145q-46 -43 -112 -43q-94 0 -146 63t-39 164l27 179q15 102 85 164.5t169 62.5q98 0 151 -63t39 -164l-71 -508q-13 -101 -84.5 -164.5t-169.5 -63.5zM395 1108
q45 0 75 28.5t36 75.5l26 179q7 46 -16.5 76t-66.5 30q-45 0 -77 -30t-38 -76l-27 -179q-7 -46 17.5 -75t70.5 -29z" />
    <glyph glyph-name="uni2080" unicode="&#x2080;" horiz-adv-x="653" 
d="M373 881q98 0 151 -63.5t39 -164.5l-71 -508q-13 -101 -84 -164t-170 -63t-152 62.5t-39 164.5l72 508q14 101 84 164.5t170 63.5zM242 653l-66 -467l234 557q-24 17 -54 17q-44 0 -76 -29t-38 -78zM369 145l65 471l-235 -559q26 -16 57 -16q43 0 75 28t38 76z" />
    <glyph glyph-name="uni2081" unicode="&#x2081;" horiz-adv-x="403" 
d="M72 -61l96 694h-133l18 121h29q48 0 80.5 25t36.5 67v14h123l-129 -921h-121z" />
    <glyph glyph-name="uni2082" unicode="&#x2082;" horiz-adv-x="579" 
d="M-23 -61l15 108q11 78 53 143.5t95.5 109.5t106 82.5t92 81.5t46.5 89l14 100q7 46 -17.5 76.5t-68.5 30.5q-41 0 -73.5 -30.5t-38.5 -76.5l-6 -39h-121l4 39q15 100 84.5 164t167.5 64q100 0 153 -63.5t39 -164.5l-14 -100q-8 -52 -38 -100t-69.5 -82.5t-85 -71.5
t-85 -68.5t-69 -72.5t-36.5 -84l-2 -13h315l-16 -122h-445z" />
    <glyph glyph-name="uni2083" unicode="&#x2083;" horiz-adv-x="602" 
d="M193 -82q-98 0 -150.5 62.5t-40.5 164.5l6 39h121l-4 -39q-6 -46 18 -75t68 -29t75.5 29t39.5 75l14 101q6 45 -18.5 74.5t-67.5 29.5h-84l18 123h82q44 0 77.5 29.5t37.5 75.5l12 75q5 47 -18.5 77t-67.5 30t-76 -30.5t-38 -76.5l-7 -39h-120l4 39q15 101 84.5 164.5
t169.5 63.5q98 0 150.5 -63.5t37.5 -164.5l-10 -75q-16 -112 -90 -166q59 -62 45 -166l-15 -101q-15 -101 -85 -164t-168 -63z" />
    <glyph glyph-name="uni2084" unicode="&#x2084;" horiz-adv-x="606" 
d="M262 -61l25 182h-328l14 110l426 629h113l-86 -616h80l-19 -123h-77l-27 -182h-121zM102 244h201l55 385z" />
    <glyph glyph-name="uni2085" unicode="&#x2085;" horiz-adv-x="632" 
d="M242 -82q-99 0 -152 62.5t-39 164.5l4 39h123l-4 -39q-6 -46 17.5 -75t68.5 -29q43 0 75 29t38 75l24 179q7 47 -17.5 75.5t-70.5 28.5q-44 0 -74.5 -29t-35.5 -75l-2 -13h-123l78 549h423l-16 -121h-303l-33 -231q46 43 113 43q95 0 146 -63t38 -164l-24 -179
q-13 -101 -84 -164t-170 -63z" />
    <glyph glyph-name="uni2086" unicode="&#x2086;" horiz-adv-x="641" 
d="M238 -82q-99 0 -152 62.5t-39 164.5l72 508q14 101 84 164.5t170 63.5q99 0 151.5 -63.5t38.5 -164.5l-6 -39h-123l6 39q6 46 -17.5 76.5t-66.5 30.5q-45 0 -76.5 -30t-37.5 -77l-23 -145q46 43 113 43q95 0 146 -63t38 -164l-24 -179q-13 -101 -84 -164t-170 -63z
M256 41q43 0 75 29t38 75l24 179q7 47 -17.5 75.5t-70.5 28.5q-44 0 -74.5 -29t-35.5 -75l-25 -179q-6 -46 17.5 -75t68.5 -29z" />
    <glyph glyph-name="uni2087" unicode="&#x2087;" horiz-adv-x="473" 
d="M0 -61l346 800h-311l16 121h434l-14 -110l-342 -811h-129z" />
    <glyph glyph-name="uni2088" unicode="&#x2088;" horiz-adv-x="641" 
d="M231 -82q-99 0 -152 63t-38 164l14 99q19 110 90 166q-60 63 -43 165l11 78q15 100 84.5 164t169.5 64q98 0 151.5 -62.5t38.5 -165.5l-12 -78q-16 -109 -90 -165q59 -66 45 -166l-15 -99q-15 -102 -85 -164.5t-169 -62.5zM309 471q44 0 76 28.5t39 75.5l10 78
q8 46 -16 76.5t-68 30.5t-76 -30.5t-38 -76.5l-13 -78q-6 -47 17 -75.5t69 -28.5zM250 41q44 0 75 29t37 75l17 99q6 47 -18.5 75.5t-67.5 28.5q-44 0 -76 -28.5t-39 -75.5l-14 -99q-7 -45 17 -74.5t69 -29.5z" />
    <glyph glyph-name="uni2089" unicode="&#x2089;" horiz-adv-x="643" 
d="M227 -82q-99 0 -151.5 62.5t-38.5 164.5l4 39h123l-4 -39q-6 -46 17.5 -75t68.5 -29q43 0 74.5 29t37.5 75l21 146q-46 -43 -113 -43q-94 0 -145.5 63t-38.5 164l27 178q15 102 84.5 165t168.5 63q98 0 151 -63.5t40 -164.5l-72 -508q-13 -101 -84 -164t-170 -63z
M293 371q44 0 74 29t36 75l27 178q7 46 -17 76.5t-67 30.5q-45 0 -77 -30.5t-38 -76.5l-26 -178q-7 -46 17.5 -75t70.5 -29z" />
    <glyph glyph-name="franc" unicode="&#x20a3;" horiz-adv-x="905" 
d="M911 1364h-448l-86 -608h395l-24 -172h-396l-30 -228h221l-23 -157h-221l-27 -199h-172l29 199h-78l23 157h76l165 1180h621z" />
    <glyph glyph-name="lira" unicode="&#x20a4;" horiz-adv-x="1132" 
d="M801 1563q165 0 251.5 -104.5t61.5 -274.5l-8 -56h-172l8 56q13 94 -32.5 150.5t-133.5 56.5t-148.5 -56.5t-72.5 -150.5l-47 -336h283l-23 -158h-283l-24 -180h280l-20 -156h-283l-26 -196h450l-22 -158h-770l22 158h148l26 196h-145l20 156h148l24 180h-145l20 158h148
l47 336q25 173 139 276t279 103z" />
    <glyph glyph-name="peseta" unicode="&#x20a7;" horiz-adv-x="1153" 
d="M1143 1165l-23 -157h-174q-25 -161 -131.5 -256t-257.5 -95h-207l-90 -657h-172l141 1008h-30l22 157h31l51 371h379q152 0 233 -96t58 -256l-2 -19h172zM451 1364l-29 -199h377l2 19q10 82 -29.5 131t-114.5 49h-206zM582 829q75 0 127.5 49.5t64.5 129.5h-375l-24 -179
h207z" />
    <glyph glyph-name="Euro" unicode="&#x20ac;" horiz-adv-x="1138" 
d="M778 1563q165 0 251.5 -104.5t60.5 -274.5l-9 -56h-172l9 56q15 93 -30.5 150t-133.5 57t-149.5 -56.5t-74.5 -150.5l-20 -148h283l-21 -157h-285l-30 -222h284l-22 -155h-285l-20 -150q-12 -94 33 -150.5t131 -56.5q88 0 149 56t74 151l8 56h172l-8 -56
q-25 -170 -138 -274.5t-280 -104.5q-164 0 -250 104.5t-63 274.5l20 150h-145l22 155h146l30 222h-145l23 157h145l20 148q25 170 140.5 274.5t279.5 104.5z" />
    <glyph glyph-name="uni2113" unicode="&#x2113;" horiz-adv-x="1212" 
d="M600 -25q-107 0 -182 67t-109 187q-141 -61 -266 -98l-12 121q149 45 258 94q-8 44 -8 115q0 245 88 476.5t230.5 375t293.5 143.5q120 0 192 -90.5t72 -232.5q0 -234 -187.5 -454t-537.5 -394q24 -92 72.5 -142.5t118.5 -50.5q92 0 173.5 76.5t112.5 193.5l121 -14
q-45 -163 -169 -268t-261 -105zM424 414q289 148 443.5 330t154.5 374q0 96 -41.5 156.5t-112.5 60.5q-99 0 -199 -112t-167.5 -293t-77.5 -371q-4 -91 0 -145z" />
    <glyph glyph-name="trademark" unicode="&#x2122;" horiz-adv-x="1423" 
d="M250 614l112 801h-147l16 121h420l-16 -121h-150l-112 -801h-123zM616 614l129 922h117l86 -707l283 707h119l-129 -922h-115l76 537l-219 -537h-89l-67 537l-76 -537h-115z" />
    <glyph glyph-name="estimated" unicode="&#x212e;" horiz-adv-x="1472" 
d="M664 -33q-123 0 -226 38.5t-172.5 106t-108 159t-38.5 196.5q0 178 96 333t258.5 247t349.5 92q131 0 239 -46.5t177.5 -126t105 -187t29.5 -228.5l-2 -12h-1003q-2 0 -5.5 -4t-3.5 -7l-43 -315q-3 -18 11 -37q59 -82 138.5 -127t203.5 -45t218.5 48t190.5 145h97
q-110 -113 -227 -171.5t-285 -58.5zM373 565h745q3 0 6 15l45 317q0 29 -10 39q-70 87 -144.5 127.5t-197.5 40.5q-119 0 -210 -45.5t-171 -128.5l-4 -4q-14 -14 -16.5 -18t-3.5 -12v-5l-43 -311q-3 -15 4 -15z" />
    <glyph glyph-name="oneeighth" unicode="&#x215b;" horiz-adv-x="1470" 
d="M166 614l100 707h-133l17 121h30q48 0 80 25t35 67l2 14h123l-131 -934h-123zM127 0l891 1536h145l-891 -1536h-145zM1069 -20q-99 0 -152 63t-38 164l14 98q19 110 90 166q-60 63 -43 166l10 78q15 100 84.5 163.5t169.5 63.5q98 0 152 -62t39 -165l-13 -78
q-17 -110 -90 -166q59 -66 45 -166l-14 -98q-15 -102 -85 -164.5t-169 -62.5zM1147 532q44 0 75.5 29t39.5 76l10 78q8 46 -16 76t-68 30t-76.5 -30t-38.5 -76l-12 -78q-6 -48 17.5 -76.5t68.5 -28.5zM1087 102q44 0 75.5 29.5t37.5 75.5l17 98q6 47 -19 76t-68 29
q-44 0 -75 -29t-39 -76l-15 -98q-7 -46 17.5 -75.5t68.5 -29.5z" />
    <glyph glyph-name="threeeighths" unicode="&#x215c;" horiz-adv-x="1669" 
d="M289 594q-99 0 -152 62.5t-39 164.5l4 39h123l-4 -39q-6 -46 17.5 -75t68.5 -29q43 0 75 29t38 75l14 101q7 45 -17 74.5t-67 29.5h-84l17 123h84q43 0 75.5 28.5t38.5 75.5l11 76q6 46 -17 76.5t-67 30.5t-76.5 -30.5t-38.5 -76.5l-6 -39h-123l6 39q15 102 85 164.5
t169 62.5q98 0 150 -63t38 -164l-10 -76q-16 -110 -90 -166q58 -66 45 -165l-14 -101q-15 -101 -85.5 -164t-168.5 -63zM326 0l891 1536h145l-891 -1536h-145zM1268 -20q-99 0 -152.5 63t-38.5 164l15 98q19 110 90 166q-60 63 -43 166l10 78q15 100 84.5 163.5t169.5 63.5
q98 0 151.5 -62t38.5 -165l-12 -78q-17 -110 -90 -166q59 -66 45 -166l-14 -98q-15 -102 -85 -164.5t-169 -62.5zM1346 532q44 0 75 29t39 76l10 78q8 46 -16 76t-68 30t-76 -30t-38 -76l-12 -78q-6 -48 17 -76.5t69 -28.5zM1286 102q44 0 75.5 29.5t37.5 75.5l16 98
q6 47 -18.5 76t-67.5 29q-44 0 -75.5 -29t-39.5 -76l-14 -98q-7 -46 17.5 -75.5t68.5 -29.5z" />
    <glyph glyph-name="fiveeighths" unicode="&#x215d;" horiz-adv-x="1699" 
d="M336 594q-99 0 -152 62.5t-39 164.5l5 39h122l-4 -39q-6 -46 17.5 -75t68.5 -29q43 0 75 29t38 75l25 178q7 47 -18 76t-71 29q-44 0 -74.5 -29.5t-35.5 -75.5l-2 -12h-123l78 549h424l-17 -121h-303l-33 -231q46 43 113 43q95 0 146.5 -63.5t37.5 -164.5l-24 -178
q-13 -101 -84 -164t-170 -63zM356 0l891 1536h146l-891 -1536h-146zM1298 -20q-99 0 -152 63t-38 164l14 98q19 110 90 166q-60 63 -43 166l11 78q15 100 84.5 163.5t169.5 63.5q98 0 151.5 -62t38.5 -165l-12 -78q-17 -110 -90 -166q59 -66 45 -166l-15 -98
q-15 -102 -85 -164.5t-169 -62.5zM1376 532q44 0 75.5 29t39.5 76l10 78q8 46 -16 76t-68 30t-76 -30t-38 -76l-13 -78q-6 -48 17 -76.5t69 -28.5zM1317 102q44 0 75.5 29.5t37.5 75.5l16 98q6 47 -18.5 76t-67.5 29q-44 0 -76 -29t-39 -76l-14 -98q-7 -46 17.5 -75.5
t68.5 -29.5z" />
    <glyph glyph-name="seveneighths" unicode="&#x215e;" horiz-adv-x="1540" 
d="M94 614l346 801h-311l16 121h435l-15 -111l-342 -811h-129zM197 0l890 1536h146l-891 -1536h-145zM1139 -20q-99 0 -152.5 63t-38.5 164l15 98q19 110 90 166q-60 63 -43 166l10 78q15 100 84.5 163.5t169.5 63.5q98 0 151.5 -62t38.5 -165l-12 -78q-17 -110 -90 -166
q59 -66 45 -166l-14 -98q-15 -102 -85 -164.5t-169 -62.5zM1217 532q44 0 75 29t39 76l10 78q8 46 -16 76t-68 30t-76 -30t-38 -76l-13 -78q-6 -47 17.5 -76t69.5 -29zM1157 102q44 0 75.5 29.5t37.5 75.5l16 98q6 47 -18.5 76t-67.5 29q-44 0 -76 -29t-39 -76l-14 -98
q-7 -46 17.5 -75.5t68.5 -29.5z" />
    <glyph glyph-name="arrowleft" unicode="&#x2190;" horiz-adv-x="1161" 
d="M1057 678l-25 -160h-612l-37 -256l-289 336l383 336l-37 -256h617z" />
    <glyph glyph-name="arrowup" unicode="&#x2191;" horiz-adv-x="819" 
d="M770 737h-254l-86 -614h-160l84 614h-256l383 336z" />
    <glyph glyph-name="arrowright" unicode="&#x2192;" horiz-adv-x="1161" 
d="M1077 598l-381 -336l37 256h-616l22 160h615l37 256z" />
    <glyph glyph-name="arrowdown" unicode="&#x2193;" horiz-adv-x="819" 
d="M477 457h254l-383 -334l-289 334h258l86 616h160z" />
    <glyph glyph-name="arrowboth" unicode="&#x2194;" horiz-adv-x="1359" 
d="M383 262l-289 336l383 336l-37 -256h512l37 256l287 -336l-381 -336l35 256h-512z" />
    <glyph glyph-name="arrowupdn" unicode="&#x2195;" horiz-adv-x="849" 
d="M346 0l-289 334h256l72 512h-256l383 336l289 -336h-256l-72 -512h256z" />
    <glyph glyph-name="uni2196" unicode="&#x2196;" horiz-adv-x="974" 
d="M864 317l-129 -112l-373 434l-204 -180l65 473l475 2l-206 -182z" />
    <glyph glyph-name="uni2197" unicode="&#x2197;" horiz-adv-x="974" 
d="M856 932l-63 -473l-156 180l-496 -434l-96 112l494 435l-156 182z" />
    <glyph glyph-name="uni2198" unicode="&#x2198;" horiz-adv-x="976" 
d="M618 502l205 178l-65 -473l-477 -2l208 184l-374 432l129 113z" />
    <glyph glyph-name="uni2199" unicode="&#x2199;" horiz-adv-x="974" 
d="M934 821l-496 -434l158 -182l-475 2l67 473l154 -178l496 432z" />
    <glyph glyph-name="partialdiff" unicode="&#x2202;" horiz-adv-x="1021" 
d="M647 1536q139 0 213.5 -90.5t54.5 -237.5l-170 -1208h-165l10 70q-92 -95 -230 -95q-140 0 -217 92t-53 265l35 246q24 173 126 264.5t243 91.5q139 0 204 -96l52 370q12 87 -31 140t-127 53h-47l18 135h84zM662 578q12 87 -29.5 139.5t-128.5 52.5q-86 0 -144.5 -52.5
t-70.5 -139.5l-33 -246q-12 -87 31 -140t127 -53q90 0 146 52t67 139z" />
    <glyph glyph-name="emptyset" unicode="&#x2205;" horiz-adv-x="1464" 
d="M1174 1104q87 -68 134.5 -171.5t47.5 -232.5q0 -149 -55.5 -283t-149.5 -231t-224.5 -154t-275.5 -57q-126 0 -235 45l-90 -126h-170l139 198q-84 70 -130 173.5t-46 230.5q0 148 55 281t149 229t224.5 152t275.5 56q129 0 230 -40l84 118h170zM283 520q0 -174 114 -282
l555 790q-70 25 -149 25q-143 0 -262.5 -71t-188.5 -193.5t-69 -268.5zM674 137q142 0 261.5 72t188 195.5t68.5 269.5q0 178 -119 284l-557 -794q79 -27 158 -27z" />
    <glyph glyph-name="product" unicode="&#x220f;" horiz-adv-x="1255" 
d="M188 -246l226 1610h-234l25 172h1118l-25 -172h-231l-225 -1610h-172l225 1610h-309l-226 -1610h-172z" />
    <glyph glyph-name="summation" unicode="&#x2211;" horiz-adv-x="923" 
d="M-2 -246l18 131l410 760l-199 760l19 131h721l-25 -172h-536l188 -719l-389 -719h538l-24 -172h-721z" />
    <glyph glyph-name="minus" unicode="&#x2212;" horiz-adv-x="1216" 
d="M199 471l24 172h795l-25 -172h-794z" />
    <glyph glyph-name="uni2215" unicode="&#x2215;" horiz-adv-x="864" 
d="M-2 -102l786 1699h181l-787 -1699h-180z" />
    <glyph glyph-name="uni2219" unicode="&#x2219;" horiz-adv-x="835" 
d="M436 299q-97 0 -161 64.5t-64 156.5q0 115 90.5 205t206.5 90q95 0 158 -64.5t63 -158.5q0 -115 -89.5 -204t-203.5 -89z" />
    <glyph glyph-name="radical" unicode="&#x221a;" horiz-adv-x="1198" 
d="M244 0l-119 842h174l80 -588l524 1282h363l-23 -162h-227l-574 -1374h-198z" />
    <glyph glyph-name="infinity" unicode="&#x221e;" horiz-adv-x="1611" 
d="M1212 909q114 0 182 -71t68 -183q0 -146 -98.5 -250t-237.5 -104h-39q-47 0 -91 19.5t-80.5 55t-62 68.5t-52.5 76q-44 -46 -77 -76.5t-81 -67.5t-97 -56t-97 -19h-39q-113 0 -181.5 70.5t-68.5 183.5q0 146 99 250t239 104h37q49 0 91.5 -16.5t80.5 -51t61 -61.5t57 -73
q46 45 78 73t79 61.5t95 50.5t97 17h38zM477 426q14 0 28.5 2.5t30 10t27.5 13.5t29.5 20t28 21.5t31 27t29 28t32.5 32t32 31.5q-9 10 -38.5 46t-43 49.5t-38.5 35.5t-49 30.5t-50 8.5h-37q-74 0 -130 -61.5t-56 -145.5q0 -62 37.5 -105.5t99.5 -43.5h37zM1133 426
q75 0 131.5 62.5t56.5 144.5q0 63 -38 106t-101 43h-37q-29 0 -60 -12t-65.5 -37.5t-58.5 -46.5t-63 -58l-6 -6l-5 -5t-6 -5q10 -13 30 -40.5t29.5 -40t27 -33.5t30 -30.5t29 -21t33.5 -16t36 -4.5h37z" />
    <glyph glyph-name="integral" unicode="&#x222b;" horiz-adv-x="837" 
d="M-63 -369l22 164h84q86 0 144.5 57t72.5 150l166 1184q23 164 134.5 267t268.5 103h82l-20 -163h-84q-86 0 -144.5 -57t-72.5 -150l-166 -1184q-22 -164 -134.5 -267.5t-271.5 -103.5h-81z" />
    <glyph glyph-name="approxequal" unicode="&#x2248;" horiz-adv-x="1126" 
d="M164 666l6 43q14 110 85 173.5t181 63.5q47 0 86.5 -12.5t67 -31t51.5 -36.5t50.5 -30.5t53.5 -12.5q42 0 67 23.5t30 62.5l4 41h164l-9 -53q-15 -106 -79 -167.5t-158 -61.5q-52 0 -99 20.5t-76.5 45t-68.5 45t-76 20.5q-44 0 -75 -26t-37 -71l-4 -36h-164zM90 145l6 43
q13 110 84.5 173t181.5 63q47 0 87.5 -12.5t68 -31t52 -36.5t51 -30.5t53.5 -12.5q81 0 94 86l6 41h164l-8 -51q-15 -106 -80 -168t-158 -62q-52 0 -99 20.5t-77 45.5t-69 45.5t-76 20.5q-44 0 -75.5 -27t-37.5 -72l-4 -35h-164z" />
    <glyph glyph-name="notequal" unicode="&#x2260;" horiz-adv-x="985" 
d="M856 676h-242l-120 -238h329l-24 -172h-393l-138 -266h-131l137 266h-168l25 172h231l121 238h-319l24 172h383l138 266h131l-138 -266h179z" />
    <glyph glyph-name="lessequal" unicode="&#x2264;" horiz-adv-x="923" 
d="M741 279l-606 479l19 129l739 475l-27 -180l-544 -361l444 -362zM29 0l20 152h674l-21 -152h-673z" />
    <glyph glyph-name="greaterequal" unicode="&#x2265;" horiz-adv-x="923" 
d="M102 279l25 180l549 362l-449 361l27 180l606 -475l-18 -129zM63 0l21 152h674l-21 -152h-674z" />
    <glyph glyph-name="lozenge" unicode="&#x25ca;" horiz-adv-x="933" 
d="M291 0l-166 768l379 768h198l166 -768l-379 -768h-198zM422 231l266 537l-117 537l-268 -537z" />
    <glyph glyph-name="uniF8FF" unicode="&#xf8ff;" horiz-adv-x="1607" 
d="M807 567v422h47v-268l150 158h57l-111 -119l119 -193h-57l-94 156l-64 -66v-90h-47zM350 567q-92 0 -92 86v185h-72v41h72v75h47v-75h80v-41h-80v-185q0 -22 11.5 -31.5t37.5 -9.5h31v-45h-35zM584 559q-70 0 -113 45.5t-43 120.5q0 72 43 117t113 45t113.5 -45
t43.5 -119t-43.5 -119t-113.5 -45zM1249 559q-71 0 -114 45.5t-43 120.5q0 72 42.5 117t112.5 45q71 0 114.5 -45.5t43.5 -118.5q0 -74 -43 -119t-113 -45zM584 600q51 0 80.5 34t29.5 91q0 55 -29.5 88t-80.5 33q-50 0 -80.5 -33.5t-30.5 -87.5q0 -57 30.5 -91t80.5 -34z
M1249 600q51 0 80 34t29 91q0 55 -29.5 88t-79.5 33q-51 0 -80.5 -33t-29.5 -88q0 -57 29.5 -91t80.5 -34zM350 109q-92 0 -92 86v184h-72v41h72v76h47v-76h80v-41h-80v-184q0 -22 11.5 -31.5t37.5 -9.5h31v-45h-35zM772 10v410h47v-45q40 53 107 53q64 0 102.5 -45
t38.5 -119t-38.5 -119t-102.5 -45q-68 0 -107 54v-144h-47zM1272 100q-72 0 -115 45t-43 119q0 73 42.5 118.5t111.5 45.5q67 0 107 -43t40 -115q0 -18 -2 -26h-252q6 -46 36 -74.5t75 -28.5q33 0 58.5 16.5t31.5 41.5h49q-8 -44 -46 -71.5t-93 -27.5zM436 0v45h35
q27 0 39.5 6.5t21.5 26.5l13 28l-129 314h53l104 -258l95 258h53l-135 -340q-19 -46 -43.5 -63t-71.5 -17h-35zM918 141q45 0 73.5 33t28.5 90t-28.5 90t-73.5 33q-44 0 -71.5 -32.5t-27.5 -88.5v-4q0 -56 27.5 -88.5t71.5 -32.5zM1161 285h209q0 47 -27.5 74.5t-74.5 27.5
q-46 0 -74 -27.5t-33 -74.5z" />
    <glyph glyph-name="G.ss03" horiz-adv-x="1011" 
d="M436 -33q-165 0 -251.5 104.5t-61.5 274.5l119 844q25 171 139 275t278 104q165 0 253.5 -105t62.5 -274l-8 -55h-172l8 55q13 93 -33 150t-133 57q-88 0 -148.5 -56.5t-74.5 -150.5l-119 -844q-12 -94 33 -150.5t133 -56.5t148.5 56.5t74.5 150.5l59 428h-194l24 172
h367l-84 -600q-25 -172 -140.5 -275.5t-279.5 -103.5z" />
    <glyph glyph-name="Gbreve.ss03" horiz-adv-x="1011" 
d="M690 1778q-100 0 -156.5 61.5t-41.5 159.5l2 20h118l-4 -20q-6 -52 21.5 -83.5t75.5 -31.5t83.5 31.5t42.5 83.5l3 20h118l-2 -20q-15 -99 -87.5 -160t-172.5 -61zM436 -33q-165 0 -251.5 104.5t-61.5 274.5l119 844q25 171 139 275t278 104q165 0 253.5 -105t62.5 -274
l-8 -55h-172l8 55q13 93 -33 150t-133 57q-88 0 -148.5 -56.5t-74.5 -150.5l-119 -844q-12 -94 33 -150.5t133 -56.5t148.5 56.5t74.5 150.5l59 428h-194l24 172h367l-84 -600q-25 -172 -140.5 -275.5t-279.5 -103.5z" />
    <glyph glyph-name="Gcircumflex.ss03" horiz-adv-x="1011" 
d="M381 1720l272 299h138l188 -299h-164l-108 189l-162 -189h-164zM436 -33q-165 0 -251.5 104.5t-61.5 274.5l119 844q25 171 139 275t278 104q165 0 253.5 -105t62.5 -274l-8 -55h-172l8 55q13 93 -33 150t-133 57q-88 0 -148.5 -56.5t-74.5 -150.5l-119 -844
q-12 -94 33 -150.5t133 -56.5t148.5 56.5t74.5 150.5l59 428h-194l24 172h367l-84 -600q-25 -172 -140.5 -275.5t-279.5 -103.5z" />
    <glyph glyph-name="Gcommaaccent.ss03" horiz-adv-x="1011" 
d="M436 -33q-165 0 -251.5 104.5t-61.5 274.5l119 844q25 171 139 275t278 104q165 0 253.5 -105t62.5 -274l-8 -55h-172l8 55q13 93 -33 150t-133 57q-88 0 -148.5 -56.5t-74.5 -150.5l-119 -844q-12 -94 33 -150.5t133 -56.5t148.5 56.5t74.5 150.5l59 428h-194l24 172
h367l-84 -600q-25 -172 -140.5 -275.5t-279.5 -103.5zM248 -451l96 326h186l-168 -326h-114z" />
    <glyph glyph-name="Gdotaccent.ss03" horiz-adv-x="1011" 
d="M608 1718l33 240h147l-32 -240h-148zM436 -33q-165 0 -251.5 104.5t-61.5 274.5l119 844q25 171 139 275t278 104q165 0 253.5 -105t62.5 -274l-8 -55h-172l8 55q13 93 -33 150t-133 57q-88 0 -148.5 -56.5t-74.5 -150.5l-119 -844q-12 -94 33 -150.5t133 -56.5
t148.5 56.5t74.5 150.5l59 428h-194l24 172h367l-84 -600q-25 -172 -140.5 -275.5t-279.5 -103.5z" />
    <glyph glyph-name="IJ.ss04" horiz-adv-x="1458" 
d="M270 0h-172l215 1536h172zM848 -12q-164 0 -246 102.5t-65 276.5l2 20h172l-2 -20q-11 -95 32.5 -151t130.5 -56q88 0 149.5 56.5t74.5 150.5l164 1169h172l-164 -1169q-25 -171 -140 -275t-280 -104z" />
    <glyph glyph-name="J.ss04" horiz-adv-x="933" 
d="M324 -12q-164 0 -246.5 102.5t-65.5 276.5l2 20h172l-2 -20q-11 -95 33 -151t131 -56q88 0 148.5 56.5t74.5 150.5l164 1169h172l-164 -1169q-25 -172 -140 -275.5t-279 -103.5z" />
    <glyph glyph-name="Jcircumflex.ss04" horiz-adv-x="933" 
d="M545 1720l272 299h137l189 -299h-164l-109 189l-161 -189h-164zM324 -12q-164 0 -246.5 102.5t-65.5 276.5l2 20h172l-2 -20q-11 -95 33 -151t131 -56q88 0 148.5 56.5t74.5 150.5l164 1169h172l-164 -1169q-25 -172 -140 -275.5t-279 -103.5z" />
    <glyph glyph-name="a.ss01" horiz-adv-x="925" 
d="M528 1139q157 0 241.5 -100.5t61.5 -262.5l-108 -776h-164l10 80q-97 -105 -260 -105q-132 0 -204 67.5t-72 182.5q0 234 241 328q43 17 104 34t104.5 28.5t85.5 29t66.5 45.5t29.5 68l4 24q11 87 -33 140t-129 53q-87 0 -146.5 -54t-60.5 -139l-4 -34h-160l2 28
q9 161 120.5 262t270.5 101zM606 342l27 190q-49 -30 -153.5 -55.5t-123.5 -32.5q-155 -52 -155 -178q0 -61 44 -98t124 -37q99 0 161.5 55t75.5 156z" />
    <glyph glyph-name="aacute.ss01" 
d="M872 1597l-233 -352h-127l186 352h174zM729 1114h164l-156 -1114h-164l11 70q-95 -95 -232 -95q-140 0 -216.5 92t-51.5 265l61 450q25 173 128 265t243 92q138 0 203 -97zM682 782q12 88 -29.5 140.5t-128.5 52.5q-86 0 -143.5 -53t-69.5 -140l-63 -450q-12 -87 31 -140
t127 -53q88 0 145.5 52t69.5 139z" />
    <glyph glyph-name="abreve.ss01" 
d="M594 1356q-100 0 -157 61.5t-42 159.5l2 20h119l-4 -20q-6 -52 21 -83.5t75 -31.5t84 31.5t43 83.5l2 20h119l-2 -20q-15 -99 -87.5 -160t-172.5 -61zM729 1114h164l-156 -1114h-164l11 70q-95 -95 -232 -95q-140 0 -216.5 92t-51.5 265l61 450q25 173 128 265t243 92
q138 0 203 -97zM682 782q12 88 -29.5 140.5t-128.5 52.5q-86 0 -143.5 -53t-69.5 -140l-63 -450q-12 -87 31 -140t127 -53q88 0 145.5 52t69.5 139z" />
    <glyph glyph-name="acircumflex.ss01" 
d="M610 1487l-161 -189h-164l272 299h137l189 -299h-164zM729 1114h164l-156 -1114h-164l11 70q-95 -95 -232 -95q-140 0 -216.5 92t-51.5 265l61 450q25 173 128 265t243 92q138 0 203 -97zM682 782q12 88 -29.5 140.5t-128.5 52.5q-86 0 -143.5 -53t-69.5 -140l-63 -450
q-12 -87 31 -140t127 -53q88 0 145.5 52t69.5 139z" />
    <glyph glyph-name="adieresis.ss01" 
d="M559 1597l-33 -239h-147l33 239h147zM850 1597l-35 -239h-145l32 239h148zM729 1114h164l-156 -1114h-164l11 70q-95 -95 -232 -95q-140 0 -216.5 92t-51.5 265l61 450q25 173 128 265t243 92q138 0 203 -97zM682 782q12 88 -29.5 140.5t-128.5 52.5q-86 0 -143.5 -53
t-69.5 -140l-63 -450q-12 -87 31 -140t127 -53q88 0 145.5 52t69.5 139z" />
    <glyph glyph-name="agrave.ss01" 
d="M645 1245h-127l-135 352h174zM729 1114h164l-156 -1114h-164l11 70q-95 -95 -232 -95q-140 0 -216.5 92t-51.5 265l61 450q25 173 128 265t243 92q138 0 203 -97zM682 782q12 88 -29.5 140.5t-128.5 52.5q-86 0 -143.5 -53t-69.5 -140l-63 -450q-12 -87 31 -140t127 -53
q88 0 145.5 52t69.5 139z" />
    <glyph glyph-name="amacron.ss01" 
d="M825 1409l-18 -129h-453l19 129h452zM729 1114h164l-156 -1114h-164l11 70q-95 -95 -232 -95q-140 0 -216.5 92t-51.5 265l61 450q25 173 128 265t243 92q138 0 203 -97zM682 782q12 88 -29.5 140.5t-128.5 52.5q-86 0 -143.5 -53t-69.5 -140l-63 -450q-12 -87 31 -140
t127 -53q88 0 145.5 52t69.5 139z" />
    <glyph glyph-name="aogonek.ss01" horiz-adv-x="925" 
d="M729 1114h164l-156 -1114h-53q-149 -112 -149 -219q0 -40 31.5 -65t86.5 -25h31l-18 -127h-41q-105 0 -164.5 48t-59.5 126q0 149 174 272l9 60q-95 -95 -232 -95q-140 0 -216.5 92t-51.5 265l61 450q25 173 128 265t243 92q138 0 203 -97zM406 139q88 0 145.5 52
t69.5 139l61 452q12 88 -29.5 140.5t-128.5 52.5q-86 0 -143.5 -53t-69.5 -140l-63 -450q-12 -87 31 -140t127 -53z" />
    <glyph glyph-name="aring.ss01" 
d="M567 1174q-71 0 -118.5 45t-47.5 116q0 91 65.5 157.5t154.5 66.5q72 0 119.5 -45t47.5 -119q0 -91 -65 -156t-156 -65zM606 1450q-38 0 -67 -29.5t-29 -66.5q0 -31 21.5 -51.5t50.5 -20.5q37 0 67.5 28t30.5 68q0 31 -22 51.5t-52 20.5zM729 1114h164l-156 -1114h-164
l11 70q-95 -95 -232 -95q-140 0 -216.5 92t-51.5 265l61 450q25 173 128 265t243 92q138 0 203 -97zM682 782q12 88 -29.5 140.5t-128.5 52.5q-86 0 -143.5 -53t-69.5 -140l-63 -450q-12 -87 31 -140t127 -53q88 0 145.5 52t69.5 139z" />
    <glyph glyph-name="atilde.ss01" 
d="M455 1337l-4 -39h-134l7 48q10 75 52.5 115t102.5 40q71 0 131 -51q2 -2 10.5 -10t10.5 -10t9.5 -8t10.5 -8t9.5 -6t11 -5t10.5 -2.5t12 -1.5q18 0 30.5 17t14.5 38l6 43h134l-9 -55q-10 -74 -53 -114t-102 -40q-68 0 -129 49q-6 5 -17.5 15.5t-17 15.5t-15 11.5t-17.5 9
t-17 2.5q-19 0 -31.5 -16.5t-15.5 -37.5zM729 1114h164l-156 -1114h-164l11 70q-95 -95 -232 -95q-140 0 -216.5 92t-51.5 265l61 450q25 173 128 265t243 92q138 0 203 -97zM682 782q12 88 -29.5 140.5t-128.5 52.5q-86 0 -143.5 -53t-69.5 -140l-63 -450q-12 -87 31 -140
t127 -53q88 0 145.5 52t69.5 139z" />
    <glyph glyph-name="y.ss02" horiz-adv-x="948" 
d="M721 1114h164l-158 -1126q-23 -163 -134.5 -263t-268.5 -100q-158 0 -238 100t-63 265l4 28h163l-4 -36q-9 -88 33 -140.5t127 -52.5q86 0 144.5 53t70.5 140l33 231q-94 -94 -232 -94q-140 0 -216.5 91t-51.5 265l90 639h164l-90 -639q-12 -87 31 -139.5t129 -52.5
q88 0 144.5 51.5t68.5 138.5z" />
    <glyph glyph-name="yacute.ss02" horiz-adv-x="948" 
d="M848 1597l-234 -352h-127l187 352h174zM721 1114h164l-158 -1126q-23 -163 -134.5 -263t-268.5 -100q-158 0 -238 100t-63 265l4 28h163l-4 -36q-9 -88 33 -140.5t127 -52.5q86 0 144.5 53t70.5 140l33 231q-94 -94 -232 -94q-140 0 -216.5 91t-51.5 265l90 639h164
l-90 -639q-12 -87 31 -139.5t129 -52.5q88 0 144.5 51.5t68.5 138.5z" />
    <glyph glyph-name="ycircumflex.ss02" horiz-adv-x="948" 
d="M586 1487l-162 -189h-164l272 299h138l188 -299h-164zM721 1114h164l-158 -1126q-23 -163 -134.5 -263t-268.5 -100q-158 0 -238 100t-63 265l4 28h163l-4 -36q-9 -88 33 -140.5t127 -52.5q86 0 144.5 53t70.5 140l33 231q-94 -94 -232 -94q-140 0 -216.5 91t-51.5 265
l90 639h164l-90 -639q-12 -87 31 -139.5t129 -52.5q88 0 144.5 51.5t68.5 138.5z" />
    <glyph glyph-name="ydieresis.ss02" horiz-adv-x="948" 
d="M535 1597l-33 -239h-148l33 239h148zM825 1597l-34 -239h-146l33 239h147zM721 1114h164l-158 -1126q-23 -163 -134.5 -263t-268.5 -100q-158 0 -238 100t-63 265l4 28h163l-4 -36q-9 -88 33 -140.5t127 -52.5q86 0 144.5 53t70.5 140l33 231q-94 -94 -232 -94
q-140 0 -216.5 91t-51.5 265l90 639h164l-90 -639q-12 -87 31 -139.5t129 -52.5q88 0 144.5 51.5t68.5 138.5z" />
    <glyph glyph-name="longs_t" horiz-adv-x="1261" 
d="M139 0l133 958h-204l20 156h205l10 72q23 163 135.5 266.5t270.5 103.5h84l-25 -163h-82q-86 0 -145.5 -57t-71.5 -150l-166 -1186h-164zM1057 -12q-160 0 -242 99t-59 269l84 605h-197l21 153h196l41 279h164l-39 -279h266l-20 -153h-266l-84 -605q-14 -92 29 -148
t128 -56h80l-22 -164h-80z" />
    <glyph glyph-name="zero.tf" horiz-adv-x="983" 
d="M633 1569q159 0 244.5 -105t60.5 -274l-119 -844q-25 -170 -137 -274.5t-272 -104.5q-161 0 -246 104.5t-60 274.5l119 844q25 171 137 275t273 104zM276 346q-4 -39 -2 -57l437 1077q-42 31 -101 31q-86 0 -144.5 -56.5t-70.5 -150.5zM766 1190q4 39 2 57l-436 -1077
q42 -31 102 -31q82 0 141.5 57t71.5 150z" />
    <glyph glyph-name="one.tf" horiz-adv-x="983" 
d="M-4 0l24 172h330l144 1016h-242l24 172h41q93 0 151.5 41t70.5 112l4 23h172l-193 -1364h332l-25 -172h-833z" />
    <glyph glyph-name="two.tf" horiz-adv-x="985" 
d="M631 1569q169 0 259.5 -104t67.5 -275l-22 -152q-10 -74 -51.5 -144.5t-100 -128t-128 -113t-139 -109.5t-128 -107t-100 -116t-51.5 -127l-2 -21h581l-24 -172h-764l20 147q13 94 58 179.5t106 149.5t132.5 123t142 111t129 102t99 108t48.5 118l22 152q12 93 -37.5 150
t-142.5 57q-94 0 -160 -56.5t-79 -150.5l-7 -55h-172l7 55q25 170 144.5 274.5t291.5 104.5z" />
    <glyph glyph-name="three.tf" horiz-adv-x="983" 
d="M608 1569q169 0 258 -104.5t64 -274.5l-15 -111q-28 -189 -167 -291q113 -104 86 -294l-23 -148q-23 -170 -140 -274.5t-286 -104.5q-168 0 -258 105t-64 274l9 55h172l-8 -55q-14 -93 34 -150t140 -57q90 0 153.5 57t75.5 150l23 148q12 94 -36 150t-139 56h-129l25 172
h129q90 0 154 57t77 150l15 111q13 94 -34 150.5t-138 56.5q-92 0 -155 -57t-77 -150l-8 -55h-172l8 55q26 171 142.5 275t283.5 104z" />
    <glyph glyph-name="four.tf" horiz-adv-x="985" 
d="M924 1536l-146 -1042h140l-25 -170h-139l-43 -324h-172l43 324h-566l23 155l717 1057h168zM606 494l101 727l-486 -727h385z" />
    <glyph glyph-name="five.tf" horiz-adv-x="983" 
d="M969 1364h-537l-57 -424q84 84 211 84q159 0 244.5 -105t60.5 -274l-43 -299q-25 -171 -139.5 -275t-278.5 -104q-165 0 -251 104.5t-60 274.5l8 55h172l-8 -55q-14 -93 31.5 -150t132.5 -57t148 57t73 150l43 299q12 93 -34.5 150t-137.5 57q-84 0 -142.5 -57
t-70.5 -150l-4 -20h-172l127 911h706z" />
    <glyph glyph-name="six.tf" horiz-adv-x="983" 
d="M641 1569q162 0 249.5 -105t61.5 -274l-8 -55h-172l8 55q13 94 -32.5 150.5t-129.5 56.5q-85 0 -145 -57t-72 -150l-34 -246q83 80 206 80q158 0 242 -105t59 -274l-40 -299q-25 -170 -139 -274.5t-277 -104.5q-162 0 -247 104.5t-60 274.5l118 844q25 170 138 274.5
t274 104.5zM535 852q-82 0 -140 -56.5t-71 -150.5l-41 -299q-14 -94 29.5 -150.5t129.5 -56.5q85 0 146 57t74 150l40 299q14 93 -31.5 150t-135.5 57z" />
    <glyph glyph-name="seven.tf" horiz-adv-x="985" 
d="M219 1536h801l-23 -154l-630 -1382h-185l629 1364h-616z" />
    <glyph glyph-name="eight.tf" horiz-adv-x="983" 
d="M633 1569q163 0 248.5 -104.5t62.5 -274.5l-16 -113q-13 -94 -55.5 -169.5t-106.5 -123.5q107 -104 80 -292l-21 -146q-25 -171 -139 -275t-276 -104q-163 0 -250 104.5t-62 274.5l21 146q26 185 162 292q-106 106 -80 293l16 113q25 170 139 274.5t277 104.5zM772 1190
q13 93 -32 150t-130 57q-86 0 -147 -56.5t-74 -150.5l-16 -113q-13 -93 32 -150t130 -57q86 0 147 56.5t74 150.5zM674 492q14 92 -31 149t-131 57q-85 0 -146.5 -57t-74.5 -149l-21 -146q-12 -94 32.5 -150.5t131.5 -56.5q85 0 146 57t73 150z" />
    <glyph glyph-name="nine.tf" horiz-adv-x="983" 
d="M625 1569q162 0 248 -104.5t61 -274.5l-119 -844q-25 -171 -138.5 -275t-275.5 -104q-163 0 -249 104.5t-60 274.5l8 55h172l-8 -55q-14 -93 30.5 -150t131.5 -57q84 0 144 57t73 150l35 248q-85 -82 -209 -82q-158 0 -242 105t-59 274l43 299q25 171 138.5 275
t275.5 104zM762 1190q12 94 -31.5 150.5t-128.5 56.5q-86 0 -146.5 -56.5t-72.5 -150.5l-43 -299q-12 -93 33 -150t135 -57q82 0 140.5 57t70.5 150z" />
    <glyph glyph-name="zero.dnom" horiz-adv-x="653" 
d="M381 942q98 0 151 -63t39 -164l-71 -508q-13 -101 -84 -164t-170 -63t-152 62.5t-39 164.5l72 508q13 101 83.5 164t170.5 63zM250 715l-66 -467l234 557q-22 16 -53 16q-44 0 -76.5 -29t-38.5 -77zM377 207l65 471l-235 -559q27 -17 57 -17q43 0 75 28.5t38 76.5z" />
    <glyph glyph-name="one.dnom" horiz-adv-x="403" 
d="M80 0l96 694h-133l18 121h29q48 0 80.5 25t36.5 67v15h123l-129 -922h-121z" />
    <glyph glyph-name="two.dnom" horiz-adv-x="579" 
d="M-14 0l14 109q8 57 32.5 107.5t58 87.5t72.5 69.5t77.5 60.5t70.5 55.5t54.5 59t27.5 65.5l15 101q7 46 -17.5 76t-68.5 30q-42 0 -74.5 -30.5t-38.5 -75.5l-6 -39h-121l4 39q15 100 84.5 163.5t167.5 63.5q100 0 153 -63t39 -164l-14 -101q-8 -52 -38 -100t-69.5 -82.5
t-85 -71.5t-85 -68.5t-69 -72.5t-36.5 -84l-2 -12h315l-16 -123h-444z" />
    <glyph glyph-name="three.dnom" horiz-adv-x="602" 
d="M201 -20q-98 0 -150.5 62.5t-40.5 164.5l6 39h121l-4 -39q-6 -46 18 -75.5t68 -29.5t75.5 29.5t39.5 75.5l14 100q6 46 -18.5 75.5t-67.5 29.5h-84l19 123h82q44 0 77 29t37 75l13 76q5 46 -19 76t-68 30t-76 -30t-38 -76l-6 -39h-121l4 39q15 101 84.5 164t169.5 63
q98 0 150.5 -63t37.5 -164l-10 -76q-16 -112 -90 -166q59 -62 45 -166l-14 -100q-15 -101 -85.5 -164t-168.5 -63z" />
    <glyph glyph-name="four.dnom" horiz-adv-x="606" 
d="M270 0l25 182h-328l15 111l426 629h112l-86 -617h80l-18 -123h-78l-27 -182h-121zM111 305h200l56 385z" />
    <glyph glyph-name="five.dnom" horiz-adv-x="632" 
d="M250 -20q-99 0 -152 62.5t-39 164.5l4 39h123l-4 -39q-6 -46 17.5 -75.5t68.5 -29.5q43 0 75 29.5t38 75.5l25 178q7 47 -18 75.5t-71 28.5q-44 0 -74.5 -29t-35.5 -75l-2 -12h-123l78 549h424l-17 -121h-303l-33 -232q46 43 113 43q95 0 146 -63t38 -164l-24 -178
q-13 -101 -84 -164t-170 -63z" />
    <glyph glyph-name="six.dnom" horiz-adv-x="641" 
d="M246 -20q-99 0 -152 62.5t-39 164.5l72 508q13 101 83.5 164t170.5 63q99 0 151.5 -63.5t38.5 -163.5l-6 -39h-123l7 39q6 46 -17.5 76t-66.5 30q-45 0 -77 -30t-38 -76l-23 -146q46 43 113 43q95 0 146 -63t38 -164l-24 -178q-13 -101 -84 -164t-170 -63zM264 102
q43 0 75 29.5t38 75.5l24 178q7 47 -17.5 75.5t-70.5 28.5q-44 0 -74.5 -29t-35.5 -75l-25 -178q-6 -46 17.5 -75.5t68.5 -29.5z" />
    <glyph glyph-name="seven.dnom" horiz-adv-x="473" 
d="M8 0l346 801h-311l16 121h435l-15 -111l-342 -811h-129z" />
    <glyph glyph-name="eight.dnom" horiz-adv-x="641" 
d="M240 -20q-99 0 -152.5 63t-38.5 164l14 98q19 109 91 166q-60 63 -43 166l10 78q15 100 84.5 163.5t169.5 63.5q98 0 151.5 -62t38.5 -165l-12 -78q-17 -110 -90 -166q59 -66 45 -166l-14 -98q-15 -102 -85 -164.5t-169 -62.5zM317 532q44 0 75.5 29t39.5 76l10 78
q8 46 -16 76t-68 30t-76 -30t-38 -76l-13 -78q-6 -48 17.5 -76.5t68.5 -28.5zM258 102q44 0 75.5 29.5t37.5 75.5l16 98q6 47 -18.5 76t-67.5 29q-44 0 -75.5 -29t-39.5 -76l-14 -98q-7 -46 17.5 -75.5t68.5 -29.5z" />
    <glyph glyph-name="nine.dnom" horiz-adv-x="643" 
d="M236 -20q-99 0 -152 62.5t-39 164.5l4 39h123l-4 -39q-6 -46 17.5 -75.5t68.5 -29.5q43 0 75 29.5t38 75.5l20 145q-46 -43 -113 -43q-94 0 -145.5 63.5t-38.5 164.5l27 178q15 102 85 164.5t169 62.5q98 0 151 -63t39 -164l-72 -508q-13 -101 -83.5 -164t-169.5 -63z
M301 432q44 0 74.5 29.5t36.5 75.5l26 178q7 46 -17 76t-67 30q-45 0 -76.5 -30t-37.5 -76l-27 -178q-7 -46 17.5 -75.5t70.5 -29.5z" />
    <glyph glyph-name="zero.numr" horiz-adv-x="653" 
d="M467 1556q98 0 151 -63t39 -164l-71 -508q-13 -101 -84 -164t-170 -63t-152 62.5t-39 164.5l72 508q13 101 83.5 164t170.5 63zM336 1329l-66 -467l234 557q-24 17 -53 17q-44 0 -76.5 -29.5t-38.5 -77.5zM463 821l65 471l-235 -559q26 -16 57 -16q43 0 75 28t38 76z" />
    <glyph glyph-name="one.numr" horiz-adv-x="403" 
d="M166 614l100 707h-133l17 121h30q48 0 80 25t35 67l2 14h123l-131 -934h-123z" />
    <glyph glyph-name="two.numr" horiz-adv-x="581" 
d="M74 614l14 109q11 78 53 143.5t95.5 109.5t106 82.5t92 81.5t46.5 89l15 100q7 46 -17.5 76.5t-68.5 30.5q-43 0 -76 -30.5t-39 -76.5l-4 -39h-123l6 39q14 100 84 163.5t168 63.5q100 0 153 -63t39 -164l-16 -100q-9 -62 -48.5 -117t-91 -96t-102.5 -81t-91 -87.5
t-48 -97.5l-2 -13h316l-17 -123h-444z" />
    <glyph glyph-name="three.numr" horiz-adv-x="602" 
d="M289 594q-99 0 -152 62.5t-39 164.5l4 39h123l-4 -39q-6 -46 17.5 -75t68.5 -29q43 0 75 29t38 75l14 101q7 45 -17 74.5t-67 29.5h-84l17 123h84q43 0 75.5 28.5t38.5 75.5l11 76q6 46 -17 76.5t-67 30.5t-76.5 -30.5t-38.5 -76.5l-6 -39h-123l6 39q15 102 85 164.5
t169 62.5q98 0 150 -63t38 -164l-10 -76q-16 -110 -90 -166q58 -66 45 -165l-14 -101q-15 -101 -85.5 -164t-168.5 -63z" />
    <glyph glyph-name="four.numr" horiz-adv-x="606" 
d="M356 614l25 183h-328l15 110l426 629h112l-86 -616h80l-18 -123h-78l-27 -183h-121zM197 920h200l56 385z" />
    <glyph glyph-name="five.numr" horiz-adv-x="632" 
d="M336 594q-99 0 -152 62.5t-39 164.5l5 39h122l-4 -39q-6 -46 17.5 -75t68.5 -29q43 0 75 29t38 75l25 178q7 47 -18 76t-71 29q-44 0 -74.5 -29.5t-35.5 -75.5l-2 -12h-123l78 549h424l-17 -121h-303l-33 -231q46 43 113 43q95 0 146.5 -63.5t37.5 -164.5l-24 -178
q-13 -101 -84 -164t-170 -63z" />
    <glyph glyph-name="six.numr" horiz-adv-x="641" 
d="M332 594q-99 0 -152 62.5t-39 164.5l72 508q13 101 83.5 164t170.5 63q99 0 151.5 -63.5t38.5 -163.5l-6 -39h-123l7 39q6 46 -17.5 76.5t-66.5 30.5q-45 0 -77 -30.5t-38 -76.5l-23 -145q46 43 113 43q95 0 146.5 -63.5t37.5 -164.5l-24 -178q-13 -101 -84 -164
t-170 -63zM350 717q43 0 75 29t38 75l24 178q7 47 -17.5 76t-70.5 29q-44 0 -74.5 -29.5t-35.5 -75.5l-25 -178q-6 -46 17.5 -75t68.5 -29z" />
    <glyph glyph-name="seven.numr" horiz-adv-x="473" 
d="M94 614l346 801h-311l16 121h435l-15 -111l-342 -811h-129z" />
    <glyph glyph-name="eight.numr" horiz-adv-x="641" 
d="M326 594q-99 0 -152.5 63t-38.5 164l15 99q19 109 90 165q-60 63 -43 166l10 78q15 100 84.5 163.5t169.5 63.5q98 0 151.5 -62t38.5 -165l-12 -78q-17 -110 -90 -166q59 -66 45 -165l-14 -99q-15 -102 -85 -164.5t-169 -62.5zM403 1147q44 0 76 28.5t39 75.5l10 78
q8 46 -16 76.5t-68 30.5t-76 -30.5t-38 -76.5l-13 -78q-6 -47 17 -75.5t69 -28.5zM344 717q43 0 75 29t38 75l16 99q6 47 -18.5 75.5t-67.5 28.5q-44 0 -76 -28.5t-39 -75.5l-14 -99q-7 -45 17 -74.5t69 -29.5z" />
    <glyph glyph-name="nine.numr" horiz-adv-x="643" 
d="M322 594q-99 0 -152 62.5t-39 164.5l4 39h123l-4 -39q-6 -46 17.5 -75t68.5 -29q43 0 75 29t38 75l20 146q-46 -43 -113 -43q-94 0 -145.5 63t-38.5 164l27 178q15 102 85 164.5t169 62.5q98 0 151 -63t39 -164l-72 -508q-13 -101 -83.5 -164t-169.5 -63zM387 1047
q45 0 75 28.5t36 75.5l26 178q7 46 -17 76.5t-67 30.5q-45 0 -76.5 -30t-37.5 -77l-27 -178q-7 -46 17.5 -75t70.5 -29z" />
    <glyph glyph-name="acute.case" horiz-adv-x="436" 
d="M180 1245l187 352h174l-234 -352h-127z" />
    <glyph glyph-name="breve.case" horiz-adv-x="663" 
d="M465 1356q-100 0 -157 61.5t-42 159.5l2 20h119l-4 -20q-6 -52 21 -83.5t75 -31.5t84 31.5t43 83.5l2 20h119l-2 -20q-15 -99 -87.5 -160t-172.5 -61z" />
    <glyph glyph-name="caron.case" horiz-adv-x="671" 
d="M403 1298l-188 299h162l110 -188l162 188h162l-272 -299h-136z" />
    <glyph glyph-name="circumflex.case" horiz-adv-x="671" 
d="M174 1298l272 299h138l188 -299h-164l-108 189l-162 -189h-164z" />
    <glyph glyph-name="dieresis.case" horiz-adv-x="722" 
d="M287 1358l32 239h148l-33 -239h-147zM578 1358l32 239h148l-35 -239h-145z" />
    <glyph glyph-name="dotaccent.case" horiz-adv-x="432" 
d="M276 1296l33 240h148l-33 -240h-148z" />
    <glyph glyph-name="grave.case" horiz-adv-x="436" 
d="M365 1245l-136 352h174l89 -352h-127z" />
    <glyph glyph-name="hungarumlaut.case" horiz-adv-x="743" 
d="M199 1245l186 352h174l-233 -352h-127zM506 1245l186 352h174l-233 -352h-127z" />
    <glyph glyph-name="macron.case" horiz-adv-x="737" 
d="M291 1536h452l-18 -129h-453z" />
    <glyph glyph-name="ring.case" horiz-adv-x="593" 
d="M420 1212q-71 0 -118.5 45.5t-47.5 116.5q0 91 65 157t154 66q72 0 120 -45t48 -118q0 -91 -65 -156.5t-156 -65.5zM434 1321q37 0 67.5 28t30.5 68q0 31 -21.5 51.5t-51.5 20.5q-38 0 -67.5 -29.5t-29.5 -66.5q0 -31 21.5 -51.5t50.5 -20.5z" />
    <glyph glyph-name="tilde.case" horiz-adv-x="782" 
d="M662 1384q-68 0 -130 50q-6 5 -17 15.5t-17 15.5t-15 11t-17 8.5t-17 2.5q-19 0 -32 -16t-16 -37l-4 -39h-133l6 47q10 75 53 115t103 40q71 0 131 -51q2 -2 10.5 -10t10.5 -10t9.5 -8t10.5 -8t9.5 -6t11 -5t10.5 -2.5t12 -1.5q18 0 30.5 17t14.5 38l6 43h133l-8 -55
q-10 -74 -53 -114t-102 -40z" />
    <glyph glyph-name="caron.salt" horiz-adv-x="448" 
d="M174 1077l145 459h164l-145 -459h-164z" />
    </font>
</defs>
</svg>
