<?xml version="1.0" standalone="no"?>
<!DOCTYPE svg PUBLIC "-//W3C//DTD SVG 1.1//EN" "http://www.w3.org/Graphics/SVG/1.1/DTD/svg11.dtd" >
<svg xmlns="http://www.w3.org/2000/svg" xmlns:xlink="http://www.w3.org/1999/xlink" version="1.1">
<metadata>
Created by FontForge 20170731 at Mon Jun 14 10:24:04 2021
 By Aleksey,,,
Copyright (c) 2018 by Gumpita Rahayu. All rights reserved.
</metadata>
<defs>
<font id="Mohave-LightItalic" horiz-adv-x="968" >
  <font-face 
    font-family="Mohave Light"
    font-weight="300"
    font-style="italic"
    font-stretch="normal"
    units-per-em="2048"
    panose-1="0 0 4 0 0 0 0 0 0 0"
    ascent="1597"
    descent="-451"
    x-height="1106"
    cap-height="1536"
    bbox="-432 -825 1957.8 2028"
    underline-thickness="94"
    underline-position="-257"
    slope="-8"
    unicode-range="U+0020-FB02"
  />
<missing-glyph horiz-adv-x="1058" 
d="M104 0l215 1536h697l-215 -1536h-697zM233 115h469l183 1306h-469z" />
    <glyph glyph-name="fi" unicode="fi" horiz-adv-x="1075" 
d="M145 0l140 995h-207l14 111h207l10 74q23 167 135 271.5t269 104.5h65l-16 -116h-66q-106 0 -180.5 -71.5t-89.5 -188.5l-10 -74h301l-17 -111h-301l-137 -995h-117zM903 1243l33 232h115l-33 -232h-115zM729 0l156 1106h114l-155 -1106h-115z" />
    <glyph glyph-name="fl" unicode="fl" horiz-adv-x="1075" 
d="M145 0l140 995h-207l14 111h207l10 74q23 167 135 271.5t269 104.5h65l-16 -116h-66q-106 0 -180.5 -71.5t-89.5 -188.5l-10 -74h301l-17 -111h-301l-137 -995h-117zM729 0l215 1536h115l-215 -1536h-115z" />
    <glyph glyph-name="f_f" unicode="ff" horiz-adv-x="1306" 
d="M145 0l140 995h-207l14 111h207l10 74q23 167 135 271.5t269 104.5h65l-16 -116h-66q-106 0 -180.5 -71.5t-89.5 -188.5l-10 -74h301l-17 -111h-301l-137 -995h-117zM799 0l139 995h-207l14 111h207l11 74q23 167 134.5 271.5t268.5 104.5h66l-17 -116h-65
q-106 0 -181 -71.5t-90 -188.5l-10 -74h301l-16 -111h-301l-138 -995h-116z" />
    <glyph glyph-name="f_f_i" unicode="ffi" horiz-adv-x="1728" 
d="M145 0l140 995h-207l14 111h207l10 74q23 167 135 271.5t269 104.5h65l-16 -116h-66q-106 0 -180.5 -71.5t-89.5 -188.5l-10 -74h301l-17 -111h-301l-137 -995h-117zM799 0l139 995h-207l14 111h207l11 74q23 167 134.5 271.5t268.5 104.5h66l-17 -116h-65
q-106 0 -181 -71.5t-90 -188.5l-10 -74h301l-16 -111h-301l-138 -995h-116zM1556 1243l33 232h115l-33 -232h-115zM1382 0l156 1106h115l-156 -1106h-115z" />
    <glyph glyph-name="f_f_l" unicode="ffl" horiz-adv-x="1728" 
d="M145 0l140 995h-207l14 111h207l10 74q23 167 135 271.5t269 104.5h65l-16 -116h-66q-106 0 -180.5 -71.5t-89.5 -188.5l-10 -74h301l-17 -111h-301l-137 -995h-117zM799 0l139 995h-207l14 111h207l11 74q23 167 134.5 271.5t268.5 104.5h66l-17 -116h-65
q-106 0 -181 -71.5t-90 -188.5l-10 -74h301l-16 -111h-301l-138 -995h-116zM1382 0l215 1536h115l-215 -1536h-115z" />
    <glyph glyph-name=".notdef" horiz-adv-x="1058" 
d="M104 0l215 1536h697l-215 -1536h-697zM233 115h469l183 1306h-469z" />
    <glyph glyph-name="uni0000" horiz-adv-x="1228" 
 />
    <glyph glyph-name="uni0000" horiz-adv-x="1228" 
 />
    <glyph glyph-name="nonmarkingreturn" horiz-adv-x="682" 
 />
    <glyph glyph-name="space" unicode=" " horiz-adv-x="421" 
 />
    <glyph glyph-name="exclam" unicode="!" horiz-adv-x="542" 
d="M195 430l155 1106h117l-156 -1106h-116zM135 0l43 307h117l-43 -307h-117z" />
    <glyph glyph-name="quotedbl" unicode="&#x22;" horiz-adv-x="819" 
d="M248 1104l141 432h117l-141 -432h-117zM528 1104l142 432h114l-141 -432h-115z" />
    <glyph glyph-name="numbersign" unicode="#" horiz-adv-x="1136" 
d="M1098 1028h-170l-70 -516h168l-16 -117h-168l-56 -395h-116l55 395h-354l-56 -395h-116l55 395h-170l16 117h170l72 516h-170l16 117h170l56 391h116l-55 -391h354l54 391h116l-53 -391h168zM741 512l70 516h-352l-72 -516h354z" />
    <glyph glyph-name="dollar" unicode="$" horiz-adv-x="1030" 
d="M715 1565q135 -19 204 -120t46 -255l-7 -41h-116l6 41q15 102 -26 170.5t-124 85.5l-88 -623q135 -19 204 -120t46 -254l-14 -103q-23 -155 -118.5 -255.5t-235.5 -119.5l-25 -176h-113l25 176q-136 19 -204.5 120t-45.5 255l6 43h117l-6 -43q-15 -102 25.5 -170.5
t123.5 -85.5l88 625q-136 19 -205.5 120t-46.5 255l17 100q23 155 118.5 256.5t235.5 118.5l25 176h112zM348 1090q-13 -102 27.5 -170.5t124.5 -85.5l86 612q-88 -19 -148 -87.5t-73 -168.5zM743 449q15 101 -25 169t-124 87l-86 -615q87 19 147.5 87.5t73.5 168.5z" />
    <glyph glyph-name="percent" unicode="%" horiz-adv-x="1476" 
d="M410 838q-110 0 -169 70.5t-42 183.5l30 215q17 115 94 184.5t189 69.5q110 0 169 -70.5t42 -183.5l-31 -215q-17 -115 -93.5 -184.5t-188.5 -69.5zM270 0l887 1536h109l-887 -1536h-109zM424 932q66 0 112.5 44.5t57.5 115.5l31 215q10 70 -25.5 114.5t-101.5 44.5
q-67 0 -114 -44t-58 -115l-31 -215q-11 -71 25.5 -115.5t103.5 -44.5zM1028 -25q-111 0 -169.5 70t-41.5 184l31 215q17 114 93.5 184t186.5 70t169 -70.5t42 -183.5l-30 -215q-17 -115 -93 -184.5t-188 -69.5zM1040 70q66 0 112.5 44t57.5 115l31 215q10 70 -25 115
t-100 45q-68 0 -115.5 -44.5t-58.5 -115.5l-31 -215q-10 -70 26.5 -114.5t102.5 -44.5z" />
    <glyph glyph-name="ampersand" unicode="&#x26;" horiz-adv-x="1114" 
d="M457 -25q-160 0 -245 104.5t-60 274.5l24 172q15 104 65.5 186.5t125.5 129.5l-113 248l12 92q23 169 137.5 274t276.5 105q160 0 246.5 -104t60.5 -275l-6 -41h-117l6 41q19 117 -39.5 189.5t-166.5 72.5t-187 -72.5t-94 -189.5l-12 -92l370 -809l174 503h95l-213 -622
l69 -150l-4 -12h-108l-39 82q-104 -107 -258 -107zM475 92q120 0 199 82l-258 563q-48 -35 -81 -90t-42 -121l-25 -172q-17 -118 40.5 -190t166.5 -72z" />
    <glyph glyph-name="quotesingle" unicode="'" horiz-adv-x="540" 
d="M248 1104l141 432h117l-141 -432h-117z" />
    <glyph glyph-name="parenleft" unicode="(" horiz-adv-x="673" 
d="M389 -369q-160 0 -246 104.5t-61 274.5l170 1209q25 170 138 274t274 104h102l-14 -116h-105q-109 0 -185 -71.5t-93 -190.5l-170 -1209q-15 -119 41.5 -190.5t165.5 -71.5h102l-16 -117h-103z" />
    <glyph glyph-name="parenright" unicode=")" horiz-adv-x="673" 
d="M-76 -369l17 117h104q109 0 185.5 72t93.5 190l168 1209q15 118 -41.5 190t-163.5 72h-103l15 116h102q162 0 246 -103.5t61 -274.5l-168 -1209q-23 -170 -137.5 -274.5t-275.5 -104.5h-103z" />
    <glyph glyph-name="asterisk" unicode="*" horiz-adv-x="935" 
d="M897 1366l-240 -129l203 -127l-55 -82l-205 129l-31 -217h-94l29 215l-238 -127l-37 82l242 129l-205 127l56 82l204 -129l31 217h94l-30 -217l243 129z" />
    <glyph glyph-name="plus" unicode="+" horiz-adv-x="1101" 
d="M989 612l-16 -116h-373l-45 -330h-117l45 330h-370l16 116h371l47 332h117l-48 -332h373z" />
    <glyph glyph-name="comma" unicode="," horiz-adv-x="540" 
d="M78 -104l133 350h115l-131 -350h-117z" />
    <glyph glyph-name="hyphen" unicode="-" horiz-adv-x="880" 
d="M143 496l19 116h573l-16 -116h-576z" />
    <glyph glyph-name="period" unicode="." horiz-adv-x="540" 
d="M133 0l35 246h117l-35 -246h-117z" />
    <glyph glyph-name="slash" unicode="/" horiz-adv-x="696" 
d="M-80 -102l787 1699h124l-786 -1699h-125z" />
    <glyph glyph-name="zero" unicode="0" horiz-adv-x="1036" 
d="M659 1569q161 0 247 -105t61 -274l-119 -844q-25 -170 -138 -274.5t-274 -104.5q-160 0 -245 104.5t-60 274.5l119 844q23 170 136 274.5t273 104.5zM246 346q-12 -90 20 -158l506 1227q-49 37 -129 37q-109 0 -185 -72t-91 -190zM850 1190q13 98 -21 158l-505 -1227
q53 -37 129 -37q108 0 184.5 72t93.5 190z" />
    <glyph glyph-name="one" unicode="1" horiz-adv-x="546" 
d="M170 0l174 1243h-201l19 117h26q81 0 131 41t62 112l4 23h117l-215 -1536h-117z" />
    <glyph glyph-name="two" unicode="2" horiz-adv-x="913" 
d="M596 1569q161 0 244.5 -105t60.5 -274l-16 -123q-10 -72 -52.5 -145t-103.5 -137t-133 -128t-144.5 -127.5t-134 -126t-105 -133.5t-54.5 -139l-2 -14h598l-19 -117h-717l13 90q13 91 58 178t108 156.5t136 135.5t146 127.5t134 120.5t103.5 126t51.5 133l16 123
q17 118 -39.5 190t-164.5 72q-107 0 -183.5 -72t-95.5 -190l-6 -41h-117l6 41q26 171 138.5 275t273.5 104z" />
    <glyph glyph-name="three" unicode="3" horiz-adv-x="956" 
d="M596 1569q162 0 247 -104.5t60 -274.5l-12 -86q-36 -218 -199 -320q66 -50 95 -133t14 -188l-17 -117q-25 -171 -137 -275t-274 -104q-161 0 -246 105t-59 274l6 43h116l-6 -43q-19 -117 39 -189.5t166 -72.5t185 72t94 190l16 117q17 118 -39.5 190t-165.5 72h-108
l16 117h109q108 0 184.5 72t93.5 190l12 86q17 118 -39 190t-165 72t-185.5 -72t-93.5 -190l-8 -41h-115l6 41q26 171 138 275t272 104z" />
    <glyph glyph-name="four" unicode="4" horiz-adv-x="974" 
d="M756 471h149l-16 -115h-152l-47 -356h-117l48 356h-592l16 113l731 1067h127zM639 471l121 875l-596 -875h475z" />
    <glyph glyph-name="five" unicode="5" horiz-adv-x="1001" 
d="M999 1419h-602l-67 -504q98 115 258 115q161 0 245.5 -104.5t59.5 -274.5l-43 -305q-25 -171 -137.5 -275t-274.5 -104t-246.5 104.5t-58.5 274.5l6 43h117l-6 -43q-19 -117 39 -189.5t166 -72.5t184.5 72t93.5 190l43 305q17 119 -41.5 190.5t-175.5 71.5
q-103 0 -175 -70.5t-91 -189.5l-4 -24h-117l127 907h715z" />
    <glyph glyph-name="six" unicode="6" horiz-adv-x="1017" 
d="M659 1569q161 0 247.5 -105t60.5 -274l-6 -41h-117l6 41q19 117 -40 189.5t-167 72.5t-184.5 -72t-91.5 -190l-39 -275q103 115 258 115q160 0 245 -104.5t60 -274.5l-43 -305q-25 -171 -137.5 -275t-274.5 -104q-160 0 -245 104.5t-60 274.5l119 844q23 170 136 274.5
t273 104.5zM557 913q-104 0 -177.5 -71t-90.5 -189l-43 -307q-15 -119 41 -190.5t166 -71.5q108 0 184.5 72t93.5 190l43 305q17 119 -42.5 190.5t-174.5 71.5z" />
    <glyph glyph-name="seven" unicode="7" horiz-adv-x="796" 
d="M178 1536h696l-14 -98l-592 -1438h-127l590 1419h-571z" />
    <glyph glyph-name="eight" unicode="8" horiz-adv-x="1003" 
d="M643 1569q162 0 247 -104.5t60 -274.5l-12 -86q-17 -108 -68.5 -190.5t-130.5 -129.5q66 -51 95 -132.5t14 -188.5l-17 -117q-25 -171 -137 -275t-274 -104q-160 0 -245 104.5t-60 274.5l16 117q36 224 199 321q-67 47 -96 130t-15 190l14 86q25 171 137 275t273 104z
M834 1190q17 118 -39.5 190t-165.5 72t-186.5 -72t-92.5 -190l-14 -86q-15 -119 41.5 -190.5t165.5 -71.5q108 0 184.5 72t93.5 190zM731 463q17 118 -39.5 190t-165.5 72q-108 0 -184.5 -72t-93.5 -190l-17 -117q-17 -118 39.5 -190t165.5 -72q108 0 185 72t94 190z" />
    <glyph glyph-name="nine" unicode="9" horiz-adv-x="1017" 
d="M641 1569q160 0 246 -104.5t61 -274.5l-119 -844q-25 -171 -137.5 -275t-273.5 -104t-246 105t-59 274l6 43h117l-7 -43q-19 -117 39 -189.5t166 -72.5q109 0 185.5 72t93.5 190l39 277q-99 -117 -258 -117q-160 0 -245.5 104.5t-60.5 274.5l43 305q25 170 137.5 274.5
t272.5 104.5zM831 1190q17 118 -40 190t-166 72q-108 0 -185 -72t-92 -190l-43 -305q-17 -119 41 -190.5t176 -71.5q103 0 176 71t90 189z" />
    <glyph glyph-name="colon" unicode=":" horiz-adv-x="540" 
d="M223 639l35 246h117l-35 -246h-117zM137 16l35 246h117l-35 -246h-117z" />
    <glyph glyph-name="semicolon" unicode=";" horiz-adv-x="540" 
d="M236 635l36 250h117l-37 -250h-116zM57 -84l127 346h117l-127 -346h-117z" />
    <glyph glyph-name="less" unicode="&#x3c;" horiz-adv-x="884" 
d="M682 0l-592 483l14 95l725 481l-16 -117l-608 -412l493 -413z" />
    <glyph glyph-name="equal" unicode="=" horiz-adv-x="1132" 
d="M248 700l18 117h676l-16 -117h-678zM190 291l19 117h676l-17 -117h-678z" />
    <glyph glyph-name="greater" unicode="&#x3e;" horiz-adv-x="882" 
d="M45 0l16 117l609 413l-494 412l17 117l591 -481l-12 -95z" />
    <glyph glyph-name="question" unicode="?" horiz-adv-x="911" 
d="M354 348l13 86q11 80 53 155.5t95 133t105.5 112t92 114.5t47.5 118l16 123q17 118 -41 190t-166 72t-183.5 -71.5t-94.5 -190.5l-6 -41h-117l6 41q26 171 139 275t275 104q160 0 244 -105t61 -274l-16 -123q-7 -52 -37.5 -107t-70.5 -100.5t-87 -98t-87.5 -100
t-71.5 -108t-40 -119.5l-12 -86h-117zM307 0l33 248h117l-33 -248h-117z" />
    <glyph glyph-name="at" unicode="@" horiz-adv-x="1384" 
d="M823 1561q228 0 348.5 -139t88.5 -367l-148 -1055h-115l15 98q-43 -55 -114.5 -89t-145.5 -34q-140 0 -212.5 93.5t-50.5 246.5l50 355q21 153 120 244.5t236 91.5q75 0 138.5 -33.5t88.5 -85.5l23 168q22 177 -70 283t-270 106q-165 0 -283 -106.5t-143 -282.5
l-125 -897q-21 -146 49.5 -239t212.5 -93h457l-15 -117h-458q-190 0 -290.5 124t-72.5 325l125 897q32 228 186.5 367t374.5 139zM780 90q102 0 175.5 62t86.5 163l48 355q14 99 -40.5 160t-156.5 61q-92 0 -158.5 -61.5t-79.5 -159.5l-49 -355q-14 -102 33.5 -163.5
t140.5 -61.5z" />
    <glyph glyph-name="A" unicode="A" horiz-adv-x="942" 
d="M670 1536l131 -1536h-121l-27 328h-426l-121 -328h-120l561 1536h123zM266 444h377l-65 871z" />
    <glyph glyph-name="B" unicode="B" horiz-adv-x="1050" 
d="M707 1536q143 0 217.5 -93t52.5 -245l-16 -115q-13 -87 -53 -157t-101 -115q57 -44 83 -120t13 -169l-26 -182q-22 -153 -122.5 -246.5t-242.5 -93.5h-399l215 1536h379zM860 1198q15 99 -33 160t-139 61h-262l-76 -559h262q90 0 153.5 61.5t78.5 161.5zM786 522
q15 102 -33.5 161.5t-138.5 59.5h-282l-86 -626h282q89 0 153 60t79 163z" />
    <glyph glyph-name="C" unicode="C" horiz-adv-x="987" 
d="M862 389l-6 -43q-26 -171 -138.5 -275t-273.5 -104q-160 0 -246 104.5t-61 274.5l119 844q25 170 138.5 274.5t273.5 104.5q161 0 247 -105t60 -274l-6 -41h-117l6 41q19 117 -40 189.5t-167 72.5q-109 0 -185 -71.5t-93 -190.5l-119 -844q-15 -119 41.5 -190.5
t165.5 -71.5q108 0 183.5 71.5t94.5 190.5l6 43h117z" />
    <glyph glyph-name="D" unicode="D" horiz-adv-x="1046" 
d="M113 0l215 1536h338q158 0 243.5 -102.5t61.5 -276.5l-109 -778q-24 -168 -135.5 -273.5t-275.5 -105.5h-338zM246 117h221q108 0 184.5 72t93.5 190l109 778q17 119 -39 190.5t-166 71.5h-223z" />
    <glyph glyph-name="E" unicode="E" horiz-adv-x="888" 
d="M942 1536l-18 -117h-498l-84 -606h442l-14 -117h-444l-80 -579h497l-16 -117h-614l215 1536h614z" />
    <glyph glyph-name="F" unicode="F" horiz-adv-x="866" 
d="M113 0l215 1536h614l-18 -117h-498l-92 -671h442l-16 -117h-445l-86 -631h-116z" />
    <glyph glyph-name="G" unicode="G" horiz-adv-x="1024" 
d="M444 -33q-160 0 -246 104.5t-61 274.5l119 844q25 170 138.5 274.5t273.5 104.5q161 0 247 -105t60 -274l-6 -41h-117l6 41q19 117 -40 189.5t-167 72.5q-109 0 -185 -71.5t-93 -190.5l-119 -844q-15 -119 41.5 -190.5t165.5 -71.5t185 71.5t93 190.5l37 266h-229l16 117
h346l-53 -383q-24 -173 -138.5 -276t-273.5 -103z" />
    <glyph glyph-name="H" unicode="H" horiz-adv-x="1075" 
d="M113 0l215 1536h116l-110 -788h463l110 788h117l-215 -1536h-117l88 631h-465l-86 -631h-116z" />
    <glyph glyph-name="I" unicode="I" horiz-adv-x="495" 
d="M229 0h-116l215 1536h116z" />
    <glyph glyph-name="J" unicode="J" horiz-adv-x="671" 
d="M-35 -12l17 116h92q108 0 184.5 72.5t91.5 190.5l164 1169h119l-166 -1169q-23 -170 -137 -274.5t-275 -104.5h-90z" />
    <glyph glyph-name="K" unicode="K" horiz-adv-x="997" 
d="M1028 1536l-491 -590l335 -946h-129l-299 836l-118 -142l-97 -694h-116l215 1536h116l-90 -649l547 649h127z" />
    <glyph glyph-name="L" unicode="L" horiz-adv-x="808" 
d="M444 1536l-198 -1419h456l-16 -117h-573l215 1536h116z" />
    <glyph glyph-name="M" unicode="M" horiz-adv-x="1323" 
d="M1139 1536h133l-215 -1536h-117l166 1176l-469 -1176h-105l-141 1171l-164 -1171h-114l215 1536h133l155 -1305z" />
    <glyph glyph-name="N" unicode="N" horiz-adv-x="1095" 
d="M928 1536h116l-215 -1536h-114l-314 1237l-174 -1237h-114l215 1536h114l312 -1243z" />
    <glyph glyph-name="O" unicode="O" horiz-adv-x="1052" 
d="M444 -33q-160 0 -246 104.5t-61 274.5l119 844q25 170 138.5 274.5t273.5 104.5t246 -104.5t61 -274.5l-119 -844q-25 -170 -138 -274.5t-274 -104.5zM461 84q108 0 184.5 72t93.5 190l119 844q17 118 -40.5 190t-166.5 72t-185 -71.5t-93 -190.5l-119 -844
q-15 -119 41.5 -190.5t165.5 -71.5z" />
    <glyph glyph-name="P" unicode="P" horiz-adv-x="976" 
d="M113 0l215 1536h379q142 0 217.5 -93.5t52.5 -244.5l-23 -156q-23 -155 -124 -247.5t-242 -92.5h-262l-97 -702h-116zM344 819h262q90 0 153.5 61.5t78.5 161.5l22 156q15 99 -33 160t-139 61h-262z" />
    <glyph glyph-name="Q" unicode="Q" horiz-adv-x="1052" 
d="M668 1569q160 0 246 -104.5t61 -274.5l-119 -844q-15 -106 -67.5 -189.5t-131.5 -131.5l41 -209h-118l-33 164q-54 -13 -103 -13q-160 0 -246 104.5t-61 274.5l119 844q25 170 138.5 274.5t273.5 104.5zM858 1190q17 118 -40.5 190t-166.5 72t-185 -71.5t-93 -190.5
l-119 -844q-15 -119 41.5 -190.5t165.5 -71.5q36 0 63 8l-71 357h118l62 -304q88 72 106 201z" />
    <glyph glyph-name="R" unicode="R" horiz-adv-x="1052" 
d="M707 1536q139 0 215 -91.5t55 -246.5l-27 -197q-28 -197 -180 -288q59 -36 86.5 -101t15.5 -151l-63 -461h-117l64 461q12 91 -35 146t-139 55h-263l-90 -662h-116l215 1536h379zM860 1198q14 100 -33 160.5t-139 60.5h-262l-88 -641h262q91 0 156 61.5t78 161.5z" />
    <glyph glyph-name="S" unicode="S" horiz-adv-x="970" 
d="M403 -33q-161 0 -246 105t-59 274l6 43h117l-6 -43q-19 -117 39 -189.5t166 -72.5t184.5 72t93.5 190l15 103q17 117 -39.5 189.5t-165.5 72.5q-162 0 -247 104.5t-60 274.5l16 100q25 170 137.5 274.5t272.5 104.5q161 0 247 -105t60 -274l-6 -41h-117l6 41
q19 117 -39 189.5t-166 72.5t-185.5 -72t-92.5 -190l-17 -100q-15 -119 41.5 -191t165.5 -72q160 0 245 -104t60 -274l-14 -103q-25 -170 -138 -274.5t-274 -104.5z" />
    <glyph glyph-name="T" unicode="T" horiz-adv-x="757" 
d="M244 0l198 1419h-276l18 117h666l-16 -117h-275l-199 -1419h-116z" />
    <glyph glyph-name="U" unicode="U" horiz-adv-x="1077" 
d="M1034 1536l-166 -1190q-24 -173 -138 -276t-273 -103q-158 0 -244 102.5t-63 276.5l167 1190h117l-166 -1190q-17 -118 39.5 -190t165.5 -72t185.5 72t93.5 190l166 1190h116z" />
    <glyph glyph-name="V" unicode="V" horiz-adv-x="942" 
d="M895 1536h121l-561 -1536h-123l-131 1536h121l110 -1266z" />
    <glyph glyph-name="W" unicode="W" horiz-adv-x="1310" 
d="M1241 1536h121l-438 -1536h-123l-53 1204l-394 -1204h-123l-8 1536h121l-2 -1253l395 1253h111l45 -1255z" />
    <glyph glyph-name="X" unicode="X" horiz-adv-x="942" 
d="M1016 1536l-453 -766l238 -770h-121l-199 635l-375 -635h-120l454 770l-239 766h123l196 -633l373 633h123z" />
    <glyph glyph-name="Y" unicode="Y" horiz-adv-x="976" 
d="M954 1536h121l-489 -719l-115 -817h-117l115 817l-291 719h121l244 -604z" />
    <glyph glyph-name="Z" unicode="Z" horiz-adv-x="849" 
d="M911 1536l-12 -94l-758 -1325h572l-17 -117h-696l10 94l756 1325h-567l16 117h696z" />
    <glyph glyph-name="bracketleft" unicode="[" horiz-adv-x="698" 
d="M55 -369l275 1966h461l-15 -116h-346l-242 -1733h347l-19 -117h-461z" />
    <glyph glyph-name="backslash" unicode="\" horiz-adv-x="1175" 
d="M1128 -102h-124l-787 1699h125z" />
    <glyph glyph-name="bracketright" unicode="]" horiz-adv-x="696" 
d="M-76 -369l17 117h346l241 1733h-344l15 116h463l-275 -1966h-463z" />
    <glyph glyph-name="asciicircum" unicode="^" horiz-adv-x="874" 
d="M180 1040l350 496h95l209 -496h-111l-162 398l-272 -398h-109z" />
    <glyph glyph-name="underscore" unicode="_" horiz-adv-x="1163" 
d="M113 -158l16 117h739l-16 -117h-739z" />
    <glyph glyph-name="grave" unicode="`" horiz-adv-x="411" 
d="M340 1245l-127 352h121l96 -352h-90z" />
    <glyph glyph-name="a" unicode="a" 
d="M776 1106h117l-156 -1106h-116l12 82q-96 -107 -246 -107q-153 0 -235 98t-60 259l62 444q22 159 132 256.5t263 97.5q145 0 217 -106zM729 776q15 109 -36 174.5t-158 65.5q-106 0 -178.5 -66.5t-86.5 -173.5l-63 -444q-14 -108 39.5 -174t156.5 -66q109 0 179.5 64.5
t85.5 173.5z" />
    <glyph glyph-name="b" unicode="b" 
d="M582 1130q153 0 235 -97.5t60 -256.5l-62 -444q-22 -160 -132.5 -258.5t-262.5 -98.5q-149 0 -217 111l-13 -86h-114l215 1536h115l-74 -514q100 108 250 108zM760 776q15 108 -38 174t-157 66q-109 0 -180 -65.5t-86 -174.5l-61 -446q-14 -109 37.5 -173.5t158.5 -64.5
q105 0 177 66t87 174z" />
    <glyph glyph-name="c" unicode="c" horiz-adv-x="901" 
d="M788 352l-2 -20q-15 -156 -126 -256.5t-269 -100.5q-154 0 -238.5 99t-62.5 258l62 444q22 157 134 255.5t267 98.5q153 0 231.5 -97.5t63.5 -256.5l-2 -20h-117l2 20q11 110 -40 175t-156 65q-106 0 -180 -66.5t-89 -173.5l-61 -444q-15 -107 40 -173.5t161 -66.5
t180 66.5t84 173.5l2 20h116z" />
    <glyph glyph-name="d" unicode="d" 
d="M836 1536h116l-215 -1536h-116l12 82q-96 -107 -246 -107q-153 0 -235 98t-60 259l62 444q22 159 132 256.5t263 97.5q148 0 217 -106zM729 776q15 109 -36 174.5t-158 65.5q-106 0 -178.5 -66.5t-86.5 -173.5l-63 -444q-14 -108 39.5 -174t156.5 -66q109 0 179.5 64.5
t85.5 173.5z" />
    <glyph glyph-name="e" unicode="e" horiz-adv-x="931" 
d="M553 1130q152 0 236 -98.5t61 -255.5l-33 -233h-584l-28 -211q-15 -107 40 -173.5t161 -66.5t180 66.5t84 173.5l2 20h116l-2 -20q-15 -156 -126 -256.5t-269 -100.5q-154 0 -238.5 99t-62.5 258l62 444q22 157 134 255.5t267 98.5zM731 776q15 108 -38 174t-158 66
q-106 0 -180 -66.5t-89 -173.5l-16 -117h465z" />
    <glyph glyph-name="f" unicode="f" horiz-adv-x="653" 
d="M145 0l140 995h-207l14 111h207l10 74q23 167 135 271.5t269 104.5h65l-16 -116h-66q-106 0 -180.5 -71.5t-89.5 -188.5l-10 -74h301l-17 -111h-301l-137 -995h-117z" />
    <glyph glyph-name="g" unicode="g" horiz-adv-x="946" 
d="M754 1106h116l-157 -1124q-23 -159 -134.5 -258t-265.5 -99t-233 98t-64 259l2 22h117l-2 -22q-11 -109 40 -174.5t155 -65.5q106 0 180.5 66.5t87.5 173.5l33 241q-96 -104 -246 -104q-152 0 -233.5 98t-59.5 258l41 301q22 159 131.5 256.5t261.5 97.5q147 0 219 -106z
M707 776q15 109 -36.5 174.5t-158.5 65.5q-105 0 -177.5 -66t-86.5 -174l-41 -301q-15 -108 37.5 -173.5t156.5 -65.5q109 0 180 64.5t85 172.5z" />
    <glyph glyph-name="h" unicode="h" 
d="M588 1133q147 0 220.5 -98t51.5 -255l-108 -780h-117l108 778q15 107 -36 173.5t-148 66.5q-101 0 -173 -66.5t-87 -173.5l-109 -778h-114l215 1536h115l-74 -518q103 115 256 115z" />
    <glyph glyph-name="i" unicode="i" horiz-adv-x="421" 
d="M250 1243l33 232h114l-32 -232h-115zM76 0l155 1106h115l-156 -1106h-114z" />
    <glyph glyph-name="j" unicode="j" horiz-adv-x="421" 
d="M248 1243l33 232h114l-33 -232h-114zM-272 -375l16 117h61q105 0 179.5 71.5t91.5 188.5l153 1104h115l-154 -1102q-24 -173 -135.5 -276t-265.5 -103h-61z" />
    <glyph glyph-name="k" unicode="k" horiz-adv-x="862" 
d="M860 1108l-379 -403l289 -705h-127l-250 608l-137 -147l-66 -461h-114l215 1536h115l-125 -895l452 467h127z" />
    <glyph glyph-name="l" unicode="l" horiz-adv-x="421" 
d="M76 0l215 1536h115l-216 -1536h-114z" />
    <glyph glyph-name="m" unicode="m" horiz-adv-x="1529" 
d="M1149 1130q143 0 219 -95.5t53 -256.5l-108 -778h-117l109 776q15 107 -37 173.5t-150 66.5q-101 0 -172 -66.5t-86 -173.5l-108 -776h-117l108 776q15 107 -36 173.5t-148 66.5q-101 0 -173 -66.5t-87 -173.5l-109 -776h-114l155 1106h115l-12 -90q97 114 254 114
q99 0 167 -46t93 -130q50 83 128 129.5t173 46.5z" />
    <glyph glyph-name="n" unicode="n" 
d="M588 1130q144 0 219.5 -96.5t52.5 -257.5l-108 -776h-117l108 776q15 107 -36 173.5t-148 66.5q-101 0 -173 -66.5t-87 -173.5l-109 -776h-114l155 1106h115l-12 -90q97 114 254 114z" />
    <glyph glyph-name="o" unicode="o" horiz-adv-x="937" 
d="M391 -25q-154 0 -238.5 99t-62.5 258l62 444q22 157 134 255.5t267 98.5q153 0 235 -98t60 -256l-62 -444q-22 -159 -132 -258t-263 -99zM406 92q105 0 177 66t87 174l61 444q15 108 -38 174t-158 66q-106 0 -180 -66.5t-89 -173.5l-61 -444q-15 -107 40 -173.5
t161 -66.5z" />
    <glyph glyph-name="p" unicode="p" horiz-adv-x="966" 
d="M582 1130q153 0 235 -97.5t60 -256.5l-62 -444q-22 -160 -132 -258.5t-263 -98.5q-149 0 -217 111l-64 -455h-114l206 1475h115l-12 -84q97 108 248 108zM760 776q15 108 -38 174t-157 66q-110 0 -180.5 -65.5t-85.5 -174.5l-61 -446q-14 -109 37 -173.5t159 -64.5
q105 0 177 66t87 174z" />
    <glyph glyph-name="q" unicode="q" horiz-adv-x="966" 
d="M774 1106h117l-207 -1475h-117l64 451q-96 -107 -246 -107q-153 0 -235 98t-60 259l62 444q22 159 132 256.5t263 97.5q145 0 217 -106zM727 776q15 109 -36.5 174.5t-158.5 65.5q-105 0 -177.5 -66t-86.5 -174l-63 -444q-14 -108 39.5 -174t156.5 -66q109 0 179.5 64.5
t85.5 173.5z" />
    <glyph glyph-name="r" unicode="r" horiz-adv-x="567" 
d="M586 1118h47l-15 -114h-61q-101 0 -173 -66.5t-87 -173.5l-107 -764h-114l155 1106h115l-14 -102q97 114 254 114z" />
    <glyph glyph-name="s" unicode="s" horiz-adv-x="872" 
d="M362 -25q-155 0 -239 88.5t-62 233.5l7 39h114l-6 -43q-12 -90 44.5 -145.5t158.5 -55.5q105 0 174.5 66.5t69.5 167.5q0 78 -52.5 124t-140.5 46q-138 0 -218.5 72t-80.5 194q0 159 110.5 263.5t276.5 104.5q151 0 233.5 -88.5t59.5 -228.5l-6 -39h-117l6 39
q15 90 -39 146.5t-153 56.5q-109 0 -182.5 -67.5t-73.5 -168.5q0 -78 53.5 -124t144.5 -46q136 0 216.5 -72t80.5 -192q0 -160 -108 -265.5t-271 -105.5z" />
    <glyph glyph-name="t" unicode="t" horiz-adv-x="675" 
d="M492 -12q-158 0 -239 103.5t-58 273.5l88 632h-203l14 111h205l41 285h115l-41 -285h295l-15 -111h-295l-88 -632q-17 -118 37.5 -189.5t159.5 -71.5h63l-18 -116h-61z" />
    <glyph glyph-name="u" unicode="u" 
d="M776 1106h117l-156 -1106h-116l12 86q-100 -111 -252 -111q-143 0 -219 96.5t-53 258.5l108 776h115l-109 -776q-13 -107 38.5 -172.5t148.5 -65.5q102 0 173.5 65.5t84.5 172.5z" />
    <glyph glyph-name="v" unicode="v" horiz-adv-x="847" 
d="M776 1106h123l-479 -1106h-146l-168 1106h123l142 -936z" />
    <glyph glyph-name="w" unicode="w" horiz-adv-x="1099" 
d="M987 1106h123l-326 -1106h-141l-53 831l-291 -831h-139l-17 1106h121l-8 -936l313 936h117l49 -938z" />
    <glyph glyph-name="x" unicode="x" horiz-adv-x="794" 
d="M842 1106l-385 -551l229 -555h-131l-176 426l-297 -426h-129l385 555l-229 551h129l178 -424l295 424h131z" />
    <glyph glyph-name="y" unicode="y" horiz-adv-x="849" 
d="M772 1106h129l-643 -1475h-131l147 338l-165 1137h127l139 -924z" />
    <glyph glyph-name="z" unicode="z" horiz-adv-x="759" 
d="M791 1106l-13 -90l-639 -899h496l-17 -117h-649l13 90l643 901h-500l16 115h650z" />
    <glyph glyph-name="braceleft" unicode="{" horiz-adv-x="794" 
d="M512 -369q-162 0 -245 104t-60 275l53 385q10 71 -23.5 116.5t-95.5 45.5h-102l16 117h103q63 0 108 45t56 117l53 383q23 170 137 274t274 104h103l-17 -116h-102q-109 0 -185 -71.5t-93 -190.5l-54 -383q-22 -146 -121 -220q78 -78 60 -221l-53 -385
q-17 -118 38.5 -190t163.5 -72h105l-17 -117h-102z" />
    <glyph glyph-name="bar" unicode="|" horiz-adv-x="575" 
d="M225 -307h-116l266 1904h117z" />
    <glyph glyph-name="braceright" unicode="}" horiz-adv-x="796" 
d="M-76 -369l17 117h104q109 0 185.5 72t93.5 190l53 385q21 144 121 221q-78 75 -60 220l54 383q15 118 -41.5 190t-163.5 72h-103l15 116h102q162 0 246 -103.5t61 -274.5l-53 -383q-10 -72 23 -117t96 -45h102l-18 -117h-103q-63 0 -106.5 -44t-54.5 -118l-54 -385
q-23 -170 -137.5 -274.5t-275.5 -104.5h-103z" />
    <glyph glyph-name="asciitilde" unicode="~" horiz-adv-x="1124" 
d="M182 426l4 33q12 93 75 148t153 55q52 0 99 -21t75.5 -46t65 -46t69.5 -21q38 0 64 26t34 69l6 36h109l-8 -43q-12 -89 -67.5 -141.5t-133.5 -52.5q-47 0 -91.5 21t-74 46.5t-69.5 46.5t-78 21q-45 0 -79 -28t-40 -74l-4 -29h-109z" />
    <glyph glyph-name="uni00A0" unicode="&#xa0;" horiz-adv-x="421" 
 />
    <glyph glyph-name="exclamdown" unicode="&#xa1;" horiz-adv-x="542" 
d="M246 799l43 307h117l-44 -307h-116zM74 -430l155 1106h117l-156 -1106h-116z" />
    <glyph glyph-name="cent" unicode="&#xa2;" horiz-adv-x="1019" 
d="M657 1128q129 -17 194.5 -112.5t51.5 -239.5l-2 -20h-117l2 20q9 95 -28 157t-117 79l-127 -916q87 15 144.5 79t66.5 157l2 20h117l-2 -20q-13 -142 -108.5 -240t-235.5 -115l-27 -182h-113l27 185q-127 20 -193.5 115.5t-46.5 236.5l62 444q20 140 113 235t225 115
l26 185h113zM260 332q-12 -91 25.5 -153t115.5 -81l127 912q-84 -19 -138.5 -80.5t-67.5 -153.5z" />
    <glyph glyph-name="sterling" unicode="&#xa3;" horiz-adv-x="1122" 
d="M786 1561q160 0 246 -105t60 -274l-7 -41h-116l6 41q19 117 -40 189.5t-167 72.5q-109 0 -185.5 -72t-93.5 -190l-49 -357h324l-14 -116h-326l-84 -592h489l-16 -117h-758l17 117h151l84 592h-151l14 116h154l49 357q25 170 138.5 274.5t274.5 104.5z" />
    <glyph glyph-name="currency" unicode="&#xa4;" horiz-adv-x="1159" 
d="M186 156l-57 67l145 127q-38 62 -38 150q0 72 25 143t69 123l-107 125l76 67l111 -124q91 65 217 65q123 0 200 -63l140 122l61 -67l-143 -123q39 -63 39 -154q0 -76 -27.5 -145.5t-71.5 -118.5l109 -127l-80 -67l-109 127q-89 -66 -213 -66q-122 0 -200 66zM545 322
q114 0 193 80t79 196q0 89 -57 144t-148 55q-114 0 -194 -80.5t-80 -194.5q0 -91 57.5 -145.5t149.5 -54.5z" />
    <glyph glyph-name="yen" unicode="&#xa5;" horiz-adv-x="1087" 
d="M1130 1536l-487 -713h238l-19 -116h-237l-41 -291h239l-18 -117h-238l-41 -299h-116l41 299h-240l16 117h240l41 291h-240l17 116h235l-289 713h123l244 -598l412 598h120z" />
    <glyph glyph-name="brokenbar" unicode="&#xa6;" horiz-adv-x="575" 
d="M387 850h-117l105 747h117zM225 -307h-116l104 747h117z" />
    <glyph glyph-name="section" unicode="&#xa7;" horiz-adv-x="1036" 
d="M432 -117q-155 0 -233 104t-60 275l2 21h115l-2 -25q-11 -117 41.5 -188.5t153.5 -71.5q105 0 175 67.5t70 167.5q0 77 -52.5 123.5t-141.5 46.5q-138 0 -219.5 72.5t-81.5 194.5q0 97 49.5 181t120.5 128q-51 36 -78 95.5t-27 125.5q0 152 110 256.5t271 104.5
q151 0 229 -102t78 -277v-21h-133l4 25q20 117 -36 187.5t-158 70.5q-106 0 -177 -67t-71 -167q0 -78 54 -125t145 -47q136 0 216.5 -72t80.5 -194q0 -95 -48 -178.5t-120 -130.5q47 -34 74.5 -92t27.5 -127q0 -153 -109 -257t-270 -104zM514 518q105 0 175.5 68t70.5 168
q0 78 -53 124t-144 46q-106 0 -177 -67t-71 -167q0 -79 54 -125.5t145 -46.5z" />
    <glyph glyph-name="dieresis" unicode="&#xa8;" horiz-adv-x="673" 
d="M270 1374l31 223h105l-31 -223h-105zM532 1374l31 223h103l-31 -223h-103z" />
    <glyph glyph-name="copyright" unicode="&#xa9;" horiz-adv-x="1751" 
d="M793 -25q-293 0 -463 175.5t-170 470.5q0 199 65.5 373.5t178.5 299t272 196t340 71.5q294 0 465.5 -172.5t171.5 -462.5q0 -198 -66.5 -374.5t-180.5 -303t-273.5 -200t-339.5 -73.5zM807 70q208 0 380.5 110t272 302.5t99.5 426.5q0 253 -150.5 405t-407.5 152
q-210 0 -380.5 -107.5t-267.5 -297.5t-97 -424q0 -259 148 -413t403 -154zM840 291q-101 0 -153 62.5t-38 164.5l70 500q14 102 83 164.5t171 62.5q96 0 147 -62.5t37 -164.5l-4 -31h-94l4 31q8 59 -21.5 96t-85.5 37q-57 0 -96 -37t-47 -96l-70 -500q-8 -59 21.5 -96
t87.5 -37q54 0 94 37.5t47 95.5l4 31h95l-5 -31q-14 -101 -82 -164t-165 -63z" />
    <glyph glyph-name="ordfeminine" unicode="&#xaa;" horiz-adv-x="802" 
d="M532 1556q94 0 145 -60.5t38 -156.5l-66 -465h-92l6 48q-62 -62 -157 -62q-81 0 -125.5 41t-44.5 109q0 143 151 196q26 10 72.5 21.5t76.5 20t56 28.5t29 51l2 16q6 53 -20.5 87t-82.5 34q-55 0 -93 -34t-38 -87v-18h-88v14q0 94 68 155.5t163 61.5zM586 1081l16 115
q-31 -17 -97 -32t-79 -19q-96 -30 -96 -115q0 -38 27 -61t77 -23q63 0 103 35.5t49 99.5z" />
    <glyph glyph-name="guillemotleft" unicode="&#xab;" horiz-adv-x="1009" 
d="M397 0l-350 457l8 63l477 457l-18 -141l-358 -349l260 -346zM836 0l-353 457l9 63l479 457l-21 -141l-358 -349l262 -346z" />
    <glyph glyph-name="logicalnot" unicode="&#xac;" horiz-adv-x="1159" 
d="M770 242l35 254h-662l17 116h778l-51 -370h-117z" />
    <glyph glyph-name="uni00AD" unicode="&#xad;" horiz-adv-x="880" 
d="M143 496l19 116h573l-16 -116h-576z" />
    <glyph glyph-name="registered" unicode="&#xae;" horiz-adv-x="1751" 
d="M793 -25q-293 0 -463 175.5t-170 470.5q0 199 65.5 373.5t178.5 299t272 196t340 71.5q294 0 465.5 -172.5t171.5 -462.5q0 -198 -66.5 -374.5t-180.5 -303t-273.5 -200t-339.5 -73.5zM807 70q208 0 380.5 110t272 302.5t99.5 426.5q0 253 -150.5 405t-407.5 152
q-210 0 -380.5 -107.5t-267.5 -297.5t-97 -424q0 -259 148 -413t403 -154zM627 307l129 922h227q89 0 135.5 -57.5t34.5 -151.5l-16 -127q-15 -111 -103 -168q72 -50 58 -145l-37 -273h-94l36 273q6 46 -19 75t-71 29h-133l-53 -377h-94zM786 778h134q47 0 81 31.5t41 83.5
l17 127q6 49 -17 82t-73 33h-133z" />
    <glyph glyph-name="macron" unicode="&#xaf;" horiz-adv-x="739" 
d="M293 1536h430l-14 -98h-433z" />
    <glyph glyph-name="degree" unicode="&#xb0;" horiz-adv-x="841" 
d="M494 1085q-89 0 -147 55t-58 144q0 114 80.5 195.5t191.5 81.5q88 0 147.5 -55.5t59.5 -145.5q0 -114 -80.5 -194.5t-193.5 -80.5zM506 1174q66 0 119 50t53 119q0 57 -38 93.5t-91 36.5q-67 0 -119.5 -52.5t-52.5 -120.5q0 -55 38 -90.5t91 -35.5z" />
    <glyph glyph-name="plusminus" unicode="&#xb1;" horiz-adv-x="1062" 
d="M608 686h332l-16 -117h-332l-39 -288h-117l39 288h-330l15 117h332l40 291h117zM66 0l16 117h780l-18 -117h-778z" />
    <glyph glyph-name="uni00B2" unicode="&#xb2;" horiz-adv-x="561" 
d="M76 676l10 80q8 56 33.5 107t61.5 90t77.5 75.5t82.5 69.5t76 64.5t59.5 67.5t29.5 73l12 88q9 58 -20.5 95.5t-85.5 37.5q-53 0 -94 -37.5t-48 -95.5l-4 -31h-94l4 31q13 101 82.5 164t165.5 63q98 0 150 -63t38 -164l-12 -88q-7 -51 -38.5 -101t-73.5 -88.5t-91 -81
t-91.5 -79.5t-75.5 -82.5t-42 -90.5l-2 -10h340l-14 -94h-436z" />
    <glyph glyph-name="uni00B3" unicode="&#xb3;" horiz-adv-x="591" 
d="M291 655q-98 0 -149.5 63t-37.5 165l5 30h94l-4 -30q-8 -59 21.5 -96t84.5 -37t93.5 37t47.5 96l13 86q9 58 -21 95.5t-84 37.5h-73l12 94h74q55 0 95.5 36.5t47.5 96.5l8 62q8 60 -20 96.5t-84 36.5q-54 0 -95.5 -37.5t-48.5 -95.5l-4 -31h-94l4 31q14 101 83 164
t167 63q96 0 147 -62.5t37 -164.5l-8 -62q-16 -124 -104 -182q71 -64 55 -178l-12 -86q-15 -101 -84 -164.5t-166 -63.5z" />
    <glyph glyph-name="acute" unicode="&#xb4;" horiz-adv-x="411" 
d="M178 1245l193 352h121l-224 -352h-90z" />
    <glyph glyph-name="uni00B5" unicode="&#xb5;" horiz-adv-x="1112" 
d="M872 1108h117l-155 -1108h-117l12 92q-96 -117 -254 -117q-126 0 -203 74l-49 -356h-117l91 639q0 3 1 9.5t1 10.5l106 756h117l-109 -776q-11 -109 41 -174.5t150 -65.5q103 0 174 71t88 189l8 62z" />
    <glyph glyph-name="paragraph" unicode="&#xb6;" horiz-adv-x="915" 
d="M567 -307h-116l153 1114h-141q-144 0 -218 92.5t-55 245.5l7 53q19 151 121.5 244.5t246.5 93.5h260z" />
    <glyph glyph-name="periodcentered" unicode="&#xb7;" horiz-adv-x="540" 
d="M195 430l34 246h117l-35 -246h-116z" />
    <glyph glyph-name="cedilla" unicode="&#xb8;" horiz-adv-x="516" 
d="M145 -90q76 7 122 -32.5t46 -100.5q0 -79 -57.5 -134t-144.5 -55h-115l14 97h115q38 0 64 24t26 58q0 28 -20 45.5t-52 17.5h-63l-39 35l22 170h99z" />
    <glyph glyph-name="uni00B9" unicode="&#xb9;" horiz-adv-x="368" 
d="M168 676l104 741h-125l13 94h22q47 0 79 25t38 68l2 14h94l-133 -942h-94z" />
    <glyph glyph-name="ordmasculine" unicode="&#xba;" horiz-adv-x="751" 
d="M420 860q-93 0 -143 60.5t-37 156.5l36 262q13 97 80.5 157t161.5 60q92 0 141.5 -60t36.5 -157l-37 -262q-13 -98 -79 -157.5t-160 -59.5zM432 950q55 0 92 33.5t45 89.5l37 270q8 54 -19 87.5t-81 33.5t-91.5 -33.5t-45.5 -87.5l-37 -270q-7 -55 20 -89t80 -34z" />
    <glyph glyph-name="guillemotright" unicode="&#xbb;" horiz-adv-x="1009" 
d="M20 0l19 141l360 346l-262 349l21 141l350 -457l-8 -63zM459 0l18 141l359 346l-263 349l23 141l348 -457l-8 -63z" />
    <glyph glyph-name="onequarter" unicode="&#xbc;" horiz-adv-x="1331" 
d="M160 614l104 742h-125l13 94h22q48 0 79.5 24.5t37.5 67.5l2 14h94l-133 -942h-94zM86 0l887 1536h110l-886 -1536h-111zM1022 0l29 199h-344l12 88l432 635h94l-88 -629h84l-12 -94h-84l-29 -199h-94zM817 293h246l63 461z" />
    <glyph glyph-name="onehalf" unicode="&#xbd;" horiz-adv-x="1300" 
d="M160 614l104 742h-125l13 94h22q48 0 79.5 24.5t37.5 67.5l2 14h94l-133 -942h-94zM86 0l887 1536h110l-886 -1536h-111zM721 0l10 80q8 56 33.5 107t61.5 90t77.5 75.5t82.5 69.5t76 65t59.5 68.5t29.5 73.5l12 86q9 58 -20.5 95.5t-85.5 37.5q-53 0 -94 -37.5
t-48 -95.5l-4 -31h-94l4 31q13 101 82.5 164t165.5 63q98 0 150.5 -63t37.5 -164l-12 -86q-9 -60 -50.5 -118.5t-97 -106.5t-110.5 -94t-98.5 -99.5t-54.5 -106.5l-3 -10h340l-14 -94h-436z" />
    <glyph glyph-name="threequarters" unicode="&#xbe;" horiz-adv-x="1554" 
d="M283 594q-98 0 -149.5 62.5t-37.5 164.5l4 31h95l-5 -31q-8 -59 22 -96t85 -37t93.5 37t47.5 96l13 86q9 58 -21 95.5t-84 37.5h-74l13 95h73q55 0 96 36.5t48 96.5l8 61q8 60 -20 96.5t-84 36.5q-54 0 -95.5 -37.5t-48.5 -95.5l-4 -31h-94l4 31q14 101 83 164t167 63
q96 0 147 -62.5t37 -164.5l-8 -61q-16 -124 -105 -183q72 -65 56 -178l-13 -86q-15 -101 -83.5 -164t-165.5 -63zM309 0l887 1536h111l-887 -1536h-111zM1245 0l29 199h-344l12 88l432 635h94l-88 -629h84l-12 -94h-84l-29 -199h-94zM1040 293h246l64 461z" />
    <glyph glyph-name="questiondown" unicode="&#xbf;" horiz-adv-x="911" 
d="M602 1106l-35 -246h-116l34 246h117zM553 758l-12 -84q-10 -68 -41 -133t-71.5 -113.5t-86.5 -100t-85.5 -94t-68.5 -94t-36 -100.5l-17 -123q-17 -118 40 -190t165 -72t183.5 71.5t94.5 190.5l7 43h116l-6 -43q-26 -171 -137.5 -275t-273.5 -104q-160 0 -244.5 105
t-61.5 274l17 123q9 62 48.5 127.5t91.5 122.5t104.5 115.5t93.5 129t51 140.5l12 84h117z" />
    <glyph glyph-name="Agrave" unicode="&#xc0;" horiz-adv-x="942" 
d="M678 1675h-90l-127 353h121zM670 1536l131 -1536h-121l-27 328h-426l-121 -328h-120l561 1536h123zM266 444h377l-65 871z" />
    <glyph glyph-name="Aacute" unicode="&#xc1;" horiz-adv-x="942" 
d="M895 2028l-223 -353h-90l192 353h121zM547 1536h123l131 -1536h-121l-27 328h-426l-121 -328h-120zM266 444h377l-65 871z" />
    <glyph glyph-name="Acircumflex" unicode="&#xc2;" horiz-adv-x="942" 
d="M664 1937l-177 -202h-125l267 293h94l182 -293h-123zM547 1536h123l131 -1536h-121l-27 328h-426l-121 -328h-120zM266 444h377l-65 871z" />
    <glyph glyph-name="Atilde" unicode="&#xc3;" horiz-adv-x="942" 
d="M807 1911h92l-6 -43q-11 -74 -51.5 -110t-96.5 -36q-54 0 -108 43q-9 8 -25 22l-24 21t-19.5 13t-21.5 6q-24 0 -39.5 -20.5t-18.5 -47.5l-4 -26h-94l6 30q10 74 51 111t97 37q59 0 114 -51q4 -4 21 -19t23 -20t18.5 -11t23.5 -6q23 0 39 22t19 50zM547 1536h123
l131 -1536h-121l-27 328h-426l-121 -328h-120zM266 444h377l-65 871z" />
    <glyph glyph-name="Adieresis" unicode="&#xc4;" horiz-adv-x="942" 
d="M602 2028l-31 -224h-104l31 224h104zM760 2028h102l-31 -224h-102zM547 1536h123l131 -1536h-121l-27 328h-426l-121 -328h-120zM266 444h377l-65 871z" />
    <glyph glyph-name="Aring" unicode="&#xc5;" horiz-adv-x="942" 
d="M618 1608q-64 0 -107.5 40.5t-43.5 104.5q0 83 60.5 143t140.5 60q65 0 109 -41.5t44 -108.5q0 -81 -60.5 -139.5t-142.5 -58.5zM655 1872q-40 0 -72 -32.5t-32 -72.5q0 -32 24.5 -53.5t55.5 -21.5q38 0 71 29t33 71q0 35 -24 57.5t-56 22.5zM547 1536h123l131 -1536
h-121l-27 328h-426l-121 -328h-120zM266 444h377l-65 871z" />
    <glyph glyph-name="AE" unicode="&#xc6;" horiz-adv-x="1314" 
d="M-14 0l561 1536h821l-16 -117h-502l-86 -606h448l-16 -117h-446l-82 -579h503l-18 -117h-618l47 328h-355l-121 -328h-120zM268 444h328l137 975h-119z" />
    <glyph glyph-name="Ccedilla" unicode="&#xc7;" horiz-adv-x="987" 
d="M668 1569q161 0 247 -105t60 -274l-6 -41h-117l6 41q19 117 -40 189.5t-167 72.5q-109 0 -185 -71.5t-93 -190.5l-119 -844q-15 -119 41.5 -190.5t165.5 -71.5q108 0 183.5 71.5t94.5 190.5l6 43h117l-6 -43q-25 -157 -121 -257.5t-237 -117.5l-9 -61q76 7 122 -32.5
t46 -100.5q0 -79 -57.5 -134t-144.5 -55h-115l14 97h115q38 0 64 24t26 58q0 28 -20 45.5t-52 17.5h-63l-39 35l14 104q-141 15 -213 117.5t-49 259.5l119 844q25 170 138.5 274.5t273.5 104.5z" />
    <glyph glyph-name="Egrave" unicode="&#xc8;" horiz-adv-x="888" 
d="M551 1675l-127 353h121l96 -353h-90zM942 1536l-18 -117h-498l-84 -606h442l-14 -117h-444l-80 -579h497l-16 -117h-614l215 1536h614z" />
    <glyph glyph-name="Eacute" unicode="&#xc9;" horiz-adv-x="888" 
d="M545 1675l192 353h121l-223 -353h-90zM942 1536l-18 -117h-498l-84 -606h442l-14 -117h-444l-80 -579h497l-16 -117h-614l215 1536h614z" />
    <glyph glyph-name="Ecircumflex" unicode="&#xca;" horiz-adv-x="888" 
d="M326 1735l266 293h94l182 -293h-123l-118 202l-176 -202h-125zM942 1536l-18 -117h-498l-84 -606h442l-14 -117h-444l-80 -579h497l-16 -117h-614l215 1536h614z" />
    <glyph glyph-name="Edieresis" unicode="&#xcb;" horiz-adv-x="888" 
d="M430 1804l31 224h104l-30 -224h-105zM692 1804l31 224h102l-30 -224h-103zM942 1536l-18 -117h-498l-84 -606h442l-14 -117h-444l-80 -579h497l-16 -117h-614l215 1536h614z" />
    <glyph glyph-name="Igrave" unicode="&#xcc;" horiz-adv-x="495" 
d="M365 1675l-127 353h120l97 -353h-90zM229 0h-116l215 1536h116z" />
    <glyph glyph-name="Iacute" unicode="&#xcd;" horiz-adv-x="495" 
d="M358 1675l193 353h121l-223 -353h-91zM229 0h-116l215 1536h116z" />
    <glyph glyph-name="Icircumflex" unicode="&#xce;" horiz-adv-x="495" 
d="M139 1735l267 293h94l182 -293h-123l-119 202l-176 -202h-125zM229 0h-116l215 1536h116z" />
    <glyph glyph-name="Idieresis" unicode="&#xcf;" horiz-adv-x="495" 
d="M244 1804l30 224h105l-31 -224h-104zM506 1804l31 224h102l-31 -224h-102zM229 0h-116l215 1536h116z" />
    <glyph glyph-name="Eth" unicode="&#xd0;" horiz-adv-x="1046" 
d="M666 1536q158 0 243.5 -102.5t61.5 -276.5l-109 -778q-24 -168 -135.5 -273.5t-275.5 -105.5h-338l100 721h-182l14 96h182l101 719h338zM854 1157q17 119 -39 190.5t-166 71.5h-223l-84 -602h174l-12 -96h-174l-84 -604h221q108 0 184.5 72t93.5 190z" />
    <glyph glyph-name="Ntilde" unicode="&#xd1;" horiz-adv-x="1095" 
d="M567 1759l-4 -26h-94l6 30q10 74 51 111t97 37q59 0 114 -51q4 -4 21 -19t23 -20t18.5 -11t23.5 -6q23 0 39 22t19 50l4 35h92l-6 -43q-11 -74 -51.5 -110t-96.5 -36q-54 0 -108 43q-9 8 -25 22l-24 21t-19.5 13t-21.5 6q-24 0 -39.5 -20.5t-18.5 -47.5zM928 1536h116
l-215 -1536h-114l-314 1237l-174 -1237h-114l215 1536h114l312 -1243z" />
    <glyph glyph-name="Ograve" unicode="&#xd2;" horiz-adv-x="1052" 
d="M643 1675l-127 353h121l96 -353h-90zM444 -33q-160 0 -246 104.5t-61 274.5l119 844q25 170 138.5 274.5t273.5 104.5t246 -104.5t61 -274.5l-119 -844q-25 -170 -138 -274.5t-274 -104.5zM461 84q108 0 184.5 72t93.5 190l119 844q17 118 -40.5 190t-166.5 72
t-185 -71.5t-93 -190.5l-119 -844q-15 -119 41.5 -190.5t165.5 -71.5z" />
    <glyph glyph-name="Oacute" unicode="&#xd3;" horiz-adv-x="1052" 
d="M637 1675l192 353h121l-223 -353h-90zM444 -33q-160 0 -246 104.5t-61 274.5l119 844q25 170 138.5 274.5t273.5 104.5t246 -104.5t61 -274.5l-119 -844q-25 -170 -138 -274.5t-274 -104.5zM461 84q108 0 184.5 72t93.5 190l119 844q17 118 -40.5 190t-166.5 72
t-185 -71.5t-93 -190.5l-119 -844q-15 -119 41.5 -190.5t165.5 -71.5z" />
    <glyph glyph-name="Ocircumflex" unicode="&#xd4;" horiz-adv-x="1052" 
d="M418 1735l266 293h94l183 -293h-123l-119 202l-176 -202h-125zM444 -33q-160 0 -246 104.5t-61 274.5l119 844q25 170 138.5 274.5t273.5 104.5t246 -104.5t61 -274.5l-119 -844q-25 -170 -138 -274.5t-274 -104.5zM461 84q108 0 184.5 72t93.5 190l119 844
q17 118 -40.5 190t-166.5 72t-185 -71.5t-93 -190.5l-119 -844q-15 -119 41.5 -190.5t165.5 -71.5z" />
    <glyph glyph-name="Otilde" unicode="&#xd5;" horiz-adv-x="1052" 
d="M801 1722q-55 0 -109 43q-9 8 -25 22l-24 21t-19.5 13t-21.5 6q-24 0 -39 -20.5t-18 -47.5l-4 -26h-95l7 30q10 74 50.5 111t96.5 37q60 0 115 -51q4 -4 21 -19t23 -20t18.5 -11t23.5 -6q23 0 38.5 22t18.5 50l4 35h92l-6 -43q-11 -74 -51 -110t-96 -36zM444 -33
q-160 0 -246 104.5t-61 274.5l119 844q25 170 138.5 274.5t273.5 104.5t246 -104.5t61 -274.5l-119 -844q-25 -170 -138 -274.5t-274 -104.5zM461 84q108 0 184.5 72t93.5 190l119 844q17 118 -40.5 190t-166.5 72t-185 -71.5t-93 -190.5l-119 -844q-15 -119 41.5 -190.5
t165.5 -71.5z" />
    <glyph glyph-name="Odieresis" unicode="&#xd6;" horiz-adv-x="1052" 
d="M522 1804l31 224h104l-30 -224h-105zM784 1804l31 224h103l-31 -224h-103zM444 -33q-160 0 -246 104.5t-61 274.5l119 844q25 170 138.5 274.5t273.5 104.5t246 -104.5t61 -274.5l-119 -844q-25 -170 -138 -274.5t-274 -104.5zM461 84q108 0 184.5 72t93.5 190l119 844
q17 118 -40.5 190t-166.5 72t-185 -71.5t-93 -190.5l-119 -844q-15 -119 41.5 -190.5t165.5 -71.5z" />
    <glyph glyph-name="multiply" unicode="&#xd7;" horiz-adv-x="911" 
d="M805 791l-266 -236l200 -233l-92 -82l-201 233l-268 -235l-72 84l269 235l-203 234l94 81l201 -235l266 233z" />
    <glyph glyph-name="Oslash" unicode="&#xd8;" horiz-adv-x="1052" 
d="M1120 1604l-151 -248q18 -74 6 -166l-119 -844q-25 -170 -138 -274.5t-274 -104.5q-176 0 -258 121l-96 -158h-92l147 242q-22 81 -8 174l119 844q25 170 138.5 274.5t273.5 104.5q177 0 260 -125l98 160h94zM373 1190l-119 -842l596 969q-20 64 -72.5 99.5t-126.5 35.5
q-109 0 -185 -71.5t-93 -190.5zM739 346l117 828l-592 -961q22 -61 73 -95t124 -34q108 0 184.5 72t93.5 190z" />
    <glyph glyph-name="Ugrave" unicode="&#xd9;" horiz-adv-x="1077" 
d="M657 1675l-127 353h121l97 -353h-91zM1034 1536l-166 -1190q-24 -173 -138 -276t-273 -103q-158 0 -244 102.5t-63 276.5l167 1190h117l-166 -1190q-17 -118 39.5 -190t165.5 -72t185.5 72t93.5 190l166 1190h116z" />
    <glyph glyph-name="Uacute" unicode="&#xda;" horiz-adv-x="1077" 
d="M651 1675l193 353h121l-224 -353h-90zM1034 1536l-166 -1190q-24 -173 -138 -276t-273 -103q-158 0 -244 102.5t-63 276.5l167 1190h117l-166 -1190q-17 -118 39.5 -190t165.5 -72t185.5 72t93.5 190l166 1190h116z" />
    <glyph glyph-name="Ucircumflex" unicode="&#xdb;" horiz-adv-x="1077" 
d="M432 1735l266 293h95l182 -293h-123l-119 202l-176 -202h-125zM1034 1536l-166 -1190q-24 -173 -138 -276t-273 -103q-158 0 -244 102.5t-63 276.5l167 1190h117l-166 -1190q-17 -118 39.5 -190t165.5 -72t185.5 72t93.5 190l166 1190h116z" />
    <glyph glyph-name="Udieresis" unicode="&#xdc;" horiz-adv-x="1077" 
d="M537 1804l30 224h105l-31 -224h-104zM799 1804l30 224h103l-31 -224h-102zM1034 1536l-166 -1190q-24 -173 -138 -276t-273 -103q-158 0 -244 102.5t-63 276.5l167 1190h117l-166 -1190q-17 -118 39.5 -190t165.5 -72t185.5 72t93.5 190l166 1190h116z" />
    <glyph glyph-name="Yacute" unicode="&#xdd;" horiz-adv-x="976" 
d="M913 2028l-223 -353h-90l193 353h120zM954 1536h121l-489 -719l-115 -817h-117l115 817l-291 719h121l244 -604z" />
    <glyph glyph-name="Thorn" unicode="&#xde;" horiz-adv-x="976" 
d="M113 0l215 1536h116l-34 -250h262q146 0 219 -95t51 -245l-22 -153q-23 -155 -124.5 -247.5t-242.5 -92.5h-262l-62 -453h-116zM309 569h262q90 0 153.5 62t78.5 162l22 153q15 99 -33 161t-139 62h-262z" />
    <glyph glyph-name="germandbls" unicode="&#xdf;" horiz-adv-x="1005" 
d="M655 1569q161 0 246 -104.5t62 -274.5l-17 -107q-25 -179 -153 -274q120 -93 96 -287l-25 -184q-20 -152 -121.5 -245t-244.5 -93h-125l14 117h125q91 0 157 61t79 160l24 184q12 100 -34.5 160.5t-135.5 60.5h-127l19 117h104q90 0 154.5 62t76.5 161l17 107
q15 118 -42 190t-165 72t-186 -72t-93 -190l-200 -1436h-117l201 1436q24 173 138 276t273 103z" />
    <glyph glyph-name="agrave" unicode="&#xe0;" 
d="M637 1245h-90l-127 352h121zM776 1106h117l-156 -1106h-116l12 82q-96 -107 -246 -107q-153 0 -235 98t-60 259l62 444q22 159 132 256.5t263 97.5q145 0 217 -106zM729 776q15 109 -36 174.5t-158 65.5q-106 0 -178.5 -66.5t-86.5 -173.5l-63 -444q-14 -108 39.5 -174
t156.5 -66q109 0 179.5 64.5t85.5 173.5z" />
    <glyph glyph-name="aacute" unicode="&#xe1;" 
d="M854 1597l-223 -352h-90l192 352h121zM776 1106h117l-156 -1106h-116l12 82q-96 -107 -246 -107q-153 0 -235 98t-60 259l62 444q22 159 132 256.5t263 97.5q145 0 217 -106zM729 776q15 109 -36 174.5t-158 65.5q-106 0 -178.5 -66.5t-86.5 -173.5l-63 -444
q-14 -108 39.5 -174t156.5 -66q109 0 179.5 64.5t85.5 173.5z" />
    <glyph glyph-name="acircumflex" unicode="&#xe2;" 
d="M623 1507l-177 -202h-124l266 292h94l182 -292h-123zM776 1106h117l-156 -1106h-116l12 82q-96 -107 -246 -107q-153 0 -235 98t-60 259l62 444q22 159 132 256.5t263 97.5q145 0 217 -106zM729 776q15 109 -36 174.5t-158 65.5q-106 0 -178.5 -66.5t-86.5 -173.5
l-63 -444q-14 -108 39.5 -174t156.5 -66q109 0 179.5 64.5t85.5 173.5z" />
    <glyph glyph-name="atilde" unicode="&#xe3;" 
d="M449 1329l-5 -26h-94l6 30q10 74 51 111t97 37q59 0 114 -51q5 -5 17.5 -16t18.5 -16t15.5 -11.5t18 -9.5t17.5 -3q23 0 38.5 22t18.5 50l4 35h92l-6 -43q-11 -74 -51 -110t-96 -36q-55 0 -109 43q-9 8 -25 22l-24 21t-19.5 13t-21.5 6q-24 0 -39 -20.5t-18 -47.5z
M776 1106h117l-156 -1106h-116l12 82q-96 -107 -246 -107q-153 0 -235 98t-60 259l62 444q22 159 132 256.5t263 97.5q145 0 217 -106zM729 776q15 109 -36 174.5t-158 65.5q-106 0 -178.5 -66.5t-86.5 -173.5l-63 -444q-14 -108 39.5 -174t156.5 -66q109 0 179.5 64.5
t85.5 173.5z" />
    <glyph glyph-name="adieresis" unicode="&#xe4;" 
d="M561 1597l-31 -223h-104l31 223h104zM821 1597l-30 -223h-103l31 223h102zM776 1106h117l-156 -1106h-116l12 82q-96 -107 -246 -107q-153 0 -235 98t-60 259l62 444q22 159 132 256.5t263 97.5q145 0 217 -106zM729 776q15 109 -36 174.5t-158 65.5q-106 0 -178.5 -66.5
t-86.5 -173.5l-63 -444q-14 -108 39.5 -174t156.5 -66q109 0 179.5 64.5t85.5 173.5z" />
    <glyph glyph-name="aring" unicode="&#xe5;" 
d="M578 1178q-64 0 -108 41t-44 104q0 83 60.5 143t140.5 60q65 0 109 -41.5t44 -108.5q0 -81 -60 -139.5t-142 -58.5zM614 1442q-40 0 -72 -32.5t-32 -72.5q0 -32 24.5 -53.5t55.5 -21.5q38 0 71 29t33 71q0 35 -24 57.5t-56 22.5zM776 1106h117l-156 -1106h-116l12 82
q-96 -107 -246 -107q-153 0 -235 98t-60 259l62 444q22 159 132 256.5t263 97.5q145 0 217 -106zM729 776q15 109 -36 174.5t-158 65.5q-106 0 -178.5 -66.5t-86.5 -173.5l-63 -444q-14 -108 39.5 -174t156.5 -66q109 0 179.5 64.5t85.5 173.5z" />
    <glyph glyph-name="ae" unicode="&#xe6;" horiz-adv-x="1495" 
d="M1116 1130q154 0 237 -98t60 -256l-33 -233h-579l-29 -211q-15 -107 40 -173.5t161 -66.5t180 66.5t84 173.5l2 20h115l-2 -20q-17 -161 -130.5 -259t-267.5 -98q-100 0 -174 45t-108 125q-61 -83 -151.5 -126.5t-186.5 -43.5q-139 0 -216 68.5t-77 183.5q0 236 258 322
q47 16 112.5 31t110 25t89 26.5t70 45t32.5 71.5l4 28q15 107 -40 173.5t-161 66.5q-107 0 -181.5 -67.5t-74.5 -172.5v-20h-110v20q1 103 54 184.5t139.5 125.5t188.5 44q95 0 165.5 -38t107.5 -107q55 68 136 106.5t175 38.5zM1298 776q15 108 -39 174t-159 66
q-104 0 -177.5 -66.5t-88.5 -173.5l-17 -117h465zM365 88q125 0 199.5 69.5t92.5 192.5l29 207q-61 -35 -191 -62.5t-149 -33.5q-186 -54 -186 -209q0 -75 53.5 -119.5t151.5 -44.5z" />
    <glyph glyph-name="ccedilla" unicode="&#xe7;" horiz-adv-x="901" 
d="M553 1130q153 0 231.5 -97.5t63.5 -256.5l-2 -20h-117l2 20q11 110 -40 175t-156 65q-106 0 -180 -66.5t-89 -173.5l-61 -444q-15 -107 40 -173.5t161 -66.5t180 66.5t84 173.5l2 20h116l-2 -20q-13 -142 -108.5 -240t-235.5 -115l-8 -67q76 7 122 -32.5t46 -100.5
q0 -79 -58 -134t-145 -55h-114l14 97h115q38 0 64 24t26 58q0 28 -20 45.5t-52 17.5h-63l-39 35l14 112q-133 15 -203.5 112t-50.5 243l62 444q22 157 134 255.5t267 98.5z" />
    <glyph glyph-name="egrave" unicode="&#xe8;" horiz-adv-x="931" 
d="M618 1245h-90l-127 352h121zM553 1130q152 0 236 -98.5t61 -255.5l-33 -233h-584l-28 -211q-15 -107 40 -173.5t161 -66.5t180 66.5t84 173.5l2 20h116l-2 -20q-15 -156 -126 -256.5t-269 -100.5q-154 0 -238.5 99t-62.5 258l62 444q22 157 134 255.5t267 98.5zM731 776
q15 108 -38 174t-158 66q-106 0 -180 -66.5t-89 -173.5l-16 -117h465z" />
    <glyph glyph-name="eacute" unicode="&#xe9;" horiz-adv-x="931" 
d="M836 1597l-224 -352h-90l193 352h121zM553 1130q152 0 236 -98.5t61 -255.5l-33 -233h-584l-28 -211q-15 -107 40 -173.5t161 -66.5t180 66.5t84 173.5l2 20h116l-2 -20q-15 -156 -126 -256.5t-269 -100.5q-154 0 -238.5 99t-62.5 258l62 444q22 157 134 255.5t267 98.5z
M731 776q15 108 -38 174t-158 66q-106 0 -180 -66.5t-89 -173.5l-16 -117h465z" />
    <glyph glyph-name="ecircumflex" unicode="&#xea;" horiz-adv-x="931" 
d="M604 1507l-176 -202h-125l266 292h95l182 -292h-123zM553 1130q152 0 236 -98.5t61 -255.5l-33 -233h-584l-28 -211q-15 -107 40 -173.5t161 -66.5t180 66.5t84 173.5l2 20h116l-2 -20q-15 -156 -126 -256.5t-269 -100.5q-154 0 -238.5 99t-62.5 258l62 444
q22 157 134 255.5t267 98.5zM731 776q15 108 -38 174t-158 66q-106 0 -180 -66.5t-89 -173.5l-16 -117h465z" />
    <glyph glyph-name="edieresis" unicode="&#xeb;" horiz-adv-x="931" 
d="M543 1597l-31 -223h-104l30 223h105zM803 1597l-31 -223h-102l30 223h103zM553 1130q152 0 236 -98.5t61 -255.5l-33 -233h-584l-28 -211q-15 -107 40 -173.5t161 -66.5t180 66.5t84 173.5l2 20h116l-2 -20q-15 -156 -126 -256.5t-269 -100.5q-154 0 -238.5 99t-62.5 258
l62 444q22 157 134 255.5t267 98.5zM731 776q15 108 -38 174t-158 66q-106 0 -180 -66.5t-89 -173.5l-16 -117h465z" />
    <glyph glyph-name="igrave" unicode="&#xec;" horiz-adv-x="421" 
d="M270 1245l-127 352h121l96 -352h-90zM76 0l155 1106h115l-156 -1106h-114z" />
    <glyph glyph-name="iacute" unicode="&#xed;" horiz-adv-x="421" 
d="M264 1245l193 352h121l-224 -352h-90zM76 0l155 1106h115l-156 -1106h-114z" />
    <glyph glyph-name="icircumflex" unicode="&#xee;" horiz-adv-x="421" 
d="M45 1305l266 292h95l182 -292h-123l-119 202l-176 -202h-125zM76 0l155 1106h115l-156 -1106h-114z" />
    <glyph glyph-name="idieresis" unicode="&#xef;" horiz-adv-x="421" 
d="M150 1374l30 223h105l-31 -223h-104zM412 1374l30 223h103l-31 -223h-102zM76 0l155 1106h115l-156 -1106h-114z" />
    <glyph glyph-name="eth" unicode="&#xf0;" 
d="M1065 1415l-14 -108l-144 -37q3 -37 -4 -88l-166 -1182h-116l12 82q-96 -107 -246 -107q-153 0 -235 98t-60 259l62 444q22 159 132 256.5t263 97.5q146 0 215 -106l22 158q4 39 2 57l-215 -57l15 106l176 47q-54 86 -172 86h-41l14 115h43q100 0 173 -44.5t104 -123.5z
M729 776q15 109 -36 174.5t-158 65.5q-106 0 -178.5 -66.5t-86.5 -173.5l-63 -444q-14 -108 39.5 -174t156.5 -66q109 0 179.5 64.5t85.5 173.5z" />
    <glyph glyph-name="ntilde" unicode="&#xf1;" 
d="M451 1329l-5 -26h-94l6 30q10 74 51 111t97 37q60 0 115 -51q4 -4 21 -19t23 -20t18.5 -11t23.5 -6q23 0 38.5 22t18.5 50l4 35h92l-6 -43q-11 -74 -51 -110t-96 -36q-55 0 -109 43q-9 8 -25 22l-24 21t-19.5 13t-21.5 6q-24 0 -39 -20.5t-18 -47.5zM588 1130
q144 0 219.5 -96.5t52.5 -257.5l-108 -776h-117l108 776q15 107 -36 173.5t-148 66.5q-101 0 -173 -66.5t-87 -173.5l-109 -776h-114l155 1106h115l-12 -90q97 114 254 114z" />
    <glyph glyph-name="ograve" unicode="&#xf2;" horiz-adv-x="937" 
d="M528 1245l-127 352h121l96 -352h-90zM391 -25q-154 0 -238.5 99t-62.5 258l62 444q22 157 134 255.5t267 98.5q153 0 235 -98t60 -256l-62 -444q-22 -159 -132 -258t-263 -99zM406 92q105 0 177 66t87 174l61 444q15 108 -38 174t-158 66q-106 0 -180 -66.5t-89 -173.5
l-61 -444q-15 -107 40 -173.5t161 -66.5z" />
    <glyph glyph-name="oacute" unicode="&#xf3;" horiz-adv-x="937" 
d="M522 1245l193 352h121l-224 -352h-90zM391 -25q-154 0 -238.5 99t-62.5 258l62 444q22 157 134 255.5t267 98.5q153 0 235 -98t60 -256l-62 -444q-22 -159 -132 -258t-263 -99zM406 92q105 0 177 66t87 174l61 444q15 108 -38 174t-158 66q-106 0 -180 -66.5t-89 -173.5
l-61 -444q-15 -107 40 -173.5t161 -66.5z" />
    <glyph glyph-name="ocircumflex" unicode="&#xf4;" horiz-adv-x="937" 
d="M303 1305l266 292h95l182 -292h-123l-119 202l-176 -202h-125zM391 -25q-154 0 -238.5 99t-62.5 258l62 444q22 157 134 255.5t267 98.5q153 0 235 -98t60 -256l-62 -444q-22 -159 -132 -258t-263 -99zM406 92q105 0 177 66t87 174l61 444q15 108 -38 174t-158 66
q-106 0 -180 -66.5t-89 -173.5l-61 -444q-15 -107 40 -173.5t161 -66.5z" />
    <glyph glyph-name="otilde" unicode="&#xf5;" horiz-adv-x="937" 
d="M686 1292q-54 0 -108 43q-9 7 -25 22t-24 21.5t-20 12.5t-22 6q-24 0 -39 -20.5t-18 -47.5l-4 -26h-94l6 30q10 74 50.5 111t96.5 37q60 0 115 -51q4 -4 21 -19t23 -20t18.5 -11t23.5 -6q23 0 38.5 22t18.5 50l5 35h92l-6 -43q-11 -74 -51.5 -110t-96.5 -36zM391 -25
q-154 0 -238.5 99t-62.5 258l62 444q22 157 134 255.5t267 98.5q153 0 235 -98t60 -256l-62 -444q-22 -159 -132 -258t-263 -99zM406 92q105 0 177 66t87 174l61 444q15 108 -38 174t-158 66q-106 0 -180 -66.5t-89 -173.5l-61 -444q-15 -107 40 -173.5t161 -66.5z" />
    <glyph glyph-name="odieresis" unicode="&#xf6;" horiz-adv-x="937" 
d="M408 1374l30 223h105l-31 -223h-104zM670 1374l30 223h103l-31 -223h-102zM391 -25q-154 0 -238.5 99t-62.5 258l62 444q22 157 134 255.5t267 98.5q153 0 235 -98t60 -256l-62 -444q-22 -159 -132 -258t-263 -99zM406 92q105 0 177 66t87 174l61 444q15 108 -38 174
t-158 66q-106 0 -180 -66.5t-89 -173.5l-61 -444q-15 -107 40 -173.5t161 -66.5z" />
    <glyph glyph-name="divide" unicode="&#xf7;" horiz-adv-x="1101" 
d="M514 700l33 246h117l-33 -246h-117zM111 496l18 116h860l-16 -116h-862zM438 164l35 246h117l-35 -246h-117z" />
    <glyph glyph-name="oslash" unicode="&#xf8;" horiz-adv-x="937" 
d="M928 1147l-111 -160q46 -85 31 -211l-62 -444q-22 -159 -132 -258t-263 -99q-138 0 -221 80l-70 -98h-92l113 164q-46 85 -31 211l62 444q22 157 134 255.5t267 98.5q135 0 215 -77l66 94h94zM205 332q-6 -52 2 -90l487 706q-52 68 -159 68q-106 0 -180 -66.5t-89 -173.5
zM731 776q6 47 0 88l-489 -702q54 -70 164 -70q105 0 177 66t87 174z" />
    <glyph glyph-name="ugrave" unicode="&#xf9;" 
d="M621 1245h-91l-127 352h121zM776 1106h117l-156 -1106h-116l12 86q-100 -111 -252 -111q-143 0 -219 96.5t-53 258.5l108 776h115l-109 -776q-13 -107 38.5 -172.5t148.5 -65.5q102 0 173.5 65.5t84.5 172.5z" />
    <glyph glyph-name="uacute" unicode="&#xfa;" 
d="M838 1597l-224 -352h-90l193 352h121zM776 1106h117l-156 -1106h-116l12 86q-100 -111 -252 -111q-143 0 -219 96.5t-53 258.5l108 776h115l-109 -776q-13 -107 38.5 -172.5t148.5 -65.5q102 0 173.5 65.5t84.5 172.5z" />
    <glyph glyph-name="ucircumflex" unicode="&#xfb;" 
d="M606 1507l-176 -202h-125l266 292h95l182 -292h-123zM776 1106h117l-156 -1106h-116l12 86q-100 -111 -252 -111q-143 0 -219 96.5t-53 258.5l108 776h115l-109 -776q-13 -107 38.5 -172.5t148.5 -65.5q102 0 173.5 65.5t84.5 172.5z" />
    <glyph glyph-name="udieresis" unicode="&#xfc;" 
d="M545 1597l-31 -223h-104l30 223h105zM805 1597l-31 -223h-102l30 223h103zM776 1106h117l-156 -1106h-116l12 86q-100 -111 -252 -111q-143 0 -219 96.5t-53 258.5l108 776h115l-109 -776q-13 -107 38.5 -172.5t148.5 -65.5q102 0 173.5 65.5t84.5 172.5z" />
    <glyph glyph-name="yacute" unicode="&#xfd;" horiz-adv-x="849" 
d="M791 1597l-224 -352h-90l193 352h121zM772 1106h129l-643 -1475h-131l147 338l-165 1137h127l139 -924z" />
    <glyph glyph-name="thorn" unicode="&#xfe;" horiz-adv-x="966" 
d="M582 1130q153 0 235 -97.5t60 -256.5l-62 -444q-22 -160 -132 -258.5t-263 -98.5q-149 0 -217 111l-64 -455h-114l266 1905h115l-74 -514q100 108 250 108zM760 776q15 108 -38 174t-157 66q-110 0 -180.5 -65.5t-85.5 -174.5l-61 -446q-14 -109 37 -173.5t159 -64.5
q105 0 177 66t87 174z" />
    <glyph glyph-name="ydieresis" unicode="&#xff;" horiz-adv-x="849" 
d="M498 1597l-31 -223h-105l31 223h105zM758 1597l-31 -223h-102l30 223h103zM772 1106h129l-643 -1475h-131l147 338l-165 1137h127l139 -924z" />
    <glyph glyph-name="Amacron" unicode="&#x100;" horiz-adv-x="942" 
d="M432 1823h430l-14 -99h-432zM547 1536h123l131 -1536h-121l-27 328h-426l-121 -328h-120zM266 444h377l-65 871z" />
    <glyph glyph-name="amacron" unicode="&#x101;" 
d="M821 1393l-14 -99h-432l16 99h430zM776 1106h117l-156 -1106h-116l12 82q-96 -107 -246 -107q-153 0 -235 98t-60 259l62 444q22 159 132 256.5t263 97.5q145 0 217 -106zM729 776q15 109 -36 174.5t-158 65.5q-106 0 -178.5 -66.5t-86.5 -173.5l-63 -444
q-14 -108 39.5 -174t156.5 -66q109 0 179.5 64.5t85.5 173.5z" />
    <glyph glyph-name="Abreve" unicode="&#x102;" horiz-adv-x="942" 
d="M801 2028h88l-2 -15q-13 -93 -81 -152t-159 -59q-90 0 -143.5 59.5t-38.5 151.5l2 15h88l-2 -15q-7 -58 22 -92.5t82 -34.5t94 35t48 92zM547 1536h123l131 -1536h-121l-27 328h-426l-121 -328h-120zM266 444h377l-65 871z" />
    <glyph glyph-name="abreve" unicode="&#x103;" 
d="M606 1372q-90 0 -143.5 59.5t-38.5 151.5l2 14h88l-2 -14q-7 -58 22 -92.5t82 -34.5t94 35t48 92l2 14h88l-2 -14q-13 -93 -81 -152t-159 -59zM776 1106h117l-156 -1106h-116l12 82q-96 -107 -246 -107q-153 0 -235 98t-60 259l62 444q22 159 132 256.5t263 97.5
q145 0 217 -106zM729 776q15 109 -36 174.5t-158 65.5q-106 0 -178.5 -66.5t-86.5 -173.5l-63 -444q-14 -108 39.5 -174t156.5 -66q109 0 179.5 64.5t85.5 173.5z" />
    <glyph glyph-name="Aogonek" unicode="&#x104;" horiz-adv-x="942" 
d="M776 0q-149 -114 -149 -219q0 -38 29.5 -59t82.5 -21h25l-14 -98h-29q-93 0 -146 40.5t-53 108.5q0 139 162 248h-4l-27 328h-426l-121 -328h-120l561 1536h123l131 -1536h-25zM266 444h377l-65 871z" />
    <glyph glyph-name="aogonek" unicode="&#x105;" horiz-adv-x="1038" 
d="M776 1106h117l-156 -1106h-41q-149 -114 -149 -219q0 -38 29.5 -59t82.5 -21h25l-14 -98h-29q-93 0 -146 40.5t-53 108.5q0 143 181 260l10 70q-96 -107 -246 -107q-153 0 -235 98t-60 259l62 444q22 159 132 256.5t263 97.5q145 0 217 -106zM729 776q15 109 -36 174.5
t-158 65.5q-106 0 -178.5 -66.5t-86.5 -173.5l-63 -444q-14 -108 39.5 -174t156.5 -66q109 0 179.5 64.5t85.5 173.5z" />
    <glyph glyph-name="Cacute" unicode="&#x106;" horiz-adv-x="987" 
d="M637 1675l192 353h121l-223 -353h-90zM862 389l-6 -43q-26 -171 -138.5 -275t-273.5 -104q-160 0 -246 104.5t-61 274.5l119 844q25 170 138.5 274.5t273.5 104.5q161 0 247 -105t60 -274l-6 -41h-117l6 41q19 117 -40 189.5t-167 72.5q-109 0 -185 -71.5t-93 -190.5
l-119 -844q-15 -119 41.5 -190.5t165.5 -71.5q108 0 183.5 71.5t94.5 190.5l6 43h117z" />
    <glyph glyph-name="cacute" unicode="&#x107;" horiz-adv-x="901" 
d="M522 1245l193 352h121l-224 -352h-90zM788 352l-2 -20q-15 -156 -126 -256.5t-269 -100.5q-154 0 -238.5 99t-62.5 258l62 444q22 157 134 255.5t267 98.5q153 0 231.5 -97.5t63.5 -256.5l-2 -20h-117l2 20q11 110 -40 175t-156 65q-106 0 -180 -66.5t-89 -173.5
l-61 -444q-15 -107 40 -173.5t161 -66.5t180 66.5t84 173.5l2 20h116z" />
    <glyph glyph-name="Ccircumflex" unicode="&#x108;" horiz-adv-x="987" 
d="M418 1735l266 293h94l183 -293h-123l-119 202l-176 -202h-125zM862 389l-6 -43q-26 -171 -138.5 -275t-273.5 -104q-160 0 -246 104.5t-61 274.5l119 844q25 170 138.5 274.5t273.5 104.5q161 0 247 -105t60 -274l-6 -41h-117l6 41q19 117 -40 189.5t-167 72.5
q-109 0 -185 -71.5t-93 -190.5l-119 -844q-15 -119 41.5 -190.5t165.5 -71.5q108 0 183.5 71.5t94.5 190.5l6 43h117z" />
    <glyph glyph-name="ccircumflex" unicode="&#x109;" horiz-adv-x="901" 
d="M303 1305l266 292h95l182 -292h-123l-119 202l-176 -202h-125zM788 352l-2 -20q-15 -156 -126 -256.5t-269 -100.5q-154 0 -238.5 99t-62.5 258l62 444q22 157 134 255.5t267 98.5q153 0 231.5 -97.5t63.5 -256.5l-2 -20h-117l2 20q11 110 -40 175t-156 65
q-106 0 -180 -66.5t-89 -173.5l-61 -444q-15 -107 40 -173.5t161 -66.5t180 66.5t84 173.5l2 20h116z" />
    <glyph glyph-name="Cdotaccent" unicode="&#x10a;" horiz-adv-x="987" 
d="M641 1743l31 223h104l-31 -223h-104zM862 389l-6 -43q-26 -171 -138.5 -275t-273.5 -104q-160 0 -246 104.5t-61 274.5l119 844q25 170 138.5 274.5t273.5 104.5q161 0 247 -105t60 -274l-6 -41h-117l6 41q19 117 -40 189.5t-167 72.5q-109 0 -185 -71.5t-93 -190.5
l-119 -844q-15 -119 41.5 -190.5t165.5 -71.5q108 0 183.5 71.5t94.5 190.5l6 43h117z" />
    <glyph glyph-name="cdotaccent" unicode="&#x10b;" horiz-adv-x="901" 
d="M526 1313l31 223h105l-31 -223h-105zM788 352l-2 -20q-15 -156 -126 -256.5t-269 -100.5q-154 0 -238.5 99t-62.5 258l62 444q22 157 134 255.5t267 98.5q153 0 231.5 -97.5t63.5 -256.5l-2 -20h-117l2 20q11 110 -40 175t-156 65q-106 0 -180 -66.5t-89 -173.5l-61 -444
q-15 -107 40 -173.5t161 -66.5t180 66.5t84 173.5l2 20h116z" />
    <glyph glyph-name="Ccaron" unicode="&#x10c;" horiz-adv-x="987" 
d="M643 1735l-182 293h123l121 -203l174 203h122l-264 -293h-94zM862 389l-6 -43q-26 -171 -138.5 -275t-273.5 -104q-160 0 -246 104.5t-61 274.5l119 844q25 170 138.5 274.5t273.5 104.5q161 0 247 -105t60 -274l-6 -41h-117l6 41q19 117 -40 189.5t-167 72.5
q-109 0 -185 -71.5t-93 -190.5l-119 -844q-15 -119 41.5 -190.5t165.5 -71.5q108 0 183.5 71.5t94.5 190.5l6 43h117z" />
    <glyph glyph-name="ccaron" unicode="&#x10d;" horiz-adv-x="901" 
d="M528 1305l-182 292h123l121 -202l174 202h123l-264 -292h-95zM788 352l-2 -20q-15 -156 -126 -256.5t-269 -100.5q-154 0 -238.5 99t-62.5 258l62 444q22 157 134 255.5t267 98.5q153 0 231.5 -97.5t63.5 -256.5l-2 -20h-117l2 20q11 110 -40 175t-156 65
q-106 0 -180 -66.5t-89 -173.5l-61 -444q-15 -107 40 -173.5t161 -66.5t180 66.5t84 173.5l2 20h116z" />
    <glyph glyph-name="Dcaron" unicode="&#x10e;" horiz-adv-x="1046" 
d="M641 1735l-182 293h123l120 -203l175 203h122l-264 -293h-94zM113 0l215 1536h338q158 0 243.5 -102.5t61.5 -276.5l-109 -778q-24 -168 -135.5 -273.5t-275.5 -105.5h-338zM246 117h221q108 0 184.5 72t93.5 190l109 778q17 119 -39 190.5t-166 71.5h-223z" />
    <glyph glyph-name="dcaron" unicode="&#x10f;" horiz-adv-x="1320" 
d="M766 1024l70 512h116l-215 -1536h-116l12 82q-96 -107 -246 -107q-153 0 -235 98t-60 259l62 444q22 159 132 256.5t263 97.5q148 0 217 -106zM1169 1536h117l-141 -432h-117zM729 776q15 109 -36 174.5t-158 65.5q-106 0 -178.5 -66.5t-86.5 -173.5l-63 -444
q-14 -108 39.5 -174t156.5 -66q109 0 179.5 64.5t85.5 173.5z" />
    <glyph glyph-name="Dcroat" unicode="&#x110;" horiz-adv-x="1046" 
d="M666 1536q158 0 243.5 -102.5t61.5 -276.5l-109 -778q-24 -168 -135.5 -273.5t-275.5 -105.5h-338l100 721h-182l14 96h182l101 719h338zM854 1157q17 119 -39 190.5t-166 71.5h-223l-84 -602h174l-12 -96h-174l-84 -604h221q108 0 184.5 72t93.5 190z" />
    <glyph glyph-name="dcroat" unicode="&#x111;" 
d="M1106 1364l-12 -96h-179l-178 -1268h-116l12 82q-96 -107 -246 -107q-153 0 -235 98t-60 259l62 444q22 159 132 256.5t263 97.5q148 0 217 -106l33 244h-178l14 96h176l25 172h116l-24 -172h178zM729 776q15 109 -36 174.5t-158 65.5q-106 0 -178.5 -66.5t-86.5 -173.5
l-63 -444q-14 -108 39.5 -174t156.5 -66q109 0 179.5 64.5t85.5 173.5z" />
    <glyph glyph-name="Emacron" unicode="&#x112;" horiz-adv-x="888" 
d="M395 1823h430l-14 -99h-432zM942 1536l-18 -117h-498l-84 -606h442l-14 -117h-444l-80 -579h497l-16 -117h-614l215 1536h614z" />
    <glyph glyph-name="emacron" unicode="&#x113;" horiz-adv-x="931" 
d="M803 1393l-15 -99h-432l17 99h430zM553 1130q152 0 236 -98.5t61 -255.5l-33 -233h-584l-28 -211q-15 -107 40 -173.5t161 -66.5t180 66.5t84 173.5l2 20h116l-2 -20q-15 -156 -126 -256.5t-269 -100.5q-154 0 -238.5 99t-62.5 258l62 444q22 157 134 255.5t267 98.5z
M731 776q15 108 -38 174t-158 66q-106 0 -180 -66.5t-89 -173.5l-16 -117h465z" />
    <glyph glyph-name="Ebreve" unicode="&#x114;" horiz-adv-x="888" 
d="M610 1802q-90 0 -143.5 59.5t-38.5 151.5l2 15h88l-2 -15q-7 -58 22.5 -92.5t82.5 -34.5t93.5 35t47.5 92l2 15h88l-2 -15q-13 -93 -81 -152t-159 -59zM942 1536l-18 -117h-498l-84 -606h442l-14 -117h-444l-80 -579h497l-16 -117h-614l215 1536h614z" />
    <glyph glyph-name="ebreve" unicode="&#x115;" horiz-adv-x="931" 
d="M588 1372q-90 0 -143.5 59.5t-38.5 151.5l2 14h88l-2 -14q-7 -58 22 -92.5t82 -34.5t93.5 35t47.5 92l2 14h88l-2 -14q-13 -93 -80.5 -152t-158.5 -59zM553 1130q152 0 236 -98.5t61 -255.5l-33 -233h-584l-28 -211q-15 -107 40 -173.5t161 -66.5t180 66.5t84 173.5l2 20
h116l-2 -20q-15 -156 -126 -256.5t-269 -100.5q-154 0 -238.5 99t-62.5 258l62 444q22 157 134 255.5t267 98.5zM731 776q15 108 -38 174t-158 66q-106 0 -180 -66.5t-89 -173.5l-16 -117h465z" />
    <glyph glyph-name="Edotaccent" unicode="&#x116;" horiz-adv-x="888" 
d="M549 1743l31 223h104l-31 -223h-104zM942 1536l-18 -117h-498l-84 -606h442l-14 -117h-444l-80 -579h497l-16 -117h-614l215 1536h614z" />
    <glyph glyph-name="edotaccent" unicode="&#x117;" horiz-adv-x="931" 
d="M662 1536l-31 -223h-105l31 223h105zM553 1130q152 0 236 -98.5t61 -255.5l-33 -233h-584l-28 -211q-15 -107 40 -173.5t161 -66.5t180 66.5t84 173.5l2 20h116l-2 -20q-15 -156 -126 -256.5t-269 -100.5q-154 0 -238.5 99t-62.5 258l62 444q22 157 134 255.5t267 98.5z
M731 776q15 108 -38 174t-158 66q-106 0 -180 -66.5t-89 -173.5l-16 -117h465z" />
    <glyph glyph-name="Eogonek" unicode="&#x118;" horiz-adv-x="888" 
d="M924 1419h-498l-84 -606h442l-14 -117h-444l-80 -579h497l-16 -117h-248q-149 -114 -149 -219q0 -38 29.5 -59t82.5 -21h25l-14 -98h-29q-93 0 -146 40.5t-53 108.5q0 139 162 248h-274l215 1536h614z" />
    <glyph glyph-name="eogonek" unicode="&#x119;" horiz-adv-x="931" 
d="M553 1130q152 0 236 -98.5t61 -255.5l-33 -233h-584l-28 -211q-15 -107 40 -173.5t161 -66.5t180 66.5t84 173.5l2 20h116l-2 -20q-12 -129 -93 -222.5t-204 -123.5q-133 -104 -133 -205q0 -38 30 -59t83 -21h25l-15 -98h-28q-93 0 -146 40.5t-53 108.5q0 123 129 223
q-150 5 -231.5 103t-59.5 254l62 444q22 157 134 255.5t267 98.5zM731 776q15 108 -38 174t-158 66q-106 0 -180 -66.5t-89 -173.5l-16 -117h465z" />
    <glyph glyph-name="Ecaron" unicode="&#x11a;" horiz-adv-x="888" 
d="M551 1735l-182 293h123l120 -203l174 203h123l-264 -293h-94zM942 1536l-18 -117h-498l-84 -606h442l-14 -117h-444l-80 -579h497l-16 -117h-614l215 1536h614z" />
    <glyph glyph-name="ecaron" unicode="&#x11b;" horiz-adv-x="931" 
d="M623 1305h-95l-182 292h123l121 -202l174 202h123zM553 1130q152 0 236 -98.5t61 -255.5l-33 -233h-584l-28 -211q-15 -107 40 -173.5t161 -66.5t180 66.5t84 173.5l2 20h116l-2 -20q-15 -156 -126 -256.5t-269 -100.5q-154 0 -238.5 99t-62.5 258l62 444
q22 157 134 255.5t267 98.5zM731 776q15 108 -38 174t-158 66q-106 0 -180 -66.5t-89 -173.5l-16 -117h465z" />
    <glyph glyph-name="Gcircumflex" unicode="&#x11c;" horiz-adv-x="1024" 
d="M418 1735l266 293h94l183 -293h-123l-119 202l-176 -202h-125zM444 -33q-160 0 -246 104.5t-61 274.5l119 844q25 170 138.5 274.5t273.5 104.5q161 0 247 -105t60 -274l-6 -41h-117l6 41q19 117 -40 189.5t-167 72.5q-109 0 -185 -71.5t-93 -190.5l-119 -844
q-15 -119 41.5 -190.5t165.5 -71.5t185 71.5t93 190.5l37 266h-229l16 117h346l-53 -383q-24 -173 -138.5 -276t-273.5 -103z" />
    <glyph glyph-name="gcircumflex" unicode="&#x11d;" horiz-adv-x="946" 
d="M580 1507l-177 -202h-124l266 292h94l182 -292h-123zM754 1106h116l-157 -1124q-23 -159 -134.5 -258t-265.5 -99t-233 98t-64 259l2 22h117l-2 -22q-11 -109 40 -174.5t155 -65.5q106 0 180.5 66.5t87.5 173.5l33 241q-96 -104 -246 -104q-152 0 -233.5 98t-59.5 258
l41 301q22 159 131.5 256.5t261.5 97.5q147 0 219 -106zM707 776q15 109 -36.5 174.5t-158.5 65.5q-105 0 -177.5 -66t-86.5 -174l-41 -301q-15 -108 37.5 -173.5t156.5 -65.5q109 0 180 64.5t85 172.5z" />
    <glyph glyph-name="Gbreve" unicode="&#x11e;" horiz-adv-x="1024" 
d="M702 1802q-90 0 -143.5 59.5t-38.5 151.5l2 15h88l-2 -15q-7 -58 22.5 -92.5t82.5 -34.5t93.5 35t47.5 92l2 15h88l-2 -15q-13 -93 -81 -152t-159 -59zM444 -33q-160 0 -246 104.5t-61 274.5l119 844q25 170 138.5 274.5t273.5 104.5q161 0 247 -105t60 -274l-6 -41h-117
l6 41q19 117 -40 189.5t-167 72.5q-109 0 -185 -71.5t-93 -190.5l-119 -844q-15 -119 41.5 -190.5t165.5 -71.5t185 71.5t93 190.5l37 266h-229l16 117h346l-53 -383q-24 -173 -138.5 -276t-273.5 -103z" />
    <glyph glyph-name="gbreve" unicode="&#x11f;" horiz-adv-x="946" 
d="M563 1372q-90 0 -143.5 59.5t-38.5 151.5l2 14h88l-2 -14q-7 -58 22 -92.5t82 -34.5t94 35t48 92l2 14h88l-2 -14q-13 -93 -81 -152t-159 -59zM754 1106h116l-157 -1124q-23 -159 -134.5 -258t-265.5 -99t-233 98t-64 259l2 22h117l-2 -22q-11 -109 40 -174.5t155 -65.5
q106 0 180.5 66.5t87.5 173.5l33 241q-96 -104 -246 -104q-152 0 -233.5 98t-59.5 258l41 301q22 159 131.5 256.5t261.5 97.5q147 0 219 -106zM707 776q15 109 -36.5 174.5t-158.5 65.5q-105 0 -177.5 -66t-86.5 -174l-41 -301q-15 -108 37.5 -173.5t156.5 -65.5
q109 0 180 64.5t85 172.5z" />
    <glyph glyph-name="Gdotaccent" unicode="&#x120;" horiz-adv-x="1024" 
d="M641 1743l31 223h104l-31 -223h-104zM444 -33q-160 0 -246 104.5t-61 274.5l119 844q25 170 138.5 274.5t273.5 104.5q161 0 247 -105t60 -274l-6 -41h-117l6 41q19 117 -40 189.5t-167 72.5q-109 0 -185 -71.5t-93 -190.5l-119 -844q-15 -119 41.5 -190.5t165.5 -71.5
t185 71.5t93 190.5l37 266h-229l16 117h346l-53 -383q-24 -173 -138.5 -276t-273.5 -103z" />
    <glyph glyph-name="gdotaccent" unicode="&#x121;" horiz-adv-x="946" 
d="M637 1536l-31 -223h-104l30 223h105zM754 1106h116l-157 -1124q-23 -159 -134.5 -258t-265.5 -99t-233 98t-64 259l2 22h117l-2 -22q-11 -109 40 -174.5t155 -65.5q106 0 180.5 66.5t87.5 173.5l33 241q-96 -104 -246 -104q-152 0 -233.5 98t-59.5 258l41 301
q22 159 131.5 256.5t261.5 97.5q147 0 219 -106zM707 776q15 109 -36.5 174.5t-158.5 65.5q-105 0 -177.5 -66t-86.5 -174l-41 -301q-15 -108 37.5 -173.5t156.5 -65.5q109 0 180 64.5t85 172.5z" />
    <glyph glyph-name="Gcommaaccent" unicode="&#x122;" horiz-adv-x="1024" 
d="M444 -33q-160 0 -246 104.5t-61 274.5l119 844q25 170 138.5 274.5t273.5 104.5q161 0 247 -105t60 -274l-6 -41h-117l6 41q19 117 -40 189.5t-167 72.5q-109 0 -185 -71.5t-93 -190.5l-119 -844q-15 -119 41.5 -190.5t165.5 -71.5t185 71.5t93 190.5l37 266h-229l16 117
h346l-53 -383q-24 -173 -138.5 -276t-273.5 -103zM285 -451l88 314h145l-147 -314h-86z" />
    <glyph glyph-name="gcommaaccent" unicode="&#x123;" horiz-adv-x="946" 
d="M754 1106h116l-157 -1124q-23 -159 -134.5 -258t-265.5 -99t-233 98t-64 259l2 22h117l-2 -22q-11 -109 40 -174.5t155 -65.5q106 0 180.5 66.5t87.5 173.5l33 241q-96 -104 -246 -104q-152 0 -233.5 98t-59.5 258l41 301q22 159 131.5 256.5t261.5 97.5q147 0 219 -106z
M707 776q15 109 -36.5 174.5t-158.5 65.5q-105 0 -177.5 -66t-86.5 -174l-41 -301q-15 -108 37.5 -173.5t156.5 -65.5q109 0 180 64.5t85 172.5zM150 -825l88 313h145l-147 -313h-86z" />
    <glyph glyph-name="Hcircumflex" unicode="&#x124;" horiz-adv-x="1075" 
d="M430 1735l266 293h95l182 -293h-123l-119 202l-176 -202h-125zM113 0l215 1536h116l-110 -788h463l110 788h117l-215 -1536h-117l88 631h-465l-86 -631h-116z" />
    <glyph glyph-name="hcircumflex" unicode="&#x125;" 
d="M401 1937l-176 -202h-125l267 293h94l182 -293h-123zM588 1133q147 0 220.5 -98t51.5 -255l-108 -780h-117l108 778q15 107 -36 173.5t-148 66.5q-101 0 -173 -66.5t-87 -173.5l-109 -778h-114l215 1536h115l-74 -518q103 115 256 115z" />
    <glyph glyph-name="Hbar" unicode="&#x126;" horiz-adv-x="1075" 
d="M1083 1155l-14 -96h-113l-147 -1059h-117l88 631h-465l-86 -631h-116l147 1059h-113l15 96h112l54 381h116l-53 -381h463l53 381h117l-53 -381h112zM797 748l43 311h-463l-43 -311h463z" />
    <glyph glyph-name="hbar" unicode="&#x127;" 
d="M588 1133q147 0 220.5 -98t51.5 -255l-108 -780h-117l108 778q15 107 -36 173.5t-148 66.5q-101 0 -173 -66.5t-87 -173.5l-109 -778h-114l180 1288h-182l14 96h182l21 152h115l-21 -152h174l-12 -96h-176l-39 -270q103 115 256 115z" />
    <glyph glyph-name="Itilde" unicode="&#x128;" horiz-adv-x="495" 
d="M522 1722q-54 0 -108 43q-9 8 -25 22l-24 21t-19.5 13t-21.5 6q-24 0 -39.5 -20.5t-18.5 -47.5l-4 -26h-94l6 30q10 74 51 111t97 37q59 0 114 -51q4 -4 21 -19t23 -20t18.5 -11t23.5 -6q23 0 39 22t19 50l4 35h92l-6 -43q-11 -74 -51.5 -110t-96.5 -36zM229 0h-116
l215 1536h116z" />
    <glyph glyph-name="itilde" unicode="&#x129;" horiz-adv-x="421" 
d="M428 1292q-55 0 -109 43q-9 8 -25 22l-24 21t-19.5 13t-21.5 6q-24 0 -39 -20.5t-18 -47.5l-4 -26h-94l6 30q10 74 50.5 111t96.5 37q60 0 115 -51q4 -4 21 -19t23 -20t18.5 -11t23.5 -6q23 0 38.5 22t18.5 50l4 35h93l-7 -43q-11 -74 -51 -110t-96 -36zM76 0l155 1106
h115l-156 -1106h-114z" />
    <glyph glyph-name="Imacron" unicode="&#x12a;" horiz-adv-x="495" 
d="M209 1823h430l-14 -99h-432zM229 0h-116l215 1536h116z" />
    <glyph glyph-name="imacron" unicode="&#x12b;" horiz-adv-x="421" 
d="M115 1393h430l-15 -99h-432zM76 0l155 1106h115l-156 -1106h-114z" />
    <glyph glyph-name="Iogonek" unicode="&#x12e;" horiz-adv-x="495" 
d="M328 1536h116l-215 -1536h-30q-150 -115 -150 -219q0 -38 30 -59t83 -21h24l-14 -98h-29q-93 0 -145.5 40.5t-52.5 108.5q0 142 168 252z" />
    <glyph glyph-name="iogonek" unicode="&#x12f;" horiz-adv-x="421" 
d="M299 1536h104l-30 -223h-105zM78 10l153 1096h115l-156 -1106h-34q-150 -115 -150 -219q0 -38 30 -59t83 -21h24l-14 -98h-29q-93 0 -145.5 40.5t-52.5 108.5q0 138 176 258z" />
    <glyph glyph-name="Idotaccent" unicode="&#x130;" horiz-adv-x="495" 
d="M362 1743l31 223h105l-31 -223h-105zM229 0h-116l215 1536h116z" />
    <glyph glyph-name="dotlessi" unicode="&#x131;" horiz-adv-x="421" 
d="M76 0l155 1106h115l-156 -1106h-114z" />
    <glyph glyph-name="IJ" unicode="&#x132;" horiz-adv-x="1167" 
d="M229 0h-116l215 1536h116zM461 -12l16 116h92q108 0 185 72.5t92 190.5l164 1169h118l-165 -1169q-23 -170 -137 -274.5t-275 -104.5h-90z" />
    <glyph glyph-name="ij" unicode="&#x133;" horiz-adv-x="843" 
d="M250 1243l33 232h114l-32 -232h-115zM670 1243l32 232h115l-33 -232h-114zM76 0l155 1106h115l-156 -1106h-114zM150 -375l16 117h61q105 0 179.5 71.5t91.5 188.5l153 1104h115l-154 -1102q-24 -173 -135.5 -276t-265.5 -103h-61z" />
    <glyph glyph-name="Jcircumflex" unicode="&#x134;" horiz-adv-x="671" 
d="M324 1735l266 293h94l182 -293h-123l-118 202l-176 -202h-125zM-35 -12l17 116h92q108 0 184.5 72.5t91.5 190.5l164 1169h119l-166 -1169q-23 -170 -137 -274.5t-275 -104.5h-90z" />
    <glyph glyph-name="jcircumflex" unicode="&#x135;" horiz-adv-x="421" 
d="M43 1305l266 292h94l183 -292h-123l-119 202l-176 -202h-125zM-272 -375l16 117h61q105 0 179.5 71.5t91.5 188.5l153 1104h115l-154 -1102q-24 -173 -135.5 -276t-265.5 -103h-61z" />
    <glyph glyph-name="Kcommaaccent" unicode="&#x136;" horiz-adv-x="997" 
d="M1028 1536l-491 -590l335 -946h-129l-299 836l-118 -142l-97 -694h-116l215 1536h116l-90 -649l547 649h127zM240 -451l88 314h145l-147 -314h-86z" />
    <glyph glyph-name="kcommaaccent" unicode="&#x137;" horiz-adv-x="862" 
d="M860 1108l-379 -403l289 -705h-127l-250 608l-137 -147l-66 -461h-114l215 1536h115l-125 -895l452 467h127zM174 -451l88 314h146l-148 -314h-86z" />
    <glyph glyph-name="kgreenlandic" unicode="&#x138;" horiz-adv-x="858" 
d="M860 1108l-457 -463l367 -645h-127l-360 647l-93 -647h-114l155 1106h115l-63 -449l450 451h127z" />
    <glyph glyph-name="Lacute" unicode="&#x139;" horiz-adv-x="808" 
d="M494 1675l192 353h121l-223 -353h-90zM444 1536l-198 -1419h456l-16 -117h-573l215 1536h116z" />
    <glyph glyph-name="lacute" unicode="&#x13a;" horiz-adv-x="421" 
d="M322 1675l192 353h121l-223 -353h-90zM76 0l215 1536h115l-216 -1536h-114z" />
    <glyph glyph-name="Lcommaaccent" unicode="&#x13b;" horiz-adv-x="808" 
d="M444 1536l-198 -1419h456l-16 -117h-573l215 1536h116zM141 -451l88 314h146l-148 -314h-86z" />
    <glyph glyph-name="lcommaaccent" unicode="&#x13c;" horiz-adv-x="421" 
d="M76 0l215 1536h115l-216 -1536h-114zM-31 -451l88 314h146l-148 -314h-86z" />
    <glyph glyph-name="Lcaron" unicode="&#x13d;" horiz-adv-x="808" 
d="M500 1735l-183 293h123l121 -203l174 203h123l-264 -293h-94zM444 1536l-198 -1419h456l-16 -117h-573l215 1536h116z" />
    <glyph glyph-name="lcaron" unicode="&#x13e;" horiz-adv-x="843" 
d="M76 0l215 1536h115l-216 -1536h-114zM551 1104l141 432h117l-141 -432h-117z" />
    <glyph glyph-name="Ldot" unicode="&#x13f;" horiz-adv-x="808" 
d="M444 1536l-198 -1419h456l-16 -117h-573l215 1536h116zM463 647l35 246h116l-34 -246h-117z" />
    <glyph glyph-name="ldot" unicode="&#x140;" horiz-adv-x="669" 
d="M76 0l215 1536h115l-216 -1536h-114zM412 645l34 246h117l-35 -246h-116z" />
    <glyph glyph-name="Lslash" unicode="&#x141;" horiz-adv-x="808" 
d="M246 117h456l-16 -117h-573l96 690l-232 -82l17 115l231 82l103 731h116l-96 -688l230 80l-19 -115l-227 -80z" />
    <glyph glyph-name="lslash" unicode="&#x142;" horiz-adv-x="421" 
d="M492 887l-15 -111l-184 -49l-103 -727h-114l98 696l-182 -47l16 111l180 47l103 729h115l-99 -698z" />
    <glyph glyph-name="Nacute" unicode="&#x143;" horiz-adv-x="1095" 
d="M973 2028l-223 -353h-91l193 353h121zM928 1536h116l-215 -1536h-114l-314 1237l-174 -1237h-114l215 1536h114l312 -1243z" />
    <glyph glyph-name="nacute" unicode="&#x144;" 
d="M856 1597l-223 -352h-90l192 352h121zM588 1130q144 0 219.5 -96.5t52.5 -257.5l-108 -776h-117l108 776q15 107 -36 173.5t-148 66.5q-101 0 -173 -66.5t-87 -173.5l-109 -776h-114l155 1106h115l-12 -90q97 114 254 114z" />
    <glyph glyph-name="Ncommaaccent" unicode="&#x145;" horiz-adv-x="1095" 
d="M928 1536h116l-215 -1536h-114l-314 1237l-174 -1237h-114l215 1536h114l312 -1243zM307 -451l88 314h146l-148 -314h-86z" />
    <glyph glyph-name="ncommaaccent" unicode="&#x146;" 
d="M588 1130q144 0 219.5 -96.5t52.5 -257.5l-108 -776h-117l108 776q15 107 -36 173.5t-148 66.5q-101 0 -173 -66.5t-87 -173.5l-109 -776h-114l155 1106h115l-12 -90q97 114 254 114zM250 -451l88 314h145l-147 -314h-86z" />
    <glyph glyph-name="Ncaron" unicode="&#x147;" horiz-adv-x="1095" 
d="M760 1735h-94l-183 293h123l121 -203l174 203h123zM928 1536h116l-215 -1536h-114l-314 1237l-174 -1237h-114l215 1536h114l312 -1243z" />
    <glyph glyph-name="ncaron" unicode="&#x148;" 
d="M643 1305h-94l-182 292h122l121 -202l174 202h123zM588 1130q144 0 219.5 -96.5t52.5 -257.5l-108 -776h-117l108 776q15 107 -36 173.5t-148 66.5q-101 0 -173 -66.5t-87 -173.5l-109 -776h-114l155 1106h115l-12 -90q97 114 254 114z" />
    <glyph glyph-name="napostrophe" unicode="&#x149;" horiz-adv-x="1327" 
d="M272 1262l37 274h117l-37 -274l-67 -158h-64l68 158h-54zM948 1130q144 0 220 -96.5t53 -257.5l-109 -776h-117l109 776q15 107 -36 173.5t-148 66.5q-101 0 -173.5 -66.5t-87.5 -173.5l-108 -776h-115l156 1106h115l-13 -90q97 114 254 114z" />
    <glyph glyph-name="Omacron" unicode="&#x14c;" horiz-adv-x="1052" 
d="M487 1823h431l-15 -99h-432zM444 -33q-160 0 -246 104.5t-61 274.5l119 844q25 170 138.5 274.5t273.5 104.5t246 -104.5t61 -274.5l-119 -844q-25 -170 -138 -274.5t-274 -104.5zM461 84q108 0 184.5 72t93.5 190l119 844q17 118 -40.5 190t-166.5 72t-185 -71.5
t-93 -190.5l-119 -844q-15 -119 41.5 -190.5t165.5 -71.5z" />
    <glyph glyph-name="omacron" unicode="&#x14d;" horiz-adv-x="937" 
d="M373 1393h430l-15 -99h-432zM391 -25q-154 0 -238.5 99t-62.5 258l62 444q22 157 134 255.5t267 98.5q153 0 235 -98t60 -256l-62 -444q-22 -159 -132 -258t-263 -99zM406 92q105 0 177 66t87 174l61 444q15 108 -38 174t-158 66q-106 0 -180 -66.5t-89 -173.5l-61 -444
q-15 -107 40 -173.5t161 -66.5z" />
    <glyph glyph-name="Obreve" unicode="&#x14e;" horiz-adv-x="1052" 
d="M702 1802q-90 0 -143.5 59.5t-38.5 151.5l2 15h88l-2 -15q-7 -58 22.5 -92.5t82.5 -34.5t93.5 35t47.5 92l2 15h88l-2 -15q-13 -93 -81 -152t-159 -59zM444 -33q-160 0 -246 104.5t-61 274.5l119 844q25 170 138.5 274.5t273.5 104.5t246 -104.5t61 -274.5l-119 -844
q-25 -170 -138 -274.5t-274 -104.5zM461 84q108 0 184.5 72t93.5 190l119 844q17 118 -40.5 190t-166.5 72t-185 -71.5t-93 -190.5l-119 -844q-15 -119 41.5 -190.5t165.5 -71.5z" />
    <glyph glyph-name="obreve" unicode="&#x14f;" horiz-adv-x="937" 
d="M588 1372q-90 0 -143.5 59.5t-38.5 151.5l2 14h88l-2 -14q-7 -58 22 -92.5t82 -34.5t93.5 35t47.5 92l2 14h88l-2 -14q-13 -93 -80.5 -152t-158.5 -59zM391 -25q-154 0 -238.5 99t-62.5 258l62 444q22 157 134 255.5t267 98.5q153 0 235 -98t60 -256l-62 -444
q-22 -159 -132 -258t-263 -99zM406 92q105 0 177 66t87 174l61 444q15 108 -38 174t-158 66q-106 0 -180 -66.5t-89 -173.5l-61 -444q-15 -107 40 -173.5t161 -66.5z" />
    <glyph glyph-name="Ohungarumlaut" unicode="&#x150;" horiz-adv-x="1052" 
d="M496 1675l192 353h121l-223 -353h-90zM764 1675l194 353h121l-225 -353h-90zM444 -33q-160 0 -246 104.5t-61 274.5l119 844q25 170 138.5 274.5t273.5 104.5t246 -104.5t61 -274.5l-119 -844q-25 -170 -138 -274.5t-274 -104.5zM461 84q108 0 184.5 72t93.5 190l119 844
q17 118 -40.5 190t-166.5 72t-185 -71.5t-93 -190.5l-119 -844q-15 -119 41.5 -190.5t165.5 -71.5z" />
    <glyph glyph-name="ohungarumlaut" unicode="&#x151;" horiz-adv-x="937" 
d="M381 1245l192 352h121l-223 -352h-90zM649 1245l195 352h121l-226 -352h-90zM391 -25q-154 0 -238.5 99t-62.5 258l62 444q22 157 134 255.5t267 98.5q153 0 235 -98t60 -256l-62 -444q-22 -159 -132 -258t-263 -99zM406 92q105 0 177 66t87 174l61 444q15 108 -38 174
t-158 66q-106 0 -180 -66.5t-89 -173.5l-61 -444q-15 -107 40 -173.5t161 -66.5z" />
    <glyph glyph-name="OE" unicode="&#x152;" horiz-adv-x="1472" 
d="M444 -33q-160 0 -246 104.5t-61 274.5l119 844q25 170 138.5 274.5t273.5 104.5q149 0 233 -90l8 57h617l-17 -117h-497l-86 -606h444l-18 -117h-443l-80 -579h498l-16 -117h-617l8 57q-111 -90 -258 -90zM461 84q108 0 184.5 72t93.5 190l119 844q17 118 -40.5 190
t-166.5 72t-185 -71.5t-93 -190.5l-119 -844q-15 -119 41.5 -190.5t165.5 -71.5z" />
    <glyph glyph-name="oe" unicode="&#x153;" horiz-adv-x="1511" 
d="M1133 1130q152 0 236 -98.5t61 -255.5l-33 -233h-580l-31 -211q-15 -107 40 -173.5t159 -66.5q108 0 182 66.5t84 173.5l2 20h115l-2 -20q-15 -156 -126 -256.5t-269 -100.5q-93 0 -164.5 39t-108.5 109q-55 -70 -134.5 -109t-172.5 -39q-154 0 -238.5 99t-62.5 258
l62 444q22 157 134 255.5t267 98.5q93 0 161.5 -38.5t104.5 -106.5q55 69 137.5 107t176.5 38zM731 776q15 108 -38 174t-158 66q-106 0 -180 -66.5t-89 -173.5l-61 -444q-15 -107 40 -173.5t161 -66.5q105 0 177 66t87 174zM1313 776q14 108 -39.5 174t-157.5 66
q-106 0 -179.5 -66.5t-88.5 -173.5l-17 -117h465z" />
    <glyph glyph-name="Racute" unicode="&#x154;" horiz-adv-x="1052" 
d="M950 2028l-223 -353h-90l192 353h121zM707 1536q139 0 215 -91.5t55 -246.5l-27 -197q-28 -197 -180 -288q59 -36 86.5 -101t15.5 -151l-63 -461h-117l64 461q12 91 -35 146t-139 55h-263l-90 -662h-116l215 1536h379zM860 1198q14 100 -33 160.5t-139 60.5h-262
l-88 -641h262q91 0 156 61.5t78 161.5z" />
    <glyph glyph-name="racute" unicode="&#x155;" horiz-adv-x="567" 
d="M719 1597l-223 -352h-90l192 352h121zM332 1004q97 114 254 114h47l-15 -114h-61q-101 0 -173 -66.5t-87 -173.5l-107 -764h-114l155 1106h115z" />
    <glyph glyph-name="Rcommaaccent" unicode="&#x156;" horiz-adv-x="1052" 
d="M707 1536q139 0 215 -91.5t55 -246.5l-27 -197q-28 -197 -180 -288q59 -36 86.5 -101t15.5 -151l-63 -461h-117l64 461q12 91 -35 146t-139 55h-263l-90 -662h-116l215 1536h379zM860 1198q14 100 -33 160.5t-139 60.5h-262l-88 -641h262q91 0 156 61.5t78 161.5z
M285 -451l88 314h145l-147 -314h-86z" />
    <glyph glyph-name="rcommaaccent" unicode="&#x157;" horiz-adv-x="567" 
d="M586 1118h47l-15 -114h-61q-101 0 -173 -66.5t-87 -173.5l-107 -764h-114l155 1106h115l-14 -102q97 114 254 114zM-33 -451l88 314h146l-148 -314h-86z" />
    <glyph glyph-name="Rcaron" unicode="&#x158;" horiz-adv-x="1052" 
d="M737 1735h-94l-182 293h123l121 -203l174 203h122zM707 1536q139 0 215 -91.5t55 -246.5l-27 -197q-28 -197 -180 -288q59 -36 86.5 -101t15.5 -151l-63 -461h-117l64 461q12 91 -35 146t-139 55h-263l-90 -662h-116l215 1536h379zM860 1198q14 100 -33 160.5t-139 60.5
h-262l-88 -641h262q91 0 156 61.5t78 161.5z" />
    <glyph glyph-name="rcaron" unicode="&#x159;" horiz-adv-x="567" 
d="M506 1305h-94l-183 292h123l121 -202l174 202h123zM332 1004q97 114 254 114h47l-15 -114h-61q-101 0 -173 -66.5t-87 -173.5l-107 -764h-114l155 1106h115z" />
    <glyph glyph-name="Sacute" unicode="&#x15a;" horiz-adv-x="970" 
d="M596 1675l192 353h121l-223 -353h-90zM403 -33q-161 0 -246 105t-59 274l6 43h117l-6 -43q-19 -117 39 -189.5t166 -72.5t184.5 72t93.5 190l15 103q17 117 -39.5 189.5t-165.5 72.5q-162 0 -247 104.5t-60 274.5l16 100q25 170 137.5 274.5t272.5 104.5q161 0 247 -105
t60 -274l-6 -41h-117l6 41q19 117 -39 189.5t-166 72.5t-185.5 -72t-92.5 -190l-17 -100q-15 -119 41.5 -191t165.5 -72q160 0 245 -104t60 -274l-14 -103q-25 -170 -138 -274.5t-274 -104.5z" />
    <glyph glyph-name="sacute" unicode="&#x15b;" horiz-adv-x="872" 
d="M485 1245l193 352h121l-224 -352h-90zM362 -25q-155 0 -239 88.5t-62 233.5l7 39h114l-6 -43q-12 -90 44.5 -145.5t158.5 -55.5q105 0 174.5 66.5t69.5 167.5q0 78 -52.5 124t-140.5 46q-138 0 -218.5 72t-80.5 194q0 159 110.5 263.5t276.5 104.5q151 0 233.5 -88.5
t59.5 -228.5l-6 -39h-117l6 39q15 90 -39 146.5t-153 56.5q-109 0 -182.5 -67.5t-73.5 -168.5q0 -78 53.5 -124t144.5 -46q136 0 216.5 -72t80.5 -192q0 -160 -108 -265.5t-271 -105.5z" />
    <glyph glyph-name="Scircumflex" unicode="&#x15c;" horiz-adv-x="970" 
d="M377 1735l266 293h94l183 -293h-123l-119 202l-176 -202h-125zM403 -33q-161 0 -246 105t-59 274l6 43h117l-6 -43q-19 -117 39 -189.5t166 -72.5t184.5 72t93.5 190l15 103q17 117 -39.5 189.5t-165.5 72.5q-162 0 -247 104.5t-60 274.5l16 100q25 170 137.5 274.5
t272.5 104.5q161 0 247 -105t60 -274l-6 -41h-117l6 41q19 117 -39 189.5t-166 72.5t-185.5 -72t-92.5 -190l-17 -100q-15 -119 41.5 -191t165.5 -72q160 0 245 -104t60 -274l-14 -103q-25 -170 -138 -274.5t-274 -104.5z" />
    <glyph glyph-name="scircumflex" unicode="&#x15d;" horiz-adv-x="872" 
d="M266 1305l266 292h95l182 -292h-123l-119 202l-176 -202h-125zM362 -25q-155 0 -239 88.5t-62 233.5l7 39h114l-6 -43q-12 -90 44.5 -145.5t158.5 -55.5q105 0 174.5 66.5t69.5 167.5q0 78 -52.5 124t-140.5 46q-138 0 -218.5 72t-80.5 194q0 159 110.5 263.5
t276.5 104.5q151 0 233.5 -88.5t59.5 -228.5l-6 -39h-117l6 39q15 90 -39 146.5t-153 56.5q-109 0 -182.5 -67.5t-73.5 -168.5q0 -78 53.5 -124t144.5 -46q136 0 216.5 -72t80.5 -192q0 -160 -108 -265.5t-271 -105.5z" />
    <glyph glyph-name="Scedilla" unicode="&#x15e;" horiz-adv-x="970" 
d="M627 1569q161 0 247 -105t60 -274l-6 -41h-117l6 41q19 117 -39 189.5t-166 72.5t-185.5 -72t-92.5 -190l-17 -100q-15 -119 41.5 -191t165.5 -72q160 0 245 -104t60 -274l-14 -103q-23 -156 -119.5 -257t-238.5 -118l-8 -61q76 7 121.5 -32t45.5 -101q0 -79 -57.5 -134
t-144.5 -55h-115l14 97h115q38 0 64 24t26 58q0 28 -20 45.5t-52 17.5h-63l-39 35l14 104q-141 15 -213 117.5t-47 259.5l6 43h117l-6 -43q-19 -117 39 -189.5t166 -72.5t184.5 72t93.5 190l15 103q17 117 -39.5 189.5t-165.5 72.5q-162 0 -247 104.5t-60 274.5l16 100
q25 170 137.5 274.5t272.5 104.5z" />
    <glyph glyph-name="scedilla" unicode="&#x15f;" horiz-adv-x="872" 
d="M518 1130q151 0 233.5 -88.5t59.5 -228.5l-6 -39h-117l6 39q15 90 -39 146.5t-153 56.5q-109 0 -182.5 -67.5t-73.5 -168.5q0 -78 53.5 -124t144.5 -46q136 0 216.5 -72t80.5 -192q0 -149 -93 -251.5t-240 -117.5l-9 -67q76 7 122 -32.5t46 -100.5q0 -79 -57.5 -134
t-144.5 -55h-115l14 97h115q38 0 64 24t26 58q0 28 -20 45.5t-52 17.5h-63l-39 35l14 112q-131 15 -199.5 101.5t-48.5 218.5l7 39h114l-6 -43q-12 -90 44.5 -145.5t158.5 -55.5q105 0 174.5 66.5t69.5 167.5q0 78 -52.5 124t-140.5 46q-138 0 -218.5 72t-80.5 194
q0 159 110.5 263.5t276.5 104.5z" />
    <glyph glyph-name="Scaron" unicode="&#x160;" horiz-adv-x="970" 
d="M602 1735l-182 293h123l121 -203l174 203h123l-265 -293h-94zM403 -33q-161 0 -246 105t-59 274l6 43h117l-6 -43q-19 -117 39 -189.5t166 -72.5t184.5 72t93.5 190l15 103q17 117 -39.5 189.5t-165.5 72.5q-162 0 -247 104.5t-60 274.5l16 100q25 170 137.5 274.5
t272.5 104.5q161 0 247 -105t60 -274l-6 -41h-117l6 41q19 117 -39 189.5t-166 72.5t-185.5 -72t-92.5 -190l-17 -100q-15 -119 41.5 -191t165.5 -72q160 0 245 -104t60 -274l-14 -103q-25 -170 -138 -274.5t-274 -104.5z" />
    <glyph glyph-name="scaron" unicode="&#x161;" horiz-adv-x="872" 
d="M492 1305l-183 292h123l121 -202l174 202h123l-264 -292h-94zM362 -25q-155 0 -239 88.5t-62 233.5l7 39h114l-6 -43q-12 -90 44.5 -145.5t158.5 -55.5q105 0 174.5 66.5t69.5 167.5q0 78 -52.5 124t-140.5 46q-138 0 -218.5 72t-80.5 194q0 159 110.5 263.5t276.5 104.5
q151 0 233.5 -88.5t59.5 -228.5l-6 -39h-117l6 39q15 90 -39 146.5t-153 56.5q-109 0 -182.5 -67.5t-73.5 -168.5q0 -78 53.5 -124t144.5 -46q136 0 216.5 -72t80.5 -192q0 -160 -108 -265.5t-271 -105.5z" />
    <glyph glyph-name="uni0162" unicode="&#x162;" horiz-adv-x="757" 
d="M184 1536h666l-16 -117h-275l-199 -1419h-6l-12 -90q76 7 122 -32.5t46 -100.5q0 -79 -58 -134t-145 -55h-114l14 97h115q38 0 64 24t26 58q0 28 -20 45.5t-52 17.5h-64l-38 35l18 135h-12l198 1419h-276z" />
    <glyph glyph-name="uni0163" unicode="&#x163;" horiz-adv-x="675" 
d="M399 997l-88 -632q-17 -118 37.5 -189.5t159.5 -71.5h63l-18 -116h-61h-25l-10 -78q76 7 122 -32.5t46 -100.5q0 -79 -58 -134t-145 -55h-115l15 97h114q38 0 64 24t26 58q0 28 -19.5 45.5t-51.5 17.5h-64l-39 35l19 141q-100 36 -147.5 130.5t-28.5 228.5l88 632h-203
l14 111h205l41 285h115l-41 -285h295l-15 -111h-295z" />
    <glyph glyph-name="Tcaron" unicode="&#x164;" horiz-adv-x="757" 
d="M498 1735l-183 293h123l121 -203l174 203h123l-264 -293h-94zM244 0l198 1419h-276l18 117h666l-16 -117h-275l-199 -1419h-116z" />
    <glyph glyph-name="tcaron" unicode="&#x165;" horiz-adv-x="1114" 
d="M821 1104l142 432h116l-141 -432h-117zM492 -12q-158 0 -239 103.5t-58 273.5l88 632h-203l14 111h205l41 285h115l-41 -285h295l-15 -111h-295l-88 -632q-17 -118 37.5 -189.5t159.5 -71.5h63l-18 -116h-61z" />
    <glyph glyph-name="Tbar" unicode="&#x166;" horiz-adv-x="757" 
d="M834 1419h-275l-84 -602h176l-12 -96h-178l-101 -721h-116l100 721h-178l14 96h178l84 602h-276l18 117h666z" />
    <glyph glyph-name="tbar" unicode="&#x167;" horiz-adv-x="675" 
d="M694 997h-295l-53 -387h309l-16 -112h-309l-19 -133q-17 -118 37.5 -189.5t159.5 -71.5h63l-18 -116h-61q-158 0 -239 103.5t-58 273.5l18 133h-188l16 112h188l54 387h-203l14 111h205l41 285h115l-41 -285h295z" />
    <glyph glyph-name="Utilde" unicode="&#x168;" horiz-adv-x="1077" 
d="M815 1722q-54 0 -108 43q-9 7 -25 22t-24 21.5t-20 12.5t-22 6q-24 0 -39 -20.5t-18 -47.5l-4 -26h-94l6 30q10 74 50.5 111t96.5 37q60 0 115 -51q4 -4 21 -19t23 -20t18.5 -11t23.5 -6q23 0 38.5 22t18.5 50l5 35h92l-6 -43q-11 -74 -51.5 -110t-96.5 -36zM1034 1536
l-166 -1190q-24 -173 -138 -276t-273 -103q-158 0 -244 102.5t-63 276.5l167 1190h117l-166 -1190q-17 -118 39.5 -190t165.5 -72t185.5 72t93.5 190l166 1190h116z" />
    <glyph glyph-name="utilde" unicode="&#x169;" 
d="M432 1329l-4 -26h-94l6 30q10 74 50.5 111t96.5 37q60 0 115 -51q4 -4 21 -19t23 -20t18.5 -11t23.5 -6q23 0 38.5 22t18.5 50l5 35h92l-6 -43q-11 -74 -51.5 -110t-96.5 -36q-54 0 -108 43q-9 7 -25 22t-24 21.5t-20 12.5t-22 6q-24 0 -39 -20.5t-18 -47.5zM776 1106
h117l-156 -1106h-116l12 86q-100 -111 -252 -111q-143 0 -219 96.5t-53 258.5l108 776h115l-109 -776q-13 -107 38.5 -172.5t148.5 -65.5q102 0 173.5 65.5t84.5 172.5z" />
    <glyph glyph-name="Umacron" unicode="&#x16a;" horiz-adv-x="1077" 
d="M502 1823h430l-14 -99h-433zM1034 1536l-166 -1190q-24 -173 -138 -276t-273 -103q-158 0 -244 102.5t-63 276.5l167 1190h117l-166 -1190q-17 -118 39.5 -190t165.5 -72t185.5 72t93.5 190l166 1190h116z" />
    <glyph glyph-name="umacron" unicode="&#x16b;" 
d="M805 1393l-14 -99h-433l17 99h430zM776 1106h117l-156 -1106h-116l12 86q-100 -111 -252 -111q-143 0 -219 96.5t-53 258.5l108 776h115l-109 -776q-13 -107 38.5 -172.5t148.5 -65.5q102 0 173.5 65.5t84.5 172.5z" />
    <glyph glyph-name="Ubreve" unicode="&#x16c;" horiz-adv-x="1077" 
d="M717 1802q-90 0 -143.5 59.5t-38.5 151.5l2 15h88l-2 -15q-7 -58 22 -92.5t82 -34.5t93.5 35t47.5 92l2 15h88l-2 -15q-13 -93 -80.5 -152t-158.5 -59zM1034 1536l-166 -1190q-24 -173 -138 -276t-273 -103q-158 0 -244 102.5t-63 276.5l167 1190h117l-166 -1190
q-17 -118 39.5 -190t165.5 -72t185.5 72t93.5 190l166 1190h116z" />
    <glyph glyph-name="ubreve" unicode="&#x16d;" 
d="M590 1372q-90 0 -143.5 59.5t-38.5 151.5l2 14h88l-2 -14q-7 -58 22 -92.5t82 -34.5t93.5 35t47.5 92l2 14h88l-2 -14q-13 -93 -80.5 -152t-158.5 -59zM776 1106h117l-156 -1106h-116l12 86q-100 -111 -252 -111q-143 0 -219 96.5t-53 258.5l108 776h115l-109 -776
q-13 -107 38.5 -172.5t148.5 -65.5q102 0 173.5 65.5t84.5 172.5z" />
    <glyph glyph-name="Uring" unicode="&#x16e;" horiz-adv-x="1077" 
d="M688 1608q-64 0 -107.5 40.5t-43.5 104.5q0 83 60 143t140 60q65 0 109.5 -41.5t44.5 -108.5q0 -81 -60.5 -139.5t-142.5 -58.5zM700 1692q38 0 71.5 29t33.5 71q0 35 -24 57.5t-56 22.5q-40 0 -72 -32.5t-32 -72.5q0 -32 24 -53.5t55 -21.5zM1034 1536l-166 -1190
q-24 -173 -138 -276t-273 -103q-158 0 -244 102.5t-63 276.5l167 1190h117l-166 -1190q-17 -118 39.5 -190t165.5 -72t185.5 72t93.5 190l166 1190h116z" />
    <glyph glyph-name="uring" unicode="&#x16f;" 
d="M561 1178q-64 0 -107.5 40.5t-43.5 104.5q0 83 60 143t140 60q65 0 109.5 -41.5t44.5 -108.5q0 -81 -60.5 -139.5t-142.5 -58.5zM598 1442q-40 0 -72 -32.5t-32 -72.5q0 -32 24 -53.5t55 -21.5q38 0 71.5 29t33.5 71q0 35 -24 57.5t-56 22.5zM776 1106h117l-156 -1106
h-116l12 86q-100 -111 -252 -111q-143 0 -219 96.5t-53 258.5l108 776h115l-109 -776q-13 -107 38.5 -172.5t148.5 -65.5q102 0 173.5 65.5t84.5 172.5z" />
    <glyph glyph-name="Uhungarumlaut" unicode="&#x170;" horiz-adv-x="1077" 
d="M510 1675l192 353h121l-223 -353h-90zM778 1675l195 353h121l-226 -353h-90zM1034 1536l-166 -1190q-24 -173 -138 -276t-273 -103q-158 0 -244 102.5t-63 276.5l167 1190h117l-166 -1190q-17 -118 39.5 -190t165.5 -72t185.5 72t93.5 190l166 1190h116z" />
    <glyph glyph-name="uhungarumlaut" unicode="&#x171;" 
d="M696 1597l-223 -352h-90l192 352h121zM741 1245h-90l195 352h121zM668 330l108 776h117l-156 -1106h-116l12 86q-100 -111 -252 -111q-143 0 -219 96.5t-53 258.5l108 776h115l-109 -776q-13 -107 38.5 -172.5t148.5 -65.5q102 0 173.5 65.5t84.5 172.5z" />
    <glyph glyph-name="Uogonek" unicode="&#x172;" horiz-adv-x="1077" 
d="M918 1536h116l-166 -1190q-23 -165 -129 -267.5t-256 -111.5q-110 -95 -110 -186q0 -38 29.5 -59t82.5 -21h25l-14 -98h-29q-93 0 -146 40.5t-53 108.5q0 119 125 219q-130 22 -196.5 121t-46.5 254l167 1190h117l-166 -1190q-17 -118 39.5 -190t165.5 -72t185.5 72
t93.5 190z" />
    <glyph glyph-name="uogonek" unicode="&#x173;" 
d="M776 1106h117l-156 -1106h-43q-149 -114 -149 -219q0 -38 29.5 -59t82.5 -21h25l-14 -98h-29q-93 0 -146 40.5t-53 108.5q0 142 183 262l10 72q-100 -111 -252 -111q-143 0 -219 96.5t-53 258.5l108 776h115l-109 -776q-13 -107 38.5 -172.5t148.5 -65.5
q102 0 173.5 65.5t84.5 172.5z" />
    <glyph glyph-name="Wcircumflex" unicode="&#x174;" horiz-adv-x="1310" 
d="M850 1937l-176 -202h-125l266 293h94l183 -293h-123zM1241 1536h121l-438 -1536h-123l-53 1204l-394 -1204h-123l-8 1536h121l-2 -1253l395 1253h111l45 -1255z" />
    <glyph glyph-name="wcircumflex" unicode="&#x175;" horiz-adv-x="1099" 
d="M684 1507l-176 -202h-125l266 292h94l183 -292h-123zM987 1106h123l-326 -1106h-141l-53 831l-291 -831h-139l-17 1106h121l-8 -936l313 936h117l49 -938z" />
    <glyph glyph-name="Ycircumflex" unicode="&#x176;" horiz-adv-x="976" 
d="M682 1937l-176 -202h-125l266 293h94l183 -293h-123zM954 1536h121l-489 -719l-115 -817h-117l115 817l-291 719h121l244 -604z" />
    <glyph glyph-name="ycircumflex" unicode="&#x177;" horiz-adv-x="849" 
d="M559 1507l-176 -202h-125l266 292h94l183 -292h-123zM772 1106h129l-643 -1475h-131l147 338l-165 1137h127l139 -924z" />
    <glyph glyph-name="Ydieresis" unicode="&#x178;" horiz-adv-x="976" 
d="M621 2028l-31 -224h-105l31 224h105zM881 2028l-31 -224h-102l30 224h103zM954 1536h121l-489 -719l-115 -817h-117l115 817l-291 719h121l244 -604z" />
    <glyph glyph-name="Zacute" unicode="&#x179;" horiz-adv-x="849" 
d="M848 2028l-223 -353h-90l192 353h121zM911 1536l-12 -94l-758 -1325h572l-17 -117h-696l10 94l756 1325h-567l16 117h696z" />
    <glyph glyph-name="zacute" unicode="&#x17a;" horiz-adv-x="759" 
d="M745 1597l-223 -352h-90l193 352h120zM791 1106l-13 -90l-639 -899h496l-17 -117h-649l13 90l643 901h-500l16 115h650z" />
    <glyph glyph-name="Zdotaccent" unicode="&#x17b;" horiz-adv-x="849" 
d="M674 1966l-31 -223h-104l30 223h105zM911 1536l-12 -94l-758 -1325h572l-17 -117h-696l10 94l756 1325h-567l16 117h696z" />
    <glyph glyph-name="zdotaccent" unicode="&#x17c;" horiz-adv-x="759" 
d="M571 1536l-30 -223h-105l31 223h104zM791 1106l-13 -90l-639 -899h496l-17 -117h-649l13 90l643 901h-500l16 115h650z" />
    <glyph glyph-name="Zcaron" unicode="&#x17d;" horiz-adv-x="849" 
d="M635 1735h-94l-183 293h123l121 -203l174 203h123zM911 1536l-12 -94l-758 -1325h572l-17 -117h-696l10 94l756 1325h-567l16 117h696z" />
    <glyph glyph-name="zcaron" unicode="&#x17e;" horiz-adv-x="759" 
d="M532 1305h-94l-182 292h123l121 -202l174 202h123zM125 991l16 115h650l-13 -90l-639 -899h496l-17 -117h-649l13 90l643 901h-500z" />
    <glyph glyph-name="longs" unicode="&#x17f;" horiz-adv-x="550" 
d="M145 0l140 995h-207l14 111h207l10 74q23 167 135 271.5t269 104.5h65l-16 -116h-66q-106 0 -180.5 -71.5t-89.5 -188.5l-164 -1180h-117z" />
    <glyph glyph-name="florin" unicode="&#x192;" horiz-adv-x="1132" 
d="M-35 -369l17 117h79q104 0 185.5 71.5t109.5 188.5l191 783h-207l16 110h222l67 279q39 166 160 271t268 105h80l-14 -116h-80q-106 0 -188 -71.5t-111 -188.5l-68 -279h371l-16 -110h-383l-191 -783q-41 -168 -162 -272.5t-268 -104.5h-78z" />
    <glyph glyph-name="Scommaaccent" unicode="&#x218;" horiz-adv-x="970" 
d="M403 -33q-161 0 -246 105t-59 274l6 43h117l-6 -43q-19 -117 39 -189.5t166 -72.5t184.5 72t93.5 190l15 103q17 117 -39.5 189.5t-165.5 72.5q-162 0 -247 104.5t-60 274.5l16 100q25 170 137.5 274.5t272.5 104.5q161 0 247 -105t60 -274l-6 -41h-117l6 41
q19 117 -39 189.5t-166 72.5t-185.5 -72t-92.5 -190l-17 -100q-15 -119 41.5 -191t165.5 -72q160 0 245 -104t60 -274l-14 -103q-25 -170 -138 -274.5t-274 -104.5zM244 -451l88 314h145l-147 -314h-86z" />
    <glyph glyph-name="scommaaccent" unicode="&#x219;" horiz-adv-x="872" 
d="M362 -25q-155 0 -239 88.5t-62 233.5l7 39h114l-6 -43q-12 -90 44.5 -145.5t158.5 -55.5q105 0 174.5 66.5t69.5 167.5q0 78 -52.5 124t-140.5 46q-138 0 -218.5 72t-80.5 194q0 159 110.5 263.5t276.5 104.5q151 0 233.5 -88.5t59.5 -228.5l-6 -39h-117l6 39
q15 90 -39 146.5t-153 56.5q-109 0 -182.5 -67.5t-73.5 -168.5q0 -78 53.5 -124t144.5 -46q136 0 216.5 -72t80.5 -192q0 -160 -108 -265.5t-271 -105.5zM195 -451l88 314h145l-147 -314h-86z" />
    <glyph glyph-name="uni021A" unicode="&#x21a;" horiz-adv-x="757" 
d="M244 0l198 1419h-276l18 117h666l-16 -117h-275l-199 -1419h-116zM137 -451l88 314h146l-148 -314h-86z" />
    <glyph glyph-name="uni021B" unicode="&#x21b;" horiz-adv-x="675" 
d="M492 -12q-158 0 -239 103.5t-58 273.5l88 632h-203l14 111h205l41 285h115l-41 -285h295l-15 -111h-295l-88 -632q-17 -118 37.5 -189.5t159.5 -71.5h63l-18 -116h-61zM252 -451l88 314h145l-147 -314h-86z" />
    <glyph glyph-name="uni0237" unicode="&#x237;" horiz-adv-x="421" 
d="M-272 -375l16 117h61q105 0 179.5 71.5t91.5 188.5l153 1104h115l-154 -1102q-24 -173 -135.5 -276t-265.5 -103h-61z" />
    <glyph glyph-name="circumflex" unicode="&#x2c6;" horiz-adv-x="643" 
d="M156 1305l266 292h94l182 -292h-123l-118 202l-176 -202h-125z" />
    <glyph glyph-name="caron" unicode="&#x2c7;" horiz-adv-x="643" 
d="M381 1305l-182 292h123l120 -202l174 202h123l-264 -292h-94z" />
    <glyph glyph-name="uni02C9" unicode="&#x2c9;" horiz-adv-x="739" 
d="M418 1536h430l-14 -98h-433z" />
    <glyph glyph-name="breve" unicode="&#x2d8;" horiz-adv-x="651" 
d="M442 1372q-90 0 -143.5 59.5t-38.5 151.5l2 14h88l-2 -14q-7 -58 22.5 -92.5t82.5 -34.5t93.5 35t47.5 92l2 14h88l-2 -14q-13 -93 -81 -152t-159 -59z" />
    <glyph glyph-name="dotaccent" unicode="&#x2d9;" horiz-adv-x="411" 
d="M260 1313l31 223h104l-30 -223h-105z" />
    <glyph glyph-name="ring" unicode="&#x2da;" horiz-adv-x="587" 
d="M391 1249q-64 0 -107.5 41t-43.5 105q0 83 60 142.5t140 59.5q65 0 109.5 -41t44.5 -108q0 -81 -60.5 -140t-142.5 -59zM403 1333q38 0 71.5 29.5t33.5 71.5q0 35 -24 57t-56 22q-40 0 -72 -32t-32 -72q0 -33 24 -54.5t55 -21.5z" />
    <glyph glyph-name="ogonek" unicode="&#x2db;" horiz-adv-x="442" 
d="M190 -397q-93 0 -145.5 40.5t-52.5 108.5q0 165 241 297h21l-8 -49q-150 -115 -150 -219q0 -38 30 -59t83 -21h24l-14 -98h-29z" />
    <glyph glyph-name="tilde" unicode="&#x2dc;" horiz-adv-x="753" 
d="M612 1409q-54 0 -108 43q-9 7 -25 21.5t-24 21t-19.5 12.5t-21.5 6q-24 0 -39.5 -20.5t-18.5 -46.5l-4 -27h-94l6 31q10 74 50.5 110.5t97.5 36.5q59 0 114 -51q5 -5 17 -16t18 -15.5t15.5 -11.5t18 -9.5t17.5 -2.5q23 0 39 22t19 50l4 34h92l-6 -43
q-11 -74 -51.5 -109.5t-96.5 -35.5z" />
    <glyph glyph-name="hungarumlaut" unicode="&#x2dd;" horiz-adv-x="679" 
d="M178 1245l193 352h121l-224 -352h-90zM446 1245l195 352h121l-225 -352h-91z" />
    <glyph glyph-name="uni0326" unicode="&#x326;" horiz-adv-x="0" 
d="M-432 -451l88 314h145l-147 -314h-86z" />
    <glyph glyph-name="uni0394" unicode="&#x394;" horiz-adv-x="942" 
d="M-14 0l561 1536h123l131 -1536h-815zM147 117h525l-97 1194z" />
    <glyph glyph-name="uni03A9" unicode="&#x3a9;" horiz-adv-x="1232" 
d="M1116 1128l-104 -749q-25 -161 -123 -262h209l-17 -117h-481l16 117q108 0 185 72t94 190l104 749q20 146 -51.5 235t-206.5 89q-136 0 -232.5 -89.5t-115.5 -234.5l-104 -749q-17 -118 39.5 -190t165.5 -72l-17 -117h-481l16 117h209q-70 98 -49 262l104 749
q28 198 161 319.5t321 121.5q189 0 287.5 -121.5t70.5 -319.5z" />
    <glyph glyph-name="pi" unicode="&#x3c0;" horiz-adv-x="1085" 
d="M901 -12q-157 0 -237.5 103.5t-57.5 273.5l88 632h-295l-139 -997h-115l138 997h-203l14 111h1024l-14 -111h-295l-88 -632q-15 -119 38.5 -190t158.5 -71h61l-16 -116h-62z" />
    <glyph glyph-name="Wgrave" unicode="&#x1e80;" horiz-adv-x="1310" 
d="M864 1675h-90l-127 353h121zM1241 1536h121l-438 -1536h-123l-53 1204l-394 -1204h-123l-8 1536h121l-2 -1253l395 1253h111l45 -1255z" />
    <glyph glyph-name="wgrave" unicode="&#x1e81;" horiz-adv-x="1099" 
d="M698 1245h-90l-127 352h121zM987 1106h123l-326 -1106h-141l-53 831l-291 -831h-139l-17 1106h121l-8 -936l313 936h117l49 -938z" />
    <glyph glyph-name="Wacute" unicode="&#x1e82;" horiz-adv-x="1310" 
d="M1081 2028l-223 -353h-90l193 353h120zM1241 1536h121l-438 -1536h-123l-53 1204l-394 -1204h-123l-8 1536h121l-2 -1253l395 1253h111l45 -1255z" />
    <glyph glyph-name="wacute" unicode="&#x1e83;" horiz-adv-x="1099" 
d="M915 1597l-223 -352h-90l193 352h120zM987 1106h123l-326 -1106h-141l-53 831l-291 -831h-139l-17 1106h121l-8 -936l313 936h117l49 -938z" />
    <glyph glyph-name="Wdieresis" unicode="&#x1e84;" horiz-adv-x="1310" 
d="M788 2028l-30 -224h-105l31 224h104zM1049 2028l-31 -224h-103l31 224h103zM1241 1536h121l-438 -1536h-123l-53 1204l-394 -1204h-123l-8 1536h121l-2 -1253l395 1253h111l45 -1255z" />
    <glyph glyph-name="wdieresis" unicode="&#x1e85;" horiz-adv-x="1099" 
d="M623 1597l-31 -223h-105l31 223h105zM883 1597l-31 -223h-102l30 223h103zM987 1106h123l-326 -1106h-141l-53 831l-291 -831h-139l-17 1106h121l-8 -936l313 936h117l49 -938z" />
    <glyph glyph-name="endash" unicode="&#x2013;" horiz-adv-x="1085" 
d="M143 496l19 116h778l-16 -116h-781z" />
    <glyph glyph-name="emdash" unicode="&#x2014;" horiz-adv-x="1290" 
d="M143 496l19 116h983l-17 -116h-985z" />
    <glyph glyph-name="quoteleft" unicode="&#x2018;" horiz-adv-x="462" 
d="M250 1104l39 274l67 158h64l-66 -158h52l-39 -274h-117z" />
    <glyph glyph-name="quoteright" unicode="&#x2019;" horiz-adv-x="462" 
d="M258 1104l68 158h-54l37 274h117l-37 -274l-67 -158h-64z" />
    <glyph glyph-name="quotesinglbase" unicode="&#x201a;" horiz-adv-x="464" 
d="M82 -158l68 158h-54l37 274h117l-37 -274l-68 -158h-63z" />
    <glyph glyph-name="quotedblleft" unicode="&#x201c;" horiz-adv-x="702" 
d="M250 1104l39 274l67 158h64l-66 -158h52l-39 -274h-117zM489 1104l39 274l68 158h63l-65 -158h51l-39 -274h-117z" />
    <glyph glyph-name="quotedblright" unicode="&#x201d;" horiz-adv-x="702" 
d="M258 1104l68 158h-54l37 274h117l-37 -274l-67 -158h-64zM498 1104l67 158h-53l37 274h117l-37 -274l-68 -158h-63z" />
    <glyph glyph-name="quotedblbase" unicode="&#x201e;" horiz-adv-x="704" 
d="M82 -158l68 158h-54l37 274h117l-37 -274l-68 -158h-63zM322 -158l67 158h-53l37 274h116l-36 -274l-68 -158h-63z" />
    <glyph glyph-name="dagger" unicode="&#x2020;" horiz-adv-x="837" 
d="M377 631l76 545h-256l16 106h254l35 254h106l-35 -254h256l-14 -106h-256l-76 -545h-106z" />
    <glyph glyph-name="daggerdbl" unicode="&#x2021;" horiz-adv-x="923" 
d="M420 631l35 254h-256l16 106h254l27 185h-256l16 106h256l35 254h106l-35 -254h254l-14 -106h-256l-27 -185h256l-14 -106h-256l-35 -254h-106z" />
    <glyph glyph-name="bullet" unicode="&#x2022;" horiz-adv-x="731" 
d="M340 362q-70 0 -118 48t-48 116q0 86 67 151.5t152 65.5q70 0 117 -47t47 -116q0 -84 -66.5 -151t-150.5 -67z" />
    <glyph glyph-name="ellipsis" unicode="&#x2026;" horiz-adv-x="1183" 
d="M133 0l35 246h117l-35 -246h-117zM455 0l34 246h117l-35 -246h-116zM776 0l35 246h117l-35 -246h-117z" />
    <glyph glyph-name="perthousand" unicode="&#x2030;" horiz-adv-x="2091" 
d="M410 838q-110 0 -169 70.5t-42 183.5l30 215q17 115 94 184.5t189 69.5q110 0 169 -70.5t42 -183.5l-31 -215q-17 -115 -93.5 -184.5t-188.5 -69.5zM270 0l887 1536h109l-887 -1536h-109zM424 932q66 0 112.5 44.5t57.5 115.5l31 215q10 70 -25.5 114.5t-101.5 44.5
q-67 0 -114 -44t-58 -115l-31 -215q-11 -71 25.5 -115.5t103.5 -44.5zM1028 -25q-111 0 -169.5 70t-41.5 184l31 215q17 114 93.5 184t186.5 70t169 -70.5t42 -183.5l-30 -215q-17 -115 -93 -184.5t-188 -69.5zM1642 -25q-109 0 -168 70.5t-42 183.5l30 215q17 114 94 184
t187 70t169 -70.5t42 -183.5l-31 -215q-17 -115 -93 -184.5t-188 -69.5zM1040 70q66 0 112.5 44t57.5 115l31 215q10 70 -25 115t-100 45q-68 0 -115.5 -44.5t-58.5 -115.5l-31 -215q-10 -70 26.5 -114.5t102.5 -44.5zM1655 70q66 0 113.5 44t58.5 115l31 215
q9 70 -26.5 115t-100.5 45q-68 0 -116 -44.5t-59 -115.5l-30 -215q-10 -70 26.5 -114.5t102.5 -44.5z" />
    <glyph glyph-name="guilsinglleft" unicode="&#x2039;" horiz-adv-x="571" 
d="M397 0l-350 457l8 63l477 457l-18 -141l-358 -349l260 -346z" />
    <glyph glyph-name="guilsinglright" unicode="&#x203a;" horiz-adv-x="571" 
d="M20 0l19 141l360 346l-262 349l21 141l350 -457l-8 -63z" />
    <glyph glyph-name="fraction" unicode="&#x2044;" horiz-adv-x="372" 
d="M-283 0l887 1536h111l-887 -1536h-111z" />
    <glyph glyph-name="uni2070" unicode="&#x2070;" horiz-adv-x="645" 
d="M471 1618q97 0 148.5 -63t37.5 -164l-71 -508q-13 -101 -83 -164.5t-167 -63.5t-148.5 63.5t-37.5 164.5l71 508q13 101 83 164t167 63zM244 883q-3 -25 0 -43l280 663q-28 21 -65 21q-54 0 -94.5 -36t-49.5 -97zM563 1391q3 21 0 39l-280 -660q26 -20 67 -20
q54 0 93.5 36.5t48.5 96.5z" />
    <glyph glyph-name="uni2074" unicode="&#x2074;" horiz-adv-x="589" 
d="M375 676l28 198h-344l13 89l432 634h94l-88 -628h84l-12 -95h-84l-29 -198h-94zM170 969h246l63 461z" />
    <glyph glyph-name="uni2075" unicode="&#x2075;" horiz-adv-x="624" 
d="M340 655q-97 0 -148.5 63.5t-37.5 164.5l4 30h94l-4 -30q-8 -59 21.5 -96t84.5 -37q54 0 94.5 37.5t47.5 95.5l24 180q9 61 -21 97t-87 36q-55 0 -93 -36t-47 -95l-2 -14h-94l78 546h428l-12 -94h-334l-39 -270q54 57 135 57q95 0 145 -62t37 -165l-24 -180
q-13 -101 -83 -164.5t-167 -63.5z" />
    <glyph glyph-name="uni2076" unicode="&#x2076;" horiz-adv-x="632" 
d="M336 655q-97 0 -148.5 63.5t-37.5 164.5l71 508q13 101 83 164t167 63q96 0 147.5 -63t38.5 -164l-4 -31h-94l4 31q8 59 -21 96t-83 37q-56 0 -95.5 -37t-48.5 -96l-22 -158q54 57 135 57q95 0 145 -62t37 -165l-24 -180q-13 -101 -83 -164.5t-167 -63.5zM350 750
q54 0 94.5 37.5t47.5 95.5l24 180q9 61 -21 97t-87 36q-54 0 -93.5 -36.5t-46.5 -94.5l-24 -182q-8 -59 21.5 -96t84.5 -37z" />
    <glyph glyph-name="uni2077" unicode="&#x2077;" horiz-adv-x="450" 
d="M109 676l350 827h-328l12 94h428l-12 -84l-350 -837h-100z" />
    <glyph glyph-name="uni2078" unicode="&#x2078;" horiz-adv-x="630" 
d="M330 655q-97 0 -149.5 63.5t-37.5 164.5l13 84q19 121 106 180q-75 62 -57 180l10 64q15 99 83 163t167 64q95 0 149 -62t37 -165l-10 -64q-20 -122 -104 -180q72 -65 55 -180l-12 -84q-15 -101 -84 -164.5t-166 -63.5zM406 1194q55 0 93.5 36.5t47.5 96.5l10 64
q9 58 -20.5 95.5t-83.5 37.5t-94.5 -37.5t-49.5 -95.5l-10 -64q-9 -60 20.5 -96.5t86.5 -36.5zM344 750q54 0 93 37t48 96l13 84q9 59 -20.5 96t-84.5 37q-56 0 -95 -36.5t-48 -96.5l-12 -84q-9 -58 21.5 -95.5t84.5 -37.5z" />
    <glyph glyph-name="uni2079" unicode="&#x2079;" horiz-adv-x="634" 
d="M326 655q-97 0 -149 63.5t-38 164.5l4 30h95l-5 -30q-8 -59 22 -96t85 -37t93.5 37t47.5 96l23 157q-54 -57 -135 -57q-95 0 -147.5 62.5t-37.5 164.5l27 181q15 102 83.5 164.5t166.5 62.5q97 0 148.5 -63t37.5 -164l-72 -508q-13 -101 -82.5 -164.5t-166.5 -63.5z
M389 1077q56 0 92 35.5t45 95.5l27 183q9 58 -20.5 95.5t-83.5 37.5q-56 0 -95.5 -37t-48.5 -96l-26 -181q-9 -60 22 -96.5t88 -36.5z" />
    <glyph glyph-name="uni2080" unicode="&#x2080;" horiz-adv-x="645" 
d="M369 881q97 0 148.5 -63.5t37.5 -164.5l-72 -508q-13 -101 -83 -164t-167 -63t-148.5 63t-37.5 164l72 508q13 101 83 164.5t167 63.5zM141 145q-3 -25 0 -43l281 664q-27 20 -66 20q-54 0 -94 -36t-49 -97zM461 653q3 21 0 39l-281 -659q27 -21 68 -21q53 0 92.5 36
t48.5 97z" />
    <glyph glyph-name="uni2081" unicode="&#x2081;" horiz-adv-x="368" 
d="M66 -61l100 720h-125l12 95h23q48 0 79.5 24.5t37.5 67.5l2 14h94l-129 -921h-94z" />
    <glyph glyph-name="uni2082" unicode="&#x2082;" horiz-adv-x="559" 
d="M-29 -61l11 79q8 56 33.5 107t61 90t77 75.5t83 69.5t76 65t59 68.5t29.5 73.5l13 86q9 58 -21 95.5t-86 37.5q-53 0 -93.5 -37.5t-47.5 -95.5l-4 -30h-94l4 30q13 101 82.5 164.5t164.5 63.5q98 0 151 -63.5t38 -164.5l-12 -86q-9 -60 -50.5 -118.5t-97 -106t-111 -93.5
t-99 -99.5t-54.5 -106.5l-2 -10h340l-14 -94h-437z" />
    <glyph glyph-name="uni2083" unicode="&#x2083;" horiz-adv-x="589" 
d="M186 -82q-97 0 -148.5 63t-37.5 164l4 31h94l-4 -31q-8 -59 22 -96t85 -37t93.5 37t47.5 96l12 86q9 58 -20.5 96t-83.5 38h-74l12 94h74q55 0 96 36.5t48 96.5l8 61q8 59 -21 96t-84 37q-54 0 -95 -37.5t-48 -95.5l-4 -30h-94l4 30q14 101 83 164.5t167 63.5
q96 0 147 -63t37 -165l-8 -61q-16 -123 -105 -182q72 -65 56 -179l-13 -86q-15 -101 -84 -164t-166 -63z" />
    <glyph glyph-name="uni2084" unicode="&#x2084;" horiz-adv-x="589" 
d="M272 -61l29 198h-344l12 88l432 635h95l-88 -629h84l-13 -94h-84l-28 -198h-95zM68 231h245l64 461z" />
    <glyph glyph-name="uni2085" unicode="&#x2085;" horiz-adv-x="624" 
d="M238 -82q-97 0 -148.5 63t-38.5 164l4 31h95l-5 -31q-8 -59 22 -96t85 -37q54 0 94 37.5t47 95.5l25 181q9 61 -21 97t-88 36q-55 0 -92.5 -36t-46.5 -95l-2 -15h-94l78 547h428l-13 -94h-334l-38 -270q54 57 135 57q95 0 145 -62t37 -165l-25 -181q-13 -101 -82.5 -164
t-166.5 -63z" />
    <glyph glyph-name="uni2086" unicode="&#x2086;" horiz-adv-x="632" 
d="M233 -82q-97 0 -148.5 63t-37.5 164l72 508q13 101 83 164.5t167 63.5q95 0 147 -63.5t39 -164.5l-4 -30h-94l4 30q8 59 -21.5 96t-83.5 37q-55 0 -94.5 -37t-48.5 -96l-23 -157q54 57 136 57q95 0 145 -62t37 -165l-25 -181q-13 -101 -83 -164t-167 -63zM248 12
q54 0 94 37.5t47 95.5l25 181q9 61 -21 97t-88 36q-54 0 -93 -36.5t-46 -94.5l-25 -183q-8 -59 22 -96t85 -37z" />
    <glyph glyph-name="uni2087" unicode="&#x2087;" horiz-adv-x="450" 
d="M6 -61l350 827h-327l12 94h428l-12 -84l-351 -837h-100z" />
    <glyph glyph-name="uni2088" unicode="&#x2088;" horiz-adv-x="630" 
d="M227 -82q-97 0 -149 63t-37 164l12 84q19 122 107 181q-76 63 -58 180l11 63q15 100 82.5 164t166.5 64q95 0 149.5 -62.5t37.5 -165.5l-10 -63q-20 -122 -105 -180q72 -65 55 -181l-12 -84q-15 -101 -84 -164t-166 -63zM303 457q55 0 93.5 36.5t47.5 96.5l11 63
q9 59 -20.5 96t-84.5 37q-54 0 -94 -37t-49 -96l-10 -63q-9 -60 20 -96.5t86 -36.5zM242 12q55 0 93.5 37t47.5 96l12 84q9 60 -20.5 96.5t-83.5 36.5q-56 0 -95.5 -36.5t-48.5 -96.5l-12 -84q-9 -58 22 -95.5t85 -37.5z" />
    <glyph glyph-name="uni2089" unicode="&#x2089;" horiz-adv-x="634" 
d="M223 -82q-97 0 -148.5 63t-37.5 164l4 31h94l-4 -31q-8 -59 22 -96t85 -37t93.5 37t47.5 96l22 158q-54 -57 -135 -57q-95 0 -147 62.5t-37 164.5l27 180q15 102 83 165t166 63q97 0 149 -63.5t38 -164.5l-72 -508q-13 -101 -83 -164t-167 -63zM287 340q55 0 91.5 36
t45.5 95l27 182q9 58 -21 95.5t-84 37.5q-56 0 -95 -37t-48 -96l-27 -180q-9 -60 22.5 -96.5t88.5 -36.5z" />
    <glyph glyph-name="franc" unicode="&#x20a3;" horiz-adv-x="923" 
d="M930 1419h-498l-92 -671h442l-16 -117h-444l-39 -289h237l-16 -115h-238l-30 -227h-117l33 227h-91l17 115h88l168 1194h614z" />
    <glyph glyph-name="lira" unicode="&#x20a4;" horiz-adv-x="1146" 
d="M811 1561q159 0 245 -105t60 -274l-6 -41h-117l6 41q19 117 -39.5 189.5t-166.5 72.5q-109 0 -185.5 -72t-93.5 -190l-49 -357h323l-14 -116h-325l-33 -232h323l-14 -115h-326l-34 -245h489l-16 -117h-758l16 117h152l35 245h-152l14 115h154l33 232h-152l15 116h153
l49 357q25 170 139 274.5t275 104.5z" />
    <glyph glyph-name="peseta" unicode="&#x20a7;" horiz-adv-x="1163" 
d="M1137 1161l-17 -114h-176v-5q-23 -155 -124 -247.5t-242 -92.5h-263l-96 -702h-117l148 1047h-31l17 114h28l53 375h379q142 0 218 -93.5t53 -244.5l-6 -37h176zM416 1419l-35 -258h463l6 37q15 99 -33 160t-139 61h-262zM827 1042v5h-462l-31 -228h262q90 0 153 61.5
t78 161.5z" />
    <glyph glyph-name="Euro" unicode="&#x20ac;" horiz-adv-x="1159" 
d="M791 1561q161 0 246 -105t59 -274l-6 -41h-117l6 41q19 117 -40 189.5t-167 72.5q-109 0 -185 -71.5t-93 -190.5l-21 -152h326l-17 -115h-325l-41 -292h325l-16 -115h-326l-20 -154q-17 -118 40 -190t165 -72t183.5 71.5t94.5 190.5l6 41h117l-6 -41
q-25 -168 -136 -273.5t-274 -105.5q-162 0 -246 104t-61 275l21 154h-152l16 115h152l41 292h-154l19 115h151l21 152q23 170 137.5 274.5t276.5 104.5z" />
    <glyph glyph-name="uni2113" unicode="&#x2113;" horiz-adv-x="1208" 
d="M598 -25q-101 0 -173 68.5t-103 192.5q-157 -70 -271 -103l-10 82q127 35 264 98q-10 62 -10 136q0 246 86 480t225 379.5t285 145.5q114 0 180 -90.5t66 -228.5q0 -241 -190.5 -464.5t-545.5 -398.5q27 -103 79.5 -159t127.5 -56q102 0 193 86t123 215l82 -10
q-42 -162 -159.5 -267.5t-248.5 -105.5zM387 352q319 157 491.5 357.5t172.5 416.5q0 108 -48.5 177t-128.5 69q-115 0 -230 -133t-188 -343t-73 -421q-3 -51 4 -123z" />
    <glyph glyph-name="trademark" unicode="&#x2122;" horiz-adv-x="1427" 
d="M264 614l117 828h-156l13 94h409l-12 -94h-160l-117 -828h-94zM625 614l129 922h96l90 -748l299 748h96l-129 -922h-88l88 627l-254 -627h-73l-76 627l-88 -627h-90z" />
    <glyph glyph-name="estimated" unicode="&#x212e;" horiz-adv-x="1507" 
d="M678 -33q-123 0 -225.5 38.5t-171.5 105t-107.5 157.5t-38.5 195q0 132 56.5 255.5t151.5 213.5t225 144t270 54q172 0 299 -79t190 -210t62 -294v-12h-1006q-2 0 -5 -4t-3 -7l-43 -313q-2 -12 -0.5 -17t10.5 -18q59 -82 138.5 -127t203.5 -45q122 0 217 47.5t191 143.5
h96q-72 -73 -137.5 -119t-161.5 -77.5t-211 -31.5zM387 561h743q4 0 7 14l43 316q0 29 -9 39q-69 85 -144.5 125.5t-195.5 40.5t-210 -44t-170 -128q-5 -5 -12 -13q-11 -12 -12 -20q0 -1 -1 -3v-3l-43 -310q-3 -14 4 -14z" />
    <glyph glyph-name="oneeighth" unicode="&#x215b;" horiz-adv-x="1372" 
d="M160 614l104 742h-125l13 94h22q48 0 79.5 24.5t37.5 67.5l2 14h94l-133 -942h-94zM86 0l887 1536h110l-886 -1536h-111zM977 -20q-97 0 -149 63t-37 164l12 84q19 121 106 180q-75 62 -57 180l10 64q15 99 83 163t167 64q95 0 149 -62t37 -165l-10 -64
q-20 -122 -104 -180q72 -65 55 -180l-12 -84q-15 -101 -84 -164t-166 -63zM1053 518q55 0 93.5 36.5t47.5 96.5l10 64q9 59 -20 96t-84 37q-54 0 -94.5 -37.5t-49.5 -95.5l-10 -64q-9 -60 20.5 -96.5t86.5 -36.5zM991 74q55 0 94 37t48 96l12 84q9 59 -20.5 96t-84.5 37
q-56 0 -95 -36.5t-48 -96.5l-12 -84q-9 -58 21.5 -95.5t84.5 -37.5z" />
    <glyph glyph-name="threeeighths" unicode="&#x215c;" horiz-adv-x="1595" 
d="M283 594q-98 0 -149.5 62.5t-37.5 164.5l4 31h95l-5 -31q-8 -59 22 -96t85 -37t93.5 37t47.5 96l13 86q9 58 -21 95.5t-84 37.5h-74l13 95h73q55 0 96 36.5t48 96.5l8 61q8 60 -20 96.5t-84 36.5q-54 0 -95.5 -37.5t-48.5 -95.5l-4 -31h-94l4 31q14 101 83 164t167 63
q96 0 147 -62.5t37 -164.5l-8 -61q-16 -124 -105 -183q72 -65 56 -178l-13 -86q-15 -101 -83.5 -164t-165.5 -63zM309 0l887 1536h111l-887 -1536h-111zM1200 -20q-97 0 -149 63t-37 164l12 84q19 120 107 180q-76 63 -58 180l10 64q15 99 83 163t167 64q95 0 149.5 -62
t37.5 -165l-11 -64q-20 -122 -104 -180q72 -65 55 -180l-12 -84q-15 -101 -84 -164t-166 -63zM1276 518q55 0 93.5 36.5t47.5 96.5l10 64q9 59 -20 96t-84 37q-54 0 -94 -37t-49 -96l-11 -64q-9 -60 20.5 -96.5t86.5 -36.5zM1214 74q55 0 94 37t48 96l12 84q9 60 -20.5 96.5
t-83.5 36.5q-56 0 -95.5 -36.5t-48.5 -96.5l-12 -84q-9 -58 21.5 -95.5t84.5 -37.5z" />
    <glyph glyph-name="fiveeighths" unicode="&#x215d;" horiz-adv-x="1628" 
d="M332 594q-97 0 -148.5 63t-38.5 164l5 31h94l-4 -31q-8 -59 21.5 -96t84.5 -37q54 0 94 37.5t47 95.5l25 180q9 61 -21.5 97.5t-87.5 36.5q-55 0 -92.5 -36t-46.5 -95l-2 -15h-94l78 547h428l-12 -94h-334l-39 -271q55 58 135 58q95 0 145 -62.5t37 -165.5l-24 -180
q-13 -101 -83 -164t-167 -63zM342 0l887 1536h110l-886 -1536h-111zM1233 -20q-97 0 -149 63t-37 164l12 84q19 121 106 180q-75 62 -57 180l10 64q15 99 83 163t167 64q95 0 149 -62t37 -165l-10 -64q-20 -122 -104 -180q72 -65 55 -180l-12 -84q-15 -101 -84 -164
t-166 -63zM1309 518q55 0 93.5 36.5t47.5 96.5l10 64q9 59 -20 96t-84 37q-54 0 -94.5 -37.5t-49.5 -95.5l-10 -64q-9 -60 20.5 -96.5t86.5 -36.5zM1247 74q55 0 94 37t48 96l12 84q9 59 -20.5 96t-84.5 37q-56 0 -95 -36.5t-48 -96.5l-12 -84q-9 -58 21.5 -95.5t84.5 -37.5
z" />
    <glyph glyph-name="seveneighths" unicode="&#x215e;" horiz-adv-x="1454" 
d="M100 614l351 828h-328l12 94h428l-12 -84l-350 -838h-101zM168 0l887 1536h110l-886 -1536h-111zM1059 -20q-97 0 -149.5 63t-37.5 164l13 84q19 121 106 180q-75 62 -57 180l10 64q15 99 83 163t167 64q95 0 149 -62t37 -165l-10 -64q-20 -122 -104 -180q72 -65 55 -180
l-12 -84q-15 -101 -84 -164t-166 -63zM1135 518q55 0 93.5 36.5t47.5 96.5l10 64q9 59 -20 96t-84 37q-54 0 -94.5 -37.5t-49.5 -95.5l-10 -64q-9 -60 20.5 -96.5t86.5 -36.5zM1073 74q55 0 93.5 37t47.5 96l13 84q9 59 -20.5 96t-84.5 37q-56 0 -95 -36.5t-48 -96.5
l-12 -84q-9 -58 21.5 -95.5t84.5 -37.5z" />
    <glyph glyph-name="arrowleft" unicode="&#x2190;" horiz-adv-x="1183" 
d="M1067 637l-14 -86h-650l-34 -248l-252 291l334 295l-35 -252h651z" />
    <glyph glyph-name="arrowup" unicode="&#x2191;" horiz-adv-x="768" 
d="M707 774h-248l-92 -651h-86l92 651h-252l336 291z" />
    <glyph glyph-name="arrowright" unicode="&#x2192;" horiz-adv-x="1183" 
d="M1079 594l-334 -291l35 248h-649l12 86h650l36 252z" />
    <glyph glyph-name="arrowdown" unicode="&#x2193;" horiz-adv-x="768" 
d="M410 416h247l-333 -293l-252 293h252l90 649h86z" />
    <glyph glyph-name="arrowboth" unicode="&#x2194;" horiz-adv-x="1374" 
d="M369 303l-252 291l334 295l-35 -252h569l35 252l250 -295l-334 -291l35 248h-568z" />
    <glyph glyph-name="arrowupdn" unicode="&#x2195;" horiz-adv-x="800" 
d="M322 0l-250 293h247l80 567h-249l333 293l252 -293h-250l-79 -567h251z" />
    <glyph glyph-name="uni2196" unicode="&#x2196;" 
d="M840 291l-70 -62l-395 459l-201 -174l59 412l414 2l-203 -176z" />
    <glyph glyph-name="uni2197" unicode="&#x2197;" 
d="M842 926l-58 -412l-151 174l-524 -459l-52 62l523 461l-152 176z" />
    <glyph glyph-name="uni2198" unicode="&#x2198;" horiz-adv-x="970" 
d="M604 469l199 174l-58 -412l-415 -2l205 179l-398 458l70 62z" />
    <glyph glyph-name="uni2199" unicode="&#x2199;" horiz-adv-x="966" 
d="M920 866l-525 -458l154 -179l-414 2l58 412l149 -172l524 457z" />
    <glyph glyph-name="partialdiff" unicode="&#x2202;" horiz-adv-x="1042" 
d="M623 1536q152 0 235 -98.5t60 -255.5l-166 -1182h-117l12 84q-98 -109 -246 -109q-154 0 -236.5 98t-60.5 259l35 239q22 159 132 257t264 98q150 0 215 -111l51 367q15 108 -38.5 173.5t-158.5 65.5h-41l15 115h45zM715 571q15 109 -37.5 174.5t-159.5 65.5
q-105 0 -177 -66t-87 -174l-33 -239q-15 -108 39 -174t158 -66q110 0 179.5 64.5t84.5 173.5z" />
    <glyph glyph-name="emptyset" unicode="&#x2205;" horiz-adv-x="1492" 
d="M1155 1122q103 -67 159 -177t56 -251q0 -197 -93.5 -362t-255.5 -261t-355 -96q-138 0 -260 56l-95 -137h-112l127 186q-92 69 -142.5 175t-50.5 239q0 146 55.5 278.5t149.5 228t224.5 151.5t275.5 56q132 0 233 -43l84 121h113zM242 510q0 -106 39.5 -192t111.5 -142
l613 893q-76 33 -181 33q-120 0 -228 -46.5t-186 -126t-123.5 -189t-45.5 -230.5zM682 82q158 0 291.5 79.5t211 217t77.5 299.5q0 113 -45.5 203t-126.5 145l-619 -899q95 -45 211 -45z" />
    <glyph glyph-name="product" unicode="&#x220f;" horiz-adv-x="1220" 
d="M203 -246l233 1665h-235l18 117h1059l-18 -117h-234l-233 -1665h-117l233 1665h-356l-234 -1665h-116z" />
    <glyph glyph-name="summation" unicode="&#x2211;" horiz-adv-x="915" 
d="M10 -246l13 94l426 797l-207 797l16 94h696l-18 -117h-571l202 -774l-415 -774h571l-18 -117h-695z" />
    <glyph glyph-name="minus" unicode="&#x2212;" horiz-adv-x="1234" 
d="M219 496l19 116h778l-17 -116h-780z" />
    <glyph glyph-name="uni2215" unicode="&#x2215;" horiz-adv-x="847" 
d="M29 -102l786 1699h125l-786 -1699h-125z" />
    <glyph glyph-name="uni2219" unicode="&#x2219;" horiz-adv-x="823" 
d="M438 322q-85 0 -142.5 57.5t-57.5 140.5q0 103 81 182.5t183 79.5q86 0 142 -56.5t56 -141.5q0 -101 -81 -181.5t-181 -80.5z" />
    <glyph glyph-name="radical" unicode="&#x221a;" horiz-adv-x="1208" 
d="M266 0l-127 829h123l100 -661l588 1368h312l-15 -117h-221l-614 -1419h-146z" />
    <glyph glyph-name="infinity" unicode="&#x221e;" horiz-adv-x="1683" 
d="M1282 903q108 0 172 -70.5t64 -177.5q0 -140 -94.5 -243t-227.5 -103h-43q-28 0 -55 7.5t-48 18t-45 30t-39.5 34t-37 41.5t-31 40.5t-29.5 42t-26 36.5q-8 -8 -41 -42t-49 -49t-49 -45t-57.5 -45.5t-57 -34t-64 -26.5t-63.5 -8h-45q-107 0 -172.5 70t-65.5 178
q0 141 95.5 243.5t226.5 102.5h45q37 0 73 -11.5t60.5 -25t55 -42.5t44.5 -45t44 -52.5t38 -46.5q10 9 50.5 46.5t58 53t57 44.5t67.5 42.5t67 25t77 11.5h45zM473 393q33 0 63 10t67 37.5t57.5 45.5t70 66t68.5 66q-18 18 -59 65t-64 70t-63 44.5t-81 21.5h-45
q-86 0 -153.5 -74.5t-67.5 -171.5q0 -74 45 -127t117 -53h45zM1208 393q89 0 156.5 74.5t67.5 171.5q0 74 -45.5 127t-118.5 53h-45q-32 0 -65 -11.5t-67.5 -35.5t-60.5 -45t-65.5 -56t-61.5 -53q17 -22 49.5 -66.5t49.5 -65t44.5 -46.5t56 -36.5t62.5 -10.5h43z" />
    <glyph glyph-name="integral" unicode="&#x222b;" horiz-adv-x="876" 
d="M-49 -369l16 117h66q106 0 180.5 71.5t89.5 188.5l164 1172q23 168 134 272t269 104h66l-14 -116h-68q-105 0 -179 -71.5t-91 -188.5l-164 -1172q-23 -167 -135 -272t-269 -105h-65z" />
    <glyph glyph-name="approxequal" unicode="&#x2248;" horiz-adv-x="1071" 
d="M178 674l4 31q12 94 73.5 148t150.5 54q53 0 100 -20.5t75 -45t64.5 -45t69.5 -20.5q39 0 67.5 25.5t32.5 66.5l4 39h109l-6 -45q-12 -89 -68 -140.5t-133 -51.5q-47 0 -92 21t-74.5 46.5t-69 46.5t-77.5 21q-45 0 -78 -28.5t-39 -74.5l-6 -28h-107zM106 180l5 31
q13 94 75 148.5t152 54.5q52 0 99 -20.5t75.5 -45t65 -45t69.5 -20.5q38 0 64 25t34 67l7 39h108l-6 -45q-12 -89 -68.5 -141t-134.5 -52q-47 0 -91.5 21t-74 46.5t-69.5 46.5t-78 21q-45 0 -79 -28t-40 -74l-4 -29h-109z" />
    <glyph glyph-name="notequal" unicode="&#x2260;" horiz-adv-x="978" 
d="M848 700h-225l-154 -292h340l-18 -117h-383l-152 -291h-113l152 291h-180l16 117h225l154 292h-338l16 117h383l152 289h113l-152 -289h182z" />
    <glyph glyph-name="lessequal" unicode="&#x2264;" horiz-adv-x="919" 
d="M731 258l-590 483l15 95l725 481l-17 -119l-608 -412l494 -411zM39 0l12 96h658l-13 -96h-657z" />
    <glyph glyph-name="greaterequal" unicode="&#x2265;" horiz-adv-x="917" 
d="M100 258l17 117l610 411l-494 412l17 119l592 -481l-15 -95zM66 0l12 96h659l-14 -96h-657z" />
    <glyph glyph-name="lozenge" unicode="&#x25ca;" horiz-adv-x="909" 
d="M305 0l-162 768l375 768h146l163 -768l-376 -768h-146zM401 166l299 602l-133 602l-299 -602z" />
    <glyph glyph-name="uniF8FF" unicode="&#xf8ff;" horiz-adv-x="1640" 
d="M821 567v422h47v-268l150 158h57l-110 -119l118 -193h-57l-94 156l-64 -66v-90h-47zM365 567q-93 0 -93 86v185h-71v41h71v75h47v-75h80v-41h-80v-185q0 -41 50 -41h30v-45h-34zM598 559q-70 0 -113 45.5t-43 120.5q0 72 43 117t113 45q71 0 114.5 -45.5t43.5 -118.5
t-43.5 -118.5t-114.5 -45.5zM1264 559q-71 0 -114.5 45.5t-43.5 120.5q0 72 43 117t113 45t113.5 -45t43.5 -119t-42.5 -119t-112.5 -45zM598 600q51 0 81 34t30 91q0 54 -30 87.5t-81 33.5q-50 0 -80.5 -33.5t-30.5 -87.5q0 -57 30.5 -91t80.5 -34zM1264 600q51 0 79.5 34
t28.5 91q0 55 -29 88t-79 33q-51 0 -81 -33.5t-30 -87.5q0 -57 30 -91t81 -34zM365 109q-93 0 -93 86v184h-71v41h71v76h47v-76h80v-41h-80v-184q0 -41 50 -41h30v-45h-34zM786 10v410h48v-45q40 53 106 53q64 0 102.5 -45t38.5 -119t-38.5 -119t-102.5 -45q-67 0 -106 54
v-144h-48zM1286 100q-72 0 -115 45t-43 119q0 73 42.5 118.5t111.5 45.5q67 0 107.5 -43t40.5 -115q0 -14 -3 -26h-251q6 -47 35.5 -75t74.5 -28q33 0 58.5 16.5t31.5 41.5h49q-8 -44 -46 -71.5t-93 -27.5zM451 0v45h34q27 0 40 6.5t22 26.5l12 28l-129 314h53l105 -258
l94 258h53l-135 -340q-19 -46 -43.5 -63t-71.5 -17h-34zM932 141q45 0 73.5 33t28.5 90t-28.5 90t-73.5 33q-44 0 -71 -32.5t-27 -88.5v-4q0 -56 27 -88.5t71 -32.5zM1176 285h208q0 47 -27.5 74.5t-74.5 27.5q-45 0 -73 -27t-33 -75z" />
    <glyph glyph-name="G.ss03" horiz-adv-x="1024" 
d="M444 -33q-160 0 -246 104.5t-61 274.5l119 844q25 170 138.5 274.5t273.5 104.5q161 0 247 -105t60 -274l-6 -41h-117l6 41q19 117 -40 189.5t-167 72.5q-109 0 -185 -71.5t-93 -190.5l-119 -844q-15 -119 41.5 -190.5t165.5 -71.5t185 71.5t93 190.5l66 471h-230l17 117
h346l-82 -588q-24 -173 -138.5 -276t-273.5 -103z" />
    <glyph glyph-name="Gbreve.ss03" horiz-adv-x="1024" 
d="M702 1802q-90 0 -143.5 59.5t-38.5 151.5l2 15h88l-2 -15q-7 -58 22.5 -92.5t82.5 -34.5t93.5 35t47.5 92l2 15h88l-2 -15q-13 -93 -81 -152t-159 -59zM444 -33q-160 0 -246 104.5t-61 274.5l119 844q25 170 138.5 274.5t273.5 104.5q161 0 247 -105t60 -274l-6 -41h-117
l6 41q19 117 -40 189.5t-167 72.5q-109 0 -185 -71.5t-93 -190.5l-119 -844q-15 -119 41.5 -190.5t165.5 -71.5t185 71.5t93 190.5l66 471h-230l17 117h346l-82 -588q-24 -173 -138.5 -276t-273.5 -103z" />
    <glyph glyph-name="Gcircumflex.ss03" horiz-adv-x="1024" 
d="M418 1735l266 293h94l183 -293h-123l-119 202l-176 -202h-125zM444 -33q-160 0 -246 104.5t-61 274.5l119 844q25 170 138.5 274.5t273.5 104.5q161 0 247 -105t60 -274l-6 -41h-117l6 41q19 117 -40 189.5t-167 72.5q-109 0 -185 -71.5t-93 -190.5l-119 -844
q-15 -119 41.5 -190.5t165.5 -71.5t185 71.5t93 190.5l66 471h-230l17 117h346l-82 -588q-24 -173 -138.5 -276t-273.5 -103z" />
    <glyph glyph-name="Gcommaaccent.ss03" horiz-adv-x="1024" 
d="M444 -33q-160 0 -246 104.5t-61 274.5l119 844q25 170 138.5 274.5t273.5 104.5q161 0 247 -105t60 -274l-6 -41h-117l6 41q19 117 -40 189.5t-167 72.5q-109 0 -185 -71.5t-93 -190.5l-119 -844q-15 -119 41.5 -190.5t165.5 -71.5t185 71.5t93 190.5l66 471h-230l17 117
h346l-82 -588q-24 -173 -138.5 -276t-273.5 -103zM285 -451l88 314h145l-147 -314h-86z" />
    <glyph glyph-name="Gdotaccent.ss03" horiz-adv-x="1024" 
d="M641 1743l31 223h104l-31 -223h-104zM444 -33q-160 0 -246 104.5t-61 274.5l119 844q25 170 138.5 274.5t273.5 104.5q161 0 247 -105t60 -274l-6 -41h-117l6 41q19 117 -40 189.5t-167 72.5q-109 0 -185 -71.5t-93 -190.5l-119 -844q-15 -119 41.5 -190.5t165.5 -71.5
t185 71.5t93 190.5l66 471h-230l17 117h346l-82 -588q-24 -173 -138.5 -276t-273.5 -103z" />
    <glyph glyph-name="IJ.ss04" horiz-adv-x="1429" 
d="M229 0h-116l215 1536h116zM813 -12q-160 0 -241.5 104t-63.5 275l2 20h117l-2 -20q-12 -119 43 -191t161 -72q109 0 186.5 72.5t92.5 190.5l164 1169h117l-164 -1169q-25 -170 -138 -274.5t-274 -104.5z" />
    <glyph glyph-name="J.ss04" horiz-adv-x="933" 
d="M317 -12q-160 0 -241.5 104t-63.5 275l2 20h117l-2 -20q-12 -119 43 -191t162 -72q109 0 186 72.5t92 190.5l164 1169h117l-164 -1169q-25 -170 -138 -274.5t-274 -104.5z" />
    <glyph glyph-name="Jcircumflex.ss04" horiz-adv-x="933" 
d="M588 1735l266 293h94l182 -293h-122l-119 202l-176 -202h-125zM317 -12q-160 0 -241.5 104t-63.5 275l2 20h117l-2 -20q-12 -119 43 -191t162 -72q109 0 186 72.5t92 190.5l164 1169h117l-164 -1169q-25 -170 -138 -274.5t-274 -104.5z" />
    <glyph glyph-name="a.ss01" horiz-adv-x="940" 
d="M532 1130q154 0 239 -98t63 -256l-109 -776h-117l13 94q-103 -119 -287 -119q-139 0 -216 68.5t-77 183.5q0 236 258 322q47 16 112.5 31t110 25t89 26.5t70 45t32.5 71.5l4 28q15 107 -40 173.5t-161 66.5q-107 0 -181.5 -67.5t-74.5 -172.5v-20h-110v20q1 103 54 184.5
t139.5 125.5t188.5 44zM657 350l29 207q-61 -35 -191 -62.5t-149 -33.5q-186 -54 -186 -209q0 -75 53.5 -119.5t151.5 -44.5q125 0 199.5 69.5t92.5 192.5z" />
    <glyph glyph-name="aacute.ss01" 
d="M854 1597l-223 -352h-90l192 352h121zM776 1106h117l-156 -1106h-116l12 82q-96 -107 -246 -107q-153 0 -235 98t-60 259l62 444q22 159 132 256.5t263 97.5q145 0 217 -106zM729 776q15 109 -36 174.5t-158 65.5q-106 0 -178.5 -66.5t-86.5 -173.5l-63 -444
q-14 -108 39.5 -174t156.5 -66q109 0 179.5 64.5t85.5 173.5z" />
    <glyph glyph-name="abreve.ss01" 
d="M606 1372q-90 0 -143.5 59.5t-38.5 151.5l2 14h88l-2 -14q-7 -58 22 -92.5t82 -34.5t94 35t48 92l2 14h88l-2 -14q-13 -93 -81 -152t-159 -59zM776 1106h117l-156 -1106h-116l12 82q-96 -107 -246 -107q-153 0 -235 98t-60 259l62 444q22 159 132 256.5t263 97.5
q145 0 217 -106zM729 776q15 109 -36 174.5t-158 65.5q-106 0 -178.5 -66.5t-86.5 -173.5l-63 -444q-14 -108 39.5 -174t156.5 -66q109 0 179.5 64.5t85.5 173.5z" />
    <glyph glyph-name="acircumflex.ss01" 
d="M623 1507l-177 -202h-124l266 292h94l182 -292h-123zM776 1106h117l-156 -1106h-116l12 82q-96 -107 -246 -107q-153 0 -235 98t-60 259l62 444q22 159 132 256.5t263 97.5q145 0 217 -106zM729 776q15 109 -36 174.5t-158 65.5q-106 0 -178.5 -66.5t-86.5 -173.5
l-63 -444q-14 -108 39.5 -174t156.5 -66q109 0 179.5 64.5t85.5 173.5z" />
    <glyph glyph-name="adieresis.ss01" 
d="M561 1597l-31 -223h-104l31 223h104zM821 1597l-30 -223h-103l31 223h102zM776 1106h117l-156 -1106h-116l12 82q-96 -107 -246 -107q-153 0 -235 98t-60 259l62 444q22 159 132 256.5t263 97.5q145 0 217 -106zM729 776q15 109 -36 174.5t-158 65.5q-106 0 -178.5 -66.5
t-86.5 -173.5l-63 -444q-14 -108 39.5 -174t156.5 -66q109 0 179.5 64.5t85.5 173.5z" />
    <glyph glyph-name="agrave.ss01" 
d="M637 1245h-90l-127 352h121zM776 1106h117l-156 -1106h-116l12 82q-96 -107 -246 -107q-153 0 -235 98t-60 259l62 444q22 159 132 256.5t263 97.5q145 0 217 -106zM729 776q15 109 -36 174.5t-158 65.5q-106 0 -178.5 -66.5t-86.5 -173.5l-63 -444q-14 -108 39.5 -174
t156.5 -66q109 0 179.5 64.5t85.5 173.5z" />
    <glyph glyph-name="amacron.ss01" 
d="M821 1393l-14 -99h-432l16 99h430zM776 1106h117l-156 -1106h-116l12 82q-96 -107 -246 -107q-153 0 -235 98t-60 259l62 444q22 159 132 256.5t263 97.5q145 0 217 -106zM729 776q15 109 -36 174.5t-158 65.5q-106 0 -178.5 -66.5t-86.5 -173.5l-63 -444
q-14 -108 39.5 -174t156.5 -66q109 0 179.5 64.5t85.5 173.5z" />
    <glyph glyph-name="aogonek.ss01" horiz-adv-x="940" 
d="M776 1106h117l-156 -1106h-41q-149 -114 -149 -219q0 -38 29.5 -59t82.5 -21h25l-14 -98h-29q-93 0 -146 40.5t-53 108.5q0 143 181 260l10 70q-96 -107 -246 -107q-153 0 -235 98t-60 259l62 444q22 159 132 256.5t263 97.5q145 0 217 -106zM729 776q15 109 -36 174.5
t-158 65.5q-106 0 -178.5 -66.5t-86.5 -173.5l-63 -444q-14 -108 39.5 -174t156.5 -66q109 0 179.5 64.5t85.5 173.5z" />
    <glyph glyph-name="aring.ss01" 
d="M578 1178q-64 0 -108 41t-44 104q0 83 60.5 143t140.5 60q65 0 109 -41.5t44 -108.5q0 -81 -60 -139.5t-142 -58.5zM614 1442q-40 0 -72 -32.5t-32 -72.5q0 -32 24.5 -53.5t55.5 -21.5q38 0 71 29t33 71q0 35 -24 57.5t-56 22.5zM776 1106h117l-156 -1106h-116l12 82
q-96 -107 -246 -107q-153 0 -235 98t-60 259l62 444q22 159 132 256.5t263 97.5q145 0 217 -106zM729 776q15 109 -36 174.5t-158 65.5q-106 0 -178.5 -66.5t-86.5 -173.5l-63 -444q-14 -108 39.5 -174t156.5 -66q109 0 179.5 64.5t85.5 173.5z" />
    <glyph glyph-name="atilde.ss01" 
d="M449 1329l-5 -26h-94l6 30q10 74 51 111t97 37q59 0 114 -51q5 -5 17.5 -16t18.5 -16t15.5 -11.5t18 -9.5t17.5 -3q23 0 38.5 22t18.5 50l4 35h92l-6 -43q-11 -74 -51 -110t-96 -36q-55 0 -109 43q-9 8 -25 22l-24 21t-19.5 13t-21.5 6q-24 0 -39 -20.5t-18 -47.5z
M776 1106h117l-156 -1106h-116l12 82q-96 -107 -246 -107q-153 0 -235 98t-60 259l62 444q22 159 132 256.5t263 97.5q145 0 217 -106zM729 776q15 109 -36 174.5t-158 65.5q-106 0 -178.5 -66.5t-86.5 -173.5l-63 -444q-14 -108 39.5 -174t156.5 -66q109 0 179.5 64.5
t85.5 173.5z" />
    <glyph glyph-name="y.ss02" horiz-adv-x="960" 
d="M768 1106h117l-158 -1124q-23 -159 -134 -258t-265 -99t-233 98t-64 259l2 22h117l-5 -22q-9 -110 42 -175t155 -65q106 0 179.5 66.5t88.5 173.5l33 241q-96 -104 -246 -104q-151 0 -233.5 97.5t-59.5 258.5l89 631h114l-88 -631q-14 -108 39.5 -173.5t157.5 -65.5
q109 0 179 64t85 173z" />
    <glyph glyph-name="yacute.ss02" horiz-adv-x="960" 
d="M825 1597l-223 -352h-90l193 352h120zM768 1106h117l-158 -1124q-23 -159 -134 -258t-265 -99t-233 98t-64 259l2 22h117l-5 -22q-9 -110 42 -175t155 -65q106 0 179.5 66.5t88.5 173.5l33 241q-96 -104 -246 -104q-151 0 -233.5 97.5t-59.5 258.5l89 631h114l-88 -631
q-14 -108 39.5 -173.5t157.5 -65.5q109 0 179 64t85 173z" />
    <glyph glyph-name="ycircumflex.ss02" horiz-adv-x="960" 
d="M594 1507l-176 -202h-125l266 292h94l183 -292h-123zM768 1106h117l-158 -1124q-23 -159 -134 -258t-265 -99t-233 98t-64 259l2 22h117l-5 -22q-9 -110 42 -175t155 -65q106 0 179.5 66.5t88.5 173.5l33 241q-96 -104 -246 -104q-151 0 -233.5 97.5t-59.5 258.5l89 631
h114l-88 -631q-14 -108 39.5 -173.5t157.5 -65.5q109 0 179 64t85 173z" />
    <glyph glyph-name="ydieresis.ss02" horiz-adv-x="960" 
d="M532 1597l-30 -223h-105l31 223h104zM793 1597l-31 -223h-103l31 223h103zM768 1106h117l-158 -1124q-23 -159 -134 -258t-265 -99t-233 98t-64 259l2 22h117l-5 -22q-9 -110 42 -175t155 -65q106 0 179.5 66.5t88.5 173.5l33 241q-96 -104 -246 -104q-151 0 -233.5 97.5
t-59.5 258.5l89 631h114l-88 -631q-14 -108 39.5 -173.5t157.5 -65.5q109 0 179 64t85 173z" />
    <glyph glyph-name="longs_t" horiz-adv-x="1226" 
d="M145 0l140 995h-207l14 111h207l10 74q23 167 135 271.5t269 104.5h65l-16 -116h-66q-106 0 -180.5 -71.5t-89.5 -188.5l-164 -1180h-117zM1042 -12q-158 0 -239 103.5t-58 273.5l89 632h-203l14 111h205l41 285h115l-41 -285h295l-15 -111h-295l-88 -632
q-17 -118 37.5 -189.5t159.5 -71.5h63l-18 -116h-62z" />
    <glyph glyph-name="zero.tf" horiz-adv-x="983" 
d="M633 1569q155 0 238.5 -105t58.5 -274l-119 -844q-25 -170 -135.5 -274.5t-265.5 -104.5q-156 0 -238 104.5t-57 274.5l118 844q25 170 135 274.5t265 104.5zM231 346q-12 -88 17 -156l493 1223q-51 39 -123 39q-105 0 -179 -72t-89 -190zM813 1190q12 89 -16 153
l-496 -1222q53 -37 125 -37q102 0 176.5 72t91.5 190z" />
    <glyph glyph-name="one.tf" horiz-adv-x="983" 
d="M8 0l17 117h346l157 1126h-227l16 117h29q93 0 150 41t69 112l4 23h117l-199 -1419h349l-19 -117h-809z" />
    <glyph glyph-name="two.tf" horiz-adv-x="985" 
d="M631 1569q167 0 254.5 -105t64.5 -274l-16 -123q-10 -72 -54 -145t-107.5 -137t-139 -128t-151 -127.5t-139.5 -126t-109 -133.5t-56 -139l-2 -14h627l-19 -117h-745l12 90q13 91 60 178t112 156.5t141.5 135.5t152 127.5t139.5 120.5t108 126t53 133l17 123
q17 118 -44 190t-176 72q-114 0 -194.5 -72t-97.5 -190l-7 -41h-116l6 41q26 171 142.5 275t283.5 104z" />
    <glyph glyph-name="three.tf" horiz-adv-x="983" 
d="M610 1569q163 0 250 -104.5t62 -274.5l-13 -86q-17 -106 -68 -188.5t-130 -129.5q67 -49 95 -132.5t13 -190.5l-16 -117q-25 -170 -139 -274.5t-277 -104.5q-162 0 -249.5 105t-61.5 274l6 43h117l-6 -43q-19 -117 40.5 -189.5t169.5 -72.5q109 0 187.5 72t95.5 190
l16 117q17 118 -40 190t-168 72h-111l16 117h111q109 0 187.5 72t95.5 190l12 86q17 118 -40.5 190t-168.5 72t-189.5 -72t-95.5 -190l-6 -41h-117l7 41q26 171 140 275t275 104z" />
    <glyph glyph-name="four.tf" horiz-adv-x="985" 
d="M764 471h149l-16 -115h-152l-49 -356h-116l49 356h-598l18 113l733 1067h127zM647 471l121 875l-600 -875h479z" />
    <glyph glyph-name="five.tf" horiz-adv-x="983" 
d="M985 1419h-592l-69 -504q98 115 254 115q159 0 242.5 -104.5t58.5 -274.5l-43 -305q-25 -171 -137 -275t-271 -104q-158 0 -242.5 105t-58.5 274l6 43h117l-6 -43q-19 -117 38 -189.5t162 -72.5q107 0 183.5 72t91.5 190l43 305q17 119 -40.5 190.5t-172.5 71.5
q-100 0 -171.5 -71t-90.5 -189l-4 -24h-117l127 907h708z" />
    <glyph glyph-name="six.tf" horiz-adv-x="983" 
d="M643 1569q157 0 241 -105t58 -274l-6 -41h-117l6 41q19 117 -36.5 189.5t-159.5 72.5q-106 0 -182 -72t-91 -190l-39 -275q98 115 252 115q156 0 239 -104.5t58 -274.5l-43 -305q-25 -170 -135.5 -274.5t-267.5 -104.5t-240.5 104.5t-58.5 274.5l119 844
q25 170 135.5 274.5t267.5 104.5zM541 913q-102 0 -173.5 -71t-86.5 -189l-43 -307q-17 -119 37 -190.5t161 -71.5q103 0 178.5 72t92.5 190l43 305q17 119 -40 190.5t-169 71.5z" />
    <glyph glyph-name="seven.tf" horiz-adv-x="985" 
d="M231 1536h775l-15 -98l-639 -1438h-127l629 1419h-639z" />
    <glyph glyph-name="eight.tf" horiz-adv-x="983" 
d="M633 1569q159 0 243.5 -104.5t59.5 -274.5l-12 -86q-17 -108 -68.5 -190.5t-128.5 -129.5q137 -106 107 -321l-17 -117q-25 -170 -137 -274.5t-270 -104.5t-242 105t-59 274l16 117q35 221 197 321q-65 47 -94.5 129t-12.5 191l12 86q25 170 137 274.5t269 104.5z
M819 1190q17 118 -39 190t-162 72q-105 0 -181 -72t-93 -190l-12 -86q-17 -118 38.5 -190t161.5 -72q105 0 181.5 72t93.5 190zM717 463q17 118 -39 190t-162 72q-105 0 -181 -72t-93 -190l-17 -117q-17 -118 39 -190t162 -72q105 0 181 72t93 190z" />
    <glyph glyph-name="nine.tf" horiz-adv-x="983" 
d="M625 1569q156 0 240 -105t59 -274l-119 -844q-25 -170 -136 -274.5t-268 -104.5q-158 0 -241.5 105t-57.5 274l7 43h116l-6 -43q-19 -118 37 -190t162 -72q104 0 179.5 72.5t90.5 189.5l39 275q-47 -54 -112.5 -84.5t-139.5 -30.5q-156 0 -239 104.5t-58 274.5l43 305
q25 170 136 274.5t268 104.5zM807 1190q17 118 -38 190t-159 72q-106 0 -181.5 -72t-90.5 -190l-43 -305q-17 -119 39.5 -190.5t169.5 -71.5q101 0 173 71.5t87 188.5z" />
    <glyph glyph-name="zero.dnom" horiz-adv-x="645" 
d="M377 942q97 0 148.5 -63t37.5 -164l-71 -508q-13 -101 -83 -164t-167 -63t-148.5 63t-38.5 164l72 508q13 101 83 164t167 63zM150 207q-3 -25 0 -43l280 663q-28 21 -65 21q-54 0 -94.5 -36t-49.5 -97zM469 715q3 21 0 39l-281 -660q26 -20 68 -20q53 0 92.5 36t48.5 97
z" />
    <glyph glyph-name="one.dnom" horiz-adv-x="368" 
d="M74 0l100 721h-125l12 94h23q48 0 79.5 24.5t37.5 67.5l2 15h94l-129 -922h-94z" />
    <glyph glyph-name="two.dnom" horiz-adv-x="559" 
d="M-20 0l10 80q8 56 33.5 107t61.5 90t77.5 75.5t82.5 69.5t76 65t59.5 68.5t29.5 73.5l12 86q9 58 -21 95.5t-86 37.5q-53 0 -93.5 -37.5t-47.5 -95.5l-4 -31h-94l4 31q13 101 82.5 164t165.5 63q98 0 150.5 -63t37.5 -164l-12 -86q-9 -60 -50.5 -118.5t-97 -106.5
t-111 -94t-99 -99.5t-54.5 -106.5l-2 -10h340l-14 -94h-436z" />
    <glyph glyph-name="three.dnom" horiz-adv-x="589" 
d="M195 -20q-97 0 -148.5 63t-38.5 164l4 31h94l-4 -31q-8 -59 22 -96t85 -37t93.5 37t47.5 96l12 86q9 58 -20.5 95.5t-83.5 37.5h-74l13 94h73q55 0 96 36.5t48 96.5l8 62q8 59 -21 96t-84 37q-54 0 -95 -37.5t-48 -95.5l-4 -31h-94l4 31q14 101 83 164t167 63
q96 0 147 -62.5t37 -164.5l-8 -62q-16 -123 -105 -182q72 -65 56 -178l-13 -86q-15 -101 -83.5 -164t-165.5 -63z" />
    <glyph glyph-name="four.dnom" horiz-adv-x="589" 
d="M281 0l28 199h-344l12 88l433 635h94l-88 -629h84l-13 -94h-84l-28 -199h-94zM76 293h246l63 461z" />
    <glyph glyph-name="five.dnom" horiz-adv-x="624" 
d="M246 -20q-97 0 -148.5 63t-38.5 164l4 31h95l-4 -31q-8 -59 21.5 -96t84.5 -37q54 0 94 37.5t47 95.5l25 180q9 61 -21 97t-88 36q-55 0 -92.5 -36t-46.5 -95l-2 -14h-94l78 547h428l-13 -95h-333l-39 -270q54 57 135 57q95 0 145 -62t37 -165l-24 -180
q-13 -101 -83 -164t-167 -63z" />
    <glyph glyph-name="six.dnom" horiz-adv-x="632" 
d="M242 -20q-97 0 -148.5 63t-38.5 164l72 508q13 101 83 164t167 63q96 0 147.5 -63t38.5 -164l-4 -31h-94l4 31q8 59 -21 96t-83 37q-55 0 -95 -37t-49 -96l-22 -158q54 57 135 57q95 0 145 -62t37 -165l-24 -180q-13 -101 -83 -164t-167 -63zM256 74q54 0 94 37.5
t47 95.5l25 180q9 61 -21 97t-88 36q-54 0 -93 -36.5t-46 -94.5l-24 -182q-8 -59 21.5 -96t84.5 -37z" />
    <glyph glyph-name="seven.dnom" horiz-adv-x="450" 
d="M14 0l351 827h-328l12 95h428l-12 -84l-350 -838h-101z" />
    <glyph glyph-name="eight.dnom" horiz-adv-x="630" 
d="M236 -20q-97 0 -149.5 63t-37.5 164l12 84q19 120 107 180q-75 62 -57 180l10 64q15 99 83 163t167 64q95 0 149 -62t37 -165l-10 -64q-20 -122 -105 -180q73 -66 56 -180l-13 -84q-15 -101 -83.5 -164t-165.5 -63zM311 518q55 0 94 36.5t48 96.5l10 64q9 59 -20.5 96
t-84.5 37q-54 0 -94 -37t-49 -96l-10 -64q-9 -60 20 -96.5t86 -36.5zM250 74q55 0 93.5 37t47.5 96l12 84q9 60 -20.5 96.5t-83.5 36.5q-56 0 -95 -36.5t-48 -96.5l-13 -84q-9 -58 22 -95.5t85 -37.5z" />
    <glyph glyph-name="nine.dnom" horiz-adv-x="634" 
d="M231 -20q-97 0 -148.5 63t-37.5 164l4 31h94l-4 -31q-8 -59 22 -96t85 -37t93.5 37t47.5 96l23 158q-55 -58 -136 -58q-95 0 -147 63t-37 165l27 180q15 102 83.5 164.5t166.5 62.5q97 0 148.5 -63t37.5 -164l-72 -508q-13 -101 -83 -164t-167 -63zM295 401q55 0 91.5 36
t45.5 95l27 183q9 58 -21 95.5t-84 37.5q-56 0 -95 -37t-48 -96l-27 -180q-9 -60 22.5 -97t88.5 -37z" />
    <glyph glyph-name="zero.numr" horiz-adv-x="645" 
d="M463 1556q97 0 148.5 -63t37.5 -164l-71 -508q-13 -101 -83 -164t-167 -63t-148.5 63t-38.5 164l72 508q13 101 83 164t167 63zM236 821q-3 -25 0 -43l280 664q-27 20 -65 20q-54 0 -94.5 -36t-49.5 -97zM555 1329q3 21 0 39l-281 -659q27 -21 68 -21q53 0 92.5 36
t48.5 97z" />
    <glyph glyph-name="one.numr" horiz-adv-x="368" 
d="M160 614l104 742h-125l13 94h22q48 0 79.5 24.5t37.5 67.5l2 14h94l-133 -942h-94z" />
    <glyph glyph-name="two.numr" horiz-adv-x="561" 
d="M68 614l10 80q8 56 33.5 107t61.5 90t77.5 75.5t82.5 69.5t76 64.5t59.5 67.5t29.5 73l12 88q9 58 -21 95.5t-86 37.5q-53 0 -93.5 -37.5t-47.5 -95.5l-4 -31h-94l4 31q13 101 82.5 164t165.5 63q98 0 150 -63t38 -164l-12 -88q-6 -44 -30 -86.5t-58.5 -78.5t-74.5 -70.5
t-80.5 -68.5t-75 -67.5t-60 -72.5t-33.5 -78l-2 -10h340l-14 -95h-436z" />
    <glyph glyph-name="three.numr" horiz-adv-x="591" 
d="M283 594q-98 0 -149.5 62.5t-37.5 164.5l4 31h95l-5 -31q-8 -59 22 -96t85 -37t93.5 37t47.5 96l13 86q9 58 -21 95.5t-84 37.5h-74l13 95h73q55 0 96 36.5t48 96.5l8 61q8 60 -20 96.5t-84 36.5q-54 0 -95.5 -37.5t-48.5 -95.5l-4 -31h-94l4 31q14 101 83 164t167 63
q96 0 147 -62.5t37 -164.5l-8 -61q-16 -124 -105 -183q72 -65 56 -178l-13 -86q-15 -101 -83.5 -164t-165.5 -63z" />
    <glyph glyph-name="four.numr" horiz-adv-x="589" 
d="M367 614l28 199h-344l12 88l433 635h94l-88 -629h84l-13 -94h-84l-28 -199h-94zM162 907h246l63 461z" />
    <glyph glyph-name="five.numr" horiz-adv-x="624" 
d="M332 594q-97 0 -148.5 63t-38.5 164l5 31h94l-4 -31q-8 -59 21.5 -96t84.5 -37q54 0 94 37.5t47 95.5l25 180q9 61 -21.5 97.5t-87.5 36.5q-55 0 -92.5 -36t-46.5 -95l-2 -15h-94l78 547h428l-12 -94h-334l-39 -271q55 58 135 58q95 0 145 -62.5t37 -165.5l-24 -180
q-13 -101 -83 -164t-167 -63z" />
    <glyph glyph-name="six.numr" horiz-adv-x="632" 
d="M328 594q-97 0 -148.5 63t-38.5 164l72 508q13 101 83 164t167 63q96 0 147.5 -63t38.5 -164l-4 -31h-94l4 31q8 59 -21 96t-83 37q-56 0 -95.5 -37t-48.5 -96l-22 -158q55 58 135 58q95 0 145 -62.5t37 -165.5l-24 -180q-13 -101 -83 -164t-167 -63zM342 688
q54 0 94 37.5t47 95.5l25 180q9 61 -21.5 97.5t-87.5 36.5q-54 0 -93 -36.5t-46 -94.5l-24 -183q-8 -59 21.5 -96t84.5 -37z" />
    <glyph glyph-name="seven.numr" horiz-adv-x="450" 
d="M100 614l351 828h-328l12 94h428l-12 -84l-350 -838h-101z" />
    <glyph glyph-name="eight.numr" horiz-adv-x="630" 
d="M322 594q-97 0 -149.5 63t-37.5 164l12 84q19 120 107 180q-75 62 -57 181l10 63q15 99 83 163t167 64q95 0 149 -62t37 -165l-10 -63q-20 -123 -105 -181q73 -66 56 -180l-13 -84q-15 -101 -83.5 -164t-165.5 -63zM397 1133q55 0 94 36.5t48 96.5l10 63q9 58 -21 95.5
t-84 37.5t-94 -37t-49 -96l-10 -63q-9 -60 20 -96.5t86 -36.5zM336 688q54 0 93 37t48 96l12 84q9 60 -20.5 96.5t-83.5 36.5q-56 0 -95 -36.5t-48 -96.5l-13 -84q-9 -58 22 -95.5t85 -37.5z" />
    <glyph glyph-name="nine.numr" horiz-adv-x="634" 
d="M317 594q-97 0 -148.5 63t-37.5 164l4 31h94l-4 -31q-8 -59 22 -96t85 -37t93.5 37t47.5 96l23 158q-54 -57 -136 -57q-95 0 -147 62.5t-37 164.5l27 180q15 102 83.5 164.5t166.5 62.5q97 0 148.5 -63t37.5 -164l-72 -508q-13 -101 -83 -164t-167 -63zM381 1016
q56 0 92 35.5t45 95.5l27 182q9 58 -21 95.5t-84 37.5q-56 0 -95 -37t-48 -96l-27 -180q-9 -60 22.5 -96.5t88.5 -36.5z" />
    <glyph glyph-name="acute.case" horiz-adv-x="411" 
d="M178 1245l193 352h121l-224 -352h-90z" />
    <glyph glyph-name="breve.case" horiz-adv-x="651" 
d="M473 1372q-90 0 -143.5 59.5t-38.5 151.5l2 14h88l-2 -14q-7 -58 22 -92.5t82 -34.5t94 35t48 92l2 14h88l-2 -14q-13 -93 -81 -152t-159 -59z" />
    <glyph glyph-name="caron.case" horiz-adv-x="643" 
d="M414 1305l-183 292h123l121 -202l174 202h123l-264 -292h-94z" />
    <glyph glyph-name="circumflex.case" horiz-adv-x="643" 
d="M190 1305l267 292h94l182 -292h-123l-118 202l-177 -202h-125z" />
    <glyph glyph-name="dieresis.case" horiz-adv-x="673" 
d="M303 1374l31 223h104l-30 -223h-105zM565 1374l31 223h102l-30 -223h-103z" />
    <glyph glyph-name="dotaccent.case" horiz-adv-x="411" 
d="M293 1313l31 223h104l-31 -223h-104z" />
    <glyph glyph-name="grave.case" horiz-adv-x="411" 
d="M373 1245l-127 352h121l96 -352h-90z" />
    <glyph glyph-name="hungarumlaut.case" horiz-adv-x="679" 
d="M209 1245l192 352h121l-223 -352h-90zM477 1245l195 352h121l-226 -352h-90z" />
    <glyph glyph-name="macron.case" horiz-adv-x="739" 
d="M293 1536h430l-14 -98h-433z" />
    <glyph glyph-name="ring.case" horiz-adv-x="587" 
d="M424 1249q-64 0 -108 41t-44 105q0 82 60.5 142t140.5 60q65 0 109.5 -41t44.5 -108q0 -81 -60.5 -140t-142.5 -59zM436 1333q38 0 71.5 29.5t33.5 71.5q0 35 -24 57t-56 22q-40 0 -72.5 -32t-32.5 -72q0 -32 24.5 -54t55.5 -22z" />
    <glyph glyph-name="tilde.case" horiz-adv-x="753" 
d="M645 1409q-54 0 -108 43q-8 7 -25 22t-24.5 21t-19.5 12t-22 6q-24 0 -39 -20t-18 -47l-4 -27h-94l6 31q10 74 50.5 110.5t96.5 36.5q60 0 115 -51q5 -5 17 -16t18 -15.5t15.5 -11.5t18 -9.5t17.5 -2.5q23 0 38.5 22t18.5 50l5 34h92l-6 -43q-11 -74 -51.5 -109.5
t-96.5 -35.5z" />
    <glyph glyph-name="caron.salt" horiz-adv-x="421" 
d="M188 1104l142 432h116l-141 -432h-117z" />
    </font>
</defs>
</svg>
