<svg xmlns="http://www.w3.org/2000/svg" width="18.37" height="15.5" viewBox="0 0 18.37 15.5">
  <path id="chart-bar-light" d="M145.766,110.5h.151a.454.454,0,0,0,.453-.453V96.453a.454.454,0,0,0-.453-.453h-.151a.454.454,0,0,0-.453.453v13.594A.454.454,0,0,0,145.766,110.5Zm-5.437,0h.151a.454.454,0,0,0,.453-.453v-8.156a.454.454,0,0,0-.453-.453h-.151a.454.454,0,0,0-.453.453v8.156A.454.454,0,0,0,140.328,110.5Zm-10.875,0h.151a.454.454,0,0,0,.453-.453v-4.531a.454.454,0,0,0-.453-.453h-.151a.454.454,0,0,0-.453.453v4.531A.454.454,0,0,0,129.453,110.5Zm5.437,0h.151a.454.454,0,0,0,.453-.453V98.266a.454.454,0,0,0-.453-.453h-.151a.454.454,0,0,0-.453.453v11.781A.454.454,0,0,0,134.891,110.5Z" transform="translate(-128.5 -95.5)" fill="#fff" stroke="#fff9f9" stroke-width="1"/>
</svg>
