<svg version="1.2" baseProfile="tiny-ps" xmlns="http://www.w3.org/2000/svg" viewBox="0 0 26 32" width="26" height="32">
	<title>delete_black_24dp-svg</title>
	<style>
		tspan { white-space:pre }
		.shp0 { fill: none } 
		.shp1 { fill: #fe5d1f } 
	</style>
	<path id="Path_1365" class="shp0" d="M-8 -5L33.94 -5L33.94 36.94L-8 36.94L-8 -5Z" />
	<path id="Path_1366" fill-rule="evenodd" class="shp1" d="M23.45 28.2C23.45 28.66 23.36 29.11 23.19 29.54C23.01 29.96 22.75 30.35 22.43 30.67C22.1 30.99 21.72 31.25 21.29 31.43C20.87 31.6 20.42 31.69 19.96 31.7L5.98 31.7C5.52 31.69 5.07 31.6 4.64 31.43C4.22 31.25 3.83 30.99 3.51 30.67C3.19 30.35 2.93 29.96 2.75 29.54C2.58 29.11 2.49 28.66 2.48 28.2L2.48 7.23L23.45 7.23L23.45 28.2ZM19.09 1.99L25.2 1.99L25.2 5.48L0.74 5.48L0.74 1.99L6.85 1.99L8.6 0.24L17.34 0.24L19.09 1.99ZM5.98 10.73L5.98 28.2L19.96 28.2L19.96 10.73L5.98 10.73Z" />
</svg>