<svg xmlns="http://www.w3.org/2000/svg" width="16.923" height="17.582" viewBox="0 0 16.923 17.582"><defs><style>.a{fill:#fe5d1f;}.b{fill:none;stroke:#fe5d1f;stroke-linecap:round;stroke-linejoin:round;}</style></defs><g transform="translate(-599.077 -852.716)"><g transform="translate(599.077 852.716)"><g transform="translate(0)"><g transform="translate(0 0)"><g transform="translate(0 0)"><g transform="translate(4.084 12.998)"><path class="a" d="M-180.7,697.2a2.2,2.2,0,0,0-2.2,2.2,2.2,2.2,0,0,0,2.2,2.2,2.2,2.2,0,0,0,2.2-2.2A2.2,2.2,0,0,0-180.7,697.2Zm0,3.073a.879.879,0,0,1-.879-.879.88.88,0,0,1,.879-.879.879.879,0,0,1,.879.879A.88.88,0,0,1-180.7,700.274Z" transform="translate(182.996 -697.104)"/><path class="a" d="M-190.608,691.784a2.3,2.3,0,0,1-2.292-2.292,2.293,2.293,0,0,1,2.292-2.291,2.293,2.293,0,0,1,2.291,2.292A2.293,2.293,0,0,1-190.608,691.784Zm0-4.391a2.1,2.1,0,0,0-2.1,2.1,2.1,2.1,0,0,0,2.1,2.1,2.1,2.1,0,0,0,2.1-2.1A2.1,2.1,0,0,0-190.608,687.393Zm0,3.074a.976.976,0,0,1-.975-.975.975.975,0,0,1,.975-.975.975.975,0,0,1,.975.975A.976.976,0,0,1-190.608,690.466Zm0-1.756a.784.784,0,0,0-.782.782.784.784,0,0,0,.782.782.784.784,0,0,0,.782-.782A.784.784,0,0,0-190.608,688.71Z" transform="translate(192.9 -687.2)"/></g><g transform="translate(10.583 12.997)"><path class="a" d="M494.6,697.2a2.2,2.2,0,1,0,2.2,2.2A2.2,2.2,0,0,0,494.6,697.2Zm0,3.073a.879.879,0,1,1,.879-.879A.879.879,0,0,1,494.6,700.274Z" transform="translate(-492.304 -697.103)"/><path class="a" d="M484.692,691.684a2.292,2.292,0,1,1,2.292-2.291A2.295,2.295,0,0,1,484.692,691.684Zm0-4.391a2.1,2.1,0,1,0,2.1,2.1A2.1,2.1,0,0,0,484.692,687.293Zm0,3.074a.975.975,0,1,1,.975-.975A.976.976,0,0,1,484.692,690.367Zm0-1.756a.782.782,0,1,0,.782.782A.784.784,0,0,0,484.692,688.611Z" transform="translate(-482.4 -687.1)"/></g><path class="a" d="M-590.742-649.169a.659.659,0,0,0-.516-.248h-11.533l-.6-3.026a.659.659,0,0,0-.527-.52l-2.635-.483a.658.658,0,0,0-.767.529.659.659,0,0,0,.529.767l2.194.4,1.933,9.77a.659.659,0,0,0,.646.531h9.222a.659.659,0,0,0,.642-.511l1.537-6.652A.661.661,0,0,0-590.742-649.169Zm-2.576,6.4h-8.157l-1.056-5.335h10.445Z" transform="translate(607.426 653.553)"/><path class="a" d="M-602.685-651.314h-9.221a.758.758,0,0,1-.741-.608l-1.92-9.706-2.13-.391a.752.752,0,0,1-.485-.314.749.749,0,0,1-.121-.565.752.752,0,0,1,.314-.485.749.749,0,0,1,.565-.121l2.635.483a.749.749,0,0,1,.6.6l.583,2.948h11.454a.752.752,0,0,1,.591.285h0a.747.747,0,0,1,.144.64l-1.536,6.652A.752.752,0,0,1-602.685-651.314Zm-13.878-12.01a.556.556,0,0,0-.318.1.56.56,0,0,0-.234.362.557.557,0,0,0,.09.421.56.56,0,0,0,.362.234l2.259.414,1.946,9.834a.563.563,0,0,0,.551.453h9.222a.558.558,0,0,0,.548-.436l1.537-6.652a.557.557,0,0,0-.108-.476h0a.56.56,0,0,0-.44-.213H-612.76l-.614-3.1a.558.558,0,0,0-.45-.444l-2.635-.483A.633.633,0,0,0-616.562-663.323Zm13.43,10.692h-8.311l-1.093-5.528h10.682Zm-8.154-.193h8l1.188-5.143H-612.3Z" transform="translate(617.316 663.516)"/></g></g></g><g transform="translate(8.462 6.728)"><path class="b" d="M18,7.5v2.888" transform="translate(-16.556 -7.5)"/><path class="b" d="M7.5,18h2.888" transform="translate(-7.5 -16.556)"/></g></g></g></svg>