<svg xmlns="http://www.w3.org/2000/svg" width="28.125" height="25" viewBox="0 0 28.125 25">
  <g id="Group_192" data-name="Group 192" transform="translate(-3 -4)">
    <g id="Group_191" data-name="Group 191" transform="translate(3 4)">
      <path id="Path_88" data-name="Path 88" d="M17.25,16,11,22.25H26.625V16Z" transform="translate(1.5 2.75)" fill="#fe5717"/>
      <path id="Path_89" data-name="Path 89" d="M17.156,7.19,3,21.346v5.859H8.859L23.016,13.049ZM7.563,24.081H6.125V22.643L17.156,11.612l1.438,1.438Z" transform="translate(-3 -2.206)" fill="#fe5717"/>
      <path id="Path_90" data-name="Path 90" d="M21.849,10.313a1.556,1.556,0,0,0,0-2.2L18.192,4.453A1.534,1.534,0,0,0,17.083,4a1.564,1.564,0,0,0-1.094.453L13.13,7.313l5.859,5.859Z" transform="translate(2.698 -4)" fill="#fe5717"/>
    </g>
  </g>
</svg>
