<svg xmlns="http://www.w3.org/2000/svg" width="24" height="24" viewBox="0 0 24 24">
  <g id="share" transform="translate(-3183 -22.75)">
    <g id="Ellipse_423" data-name="Ellipse 423" transform="translate(3183 22.75)" fill="none" stroke="#7dbd3b" stroke-width="1">
      <circle cx="12" cy="12" r="12" stroke="none"/>
      <circle cx="12" cy="12" r="11.5" fill="none"/>
    </g>
    <path id="share-alt-light_1_" data-name="share-alt-light (1)" d="M7.425,6.75a2.02,2.02,0,0,0-1.515.681L3.9,6.172a2.028,2.028,0,0,0,0-1.544L5.91,3.369A2.008,2.008,0,1,0,5.552,2.8L3.537,4.056a2.024,2.024,0,1,0,0,2.687L5.554,8a2,2,0,0,0-.152.772A2.025,2.025,0,1,0,7.425,6.75Zm0-6.075a1.35,1.35,0,1,1-1.35,1.35A1.351,1.351,0,0,1,7.425.675ZM2.025,6.75A1.35,1.35,0,1,1,3.375,5.4,1.351,1.351,0,0,1,2.025,6.75Zm5.4,3.375a1.35,1.35,0,1,1,1.35-1.35A1.351,1.351,0,0,1,7.425,10.125Z" transform="translate(3190.087 29.35)" fill="#7dbd3b"/>
  </g>
</svg>
