<svg xmlns="http://www.w3.org/2000/svg" width="42.639" height="34.112" viewBox="0 0 42.639 34.112">
  <path id="Path_992" data-name="Path 992" d="M33.172,15.052,19.049.93A3.2,3.2,0,0,0,16.787,0H3.2A3.2,3.2,0,0,0,0,3.2V16.787a3.2,3.2,0,0,0,.935,2.262L15.058,33.172a3.2,3.2,0,0,0,4.53,0L33.177,19.582a3.2,3.2,0,0,0,0-4.53ZM7.461,10.658a3.2,3.2,0,1,1,3.2-3.2A3.2,3.2,0,0,1,7.461,10.658ZM41.7,19.574,28.109,33.164a3.2,3.2,0,0,1-4.53,0l-.024-.016L35.149,21.554a6,6,0,0,0,0-8.479L22.076,0h3.237a3.2,3.2,0,0,1,2.262.935L41.7,15.058a3.2,3.2,0,0,1,0,4.53Z" fill="#7dbd3b"/>
</svg>
