<svg xmlns="http://www.w3.org/2000/svg" width="51.145" height="34.112" viewBox="0 0 51.145 34.112">
  <path id="Path_991" data-name="Path 991" d="M50.839,79.759A28.49,28.49,0,0,0,25.576,64,28.5,28.5,0,0,0,.312,79.759a2.878,2.878,0,0,0,0,2.594A28.49,28.49,0,0,0,25.576,98.112,28.5,28.5,0,0,0,50.839,82.353,2.878,2.878,0,0,0,50.839,79.759ZM25.576,93.846A12.792,12.792,0,1,1,38.367,81.055,12.792,12.792,0,0,1,25.576,93.846Zm0-21.321a8.468,8.468,0,0,0-2.239.336,4.25,4.25,0,0,1-5.951,5.945,8.51,8.51,0,1,0,8.19-6.277Z" transform="translate(-0.003 -64)" fill="#7cbc39"/>
</svg>
